<svg width="32" height="32" viewBox="0 0 32 32" fill="none" xmlns="http://www.w3.org/2000/svg">
<path fill-rule="evenodd" clip-rule="evenodd" d="M9.59994 13.5438C9.59994 13.5443 9.59994 13.5449 9.59994 13.5454L9.60018 13.6C9.60187 13.9984 9.31016 14.3373 8.91595 14.395C6.60261 14.7333 4.79995 16.7766 4.79995 19.2727C4.79995 22.011 6.96584 24.1999 9.59995 24.1999L9.60808 24.1999H23.2C25.3922 24.1999 27.1999 22.3773 27.1999 20.0909C27.1999 17.8044 25.3922 15.9818 23.2 15.9818C23.1501 15.9818 23.1004 15.9827 23.051 15.9846C21.5789 16.04 20.3008 16.9139 19.651 18.1932C19.4509 18.5871 18.9693 18.7442 18.5754 18.5441C18.1815 18.3441 18.0244 17.8625 18.2245 17.4686C18.7529 16.4283 19.5888 15.5713 20.6123 15.0265C20.7346 14.5548 20.7999 14.0585 20.7999 13.5454C20.7999 10.3552 18.2759 7.79995 15.1999 7.79995C12.1245 7.79995 9.60081 10.3544 9.59994 13.5438ZM22.9971 14.3854C22.7765 14.3934 22.5593 14.4144 22.3461 14.4477C22.3817 14.1518 22.3999 13.8506 22.3999 13.5454C22.3999 9.50567 19.1932 6.19995 15.1999 6.19995C11.4064 6.19995 8.32275 9.18319 8.02372 12.945C5.24081 13.6634 3.19995 16.2338 3.19995 19.2727C3.19995 22.8605 6.04848 25.7999 9.59995 25.7999L9.60939 25.7999L23.2 25.7999C26.3096 25.7999 28.7999 23.2269 28.7999 20.0909C28.7999 16.9549 26.3096 14.3818 23.2 14.3818C23.132 14.3818 23.0644 14.383 22.9971 14.3854Z" fill="#272A35"/>
</svg>
