<svg width="32" height="32" viewBox="0 0 32 32" fill="none" xmlns="http://www.w3.org/2000/svg">
<path fill-rule="evenodd" clip-rule="evenodd" d="M16.1917 6.67698C18.8472 4.02142 23.1528 4.02141 25.8083 6.67698C28.4639 9.33254 28.4639 13.6381 25.8083 16.2936L22.6971 19.4049C22.3846 19.7173 21.8781 19.7173 21.5657 19.4049C21.2533 19.0925 21.2533 18.5859 21.5657 18.2735L24.677 15.1623C26.7077 13.1315 26.7077 9.83908 24.677 7.80835C22.6462 5.77762 19.3538 5.77763 17.323 7.80835L14.2118 10.9196C13.8994 11.232 13.3928 11.232 13.0804 10.9196C12.768 10.6072 12.768 10.1007 13.0804 9.78825L16.1917 6.67698ZM21.2121 11.2732C21.5246 11.5856 21.5246 12.0921 21.2121 12.4045L12.0197 21.5969C11.7073 21.9094 11.2008 21.9093 10.8884 21.5969C10.576 21.2845 10.576 20.778 10.8884 20.4656L20.0808 11.2732C20.3932 10.9608 20.8997 10.9608 21.2121 11.2732ZM10.5348 13.4652C10.8472 13.7776 10.8472 14.2842 10.5348 14.5966L7.42355 17.7078C5.39283 19.7386 5.39283 23.031 7.42355 25.0618C9.45428 27.0925 12.7467 27.0925 14.7775 25.0618L17.8887 21.9505C18.2011 21.6381 18.7077 21.6381 19.0201 21.9505C19.3325 22.2629 19.3325 22.7694 19.0201 23.0819L15.9088 26.1931C13.2533 28.8487 8.94775 28.8487 6.29218 26.1931C3.63661 23.5376 3.63662 19.232 6.29218 16.5765L9.40345 13.4652C9.71587 13.1528 10.2224 13.1528 10.5348 13.4652Z" fill="#272A35"/>
</svg>
