<svg width="40" height="40" viewBox="0 0 40 40" fill="none" xmlns="http://www.w3.org/2000/svg">
<path fill-rule="evenodd" clip-rule="evenodd" d="M27.3333 12C27.3333 11.4477 27.781 11 28.3333 11H35C35.5523 11 36 11.4477 36 12V18.4C36 18.9523 35.5523 19.4 35 19.4C34.4477 19.4 34 18.9523 34 18.4V14.3462L23.7443 24.1917C22.5834 25.3062 20.75 25.3062 19.5891 24.1917L15.6925 20.451C15.3056 20.0796 14.6944 20.0796 14.3075 20.451L5.69253 28.7214C5.29412 29.1039 4.66109 29.0909 4.27861 28.6925C3.89614 28.2941 3.90906 27.6611 4.30747 27.2786L12.9224 19.0083C14.0833 17.8938 15.9167 17.8938 17.0776 19.0083L20.9741 22.749C21.3611 23.1204 21.9722 23.1204 22.3592 22.749L32.5144 13H28.3333C27.781 13 27.3333 12.5523 27.3333 12Z" fill="#272A35"/>
</svg>
