<svg width="40" height="40" viewBox="0 0 40 40" fill="none" xmlns="http://www.w3.org/2000/svg">
<path fill-rule="evenodd" clip-rule="evenodd" d="M21.8889 6.78239C20.8457 5.7392 19.1543 5.7392 18.1111 6.78239L6.7824 18.1111C5.7392 19.1543 5.7392 20.8457 6.78239 21.8889L18.1111 33.2176C19.1543 34.2608 20.8457 34.2608 21.8889 33.2176L33.2176 21.8889C34.2608 20.8457 34.2608 19.1543 33.2176 18.1111L21.8889 6.78239ZM16.6969 5.36818C18.5212 3.54394 21.4788 3.54394 23.3031 5.36818L34.6318 16.6969C36.4561 18.5212 36.4561 21.4788 34.6318 23.3031L23.3031 34.6318C21.4788 36.4561 18.5212 36.4561 16.6969 34.6318L5.36818 23.3031C3.54394 21.4788 3.54394 18.5212 5.36818 16.6969L16.6969 5.36818ZM22.3523 14.7038C22.7428 14.3133 23.376 14.3133 23.7665 14.7038L26.7516 17.689C27.859 18.7963 27.859 20.5918 26.7516 21.6992L23.7665 24.6843C23.376 25.0748 22.7428 25.0748 22.3523 24.6843C21.9618 24.2938 21.9618 23.6606 22.3523 23.2701L24.9283 20.694H15.4931V23.6712C15.4931 24.2235 15.0454 24.6712 14.4931 24.6712C13.9408 24.6712 13.4931 24.2235 13.4931 23.6712V19.694C13.4931 19.1417 13.9408 18.694 14.4931 18.694H24.9283L22.3523 16.118C21.9618 15.7275 21.9618 15.0943 22.3523 14.7038Z" fill="#272A35"/>
</svg>
