<svg width="32" height="32" viewBox="0 0 32 32" fill="none" xmlns="http://www.w3.org/2000/svg">
<path fill-rule="evenodd" clip-rule="evenodd" d="M21.5212 4.79995C20.663 4.79995 19.9428 5.51233 19.9428 6.42157C19.9428 6.92023 20.0984 7.46454 20.5056 8.02942C20.7428 8.35848 21.1653 8.83856 21.5212 9.22832C21.8771 8.83856 22.2995 8.35848 22.5368 8.02942C22.944 7.46454 23.0996 6.92023 23.0996 6.42157C23.0996 5.51233 22.3794 4.79995 21.5212 4.79995ZM18.3428 6.42157C18.3428 4.65597 19.7523 3.19995 21.5212 3.19995C23.2901 3.19995 24.6996 4.65597 24.6996 6.42157C24.6996 7.27811 24.425 8.14617 23.8347 8.96508C23.4422 9.50949 22.7067 10.3081 22.3451 10.6935C21.8977 11.1705 21.1447 11.1705 20.6972 10.6935C20.3357 10.3081 19.6002 9.50949 19.2077 8.96508C18.6174 8.14617 18.3428 7.27811 18.3428 6.42157ZM4.19995 13.6C4.19995 11.4045 5.9517 9.59995 8.14281 9.59995H16C16.4418 9.59995 16.8 9.95812 16.8 10.4C16.8 10.8418 16.4418 11.2 16 11.2H8.14281C6.86241 11.2 5.79995 12.2608 5.79995 13.6C5.79995 14.9391 6.86241 16 8.14281 16H23.0714C25.6964 16 27.7999 18.1626 27.7999 20.8C27.7999 23.4373 25.6964 25.6 23.0714 25.6H12.0066C11.6422 27.4172 10.0608 28.8 8.14281 28.8C5.9517 28.8 4.19995 26.9954 4.19995 24.8C4.19995 22.6045 5.9517 20.8 8.14281 20.8C10.0608 20.8 11.6422 22.1827 12.0066 24H23.0714C24.7857 24 26.1999 22.5809 26.1999 20.8C26.1999 19.019 24.7857 17.6 23.0714 17.6H8.14281C5.9517 17.6 4.19995 15.7954 4.19995 13.6ZM8.14281 22.4C6.86241 22.4 5.79995 23.4608 5.79995 24.8C5.79995 26.1391 6.86241 27.2 8.14281 27.2C9.4232 27.2 10.4857 26.1391 10.4857 24.8C10.4857 23.4608 9.4232 22.4 8.14281 22.4Z" fill="#272A35"/>
</svg>
