<svg width="32" height="32" viewBox="0 0 32 32" fill="none" xmlns="http://www.w3.org/2000/svg">
<path fill-rule="evenodd" clip-rule="evenodd" d="M7.42852 4.79995C5.9768 4.79995 4.79995 5.9768 4.79995 7.42852V24.5714C4.79995 26.0231 5.9768 27.2 7.42852 27.2H24.5714C26.0231 27.2 27.2 26.0231 27.2 24.5714V13.3714H22.8571C20.5217 13.3714 18.6285 11.4782 18.6285 9.14281V4.79995H7.42852ZM20.2285 5.93132L26.0686 11.7714H22.8571C21.4054 11.7714 20.2285 10.5945 20.2285 9.14281V5.93132ZM3.19995 7.42852C3.19995 5.09315 5.09315 3.19995 7.42852 3.19995H19.7599L28.8 12.24V24.5714C28.8 26.9068 26.9068 28.8 24.5714 28.8H7.42852C5.09315 28.8 3.19995 26.9068 3.19995 24.5714V7.42852ZM8.34281 16C8.34281 15.5581 8.70098 15.2 9.14281 15.2H16C16.4418 15.2 16.8 15.5581 16.8 16C16.8 16.4418 16.4418 16.8 16 16.8H9.14281C8.70098 16.8 8.34281 16.4418 8.34281 16ZM8.34281 21.1428C8.34281 20.701 8.70098 20.3428 9.14281 20.3428H12.5714C13.0132 20.3428 13.3714 20.701 13.3714 21.1428C13.3714 21.5846 13.0132 21.9428 12.5714 21.9428H9.14281C8.70098 21.9428 8.34281 21.5846 8.34281 21.1428Z" fill="#272A35"/>
</svg>
