<svg width="40" height="40" viewBox="0 0 40 40" fill="none" xmlns="http://www.w3.org/2000/svg">
<path fill-rule="evenodd" clip-rule="evenodd" d="M6.5 6C6.5 5.44772 6.94772 5 7.5 5H30.5C31.0523 5 31.5 5.44772 31.5 6C31.5 6.55228 31.0523 7 30.5 7H29.0175C29.135 7.307 29.2 7.64208 29.2 8V10.1716C29.2 14.4507 26.4342 18.1724 22.3523 20C26.4342 21.8276 29.2 25.5493 29.2 29.8284V32C29.2 32.3579 29.135 32.693 29.0175 33H30.5C31.0523 33 31.5 33.4477 31.5 34C31.5 34.5523 31.0523 35 30.5 35H7.5C6.94772 35 6.5 34.5523 6.5 34C6.5 33.4477 6.94772 33 7.5 33H8.98247C8.86497 32.693 8.8 32.3579 8.8 32V29.8284C8.8 25.5493 11.5658 21.8276 15.6477 20C11.5658 18.1724 8.8 14.4507 8.8 10.1716V8C8.8 7.64208 8.86497 7.307 8.98247 7H7.5C6.94772 7 6.5 6.55228 6.5 6ZM12.1 7C11.2462 7 10.8 7.57438 10.8 8V10.1716C10.8 14.2138 13.981 17.8856 18.7463 18.9215C18.9124 18.9576 19.0876 18.9576 19.2537 18.9215C24.019 17.8856 27.2 14.2138 27.2 10.1716V8C27.2 7.57438 26.7538 7 25.9 7H12.1ZM12.1 33H25.9C26.7538 33 27.2 32.4256 27.2 32V29.8284C27.2 25.7862 24.019 22.1144 19.2537 21.0785C19.0876 21.0424 18.9124 21.0424 18.7463 21.0785C13.981 22.1144 10.8 25.7862 10.8 29.8284V32C10.8 32.4256 11.2462 33 12.1 33Z" fill="#272A35"/>
</svg>
