<svg width="24" height="24" viewBox="0 0 24 24" fill="none" xmlns="http://www.w3.org/2000/svg">
<path fill-rule="evenodd" clip-rule="evenodd" d="M11.9999 2.40002C12.3313 2.40002 12.5999 2.66865 12.5999 3.00002V4.42359C16.3418 4.71693 19.2887 7.70349 19.5768 11.4L20.9999 11.4C21.3313 11.4 21.5999 11.6687 21.5999 12C21.5999 12.3314 21.3313 12.6 20.9999 12.6L19.5763 12.6C19.4787 13.8443 19.0829 15.002 18.4617 16.0028C18.287 16.2844 17.9171 16.371 17.6355 16.1962C17.354 16.0215 17.2674 15.6516 17.4421 15.37C18.0153 14.4466 18.3606 13.3647 18.3968 12.1985C18.3988 12.1348 18.3998 12.0712 18.4 12.0079C18.3999 12.0053 18.3999 12.0026 18.3999 12C18.3999 11.9971 18.3999 11.9942 18.4 11.9913C18.3973 8.55084 15.662 5.71059 12.1984 5.6031C12.1348 5.60113 12.0713 5.60009 12.0081 5.59997C12.0053 5.60001 12.0026 5.60002 11.9999 5.60002C11.9969 5.60002 11.994 5.6 11.991 5.59996C11.0845 5.60064 10.221 5.79077 9.4381 6.13332C9.13452 6.26616 8.78074 6.12774 8.6479 5.82416C8.51507 5.52058 8.65348 5.1668 8.95706 5.03396C9.71647 4.70167 10.5393 4.4903 11.3999 4.42313V3.00002C11.3999 2.66865 11.6685 2.40002 11.9999 2.40002ZM4.66152 3.61628C4.91 3.39704 5.28916 3.42074 5.5084 3.66921L19.516 19.5445C19.7352 19.7929 19.7115 20.1721 19.463 20.3913C19.2146 20.6106 18.8354 20.5869 18.6162 20.3384L16.5982 18.0514C15.4682 18.911 14.0916 19.4605 12.5999 19.5769V21C12.5999 21.3314 12.3313 21.6 11.9999 21.6C11.6685 21.6 11.3999 21.3314 11.3999 21V19.5765C7.65804 19.2831 4.71111 16.2966 4.42296 12.6L2.9999 12.6C2.66853 12.6 2.3999 12.3314 2.3999 12C2.3999 11.6687 2.66853 11.4 2.9999 11.4L4.42347 11.4C4.56755 9.56309 5.36118 7.91702 6.56831 6.68417L4.60859 4.46316C4.38935 4.21469 4.41305 3.83553 4.66152 3.61628ZM7.36476 7.58682C6.31586 8.6876 5.65385 10.1626 5.60298 11.8015C5.601 11.8653 5.59996 11.9288 5.59985 11.9922C5.59989 11.9948 5.5999 11.9974 5.5999 12C5.5999 12.003 5.59988 12.0059 5.59984 12.0088C5.60254 15.4492 8.33778 18.2895 11.8014 18.3969C11.8651 18.3989 11.9285 18.4 11.9918 18.4001C11.9945 18.4 11.9972 18.4 11.9999 18.4C12.0027 18.4 12.0055 18.4 12.0083 18.4001C13.4243 18.3991 14.7377 17.9357 15.8018 17.1488L13.8614 14.9497C13.2419 15.3944 12.4795 15.6385 11.6682 15.5861C9.7033 15.4591 8.2843 13.6732 8.41342 11.6745C8.46332 10.9022 8.73556 10.1959 9.16314 9.62498L7.36476 7.58682ZM9.98258 10.5537C9.77358 10.8998 9.63964 11.3074 9.61093 11.7519C9.51975 13.1632 10.5137 14.309 11.7456 14.3886C12.22 14.4192 12.6737 14.2919 13.0614 14.043L9.98258 10.5537ZM11.507 8.77437C11.5284 8.44369 11.8138 8.19294 12.1444 8.2143C14.1093 8.34124 15.5283 10.1272 15.3992 12.1258C15.3779 12.4565 15.0925 12.7073 14.7618 12.6859C14.4311 12.6645 14.1803 12.3792 14.2017 12.0485C14.2929 10.6372 13.299 9.49139 12.0671 9.4118C11.7364 9.39044 11.4856 9.10505 11.507 8.77437Z" fill="#272A35"/>
</svg>
