<svg width="32" height="32" viewBox="0 0 32 32" fill="none" xmlns="http://www.w3.org/2000/svg">
<path fill-rule="evenodd" clip-rule="evenodd" d="M5.1936 3.39262C5.52906 3.10508 6.0341 3.14393 6.32164 3.47939L18.6597 17.8738C18.7359 17.9166 18.8064 17.9728 18.8676 18.0421C18.9342 18.1175 18.984 18.202 19.0172 18.2909L26.8931 27.4794C27.1806 27.8149 27.1418 28.3199 26.8063 28.6074C26.4708 28.895 25.9658 28.8561 25.6783 28.5207L21.7159 23.898C20.0341 24.7754 18.0998 25.3715 16 25.3715C12.3038 25.3715 9.12111 23.5282 6.89335 21.5232C5.77425 20.516 4.87276 19.4479 4.24503 18.5063C3.93144 18.0359 3.67877 17.586 3.50156 17.1815C3.33293 16.7966 3.19995 16.3805 3.19995 16C3.19995 15.5016 3.43081 14.9146 3.7218 14.3648C4.03093 13.7808 4.47388 13.1184 5.02683 12.4363C5.98253 11.2575 7.29691 9.98321 8.88562 8.92925L5.10683 4.52066C4.81929 4.1852 4.85814 3.68016 5.1936 3.39262ZM9.93568 10.1543C8.42606 11.1266 7.17048 12.3329 6.26968 13.444C5.76866 14.0619 5.38745 14.6381 5.13593 15.1133C4.86626 15.6228 4.79995 15.9156 4.79995 16C4.79995 16.0482 4.82769 16.2213 4.96709 16.5395C5.09791 16.8381 5.30061 17.2052 5.57631 17.6188C6.12714 18.445 6.93993 19.4126 7.96369 20.334C10.0216 22.1861 12.839 23.7715 16 23.7715C17.6614 23.7715 19.2278 23.3345 20.6435 22.6468L18.0951 19.6737C17.4774 20.0266 16.7618 20.2286 16 20.2286C13.6646 20.2286 11.7714 18.3354 11.7714 16C11.7714 15.0051 12.1156 14.0899 12.6903 13.368L9.93568 10.1543ZM13.7627 14.6192C13.5143 15.0206 13.3714 15.4934 13.3714 16C13.3714 17.4518 14.5482 18.6286 16 18.6286C16.3631 18.6286 16.7085 18.5553 17.0227 18.4225L13.7627 14.6192ZM16 8.2286C15.1811 8.2286 14.3861 8.33464 13.621 8.5243C13.1922 8.63061 12.7583 8.36913 12.652 7.94028C12.5457 7.51143 12.8072 7.07761 13.236 6.9713C14.1177 6.75275 15.042 6.6286 16 6.6286C19.6961 6.6286 22.8788 8.47183 25.1066 10.4768C26.2256 11.484 27.1271 12.5522 27.7549 13.4938C28.0685 13.9641 28.3211 14.414 28.4983 14.8185C28.667 15.2034 28.8 15.6196 28.8 16C28.8 16.3705 28.674 16.7733 28.5139 17.1457C28.3459 17.5364 28.1066 17.9699 27.8097 18.4233C27.2156 19.3307 26.3622 20.3616 25.3018 21.3448C24.9778 21.6452 24.4717 21.6261 24.1713 21.3021C23.8709 20.9782 23.89 20.472 24.214 20.1716C25.1843 19.2719 25.952 18.3397 26.4712 17.5468C26.731 17.1499 26.9214 16.7989 27.044 16.5137C27.1745 16.2101 27.2 16.0456 27.2 16C27.2 15.9519 27.1722 15.7788 27.0328 15.4606C26.902 15.1619 26.6993 14.7948 26.4236 14.3813C25.8728 13.555 25.06 12.5875 24.0362 11.6661C21.9783 9.81394 19.1609 8.2286 16 8.2286ZM16.6609 12.5407C16.8404 12.137 17.3132 11.9552 17.7169 12.1348C18.9604 12.6878 19.8883 13.8233 20.1525 15.1984C20.2359 15.6323 19.9517 16.0517 19.5178 16.135C19.0839 16.2184 18.6646 15.9342 18.5812 15.5003C18.4177 14.6491 17.8412 13.9412 17.0667 13.5967C16.663 13.4172 16.4813 12.9444 16.6609 12.5407Z" fill="#272A35"/>
</svg>
