<svg width="32" height="32" viewBox="0 0 32 32" fill="none" xmlns="http://www.w3.org/2000/svg">
<path fill-rule="evenodd" clip-rule="evenodd" d="M15.2941 6.21182C9.49833 6.21182 4.79995 10.9102 4.79995 16.7059C4.79995 22.5017 9.49833 27.2001 15.2941 27.2001C17.2068 27.2001 18.9978 26.689 20.5405 25.7966C20.923 25.5754 21.4124 25.7061 21.6336 26.0885C21.8548 26.471 21.7242 26.9604 21.3417 27.1816C19.562 28.2111 17.4956 28.8001 15.2941 28.8001C8.61467 28.8001 3.19995 23.3853 3.19995 16.7059C3.19995 10.0265 8.61467 4.61182 15.2941 4.61182C18.9064 4.61182 22.1495 6.19651 24.3644 8.70598C24.6568 9.03724 24.6253 9.54279 24.294 9.83516C23.9628 10.1275 23.4572 10.096 23.1649 9.76476C21.2408 7.5848 18.4283 6.21182 15.2941 6.21182Z" fill="#272A35"/>
<path fill-rule="evenodd" clip-rule="evenodd" d="M26.5882 15.9059C26.1464 15.9059 25.7882 16.2641 25.7882 16.7059C25.7882 17.0658 25.7701 17.4213 25.7348 17.7715C25.6905 18.2111 26.011 18.6033 26.4506 18.6476C26.8902 18.6919 27.2825 18.3714 27.3268 17.9318C27.3674 17.5285 27.3882 17.1195 27.3882 16.7059C27.3882 16.2641 27.03 15.9059 26.5882 15.9059ZM26.3104 19.3329C25.8889 19.2004 25.4398 19.4347 25.3073 19.8562C25.0923 20.5404 24.809 21.1945 24.4653 21.8105C24.2501 22.1963 24.3884 22.6836 24.7742 22.8989C25.1601 23.1141 25.6474 22.9758 25.8626 22.59C26.2588 21.8798 26.5856 21.1254 26.8337 20.336C26.9662 19.9145 26.7319 19.4654 26.3104 19.3329ZM24.3732 23.4719C24.0386 23.1834 23.5334 23.2207 23.2449 23.5553C23.0126 23.8247 22.7668 24.0822 22.5087 24.3267C22.1879 24.6305 22.1741 25.1368 22.4779 25.4576C22.7817 25.7784 23.2881 25.7922 23.6089 25.4884C23.9061 25.2069 24.1891 24.9104 24.4566 24.6002C24.7452 24.2656 24.7078 23.7604 24.3732 23.4719Z" fill="#272A35"/>
<path fill-rule="evenodd" clip-rule="evenodd" d="M26.3999 12.2824V7.86284L21.9803 12.2824H26.3999ZM26.4999 13.8824H21.7388C20.4025 13.8824 19.7332 12.2667 20.6782 11.3218L25.4392 6.56075C26.3842 5.61581 27.9999 6.28506 27.9999 7.62142V12.3825C27.9999 13.2109 27.3283 13.8824 26.4999 13.8824Z" fill="#272A35"/>
</svg>
