<svg width="32" height="32" viewBox="0 0 32 32" fill="none" xmlns="http://www.w3.org/2000/svg">
<path fill-rule="evenodd" clip-rule="evenodd" d="M10.0571 3.99995C10.0571 3.55812 10.4153 3.19995 10.8571 3.19995H16C16.4418 3.19995 16.8 3.55812 16.8 3.99995V9.14281C16.8 9.58464 16.4418 9.94281 16 9.94281C15.5581 9.94281 15.2 9.58464 15.2 9.14281V5.93132L8.2871 12.8442C7.94954 13.1817 7.4917 13.3714 7.01431 13.3714H3.99995C3.55812 13.3714 3.19995 13.0132 3.19995 12.5714C3.19995 12.1296 3.55812 11.7714 3.99995 11.7714H7.01431C7.06735 11.7714 7.11822 11.7503 7.15573 11.7128L14.0686 4.79995H10.8571C10.4153 4.79995 10.0571 4.44178 10.0571 3.99995ZM22.8571 6.51424C22.3521 6.51424 21.9428 6.92358 21.9428 7.42852V27.2H26.2857C26.7906 27.2 27.2 26.7906 27.2 26.2857V7.42852C27.2 6.92358 26.7906 6.51424 26.2857 6.51424H22.8571ZM20.3428 27.2V16C20.3428 15.495 19.9335 15.0857 19.4285 15.0857H16C15.495 15.0857 15.0857 15.495 15.0857 16V27.2H20.3428ZM13.4857 27.2V21.1428C13.4857 20.6379 13.0763 20.2285 12.5714 20.2285H9.14281C8.63786 20.2285 8.22852 20.6379 8.22852 21.1428V26.2857C8.22852 26.7906 8.63786 27.2 9.14281 27.2H13.4857ZM13.4857 18.7999C13.2023 18.6893 12.8939 18.6285 12.5714 18.6285H9.14281C7.75421 18.6285 6.62852 19.7542 6.62852 21.1428V26.2857C6.62852 27.6743 7.75421 28.8 9.14281 28.8H26.2857C27.6743 28.8 28.8 27.6743 28.8 26.2857V7.42852C28.8 6.03992 27.6743 4.91424 26.2857 4.91424H22.8571C21.4685 4.91424 20.3428 6.03992 20.3428 7.42852V13.6571C20.0594 13.5464 19.7511 13.4857 19.4285 13.4857H16C14.6114 13.4857 13.4857 14.6114 13.4857 16V18.7999Z" fill="#272A35"/>
</svg>
