<svg width="32" height="32" viewBox="0 0 32 32" fill="none" xmlns="http://www.w3.org/2000/svg">
<path fill-rule="evenodd" clip-rule="evenodd" d="M16 4.79995C11.197 4.79995 7.29995 8.70411 7.29995 13.5245C7.29995 16.0075 8.09751 18.6215 9.99683 21.2158C11.1224 22.7532 13.1486 24.9916 14.6722 26.6197C15.3962 27.3934 16.6037 27.3934 17.3277 26.6197C18.8513 24.9916 20.8775 22.7532 22.0031 21.2158C23.9024 18.6215 24.6999 16.0075 24.6999 13.5245C24.6999 8.70411 20.8029 4.79995 16 4.79995ZM5.69995 13.5245C5.69995 7.82434 10.3095 3.19995 16 3.19995C21.6904 3.19995 26.2999 7.82434 26.2999 13.5245C26.2999 16.3716 25.3794 19.3126 23.2941 22.1609C22.1036 23.787 20.0135 26.0913 18.496 27.7129C17.1396 29.1623 14.8603 29.1623 13.5039 27.7129C11.9864 26.0913 9.89632 23.787 8.70583 22.1609C6.62052 19.3126 5.69995 16.3716 5.69995 13.5245ZM16 10.0032C16.4418 10.0032 16.8 10.3614 16.8 10.8032V12.7245H18.7142C19.1561 12.7245 19.5142 13.0826 19.5142 13.5245C19.5142 13.9663 19.1561 14.3245 18.7142 14.3245H16.8V16.2458C16.8 16.6876 16.4418 17.0458 16 17.0458C15.5581 17.0458 15.2 16.6876 15.2 16.2458V14.3245H13.2857C12.8438 14.3245 12.4857 13.9663 12.4857 13.5245C12.4857 13.0826 12.8438 12.7245 13.2857 12.7245H15.2V10.8032C15.2 10.3614 15.5581 10.0032 16 10.0032Z" fill="#272A35"/>
</svg>
