<svg width="32" height="32" viewBox="0 0 32 32" fill="none" xmlns="http://www.w3.org/2000/svg">
<path fill-rule="evenodd" clip-rule="evenodd" d="M3.19995 16C3.19995 15.5581 3.55812 15.2 3.99995 15.2H28C28.4418 15.2 28.7999 15.5581 28.7999 16C28.7999 16.4418 28.4418 16.8 28 16.8H3.99995C3.55812 16.8 3.19995 16.4418 3.19995 16Z" fill="#272A35"/>
<path fill-rule="evenodd" clip-rule="evenodd" d="M16 5.79995C14.8196 5.79995 13.8 6.8134 13.8 8.14281C13.8 9.47221 14.8196 10.4857 16 10.4857C17.1803 10.4857 18.2 9.47221 18.2 8.14281C18.2 6.8134 17.1803 5.79995 16 5.79995ZM12.2 8.14281C12.2 6.00071 13.8666 4.19995 16 4.19995C18.1333 4.19995 19.8 6.00071 19.8 8.14281C19.8 10.2849 18.1333 12.0857 16 12.0857C13.8666 12.0857 12.2 10.2849 12.2 8.14281ZM16 21.5142C14.8196 21.5142 13.8 22.5277 13.8 23.8571C13.8 25.1865 14.8196 26.1999 16 26.1999C17.1803 26.1999 18.2 25.1865 18.2 23.8571C18.2 22.5277 17.1803 21.5142 16 21.5142ZM12.2 23.8571C12.2 21.715 13.8666 19.9142 16 19.9142C18.1333 19.9142 19.8 21.715 19.8 23.8571C19.8 25.9992 18.1333 27.7999 16 27.7999C13.8666 27.7999 12.2 25.9992 12.2 23.8571Z" fill="#272A35"/>
</svg>
