<svg width="32" height="32" viewBox="0 0 32 32" fill="none" xmlns="http://www.w3.org/2000/svg">
<path fill-rule="evenodd" clip-rule="evenodd" d="M14.5 3.20001C14.9418 3.20001 15.3 3.55818 15.3 4.00001V8.06864L16.9343 6.43433C17.2467 6.12191 17.7532 6.12191 18.0656 6.43433C18.3781 6.74675 18.3781 7.25328 18.0656 7.5657L16.1263 9.50504C15.2281 10.4032 13.7718 10.4032 12.8736 9.50504L10.9343 7.5657C10.6218 7.25328 10.6218 6.74675 10.9343 6.43433C11.2467 6.12191 11.7532 6.12191 12.0656 6.43433L13.7 8.06864V4.00001C13.7 3.55818 14.0581 3.20001 14.5 3.20001ZM6.99995 9.30001C5.78492 9.30001 4.79995 10.285 4.79995 11.5V12.2H24.2V11.5C24.2 10.285 23.215 9.30001 22 9.30001H20.5C20.0581 9.30001 19.7 8.94184 19.7 8.50001C19.7 8.05818 20.0581 7.70001 20.5 7.70001H22C24.0986 7.70001 25.7999 9.40133 25.7999 11.5V12.2844C27.5145 12.6518 28.7999 14.1758 28.7999 16V25C28.7999 27.0987 27.0986 28.8 25 28.8H6.99995C4.90127 28.8 3.19995 27.0987 3.19995 25V11.5C3.19995 9.40133 4.90127 7.70001 6.99995 7.70001H8.49995C8.94178 7.70001 9.29995 8.05818 9.29995 8.50001C9.29995 8.94184 8.94178 9.30001 8.49995 9.30001H6.99995ZM27.2 22.7V18.3H25C23.7849 18.3 22.7999 19.285 22.7999 20.5C22.7999 21.715 23.7849 22.7 25 22.7H27.2ZM27.2 16.7H25C22.9013 16.7 21.2 18.4013 21.2 20.5C21.2 22.5987 22.9013 24.3 25 24.3H27.2V25C27.2 26.215 26.215 27.2 25 27.2H6.99995C5.78492 27.2 4.79995 26.215 4.79995 25V13.8H25C26.215 13.8 27.2 14.785 27.2 16V16.7Z" fill="#272A35"/>
</svg>
