<svg width="32" height="32" viewBox="0 0 32 32" fill="none" xmlns="http://www.w3.org/2000/svg">
<path fill-rule="evenodd" clip-rule="evenodd" d="M27.7003 16C27.7003 9.53822 22.462 4.29995 16.0003 4.29995C9.53856 4.29995 4.30029 9.53822 4.30029 16C4.30029 22.4617 9.53856 27.6999 16.0003 27.6999C22.462 27.6999 27.7003 22.4617 27.7003 16ZM16.0003 2.69995C23.3457 2.69995 29.3003 8.65456 29.3003 16C29.3003 23.3453 23.3457 29.2999 16.0003 29.2999C8.65491 29.2999 2.70029 23.3453 2.70029 16C2.70029 8.65456 8.65491 2.69995 16.0003 2.69995ZM13.5115 21.2035L17.9209 16.7941C18.3595 16.3555 18.3595 15.6444 17.9209 15.2058L13.5115 10.7964C13.1991 10.484 13.1991 9.97745 13.5115 9.66503C13.8239 9.35262 14.3305 9.35262 14.6429 9.66503L19.0523 14.0744C20.1157 15.1379 20.1157 16.862 19.0523 17.9255L14.6429 22.3349C14.3305 22.6473 13.8239 22.6473 13.5115 22.3349C13.1991 22.0224 13.1991 21.5159 13.5115 21.2035Z" fill="#272A35"/>
</svg>
