<svg width="32" height="32" viewBox="0 0 32 32" fill="none" xmlns="http://www.w3.org/2000/svg">
<path fill-rule="evenodd" clip-rule="evenodd" d="M3.19995 8.83658C3.19995 6.53164 5.1138 4.70001 7.42852 4.70001H24.5714C26.8861 4.70001 28.8 6.53164 28.8 8.83658V18.8463C28.8 21.1512 26.8861 22.9828 24.5714 22.9828H12.2773C11.5732 22.9828 10.9022 23.2552 10.4108 23.7334L7.48436 26.5814C5.92959 28.0944 3.19995 27.0668 3.19995 24.8284V8.83658ZM7.42852 6.30001C5.95615 6.30001 4.79995 7.45605 4.79995 8.83658V24.8284C4.79995 25.5626 5.76337 26.0236 6.36848 25.4347L9.29495 22.5868C10.0895 21.8135 11.1627 21.3828 12.2773 21.3828H24.5714C26.0438 21.3828 27.2 20.2268 27.2 18.8463V8.83658C27.2 7.45605 26.0438 6.30001 24.5714 6.30001H7.42852ZM10.8571 12.6244C11.2989 12.6244 11.6571 12.9825 11.6571 13.4244V14.2585C11.6571 14.7003 11.2989 15.0585 10.8571 15.0585C10.4153 15.0585 10.0571 14.7003 10.0571 14.2585V13.4244C10.0571 12.9825 10.4153 12.6244 10.8571 12.6244ZM16 12.6244C16.4418 12.6244 16.8 12.9825 16.8 13.4244V14.2585C16.8 14.7003 16.4418 15.0585 16 15.0585C15.5581 15.0585 15.2 14.7003 15.2 14.2585V13.4244C15.2 12.9825 15.5581 12.6244 16 12.6244ZM21.1428 12.6244C21.5846 12.6244 21.9428 12.9825 21.9428 13.4244V14.2585C21.9428 14.7003 21.5846 15.0585 21.1428 15.0585C20.701 15.0585 20.3428 14.7003 20.3428 14.2585V13.4244C20.3428 12.9825 20.701 12.6244 21.1428 12.6244Z" fill="#272A35"/>
</svg>
