<svg width="24" height="24" viewBox="0 0 24 24" fill="none" xmlns="http://www.w3.org/2000/svg">
<path fill-rule="evenodd" clip-rule="evenodd" d="M4.5999 5.04824V3.96156C4.5999 3.63019 4.33127 3.36156 3.9999 3.36156C3.66853 3.36156 3.3999 3.63019 3.3999 3.96156V6.39746C3.3999 6.72883 3.66853 6.99746 3.9999 6.99746H6.4999C6.83127 6.99746 7.0999 6.72883 7.0999 6.39746C7.0999 6.06609 6.83127 5.79746 6.4999 5.79746H5.54439C7.16497 4.13714 9.4562 3.10002 11.9999 3.10002C16.93 3.10002 20.8999 6.99023 20.8999 11.7564C20.8999 12.0878 21.1685 12.3564 21.4999 12.3564C21.8313 12.3564 22.0999 12.0878 22.0999 11.7564C22.0999 6.29829 17.5632 1.90002 11.9999 1.90002C9.07952 1.90002 6.4453 3.11044 4.5999 5.04824ZM10.2307 6.90083C10.2203 6.9003 10.2098 6.90002 10.1993 6.90002C9.86794 6.90002 9.59931 7.16865 9.59931 7.50002V11.5394H8.4999C8.16853 11.5394 7.8999 11.808 7.8999 12.1394C7.8999 12.4708 8.16853 12.7394 8.4999 12.7394H9.59931V14.0839H8.50039C8.16902 14.0839 7.90039 14.3525 7.90039 14.6839C7.90039 15.0152 8.16902 15.2839 8.50039 15.2839H9.59931V16.5C9.59931 16.8314 9.86794 17.1 10.1993 17.1C10.5307 17.1 10.7993 16.8314 10.7993 16.5V15.2839H13.9629C14.2943 15.2839 14.5629 15.0152 14.5629 14.6839C14.5629 14.3525 14.2943 14.0839 13.9629 14.0839H10.7993V12.7396H12.8629C14.5769 12.7396 16.0997 11.5014 16.0997 9.81935C16.0997 8.13699 14.5765 6.90002 12.8629 6.90002H10.2621C10.2516 6.90002 10.2411 6.9003 10.2307 6.90083ZM10.7993 11.5396H12.8629C14.0626 11.5396 14.8997 10.6994 14.8997 9.81935C14.8997 8.93962 14.0629 8.10002 12.8629 8.10002H10.7993V11.5396ZM2.4999 11.6436C2.83127 11.6436 3.0999 11.9122 3.0999 12.2436C3.0999 17.0098 7.06978 20.9 11.9999 20.9C14.5436 20.9 16.8348 19.8629 18.4554 18.2026H17.4999C17.1685 18.2026 16.8999 17.934 16.8999 17.6026C16.8999 17.2712 17.1685 17.0026 17.4999 17.0026H19.9999C20.3313 17.0026 20.5999 17.2712 20.5999 17.6026V20.0385C20.5999 20.3699 20.3313 20.6385 19.9999 20.6385C19.6685 20.6385 19.3999 20.3699 19.3999 20.0385V18.9518C17.5545 20.8896 14.9203 22.1 11.9999 22.1C6.43661 22.1 1.8999 17.7018 1.8999 12.2436C1.8999 11.9122 2.16853 11.6436 2.4999 11.6436Z" fill="#272A35"/>
</svg>
