<svg width="16" height="16" viewBox="0 0 16 16" fill="none" xmlns="http://www.w3.org/2000/svg">
<path fill-rule="evenodd" clip-rule="evenodd" d="M5.26316 3C3.47555 3 2 4.49952 2 6.38235C2 8.26519 3.47555 9.76471 5.26316 9.76471H6.28947C6.56562 9.76471 6.78947 9.98856 6.78947 10.2647C6.78947 10.5408 6.56562 10.7647 6.28947 10.7647H5.26316C2.8941 10.7647 1 8.78785 1 6.38235C1 3.97686 2.8941 2 5.26316 2H7.65789C7.93404 2 8.15789 2.22386 8.15789 2.5C8.15789 2.77614 7.93404 3 7.65789 3H5.26316ZM9.82632 2.5C9.82632 2.22386 10.0502 2 10.3263 2H14.5C14.7761 2 15 2.22386 15 2.5C15 2.77614 14.7761 3 14.5 3H10.3263C10.0502 3 9.82632 2.77614 9.82632 2.5ZM9.82632 6.38235C9.82632 6.10621 10.0502 5.88235 10.3263 5.88235H14.5C14.7761 5.88235 15 6.10621 15 6.38235C15 6.65849 14.7761 6.88235 14.5 6.88235H10.3263C10.0502 6.88235 9.82632 6.65849 9.82632 6.38235ZM9.82632 10.2647C9.82632 9.98856 10.0502 9.76471 10.3263 9.76471H14.5C14.7761 9.76471 15 9.98856 15 10.2647C15 10.5408 14.7761 10.7647 14.5 10.7647H10.3263C10.0502 10.7647 9.82632 10.5408 9.82632 10.2647Z" fill="#272A35"/>
<path fill-rule="evenodd" clip-rule="evenodd" d="M8.8333 10.2954L9.58639 9.54411L9.57334 11.0596L8.8333 10.2954ZM9.70517 12.6329C10.0151 12.9529 10.5515 12.7328 10.5554 12.2841L10.5894 8.33664C10.5932 7.88791 10.0606 7.65858 9.74526 7.9732L7.78363 9.93025C7.58814 10.1253 7.5854 10.4442 7.77752 10.6426L9.70517 12.6329Z" fill="#272A35"/>
</svg>
