<svg width="40" height="40" viewBox="0 0 40 40" fill="none" xmlns="http://www.w3.org/2000/svg">
<path fill-rule="evenodd" clip-rule="evenodd" d="M20.25 4C20.8023 4 21.25 4.44772 21.25 5V15.7143C21.25 16.2666 20.8023 16.7143 20.25 16.7143C19.6977 16.7143 19.25 16.2666 19.25 15.7143V5C19.25 4.44772 19.6977 4 20.25 4ZM16.2073 8.90826C16.4157 9.41969 16.1701 10.0033 15.6587 10.2117C11.1694 12.0416 8 16.4758 8 21.6579C8 28.4808 13.491 34 20.25 34C27.009 34 32.5 28.4808 32.5 21.6579C32.5 16.6244 29.5099 12.2964 25.2237 10.3753C24.7198 10.1494 24.4943 9.55777 24.7202 9.05379C24.9461 8.54982 25.5378 8.32438 26.0418 8.55027C31.0264 10.7844 34.5 15.8139 34.5 21.6579C34.5 29.5723 28.1266 36 20.25 36C12.3734 36 6 29.5723 6 21.6579C6 15.6415 9.68143 10.4883 14.9038 8.35969C15.4152 8.15122 15.9988 8.39683 16.2073 8.90826Z" fill="#272A35"/>
</svg>
