<svg width="24" height="24" viewBox="0 0 24 24" fill="none" xmlns="http://www.w3.org/2000/svg">
<path fill-rule="evenodd" clip-rule="evenodd" d="M4.2 4.19998L7.2506 4.19998L4.2 7.13894L4.2 4.19998ZM3 7.60933C3 8.49128 4.05866 8.9414 4.69381 8.3295L8.44027 4.72014C9.08836 4.09577 8.64639 2.99998 7.74647 2.99998L4 2.99998C3.44771 2.99998 3 3.44769 3 3.99998L3 7.60933Z" fill="#272A35"/>
<path fill-rule="evenodd" clip-rule="evenodd" d="M9.80377 9.40538C10.0277 9.16109 10.0111 8.78155 9.76685 8.55765L7.0181 6.03832C6.77381 5.81442 6.39428 5.83095 6.17038 6.07524C5.94648 6.31953 5.96301 6.69906 6.2073 6.92296L8.95605 9.44229C9.20034 9.66619 9.57987 9.64966 9.80377 9.40538Z" fill="#272A35"/>
<path fill-rule="evenodd" clip-rule="evenodd" d="M19.8 4.19998L16.7494 4.19998L19.8 7.13894L19.8 4.19998ZM21 7.60933C21 8.49128 19.9413 8.9414 19.3062 8.3295L15.5597 4.72014C14.9116 4.09577 15.3536 2.99998 16.2535 2.99998L20 2.99998C20.5523 2.99998 21 3.44769 21 3.99998L21 7.60933Z" fill="#272A35"/>
<path fill-rule="evenodd" clip-rule="evenodd" d="M14.1962 9.40538C13.9723 9.16109 13.9889 8.78155 14.2331 8.55765L16.9819 6.03832C17.2262 5.81442 17.6057 5.83095 17.8296 6.07524C18.0535 6.31953 18.037 6.69906 17.7927 6.92296L15.044 9.44229C14.7997 9.66619 14.4201 9.64966 14.1962 9.40538Z" fill="#272A35"/>
<path fill-rule="evenodd" clip-rule="evenodd" d="M19.8 19.7613L16.7494 19.7613L19.8 16.8224L19.8 19.7613ZM21 16.352C21 15.47 19.9413 15.0199 19.3062 15.6318L15.5597 19.2412C14.9116 19.8655 15.3536 20.9613 16.2535 20.9613L20 20.9613C20.5523 20.9613 21 20.5136 21 19.9613L21 16.352Z" fill="#272A35"/>
<path fill-rule="evenodd" clip-rule="evenodd" d="M14.1962 14.5559C13.9723 14.8002 13.9889 15.1798 14.2331 15.4037L16.9819 17.923C17.2262 18.1469 17.6057 18.1304 17.8296 17.8861C18.0535 17.6418 18.037 17.2622 17.7927 17.0383L15.044 14.519C14.7997 14.2951 14.4201 14.3116 14.1962 14.5559Z" fill="#272A35"/>
<path fill-rule="evenodd" clip-rule="evenodd" d="M4.2 19.8L7.2506 19.8L4.2 16.8611L4.2 19.8ZM3 16.3907C3 15.5087 4.05866 15.0586 4.69381 15.6705L8.44027 19.2799C9.08836 19.9042 8.64639 21 7.74647 21L4 21C3.44771 21 3 20.5523 3 20L3 16.3907Z" fill="#272A35"/>
<path fill-rule="evenodd" clip-rule="evenodd" d="M9.80377 14.5946C10.0277 14.8389 10.0111 15.2185 9.76685 15.4423L7.0181 17.9617C6.77381 18.1856 6.39428 18.169 6.17038 17.9248C5.94648 17.6805 5.96301 17.3009 6.2073 17.077L8.95605 14.5577C9.20034 14.3338 9.57987 14.3503 9.80377 14.5946Z" fill="#272A35"/>
</svg>
