<svg width="16" height="16" viewBox="0 0 16 16" fill="none" xmlns="http://www.w3.org/2000/svg">
<path fill-rule="evenodd" clip-rule="evenodd" d="M8.70213 2.59077C9.97138 1.32151 12.0289 1.32184 13.2981 2.59099C14.5673 3.86016 14.5675 5.9178 13.2982 7.18704L11.8834 8.60185C11.6882 8.79711 11.3716 8.79711 11.1763 8.60185C10.9811 8.40659 10.9811 8.09 11.1763 7.89474L12.5911 6.47993C13.4698 5.60129 13.4697 4.17681 12.591 3.2981C11.7123 2.41936 10.2879 2.41925 9.40923 3.29787L8.06791 4.6392C7.87265 4.83446 7.55606 4.83446 7.3608 4.6392C7.16554 4.44393 7.16554 4.12735 7.3608 3.93209L8.70213 2.59077ZM10.8232 5.06586C11.0185 5.26113 11.0185 5.57771 10.8232 5.77297L5.87348 10.7227C5.67821 10.918 5.36163 10.918 5.16637 10.7227C4.97111 10.5275 4.97111 10.2109 5.16637 10.0156L10.1161 5.06586C10.3114 4.8706 10.628 4.8706 10.8232 5.06586ZM4.85355 7.14645C5.04882 7.34171 5.04882 7.65829 4.85355 7.85355L3.3986 9.3085C2.51992 10.1872 2.51992 11.6118 3.3986 12.4905C4.27728 13.3692 5.7019 13.3692 6.58058 12.4905L7.92462 11.1464C8.11988 10.9512 8.43647 10.9512 8.63173 11.1464C8.82699 11.3417 8.82699 11.6583 8.63173 11.8536L7.28769 13.1976C6.01849 14.4668 3.9607 14.4668 2.6915 13.1976C1.42229 11.9284 1.42229 9.8706 2.6915 8.6014L4.14645 7.14645C4.34171 6.95118 4.65829 6.95118 4.85355 7.14645Z" fill="#272A35"/>
</svg>
