<svg width="16" height="16" viewBox="0 0 16 16" fill="none" xmlns="http://www.w3.org/2000/svg">
<path fill-rule="evenodd" clip-rule="evenodd" d="M3.5 4C2.94772 4 2.5 4.44772 2.5 5V5.25H13.5V5C13.5 4.44772 13.0523 4 12.5 4H3.5ZM14.5 5C14.5 3.89543 13.6046 3 12.5 3H3.5C2.39543 3 1.5 3.89543 1.5 5V11C1.5 12.1046 2.39543 13 3.5 13H12.5C13.6046 13 14.5 12.1046 14.5 11V5ZM13.5 6.25H2.5V11C2.5 11.5523 2.94772 12 3.5 12H12.5C13.0523 12 13.5 11.5523 13.5 11V6.25ZM3.75 10.25C3.75 9.97386 3.97386 9.75 4.25 9.75H7.25C7.52614 9.75 7.75 9.97386 7.75 10.25C7.75 10.5261 7.52614 10.75 7.25 10.75H4.25C3.97386 10.75 3.75 10.5261 3.75 10.25ZM9 10.25C9 9.97386 9.22386 9.75 9.5 9.75H10.25C10.5261 9.75 10.75 9.97386 10.75 10.25C10.75 10.5261 10.5261 10.75 10.25 10.75H9.5C9.22386 10.75 9 10.5261 9 10.25Z" fill="#272A35"/>
</svg>
