<svg width="24" height="24" viewBox="0 0 24 24" fill="none" xmlns="http://www.w3.org/2000/svg">
<path fill-rule="evenodd" clip-rule="evenodd" d="M14.1173 3.41798C14.4608 2.58052 15.4547 2.11064 16.3238 2.58946C18.1344 3.58693 19.6135 5.00083 20.6263 6.91411C21.6222 8.79564 22.1958 10.8243 22.0867 12.9583C22.0371 13.9297 21.1528 14.5545 20.2643 14.4173L19.6028 14.3151C19.6141 14.4809 19.5984 14.6535 19.5511 14.8287C19.1518 16.3101 18.3968 17.6732 17.3464 18.7881C16.0343 20.1808 14.3275 21.1155 12.4666 21.4565C10.6055 21.7975 8.68784 21.5268 6.98607 20.6839C5.28457 19.8411 3.88691 18.4702 2.98823 16.7682C2.08966 15.0665 1.73445 13.1183 1.97142 11.1991C2.20839 9.27981 3.02598 7.48354 4.31136 6.0654C5.59695 4.64702 7.28573 3.67858 9.13984 3.30064C10.6242 2.99807 12.1525 3.08668 13.5844 3.54928C13.7329 3.59728 13.8659 3.6638 13.9832 3.74497L14.1173 3.41798ZM14.1617 6.4724L14.4904 5.73242C14.5352 5.63154 14.5696 5.52658 14.5935 5.41954L15.2276 3.87331C15.3368 3.60695 15.5879 3.55407 15.7448 3.64051C17.3685 4.53509 18.6716 5.78633 19.5657 7.47549C20.4839 9.21033 20.9839 11.0246 20.8883 12.8971C20.8778 13.1018 20.6901 13.2688 20.4475 13.2313L18.5129 12.9325C18.4251 12.903 18.3341 12.8808 18.2407 12.8667L12.4515 11.9915C12.2103 11.9153 12.049 11.6239 12.166 11.3386L14.1617 6.4724ZM13.4383 5.07376C13.4526 4.87803 13.3356 4.72999 13.2155 4.69117C11.979 4.29171 10.6603 4.21538 9.37952 4.47646C7.77972 4.80256 6.31724 5.63919 5.20049 6.87129C4.08352 8.10362 3.36946 9.6689 3.16237 11.3461C2.95528 13.0235 3.26612 14.7245 4.04938 16.2079C4.83253 17.6911 6.04723 18.8798 7.51868 19.6086C8.98984 20.3372 10.6449 20.5703 12.2503 20.2762C13.8558 19.982 15.3335 19.1747 16.473 17.9652C17.3854 16.9968 18.0438 15.8098 18.3925 14.5164C18.4348 14.3597 18.3597 14.1832 18.2003 14.0985L12.3297 13.1918C12.288 13.1853 12.247 13.1774 12.2067 13.1681L12.1815 13.1643C11.0784 12.9975 10.4785 11.8075 10.9216 10.81L13.058 6.00104L13.4383 5.07376Z" fill="#272A35"/>
</svg>
