<svg width="24" height="24" viewBox="0 0 24 24" fill="none" xmlns="http://www.w3.org/2000/svg">
<path fill-rule="evenodd" clip-rule="evenodd" d="M2.3999 6.54217C2.3999 4.80035 3.8263 3.40002 5.57133 3.40002H18.4285C20.1735 3.40002 21.5999 4.80035 21.5999 6.54217V14.1686C21.5999 15.9104 20.1735 17.3108 18.4285 17.3108H9.20788C8.68282 17.3108 8.18063 17.517 7.81143 17.882L5.61658 20.0519C4.43786 21.2172 2.3999 20.406 2.3999 18.7264V6.54217ZM5.57133 4.60002C4.47604 4.60002 3.5999 5.47601 3.5999 6.54217V18.7264C3.5999 19.3116 4.33173 19.6347 4.77293 19.1985L6.96778 17.0286C7.56305 16.4402 8.36897 16.1108 9.20788 16.1108H18.4285C19.5238 16.1108 20.3999 15.2348 20.3999 14.1686V6.54217C20.3999 5.47601 19.5238 4.60002 18.4285 4.60002H5.57133ZM9.42847 7.21324C9.75984 7.21324 10.0285 7.48187 10.0285 7.81324V9.75539H11.9999C12.3313 9.75539 12.5999 10.024 12.5999 10.3554C12.5999 10.6868 12.3313 10.9554 11.9999 10.9554H10.0285V12.8975C10.0285 13.2289 9.75984 13.4975 9.42847 13.4975C9.0971 13.4975 8.82847 13.2289 8.82847 12.8975V10.9554H6.85705C6.52567 10.9554 6.25705 10.6868 6.25705 10.3554C6.25705 10.024 6.52567 9.75539 6.85705 9.75539H8.82847V7.81324C8.82847 7.48187 9.0971 7.21324 9.42847 7.21324Z" fill="#272A35"/>
</svg>
