<svg width="32" height="32" viewBox="0 0 32 32" fill="none" xmlns="http://www.w3.org/2000/svg">
<path fill-rule="evenodd" clip-rule="evenodd" d="M16 3.19995C16.2121 3.19995 16.4156 3.28424 16.5656 3.43427L20.6565 7.52518C20.969 7.83759 20.969 8.34413 20.6565 8.65655C20.3441 8.96897 19.8376 8.96897 19.5252 8.65655L16.8 5.93132V11.2727C16.8 11.7145 16.4418 12.0727 16 12.0727C15.5581 12.0727 15.2 11.7145 15.2 11.2727V5.93132L12.4747 8.65655C12.1623 8.96897 11.6558 8.96897 11.3434 8.65655C11.0309 8.34413 11.0309 7.83759 11.3434 7.52517L15.4343 3.43427C15.5843 3.28424 15.7878 3.19995 16 3.19995ZM8.65655 11.3434C8.96897 11.6558 8.96897 12.1623 8.65655 12.4747L5.93132 15.2H11.2727C11.7145 15.2 12.0727 15.5581 12.0727 16C12.0727 16.4418 11.7145 16.8 11.2727 16.8H5.93132L8.65655 19.5252C8.96897 19.8376 8.96897 20.3441 8.65655 20.6565C8.34413 20.969 7.83759 20.969 7.52518 20.6565L3.43427 16.5656C3.28424 16.4156 3.19995 16.2121 3.19995 16C3.19995 15.7878 3.28424 15.5843 3.43427 15.4343L7.52517 11.3434C7.83759 11.0309 8.34413 11.0309 8.65655 11.3434ZM23.3434 11.3434C23.6558 11.0309 24.1623 11.0309 24.4747 11.3434L28.5656 15.4343C28.7157 15.5843 28.7999 15.7878 28.7999 16C28.7999 16.2121 28.7157 16.4156 28.5656 16.5656L24.4747 20.6565C24.1623 20.969 23.6558 20.969 23.3434 20.6565C23.0309 20.3441 23.0309 19.8376 23.3434 19.5252L26.0686 16.8H20.7272C20.2854 16.8 19.9272 16.4418 19.9272 16C19.9272 15.5581 20.2854 15.2 20.7272 15.2H26.0686L23.3434 12.4747C23.0309 12.1623 23.0309 11.6558 23.3434 11.3434ZM16 19.9272C16.4418 19.9272 16.8 20.2854 16.8 20.7272V26.0686L19.5252 23.3434C19.8376 23.0309 20.3441 23.0309 20.6565 23.3434C20.969 23.6558 20.969 24.1623 20.6565 24.4747L16.5656 28.5656C16.4156 28.7157 16.2121 28.7999 16 28.7999C15.7878 28.7999 15.5843 28.7157 15.4343 28.5656L11.3434 24.4747C11.0309 24.1623 11.0309 23.6558 11.3434 23.3434C11.6558 23.0309 12.1623 23.0309 12.4747 23.3434L15.2 26.0686V20.7272C15.2 20.2854 15.5581 19.9272 16 19.9272Z" fill="#272A35"/>
</svg>
