<svg width="24" height="24" viewBox="0 0 24 24" fill="none" xmlns="http://www.w3.org/2000/svg">
<path fill-rule="evenodd" clip-rule="evenodd" d="M9.64962 2.91962C10.3245 2.22683 11.4253 2.22682 12.1002 2.91962L13.5547 4.41278C13.7859 4.65015 13.7809 5.03002 13.5436 5.26124C13.3062 5.49246 12.9263 5.48748 12.6951 5.25011L11.4749 3.99747V7.14124C11.4749 7.47261 11.2063 7.74124 10.8749 7.74124C10.5435 7.74124 10.2749 7.47261 10.2749 7.14124V3.99747L9.05469 5.25011C8.82347 5.48748 8.4436 5.49246 8.20624 5.26124C7.96887 5.03002 7.96389 4.65015 8.19511 4.41278L9.64962 2.91962ZM5.2499 6.58635C4.35337 6.58635 3.5999 7.33692 3.5999 8.29614V8.85104H18.1499V8.29614C18.1499 7.33692 17.3964 6.58635 16.4999 6.58635H15.3749C15.0435 6.58635 14.7749 6.31772 14.7749 5.98635C14.7749 5.65497 15.0435 5.38635 15.3749 5.38635H16.4999C18.0887 5.38635 19.3499 6.70404 19.3499 8.29614V8.91535C20.6448 9.1977 21.5999 10.3754 21.5999 11.7608V18.6902C21.5999 20.2823 20.3387 21.6 18.7499 21.6H5.2499C3.66115 21.6 2.3999 20.2823 2.3999 18.6902V8.29614C2.3999 6.70404 3.66115 5.38635 5.2499 5.38635H6.3749C6.70627 5.38635 6.9749 5.65497 6.9749 5.98635C6.9749 6.31772 6.70627 6.58635 6.3749 6.58635H5.2499ZM20.3999 16.9353V13.5157H18.7499C17.8534 13.5157 17.0999 14.2663 17.0999 15.2255C17.0999 16.1848 17.8534 16.9353 18.7499 16.9353H20.3999ZM20.3999 12.3157H18.7499C17.1612 12.3157 15.8999 13.6334 15.8999 15.2255C15.8999 16.8176 17.1612 18.1353 18.7499 18.1353H20.3999V18.6902C20.3999 19.6495 19.6464 20.4 18.7499 20.4H5.2499C4.35337 20.4 3.5999 19.6495 3.5999 18.6902V10.051H18.7499C19.6464 10.051 20.3999 10.8016 20.3999 11.7608V12.3157Z" fill="#272A35"/>
</svg>
