<svg width="40" height="40" viewBox="0 0 40 40" fill="none" xmlns="http://www.w3.org/2000/svg">
<path fill-rule="evenodd" clip-rule="evenodd" d="M10.6667 7C8.49145 7 7 8.48221 7 10V24C7 25.5178 8.49145 27 10.6667 27H20C22.1752 27 23.6667 25.5178 23.6667 24V19C23.6667 18.4477 24.1144 18 24.6667 18C25.219 18 25.6667 18.4477 25.6667 19V24C25.6667 26.9005 22.9794 29 20 29H16.3333V30C16.3333 31.5178 17.8248 33 20 33H29.3333C31.5086 33 33 31.5178 33 30V18C33 16.4822 31.5086 15 29.3333 15H20C17.8248 15 16.3333 16.4822 16.3333 18V23C16.3333 23.5523 15.8856 24 15.3333 24C14.781 24 14.3333 23.5523 14.3333 23V18C14.3333 15.0995 17.0206 13 20 13H23.6667V10C23.6667 8.48221 22.1752 7 20 7H10.6667ZM25.6667 13V10C25.6667 7.09951 22.9794 5 20 5H10.6667C7.68723 5 5 7.09951 5 10V24C5 26.9005 7.68723 29 10.6667 29H14.3333V30C14.3333 32.9005 17.0206 35 20 35H29.3333C32.3128 35 35 32.9005 35 30V18C35 15.0995 32.3128 13 29.3333 13H25.6667Z" fill="#272A35"/>
</svg>
