<svg width="16" height="16" viewBox="0 0 16 16" fill="none" xmlns="http://www.w3.org/2000/svg">
<path fill-rule="evenodd" clip-rule="evenodd" d="M6.3534 3.64645C6.54867 3.84171 6.54867 4.15829 6.3534 4.35355L3.06051 7.64645C2.86525 7.84171 2.86525 8.15829 3.06051 8.35355L6.3534 11.6464C6.54867 11.8417 6.54867 12.1583 6.3534 12.3536C6.15814 12.5488 5.84156 12.5488 5.6463 12.3536L2.3534 9.06066C1.76762 8.47487 1.76762 7.52513 2.3534 6.93934L5.6463 3.64645C5.84156 3.45118 6.15814 3.45118 6.3534 3.64645ZM9.6463 3.64645C9.84156 3.45118 10.1581 3.45118 10.3534 3.64645L13.6463 6.93934C14.2321 7.52513 14.2321 8.47487 13.6463 9.06066L10.3534 12.3536C10.1581 12.5488 9.84156 12.5488 9.6463 12.3536C9.45103 12.1583 9.45103 11.8417 9.6463 11.6464L12.9392 8.35355C13.1345 8.15829 13.1345 7.84171 12.9392 7.64645L9.6463 4.35355C9.45103 4.15829 9.45103 3.84171 9.6463 3.64645Z" fill="#272A35"/>
</svg>
