<svg width="24" height="24" viewBox="0 0 24 24" fill="none" xmlns="http://www.w3.org/2000/svg">
<path fill-rule="evenodd" clip-rule="evenodd" d="M3.73232 11.5212C3.62677 11.7836 3.5999 11.9396 3.5999 12C3.5999 12.0605 3.62677 12.2165 3.73232 12.4788C3.83255 12.7279 3.98664 13.0314 4.19465 13.3711C4.61042 14.0502 5.22228 14.8429 5.99129 15.5965C7.53991 17.1141 9.6473 18.4 11.9999 18.4C14.3525 18.4 16.4599 17.1141 18.0085 15.5965C18.7775 14.8429 19.3894 14.0502 19.8052 13.3711C20.0132 13.0314 20.1673 12.7279 20.2675 12.4788C20.373 12.2165 20.3999 12.0605 20.3999 12C20.3999 11.9396 20.373 11.7836 20.2675 11.5212C20.1673 11.2721 20.0132 10.9687 19.8052 10.6289C19.3894 9.94986 18.7775 9.15718 18.0085 8.40355C16.4599 6.88591 14.3525 5.60002 11.9999 5.60002C9.6473 5.60002 7.53991 6.88591 5.99129 8.40355C5.22228 9.15718 4.61042 9.94986 4.19465 10.6289C3.98664 10.9687 3.83255 11.2721 3.73232 11.5212ZM5.15137 7.5465C6.81704 5.91414 9.20965 4.40002 11.9999 4.40002C14.7902 4.40002 17.1828 5.91414 18.8484 7.5465C19.6866 8.36787 20.3604 9.23769 20.8286 10.0024C21.0625 10.3845 21.25 10.7482 21.3808 11.0733C21.5062 11.3852 21.5999 11.7105 21.5999 12C21.5999 12.2896 21.5062 12.6148 21.3808 12.9267C21.25 13.2518 21.0625 13.6156 20.8286 13.9977C20.3604 14.7624 19.6866 15.6322 18.8484 16.4536C17.1828 18.0859 14.7902 19.6 11.9999 19.6C9.20965 19.6 6.81704 18.0859 5.15137 16.4536C4.31324 15.6322 3.63939 14.7624 3.17123 13.9977C2.93727 13.6156 2.74985 13.2518 2.61905 12.9267C2.49357 12.6148 2.3999 12.2896 2.3999 12C2.3999 11.7105 2.49357 11.3852 2.61905 11.0733C2.74985 10.7482 2.93727 10.3845 3.17123 10.0024C3.63939 9.23769 4.31324 8.36787 5.15137 7.5465ZM11.9999 9.80002C10.9582 9.80002 10.0285 10.7359 10.0285 12C10.0285 13.2642 10.9582 14.2 11.9999 14.2C13.0416 14.2 13.9713 13.2642 13.9713 12C13.9713 10.7359 13.0416 9.80002 11.9999 9.80002ZM8.82847 12C8.82847 10.1714 10.2013 8.60002 11.9999 8.60002C13.7985 8.60002 15.1713 10.1714 15.1713 12C15.1713 13.8287 13.7985 15.4 11.9999 15.4C10.2013 15.4 8.82847 13.8287 8.82847 12Z" fill="#272A35"/>
</svg>
