<svg width="40" height="40" viewBox="0 0 40 40" fill="none" xmlns="http://www.w3.org/2000/svg">
<path fill-rule="evenodd" clip-rule="evenodd" d="M16.915 5.02083C18.7582 3.65972 21.2418 3.65972 23.085 5.02083L33.7993 12.9326C35.1875 13.9577 36 15.6024 36 17.3424V30.5694C36 33.537 33.6646 36 30.7143 36H26.4286C24.6617 36 23.2857 34.5289 23.2857 32.7847V26.1388C23.2857 25.436 22.743 24.9235 22.1429 24.9235H17.8571C17.257 24.9235 16.7143 25.436 16.7143 26.1388V32.7847C16.7143 34.5289 15.3383 36 13.5714 36H9.28571C6.33542 36 4 33.537 4 30.5694V17.3424C4 15.6024 4.81252 13.9577 6.20067 12.9326L16.915 5.02083ZM21.897 6.62972C20.76 5.79009 19.24 5.79009 18.103 6.62972L7.38872 14.5415C6.52433 15.1798 6 16.2206 6 17.3424V30.5694C6 32.4957 7.50214 34 9.28571 34H13.5714C14.1715 34 14.7143 33.4875 14.7143 32.7847V26.1388C14.7143 24.3946 16.0903 22.9235 17.8571 22.9235H22.1429C23.9097 22.9235 25.2857 24.3946 25.2857 26.1388V32.7847C25.2857 33.4875 25.8285 34 26.4286 34H30.7143C32.4979 34 34 32.4957 34 30.5694V17.3424C34 16.2206 33.4757 15.1798 32.6113 14.5415L21.897 6.62972Z" fill="#272A35"/>
</svg>
