<svg width="16" height="16" viewBox="0 0 16 16" fill="none" xmlns="http://www.w3.org/2000/svg">
<path fill-rule="evenodd" clip-rule="evenodd" d="M7.94902 2.5C6.87199 2.5 5.88728 3.23702 5.53185 4.37439L5.47724 4.54914C5.39487 4.81271 5.11443 4.95961 4.85086 4.87724C4.58729 4.79487 4.44039 4.51443 4.52276 4.25086L4.57737 4.07612C5.0525 2.55569 6.39959 1.5 7.94902 1.5C9.94008 1.5 11.5 3.21178 11.5 5.25438V6.36536C12.3792 6.60104 13 7.44392 13 8.4V12.4C13 13.5289 12.1345 14.5 11 14.5H5C3.86552 14.5 3 13.5289 3 12.4V8.4C3 7.27109 3.86552 6.3 5 6.3H10.5V5.25438C10.5 3.70229 9.32798 2.5 7.94902 2.5ZM5 7.3C4.47762 7.3 4 7.7616 4 8.4V12.4C4 13.0384 4.47762 13.5 5 13.5H11C11.5224 13.5 12 13.0384 12 12.4V8.4C12 7.7616 11.5224 7.3 11 7.3H5ZM6.75 10C6.75 9.72386 6.97386 9.5 7.25 9.5H8.75C9.02614 9.5 9.25 9.72386 9.25 10C9.25 10.2761 9.02614 10.5 8.75 10.5H8.5V11.6C8.5 11.8761 8.27614 12.1 8 12.1C7.72386 12.1 7.5 11.8761 7.5 11.6V10.5H7.25C6.97386 10.5 6.75 10.2761 6.75 10Z" fill="#272A35"/>
</svg>
