<svg width="32" height="32" viewBox="0 0 32 32" fill="none" xmlns="http://www.w3.org/2000/svg">
<path fill-rule="evenodd" clip-rule="evenodd" d="M10.2368 4.79995C6.73394 4.79995 3.79995 7.86418 3.79995 11.7647C3.79995 15.6651 6.73394 18.7294 10.2368 18.7294H12.2105C12.6523 18.7294 13.0105 19.0875 13.0105 19.5294C13.0105 19.9712 12.6523 20.3294 12.2105 20.3294H10.2368C5.74605 20.3294 2.19995 16.4408 2.19995 11.7647C2.19995 7.08848 5.74605 3.19995 10.2368 3.19995H14.8421C15.2839 3.19995 15.6421 3.55812 15.6421 3.99995C15.6421 4.44178 15.2839 4.79995 14.8421 4.79995H10.2368ZM19.1736 3.99995C19.1736 3.55812 19.5318 3.19995 19.9736 3.19995H28C28.4418 3.19995 28.7999 3.55812 28.7999 3.99995C28.7999 4.44178 28.4418 4.79995 28 4.79995H19.9736C19.5318 4.79995 19.1736 4.44178 19.1736 3.99995ZM19.1736 11.7647C19.1736 11.3228 19.5318 10.9647 19.9736 10.9647H28C28.4418 10.9647 28.7999 11.3228 28.7999 11.7647C28.7999 12.2065 28.4418 12.5647 28 12.5647H19.9736C19.5318 12.5647 19.1736 12.2065 19.1736 11.7647ZM19.1736 19.5294C19.1736 19.0875 19.5318 18.7294 19.9736 18.7294H28C28.4418 18.7294 28.7999 19.0875 28.7999 19.5294C28.7999 19.9712 28.4418 20.3294 28 20.3294H19.9736C19.5318 20.3294 19.1736 19.9712 19.1736 19.5294Z" fill="#272A35"/>
<path fill-rule="evenodd" clip-rule="evenodd" d="M16.6043 19.5855L18.9111 17.1921L18.8711 22.0198L16.6043 19.5855ZM17.9254 23.3486C18.8363 24.3267 20.4139 23.6527 20.4252 22.2805L20.4693 16.9571C20.4806 15.5855 18.9154 14.8853 17.9882 15.8474L15.4445 18.4866C14.8696 19.0831 14.8612 20.0581 15.4258 20.6644L17.9254 23.3486Z" fill="#272A35"/>
</svg>
