<svg width="16" height="16" viewBox="0 0 16 16" fill="none" xmlns="http://www.w3.org/2000/svg">
<path fill-rule="evenodd" clip-rule="evenodd" d="M8.40692 2.60549C8.1499 2.46484 7.8501 2.46484 7.59308 2.60549L6.70538 3.09129C6.02594 3.4631 5.30499 3.74177 4.55947 3.92027L4.23509 3.99793C3.82903 4.09515 3.5 4.49996 3.5 5.01416V7.78329C3.5 10.0952 4.79373 12.1531 6.7375 13.0174L7.65816 13.4267C7.87788 13.5244 8.12212 13.5244 8.34184 13.4267L9.2625 13.0174C11.2063 12.1531 12.5 10.0952 12.5 7.78329V5.01416C12.5 4.49996 12.171 4.09515 11.7649 3.99793L11.4405 3.92027C10.695 3.74177 9.97406 3.4631 9.29462 3.09129L8.40692 2.60549ZM7.11302 1.72826C7.66915 1.42391 8.33085 1.42391 8.88698 1.72826L9.77469 2.21405C10.3773 2.54383 11.0152 2.79017 11.6734 2.94775L11.9977 3.02542C12.8989 3.24118 13.5 4.08557 13.5 5.01416V7.78329C13.5 10.4573 12.0028 12.8933 9.66879 13.9311L8.74813 14.3405C8.26976 14.5532 7.73024 14.5532 7.25187 14.3405L6.33121 13.9311C3.99715 12.8933 2.5 10.4573 2.5 7.78329V5.01416C2.5 4.08558 3.10106 3.24118 4.00225 3.02542L4.32663 2.94775C4.9848 2.79017 5.62271 2.54383 6.22531 2.21405L7.11302 1.72826ZM6.58843 6.06377C6.79082 5.87591 7.10719 5.8877 7.29504 6.0901L8 6.84961L8.70496 6.0901C8.89281 5.8877 9.20918 5.87591 9.41157 6.06377C9.61397 6.25163 9.62576 6.56799 9.4379 6.77039L8.68218 7.58459L9.4379 8.3988C9.62576 8.6012 9.61397 8.91756 9.41157 9.10542C9.20918 9.29327 8.89281 9.28149 8.70496 9.07909L8 8.31957L7.29504 9.07909C7.10719 9.28149 6.79082 9.29327 6.58843 9.10542C6.38603 8.91756 6.37424 8.6012 6.5621 8.3988L7.31782 7.58459L6.5621 6.77039C6.37424 6.56799 6.38603 6.25163 6.58843 6.06377Z" fill="#272A35"/>
</svg>
