<svg width="16" height="16" viewBox="0 0 16 16" fill="none" xmlns="http://www.w3.org/2000/svg">
<path fill-rule="evenodd" clip-rule="evenodd" d="M12 1.5C13.3807 1.5 14.5 2.61929 14.5 4L14.5 12C14.5 13.3807 13.3807 14.5 12 14.5L4 14.5C2.61929 14.5 1.5 13.3807 1.5 12L1.5 4C1.5 2.61929 2.61929 1.5 4 1.5L12 1.5ZM13.5 4C13.5 3.17157 12.8284 2.5 12 2.5L8.5 2.5L8.5 8.79289L10.9798 6.31311C11.175 6.11785 11.4916 6.11785 11.6869 6.31311C11.8821 6.50838 11.8821 6.82496 11.6869 7.02022L8.35355 10.3536C8.15829 10.5488 7.84171 10.5488 7.64645 10.3536L4.31311 7.02022C4.11785 6.82496 4.11785 6.50838 4.31311 6.31311C4.50837 6.11785 4.82496 6.11785 5.02022 6.31311L7.5 8.79289L7.5 2.5L4 2.5C3.17157 2.5 2.5 3.17157 2.5 4L2.5 12C2.5 12.8284 3.17157 13.5 4 13.5L12 13.5C12.8284 13.5 13.5 12.8284 13.5 12L13.5 4Z" fill="#272A35"/>
</svg>
