<svg width="24" height="24" viewBox="0 0 24 24" fill="none" xmlns="http://www.w3.org/2000/svg">
<path fill-rule="evenodd" clip-rule="evenodd" d="M8.3124 2.40002C8.64377 2.40002 8.9124 2.66865 8.9124 3.00002V3.52372H14.0874V3.00002C14.0874 2.66865 14.356 2.40002 14.6874 2.40002C15.0188 2.40002 15.2874 2.66865 15.2874 3.00002V3.52372H17.8749C19.4111 3.52372 20.5999 4.83065 20.5999 6.37112V14.7989C20.5999 15.1302 20.3313 15.3989 19.9999 15.3989C19.6685 15.3989 19.3999 15.1302 19.3999 14.7989V8.65667H3.5999V18.7318C3.5999 19.6737 4.31388 20.3792 5.1249 20.3792H13.6249C13.9563 20.3792 14.2249 20.6478 14.2249 20.9792C14.2249 21.3106 13.9563 21.5792 13.6249 21.5792H5.1249C3.58871 21.5792 2.3999 20.2723 2.3999 18.7318V6.37112C2.3999 4.83065 3.58871 3.52372 5.1249 3.52372H7.7124V3.00002C7.7124 2.66865 7.98103 2.40002 8.3124 2.40002ZM7.7124 4.72372H5.1249C4.31388 4.72372 3.5999 5.42919 3.5999 6.37112V7.45667H19.3999V6.37112C19.3999 5.42919 18.6859 4.72372 17.8749 4.72372H15.2874V5.24742C15.2874 5.57879 15.0188 5.84742 14.6874 5.84742C14.356 5.84742 14.0874 5.57879 14.0874 5.24742V4.72372H8.9124V5.24742C8.9124 5.57879 8.64377 5.84742 8.3124 5.84742C7.98103 5.84742 7.7124 5.57879 7.7124 5.24742V4.72372ZM5.5874 11.9896C5.5874 11.6582 5.85603 11.3896 6.1874 11.3896H7.2499C7.58127 11.3896 7.8499 11.6582 7.8499 11.9896C7.8499 12.321 7.58127 12.5896 7.2499 12.5896H6.1874C5.85603 12.5896 5.5874 12.321 5.5874 11.9896ZM9.8374 11.9896C9.8374 11.6582 10.106 11.3896 10.4374 11.3896H12.5624C12.8938 11.3896 13.1624 11.6582 13.1624 11.9896C13.1624 12.321 12.8938 12.5896 12.5624 12.5896H10.4374C10.106 12.5896 9.8374 12.321 9.8374 11.9896ZM15.1499 11.9896C15.1499 11.6582 15.4185 11.3896 15.7499 11.3896H16.8124C17.1438 11.3896 17.4124 11.6582 17.4124 11.9896C17.4124 12.321 17.1438 12.5896 16.8124 12.5896H15.7499C15.4185 12.5896 15.1499 12.321 15.1499 11.9896ZM5.5874 16.4844C5.5874 16.153 5.85603 15.8844 6.1874 15.8844H7.2499C7.58127 15.8844 7.8499 16.153 7.8499 16.4844C7.8499 16.8158 7.58127 17.0844 7.2499 17.0844H6.1874C5.85603 17.0844 5.5874 16.8158 5.5874 16.4844ZM9.8374 16.4844C9.8374 16.153 10.106 15.8844 10.4374 15.8844H12.5624C12.8938 15.8844 13.1624 16.153 13.1624 16.4844C13.1624 16.8158 12.8938 17.0844 12.5624 17.0844H10.4374C10.106 17.0844 9.8374 16.8158 9.8374 16.4844ZM20.3399 17.1137C20.6129 17.3015 20.6821 17.675 20.4943 17.9481L18.48 20.8772C17.8371 21.8122 16.5044 21.8475 15.8181 20.9403L15.2714 20.2175C15.0715 19.9532 15.1237 19.5769 15.3879 19.377C15.6522 19.1771 16.0285 19.2293 16.2284 19.4935L16.7752 20.2163C16.9648 20.467 17.3095 20.4615 17.4912 20.1973L19.5055 17.2681C19.6933 16.9951 20.0668 16.926 20.3399 17.1137Z" fill="#272A35"/>
</svg>
