<svg width="24" height="24" viewBox="0 0 24 24" fill="none" xmlns="http://www.w3.org/2000/svg">
<path fill-rule="evenodd" clip-rule="evenodd" d="M12.7611 3.78418C12.2825 3.53864 11.7173 3.53864 11.2387 3.78418L9.81834 4.51287C8.74766 5.06218 7.6127 5.47329 6.44018 5.73647L5.92118 5.85297C5.15311 6.02537 4.5999 6.716 4.5999 7.52126V11.675C4.5999 15.175 6.68953 18.3252 9.88573 19.6576L11.3588 20.2716C11.7695 20.4428 12.2303 20.4428 12.641 20.2716L14.1141 19.6576C17.3103 18.3252 19.3999 15.175 19.3999 11.675V7.52126C19.3999 6.716 18.8467 6.02537 18.0786 5.85297L17.5596 5.73647C16.3871 5.47329 15.2521 5.06218 14.1815 4.51287L12.7611 3.78418ZM10.6909 2.7165C11.5134 2.29453 12.4864 2.29453 13.3089 2.71649L14.7292 3.44519C15.7098 3.94827 16.749 4.32467 17.8224 4.56561L18.3414 4.6821C19.665 4.97918 20.5999 6.16235 20.5999 7.52126V11.675C20.5999 15.6539 18.2241 19.2444 14.5758 20.7652L13.1027 21.3792C12.3965 21.6736 11.6033 21.6736 10.8971 21.3792L9.42402 20.7652C5.77569 19.2444 3.3999 15.6539 3.3999 11.675V7.52126C3.3999 6.16236 4.33484 4.97918 5.65837 4.6821L6.17737 4.56561C7.25076 4.32468 8.28999 3.94827 9.27057 3.44519L10.6909 2.7165ZM9.86348 9.219C10.099 8.98586 10.4789 8.98777 10.712 9.22325L11.9999 10.5241L13.2878 9.22325C13.5209 8.98777 13.9008 8.98586 14.1363 9.219C14.3718 9.45214 14.3737 9.83204 14.1406 10.0675L12.8442 11.3769L14.1406 12.6863C14.3737 12.9218 14.3718 13.3017 14.1363 13.5348C13.9008 13.768 13.5209 13.7661 13.2878 13.5306L11.9999 12.2297L10.712 13.5306C10.4789 13.7661 10.099 13.768 9.86348 13.5348C9.628 13.3017 9.6261 12.9218 9.85924 12.6863L11.1556 11.3769L9.85924 10.0675C9.6261 9.83204 9.628 9.45214 9.86348 9.219Z" fill="#272A35"/>
</svg>
