<svg width="24" height="24" viewBox="0 0 24 24" fill="none" xmlns="http://www.w3.org/2000/svg">
<path fill-rule="evenodd" clip-rule="evenodd" d="M18.9999 9.39999C19.3313 9.39999 19.5999 9.66862 19.5999 9.99999V11.4H20.9999C21.3313 11.4 21.5999 11.6686 21.5999 12C21.5999 12.3314 21.3313 12.6 20.9999 12.6H19.5999V14C19.5999 14.3314 19.3313 14.6 18.9999 14.6C18.6685 14.6 18.3999 14.3314 18.3999 14L18.3999 12.6H16.9999C16.6685 12.6 16.3999 12.3314 16.3999 12C16.3999 11.6686 16.6685 11.4 16.9999 11.4H18.3999V9.99999C18.3999 9.66862 18.6685 9.39999 18.9999 9.39999Z" fill="#272A35"/>
<path fill-rule="evenodd" clip-rule="evenodd" d="M9.99992 3.59999C8.05538 3.59999 6.51659 5.11462 6.51659 6.93749C6.51659 8.76036 8.05538 10.275 9.99992 10.275C11.9445 10.275 13.4833 8.76036 13.4833 6.93749C13.4833 5.11462 11.9445 3.59999 9.99992 3.59999ZM5.31659 6.93749C5.31659 4.41112 7.43414 2.39999 9.99992 2.39999C12.5657 2.39999 14.6833 4.41112 14.6833 6.93749C14.6833 9.46387 12.5657 11.475 9.99992 11.475C7.43414 11.475 5.31659 9.46387 5.31659 6.93749ZM12.6905 14.8204C10.908 14.5265 9.09179 14.5265 7.30932 14.8204L7.10155 14.8547L7.00765 14.2851L7.10155 14.8547C5.09842 15.1849 3.5999 16.9779 3.5999 19.1115C3.5999 19.8416 4.16799 20.4 4.82803 20.4H15.1718C15.8318 20.4 16.3999 19.8416 16.3999 19.1115C16.3999 16.9779 14.9014 15.1849 12.8983 14.8547L12.9959 14.2626L12.8983 14.8547L12.6905 14.8204ZM12.8857 13.6364L12.7881 14.2284L12.8857 13.6364L13.0935 13.6706C15.7038 14.101 17.5999 16.4189 17.5999 19.1115C17.5999 20.4673 16.531 21.6 15.1718 21.6H4.82803C3.46878 21.6 2.3999 20.4673 2.3999 19.1115C2.3999 16.4189 4.29603 14.101 6.90634 13.6706L7.11412 13.6364L7.21172 14.2284L7.11412 13.6364C9.02585 13.3212 10.974 13.3212 12.8857 13.6364Z" fill="#272A35"/>
</svg>
