<svg width="24" height="24" viewBox="0 0 24 24" fill="none" xmlns="http://www.w3.org/2000/svg">
<path fill-rule="evenodd" clip-rule="evenodd" d="M5.92847 3.09999C4.89887 3.09999 4.0999 3.90112 4.0999 4.84607V16.5765C4.0999 17.5214 4.89887 18.3226 5.92847 18.3226H8.2716C9.27516 18.3226 10.2205 18.8069 10.7861 19.6265L11.4834 20.6368C11.7255 20.9877 12.2743 20.9877 12.5164 20.6369L13.2137 19.6265C13.7793 18.8069 14.7246 18.3226 15.7282 18.3226H18.0713C19.1009 18.3226 19.8999 17.5214 19.8999 16.5765V4.84608C19.8999 3.90112 19.1009 3.09999 18.0713 3.09999H5.92847ZM2.8999 4.84607C2.8999 3.19962 4.27555 1.89999 5.92847 1.89999H18.0713C19.7243 1.89999 21.0999 3.19962 21.0999 4.84608V16.5765C21.0999 18.2229 19.7243 19.5226 18.0713 19.5226H15.7282C15.1078 19.5226 14.5366 19.8223 14.2013 20.3081L13.5041 21.3184C12.7849 22.3605 11.2149 22.3605 10.4957 21.3184L9.79847 20.3081C9.46323 19.8223 8.89204 19.5226 8.2716 19.5226H5.92847C4.27555 19.5226 2.8999 18.2229 2.8999 16.5765V4.84607Z" fill="#272A35"/>
<path fill-rule="evenodd" clip-rule="evenodd" d="M11.9999 5.94997C12.8651 5.94997 13.6036 6.68388 13.6036 7.63591C13.6036 8.58793 12.8651 9.32184 11.9999 9.32184C11.1347 9.32184 10.3962 8.58793 10.3962 7.63591C10.3962 6.68388 11.1347 5.94997 11.9999 5.94997ZM14.8036 7.63591C14.8036 6.06296 13.5689 4.74997 11.9999 4.74997C10.4309 4.74997 9.19619 6.06296 9.19619 7.63591C9.19619 9.20886 10.4309 10.5218 11.9999 10.5218C13.5689 10.5218 14.8036 9.20886 14.8036 7.63591ZM10.6 12.4595C11.5275 12.295 12.4723 12.295 13.3999 12.4595L13.512 12.4793C14.4274 12.6417 15.1777 13.5476 15.1777 14.7036C15.1777 15.0388 14.9466 15.2 14.7911 15.2H9.20874C9.0532 15.2 8.82213 15.0388 8.82213 14.7036C8.82213 13.5476 9.5724 12.6417 10.4878 12.4793L10.6 12.4595ZM13.6094 11.2779C12.5433 11.0888 11.4566 11.0888 10.3904 11.2779L10.2783 11.2978C8.7039 11.577 7.62213 13.0576 7.62213 14.7036C7.62213 15.5794 8.2745 16.4 9.20874 16.4H14.7911C15.7253 16.4 16.3777 15.5794 16.3777 14.7036C16.3777 13.0576 15.2959 11.577 13.7216 11.2978L13.6094 11.2779Z" fill="#272A35"/>
</svg>
