<svg width="24" height="24" viewBox="0 0 24 24" fill="none" xmlns="http://www.w3.org/2000/svg">
<path fill-rule="evenodd" clip-rule="evenodd" d="M11.9999 3.60002C9.76977 3.60002 7.93324 5.46438 7.93324 7.80002L7.93324 9.60002H16.0666V7.80002C16.0666 5.46438 14.23 3.60002 11.9999 3.60002ZM17.2666 9.66254V7.80002C17.2666 4.83373 14.9244 2.40002 11.9999 2.40002C9.07538 2.40002 6.73324 4.83373 6.73324 7.80002L6.73324 9.66254C5.39117 9.94682 4.3999 11.1658 4.3999 12.6V18.6C4.3999 20.2408 5.69738 21.6 7.33324 21.6H16.6666C18.3024 21.6 19.5999 20.2408 19.5999 18.6V12.6C19.5999 11.1658 18.6086 9.94682 17.2666 9.66254ZM7.33324 10.8C6.39176 10.8 5.5999 11.5899 5.5999 12.6V18.6C5.5999 19.6102 6.39176 20.4 7.33324 20.4H16.6666C17.608 20.4 18.3999 19.6102 18.3999 18.6V12.6C18.3999 11.5899 17.608 10.8 16.6666 10.8H7.33324ZM10.2332 15C10.2332 14.6687 10.5019 14.4 10.8332 14.4H13.1666C13.4979 14.4 13.7666 14.6687 13.7666 15C13.7666 15.3314 13.4979 15.6 13.1666 15.6H12.5999V17.4C12.5999 17.7314 12.3313 18 11.9999 18C11.6685 18 11.3999 17.7314 11.3999 17.4V15.6H10.8332C10.5019 15.6 10.2332 15.3314 10.2332 15Z" fill="#272A35"/>
</svg>
