<svg width="32" height="32" viewBox="0 0 32 32" fill="none" xmlns="http://www.w3.org/2000/svg">
<path fill-rule="evenodd" clip-rule="evenodd" d="M14.0404 3.71048C15.2567 3.02986 16.7432 3.02986 17.9595 3.71048L25.7709 8.08153C27.0221 8.78169 27.8 10.0974 27.7999 11.5281L27.7999 20.472C27.7999 21.9026 27.0221 23.2183 25.7709 23.9185L17.9595 28.2895C16.7432 28.9702 15.2567 28.9702 14.0404 28.2895L6.22901 23.9185C4.97779 23.2183 4.19995 21.9026 4.19995 20.472L4.19995 11.5281C4.19995 10.0974 4.97779 8.78169 6.22901 8.08153L14.0404 3.71048ZM17.1782 5.10674C16.4474 4.69777 15.5525 4.69777 14.8217 5.10674L7.01032 9.47779C6.25984 9.89775 5.79995 10.6822 5.79995 11.5281L5.79995 20.472C5.79995 21.3178 6.25984 22.1023 7.01032 22.5222L14.8217 26.8933C15.5525 27.3023 16.4474 27.3023 17.1782 26.8933L24.9896 22.5222C25.7401 22.1023 26.1999 21.3178 26.1999 20.472L26.1999 11.5281C26.2 10.6822 25.7401 9.89775 24.9896 9.4778L17.1782 5.10674ZM15.9999 12.0645C13.7927 12.0645 12.017 13.834 12.017 16C12.017 18.166 13.7927 19.9355 15.9999 19.9355C18.2072 19.9355 19.9829 18.166 19.9829 16C19.9829 13.834 18.2072 12.0645 15.9999 12.0645ZM10.417 16C10.417 12.9353 12.9241 10.4645 15.9999 10.4645C19.0758 10.4645 21.5829 12.9353 21.5829 16C21.5829 19.0647 19.0758 21.5355 15.9999 21.5355C12.9241 21.5355 10.417 19.0647 10.417 16Z" fill="#272A35"/>
</svg>
