<svg width="16" height="16" viewBox="0 0 16 16" fill="none" xmlns="http://www.w3.org/2000/svg">
<path fill-rule="evenodd" clip-rule="evenodd" d="M7.5 14.5V1.5H8.5V14.5H7.5ZM2 5C2 3.61929 3.11929 2.5 4.5 2.5H6V3.5H4.5C3.67157 3.5 3 4.17157 3 5V11C3 11.8284 3.67157 12.5 4.5 12.5H6V13.5H4.5C3.11929 13.5 2 12.3807 2 11V5Z" fill="#272A35"/>
<path fill-rule="evenodd" clip-rule="evenodd" d="M10.8538 3.50005L10 3.5V2.5L10.8538 2.50005V3.50005ZM11.8851 3.50005H11.4163V2.50005H11.8851C12.0939 2.50005 12.2974 2.52576 12.4924 2.57444L12.2501 3.54465C12.1338 3.5156 12.0116 3.50005 11.8851 3.50005ZM13.1722 4.22916C13.0452 4.01773 12.8674 3.83994 12.656 3.71294L13.1709 2.85569C13.5228 3.06704 13.8181 3.36239 14.0295 3.71426L13.1722 4.22916ZM13.3851 5.00005C13.3851 4.87355 13.3695 4.75138 13.3405 4.63505L14.3107 4.39278C14.3594 4.58771 14.3851 4.79122 14.3851 5.00005V5.4688H13.3851V5.00005ZM13.3851 6.9688V6.0313H14.3851V6.9688H13.3851ZM13.3851 8.4688V7.5313H14.3851V8.4688H13.3851ZM13.3851 9.9688V9.0313H14.3851V9.9688H13.3851ZM13.3851 11V10.5313H14.3851V11C14.3851 11.2089 14.3594 11.4124 14.3107 11.6073L13.3405 11.365C13.3695 11.2487 13.3851 11.1266 13.3851 11ZM12.656 12.2872C12.8674 12.1602 13.0452 11.9824 13.1722 11.7709L14.0295 12.2858C13.8181 12.6377 13.5228 12.9331 13.1709 13.1444L12.656 12.2872ZM11.8851 12.5C12.0116 12.5 12.1338 12.4845 12.2501 12.4555L12.4924 13.4257C12.2974 13.4743 12.0939 13.5 11.8851 13.5H11.4163V12.5H11.8851ZM10 12.5L10.8538 12.5V13.5L10 13.5V12.5Z" fill="#272A35"/>
</svg>
