<svg width="40" height="40" viewBox="0 0 40 40" fill="none" xmlns="http://www.w3.org/2000/svg">
<path fill-rule="evenodd" clip-rule="evenodd" d="M9.28571 6C7.47106 6 6 7.47106 6 9.28571V30.7143C6 32.5289 7.47106 34 9.28571 34H30.7143C32.5289 34 34 32.5289 34 30.7143V13.5714C34 11.7568 32.5289 10.2857 30.7143 10.2857H21.7752C20.3733 10.2857 19.0289 9.72883 18.0376 8.73757L16.2624 6.96236C15.6462 6.34617 14.8105 6 13.9391 6H9.28571ZM4 9.28571C4 6.36649 6.3665 4 9.28571 4H13.9391C15.3409 4 16.6854 4.55689 17.6766 5.54815L19.4519 7.32335C20.068 7.93954 20.9038 8.28571 21.7752 8.28571H30.7143C33.6335 8.28571 36 10.6522 36 13.5714V30.7143C36 33.6335 33.6335 36 30.7143 36H9.28571C6.36649 36 4 33.6335 4 30.7143V9.28571ZM15.7143 16.8571C16.2666 16.8571 16.7143 17.3049 16.7143 17.8571V21.1429H20C20.5523 21.1429 21 21.5906 21 22.1429C21 22.6951 20.5523 23.1429 20 23.1429H16.7143V26.4286C16.7143 26.9809 16.2666 27.4286 15.7143 27.4286C15.162 27.4286 14.7143 26.9809 14.7143 26.4286V23.1429H11.4286C10.8763 23.1429 10.4286 22.6951 10.4286 22.1429C10.4286 21.5906 10.8763 21.1429 11.4286 21.1429H14.7143V17.8571C14.7143 17.3049 15.162 16.8571 15.7143 16.8571Z" fill="#272A35"/>
</svg>
