<svg width="40" height="40" viewBox="0 0 40 40" fill="none" xmlns="http://www.w3.org/2000/svg">
<path fill-rule="evenodd" clip-rule="evenodd" d="M20 34.5C28.0081 34.5 34.5 28.0081 34.5 20C34.5 11.9919 28.0081 5.5 20 5.5C11.9919 5.5 5.5 11.9919 5.5 20C5.5 28.0081 11.9919 34.5 20 34.5ZM20 36.5C29.1127 36.5 36.5 29.1127 36.5 20C36.5 10.8873 29.1127 3.5 20 3.5C10.8873 3.5 3.5 10.8873 3.5 20C3.5 29.1127 10.8873 36.5 20 36.5Z" fill="#272A35"/>
<path fill-rule="evenodd" clip-rule="evenodd" d="M12.693 12.6929C13.0836 12.3024 13.7167 12.3024 14.1073 12.6929L20.0001 18.5858L25.893 12.6929C26.2836 12.3024 26.9167 12.3024 27.3073 12.6929C27.6978 13.0834 27.6978 13.7166 27.3073 14.1071L21.4144 20L27.3073 25.8929C27.6978 26.2834 27.6978 26.9166 27.3073 27.3071C26.9167 27.6976 26.2836 27.6976 25.893 27.3071L20.0001 21.4142L14.1073 27.3071C13.7167 27.6976 13.0836 27.6976 12.693 27.3071C12.3025 26.9166 12.3025 26.2834 12.693 25.8929L18.5859 20L12.693 14.1071C12.3025 13.7166 12.3025 13.0834 12.693 12.6929Z" fill="#272A35"/>
</svg>
