<svg width="16" height="16" viewBox="0 0 16 16" fill="none" xmlns="http://www.w3.org/2000/svg">
<path fill-rule="evenodd" clip-rule="evenodd" d="M3.71429 2C3.01218 2 2.5 2.52527 2.5 3.10521V11.1313C2.5 11.7112 3.01218 12.2365 3.71429 12.2365H5.36826C6.09447 12.2365 6.78525 12.576 7.20194 13.1613L7.69413 13.8526C7.83405 14.0491 8.16595 14.0491 8.30587 13.8526L8.79806 13.1613C9.21475 12.576 9.90553 12.2365 10.6317 12.2365H12.2857C12.9878 12.2365 13.5 11.7112 13.5 11.1313V3.10521C13.5 2.52527 12.9878 2 12.2857 2H3.71429ZM1.5 3.10521C1.5 1.91208 2.52284 1 3.71429 1H12.2857C13.4772 1 14.5 1.91208 14.5 3.10521V11.1313C14.5 12.3244 13.4772 13.2365 12.2857 13.2365H10.6317C10.2116 13.2365 9.83187 13.4334 9.61269 13.7413L9.1205 14.4326C8.58187 15.1891 7.41813 15.1891 6.8795 14.4326L6.38731 13.7413C6.16813 13.4334 5.7884 13.2365 5.36826 13.2365H3.71429C2.52284 13.2365 1.5 12.3244 1.5 11.1313V3.10521ZM8.72089 4.01754C9.24099 3.48182 10.1177 3.46382 10.6617 3.97322L10.9551 4.24791C11.4816 4.74098 11.5038 5.54983 11.0002 6.06859L6.52694 10.6761C6.43278 10.7731 6.30337 10.8278 6.1682 10.8278L4.66129 10.8278C4.38515 10.8278 4.16129 10.6039 4.16129 10.3278L4.16129 8.91678C4.16129 8.78673 4.21196 8.6618 4.30255 8.56849L8.72089 4.01754ZM9.97821 4.70316C9.8301 4.56448 9.57667 4.57166 9.43837 4.71411L5.16129 9.11957L5.16129 9.82781L5.95675 9.82781L10.2827 5.37201C10.3946 5.25675 10.392 5.09067 10.2716 4.97785L9.97821 4.70316ZM7.92857 10.3287C7.92857 10.0525 8.15243 9.82867 8.42857 9.82867H11.4286C11.7047 9.82867 11.9286 10.0525 11.9286 10.3287C11.9286 10.6048 11.7047 10.8287 11.4286 10.8287H8.42857C8.15243 10.8287 7.92857 10.6048 7.92857 10.3287Z" fill="#272A35"/>
</svg>
