<svg width="16" height="16" viewBox="0 0 16 16" fill="none" xmlns="http://www.w3.org/2000/svg">
<path fill-rule="evenodd" clip-rule="evenodd" d="M3.85693 3.92857C3.85693 3.65243 4.08079 3.42857 4.35693 3.42857H11.6426C11.9188 3.42857 12.1426 3.65243 12.1426 3.92857C12.1426 4.20472 11.9188 4.42857 11.6426 4.42857H4.35693C4.08079 4.42857 3.85693 4.20472 3.85693 3.92857Z" fill="#272A35"/>
<path fill-rule="evenodd" clip-rule="evenodd" d="M7.9808 10.9153L8.94318 9.98597L7.08544 9.98817L7.9808 10.9153ZM5.54919 9.8369C5.24287 9.51969 5.4673 8.99009 5.90827 8.98957L10.1817 8.9845C10.6316 8.98397 10.8532 9.53161 10.5296 9.84417L8.31579 11.982C8.11715 12.1738 7.80061 12.1683 7.60879 11.9697L5.54919 9.8369Z" fill="#272A35"/>
<path fill-rule="evenodd" clip-rule="evenodd" d="M8.01184 6.00199C8.28798 6.00198 8.51185 6.22583 8.51186 6.50197L8.51194 8.97398C8.51194 9.25012 8.28809 9.47399 8.01195 9.474C7.73581 9.47401 7.51194 9.25016 7.51194 8.97401L7.51186 6.502C7.51185 6.22586 7.7357 6.002 8.01184 6.00199Z" fill="#272A35"/>
<path fill-rule="evenodd" clip-rule="evenodd" d="M1.5 4C1.5 2.61929 2.61929 1.5 4 1.5H12C13.3807 1.5 14.5 2.61929 14.5 4V12C14.5 13.3807 13.3807 14.5 12 14.5H4C2.61929 14.5 1.5 13.3807 1.5 12V4ZM4 2.5C3.17157 2.5 2.5 3.17157 2.5 4V12C2.5 12.8284 3.17157 13.5 4 13.5H12C12.8284 13.5 13.5 12.8284 13.5 12V4C13.5 3.17157 12.8284 2.5 12 2.5H4Z" fill="#272A35"/>
</svg>
