<svg width="32" height="32" viewBox="0 0 32 32" fill="none" xmlns="http://www.w3.org/2000/svg">
<path fill-rule="evenodd" clip-rule="evenodd" d="M15.4776 2.71009C15.6509 2.70339 15.8251 2.70001 16 2.70001C16.1748 2.70001 16.349 2.70339 16.5223 2.71009C16.9638 2.72716 17.3079 3.09891 17.2908 3.5404C17.2738 3.9819 16.902 4.32597 16.4605 4.3089C16.3078 4.30299 16.1542 4.30001 16 4.30001C15.8457 4.30001 15.6921 4.30299 15.5394 4.3089C15.0979 4.32597 14.7261 3.9819 14.7091 3.5404C14.692 3.09891 15.0361 2.72716 15.4776 2.71009ZM12.4228 3.99246C12.5758 4.40696 12.3638 4.86699 11.9493 5.01996C11.6609 5.12637 11.3779 5.24383 11.1008 5.37182C10.6996 5.55705 10.2243 5.38204 10.0391 4.98092C9.85383 4.57979 10.0288 4.10445 10.43 3.91922C10.7453 3.77363 11.0672 3.64 11.3953 3.51892C11.8098 3.36595 12.2698 3.57796 12.4228 3.99246ZM19.5771 3.99246C19.7301 3.57796 20.1901 3.36595 20.6046 3.51892C20.9327 3.64 21.2547 3.77363 21.5699 3.91922C21.9711 4.10446 22.1461 4.57979 21.9608 4.98092C21.7756 5.38204 21.3003 5.55706 20.8992 5.37182C20.622 5.24383 20.339 5.12637 20.0506 5.01996C19.6361 4.86699 19.4241 4.40697 19.5771 3.99246ZM8.10227 6.27772C8.40226 6.60209 8.38249 7.10824 8.05812 7.40823C7.8331 7.61633 7.61627 7.83316 7.40817 8.05818C7.10818 8.38255 6.60203 8.40232 6.27766 8.10233C5.95329 7.80234 5.93352 7.29619 6.23351 6.97182C6.46989 6.71623 6.71617 6.46995 6.97176 6.23357C7.29613 5.93358 7.80228 5.95335 8.10227 6.27772ZM23.8976 6.27772C24.1976 5.95335 24.7038 5.93358 25.0281 6.23357C25.2837 6.46995 25.53 6.71623 25.7664 6.97182C26.0664 7.2962 26.0466 7.80234 25.7222 8.10233C25.3979 8.40232 24.8917 8.38256 24.5917 8.05818C24.3836 7.83317 24.1668 7.61633 23.9418 7.40823C23.6174 7.10824 23.5976 6.60209 23.8976 6.27772ZM4.98085 10.0391C5.38198 10.2244 5.55699 10.6997 5.37176 11.1008C5.24377 11.378 5.12631 11.661 5.0199 11.9493C4.86693 12.3638 4.4069 12.5758 3.9924 12.4229C3.5779 12.2699 3.36589 11.8099 3.51886 11.3954C3.63994 11.0673 3.77357 10.7453 3.91916 10.43C4.10439 10.0289 4.57973 9.85389 4.98085 10.0391ZM27.019 10.0391C27.4202 9.85389 27.8955 10.0289 28.0807 10.43C28.2263 10.7453 28.36 11.0673 28.481 11.3954C28.634 11.8099 28.422 12.2699 28.0075 12.4229C27.593 12.5758 27.133 12.3638 26.98 11.9493C26.8736 11.661 26.7561 11.378 26.6281 11.1008C26.4429 10.6997 26.6179 10.2244 27.019 10.0391ZM3.54034 14.7091C3.98184 14.7262 4.32591 15.098 4.30884 15.5394C4.30293 15.6922 4.29995 15.8457 4.29995 16C4.29995 16.1543 4.30293 16.3078 4.30884 16.4606C4.32591 16.9021 3.98184 17.2738 3.54034 17.2909C3.09885 17.308 2.7271 16.9639 2.71003 16.5224C2.70333 16.3491 2.69995 16.1749 2.69995 16C2.69995 15.8251 2.70333 15.651 2.71003 15.4776C2.7271 15.0361 3.09885 14.6921 3.54034 14.7091ZM28.4596 14.7091C28.9011 14.6921 29.2728 15.0361 29.2899 15.4776C29.2966 15.651 29.2999 15.8251 29.2999 16C29.2999 16.1749 29.2966 16.3491 29.2899 16.5224C29.2728 16.9639 28.9011 17.308 28.4596 17.2909C28.0181 17.2738 27.674 16.9021 27.6911 16.4606C27.697 16.3078 27.7 16.1543 27.7 16C27.7 15.8457 27.697 15.6922 27.6911 15.5394C27.674 15.098 28.0181 14.7262 28.4596 14.7091ZM3.9924 19.5772C4.4069 19.4242 4.86693 19.6362 5.0199 20.0507C5.12631 20.339 5.24377 20.622 5.37176 20.8992C5.55699 21.3003 5.38198 21.7757 4.98085 21.9609C4.57973 22.1461 4.10439 21.9711 3.91916 21.57C3.77357 21.2547 3.63994 20.9327 3.51886 20.6047C3.36589 20.1901 3.5779 19.7301 3.9924 19.5772ZM28.0075 19.5772C28.422 19.7301 28.634 20.1901 28.481 20.6047C28.36 20.9327 28.2263 21.2547 28.0807 21.57C27.8955 21.9711 27.4202 22.1461 27.019 21.9609C26.6179 21.7757 26.4429 21.3003 26.6281 20.8992C26.7561 20.622 26.8736 20.339 26.98 20.0507C27.133 19.6362 27.593 19.4242 28.0075 19.5772ZM6.27766 23.8977C6.60203 23.5977 7.10818 23.6175 7.40817 23.9418C7.61627 24.1669 7.8331 24.3837 8.05812 24.5918C8.38249 24.8918 8.40226 25.3979 8.10227 25.7223C7.80228 26.0467 7.29613 26.0664 6.97176 25.7665C6.71617 25.5301 6.46989 25.2838 6.23351 25.0282C5.93352 24.7038 5.95329 24.1977 6.27766 23.8977ZM25.7222 23.8977C26.0466 24.1977 26.0664 24.7038 25.7664 25.0282C25.53 25.2838 25.2837 25.5301 25.0281 25.7665C24.7038 26.0664 24.1976 26.0467 23.8976 25.7223C23.5976 25.3979 23.6174 24.8918 23.9418 24.5918C24.1668 24.3837 24.3836 24.1669 24.5917 23.9418C24.8917 23.6175 25.3979 23.5977 25.7222 23.8977ZM10.0391 27.0191C10.2243 26.618 10.6996 26.443 11.1008 26.6282C11.3779 26.7562 11.6609 26.8737 11.9493 26.9801C12.3638 27.133 12.5758 27.5931 12.4228 28.0076C12.2698 28.4221 11.8098 28.6341 11.3953 28.4811C11.0672 28.36 10.7453 28.2264 10.43 28.0808C10.0288 27.8956 9.85383 27.4202 10.0391 27.0191ZM21.9608 27.0191C22.1461 27.4202 21.9711 27.8956 21.5699 28.0808C21.2546 28.2264 20.9327 28.36 20.6046 28.4811C20.1901 28.6341 19.7301 28.4221 19.5771 28.0076C19.4241 27.5931 19.6361 27.133 20.0506 26.9801C20.339 26.8737 20.622 26.7562 20.8991 26.6282C21.3003 26.443 21.7756 26.618 21.9608 27.0191ZM14.7091 28.4596C14.7261 28.0181 15.0979 27.6741 15.5394 27.6911C15.6921 27.697 15.8457 27.7 16 27.7C16.1542 27.7 16.3078 27.697 16.4605 27.6911C16.902 27.6741 17.2738 28.0181 17.2908 28.4596C17.3079 28.9011 16.9638 29.2729 16.5223 29.2899C16.349 29.2966 16.1748 29.3 16 29.3C15.8251 29.3 15.6509 29.2966 15.4776 29.2899C15.0361 29.2729 14.692 28.9011 14.7091 28.4596Z" fill="#272A35"/>
<path fill-rule="evenodd" clip-rule="evenodd" d="M15.2 3.50001C15.2 3.05818 15.5581 2.70001 16 2.70001C23.3453 2.70001 29.2999 8.65462 29.2999 16C29.2999 23.3454 23.3453 29.3 16 29.3C8.65456 29.3 2.69995 23.3454 2.69995 16C2.69995 15.5582 3.05812 15.2 3.49995 15.2C3.94178 15.2 4.29995 15.5582 4.29995 16C4.29995 22.4617 9.53822 27.7 16 27.7C22.4617 27.7 27.7 22.4617 27.7 16C27.7 9.53828 22.4617 4.30001 16 4.30001C15.5581 4.30001 15.2 3.94184 15.2 3.50001ZM16 7.38751C16.4418 7.38751 16.8 7.74568 16.8 8.18751V13.7764C17.711 14.1042 18.3625 14.976 18.3625 16C18.3625 17.3048 17.3047 18.3625 16 18.3625C14.976 18.3625 14.1042 17.7111 13.7763 16.8H11.3125C10.8706 16.8 10.5125 16.4418 10.5125 16C10.5125 15.5582 10.8706 15.2 11.3125 15.2H13.7763C14.0143 14.5388 14.5387 14.0143 15.2 13.7764V8.18751C15.2 7.74568 15.5581 7.38751 16 7.38751ZM16 15.2375C15.5788 15.2375 15.2375 15.5789 15.2375 16C15.2375 16.4211 15.5788 16.7625 16 16.7625C16.4211 16.7625 16.7625 16.4211 16.7625 16C16.7625 15.5789 16.4211 15.2375 16 15.2375Z" fill="#272A35"/>
</svg>
