<svg width="24" height="24" viewBox="0 0 24 24" fill="none" xmlns="http://www.w3.org/2000/svg">
<path fill-rule="evenodd" clip-rule="evenodd" d="M11.9999 2.40002C12.3313 2.40002 12.5999 2.66865 12.5999 3.00002V17.3015L17.2006 12.7008C17.435 12.4664 17.8149 12.4664 18.0492 12.7008C18.2835 12.9351 18.2835 13.315 18.0492 13.5493L12.4242 19.1743C12.1899 19.4086 11.81 19.4086 11.5756 19.1743L5.95064 13.5493C5.71632 13.315 5.71632 12.9351 5.95064 12.7008C6.18495 12.4664 6.56485 12.4664 6.79917 12.7008L11.3999 17.3015V3.00002C11.3999 2.66865 11.6685 2.40002 11.9999 2.40002ZM2.3999 21C2.3999 20.6687 2.66853 20.4 2.9999 20.4H20.9999C21.3313 20.4 21.5999 20.6687 21.5999 21C21.5999 21.3314 21.3313 21.6 20.9999 21.6H2.9999C2.66853 21.6 2.3999 21.3314 2.3999 21Z" fill="#272A35"/>
</svg>
