<svg width="16" height="16" viewBox="0 0 16 16" fill="none" xmlns="http://www.w3.org/2000/svg">
<path fill-rule="evenodd" clip-rule="evenodd" d="M1.5 2.92308C1.5 2.23915 1.96763 1.5 2.75 1.5H13.25C14.0324 1.5 14.5 2.23915 14.5 2.92308V5.69231C14.5 6.37623 14.0324 7.11538 13.25 7.11538H13V12.1538C13 13.3476 12.1966 14.5 11 14.5H5C3.80342 14.5 3 13.3476 3 12.1538L3 7.11538H2.75C1.96763 7.11538 1.5 6.37623 1.5 5.69231V2.92308ZM4 6.61538L4 12.1538C4 12.9993 4.53972 13.5 5 13.5H9.75V4.34615L6.25 4.34615L6.25 5.69231C6.25 5.96845 6.02614 6.19231 5.75 6.19231C5.47386 6.19231 5.25 5.96845 5.25 5.69231L5.25 4.34615H4.25C4.21884 4.34615 4.16576 4.36039 4.10773 4.43181C4.04888 4.50424 4 4.62189 4 4.76923V6.61538ZM4.25 3.34615C3.46764 3.34615 3 4.0853 3 4.76923V6.11538H2.75C2.71884 6.11538 2.66576 6.10115 2.60773 6.02973C2.54888 5.9573 2.5 5.83965 2.5 5.69231V2.92308C2.5 2.77573 2.54888 2.65809 2.60773 2.58566C2.66576 2.51423 2.71884 2.5 2.75 2.5H13.25C13.2812 2.5 13.3342 2.51423 13.3923 2.58566C13.4511 2.65809 13.5 2.77573 13.5 2.92308V5.69231C13.5 5.83965 13.4511 5.9573 13.3923 6.02973C13.3342 6.10115 13.2812 6.11538 13.25 6.11538H13V4.76923C13 4.08531 12.5324 3.34615 11.75 3.34615L4.25 3.34615ZM10.75 4.34615L10.75 13.5H11C11.4603 13.5 12 12.9993 12 12.1538V4.76923C12 4.62189 11.9511 4.50424 11.8923 4.43181C11.8342 4.36039 11.7812 4.34615 11.75 4.34615H10.75ZM5.75 7.96154C6.02614 7.96154 6.25 8.1854 6.25 8.46154V9.38462C6.25 9.66076 6.02614 9.88461 5.75 9.88461C5.47386 9.88461 5.25 9.66076 5.25 9.38462V8.46154C5.25 8.1854 5.47386 7.96154 5.75 7.96154Z" fill="#272A35"/>
</svg>
