<svg width="32" height="32" viewBox="0 0 32 32" fill="none" xmlns="http://www.w3.org/2000/svg">
<path fill-rule="evenodd" clip-rule="evenodd" d="M12.5656 7.43427C12.878 7.74669 12.878 8.25322 12.5656 8.56564L5.97979 15.1514C5.51116 15.6201 5.51116 16.3798 5.97979 16.8485L12.5656 23.4343C12.878 23.7467 12.878 24.2532 12.5656 24.5656C12.2532 24.8781 11.7466 24.8781 11.4342 24.5656L4.84842 17.9799C3.75495 16.8864 3.75495 15.1135 4.84842 14.0201L11.4342 7.43427C11.7466 7.12185 12.2532 7.12185 12.5656 7.43427ZM19.4342 7.43427C19.7466 7.12185 20.2532 7.12185 20.5656 7.43427L27.1514 14.0201C28.2448 15.1135 28.2448 16.8864 27.1514 17.9798L20.5656 24.5656C20.2532 24.8781 19.7466 24.8781 19.4342 24.5656C19.1218 24.2532 19.1218 23.7467 19.4342 23.4343L26.02 16.8485C26.4886 16.3799 26.4886 15.6201 26.02 15.1514L19.4342 8.56564C19.1218 8.25322 19.1218 7.74669 19.4342 7.43427Z" fill="#272A35"/>
</svg>
