<svg width="32" height="32" viewBox="0 0 32 32" fill="none" xmlns="http://www.w3.org/2000/svg">
<path fill-rule="evenodd" clip-rule="evenodd" d="M25.3334 12.5334C25.7752 12.5334 26.1334 12.8915 26.1334 13.3334V15.2H28C28.4419 15.2 28.8 15.5582 28.8 16C28.8 16.4418 28.4419 16.8 28 16.8H26.1334V18.6667C26.1334 19.1085 25.7752 19.4667 25.3334 19.4667C24.8915 19.4667 24.5334 19.1085 24.5334 18.6667L24.5334 16.8H22.6667C22.2249 16.8 21.8667 16.4418 21.8667 16C21.8667 15.5582 22.2249 15.2 22.6667 15.2H24.5334V13.3334C24.5334 12.8915 24.8915 12.5334 25.3334 12.5334Z" fill="#272A35"/>
<path fill-rule="evenodd" clip-rule="evenodd" d="M13 4.80001C10.5423 4.80001 8.54998 6.79235 8.54998 9.25001C8.54998 11.7077 10.5423 13.7 13 13.7C15.4576 13.7 17.45 11.7077 17.45 9.25001C17.45 6.79235 15.4576 4.80001 13 4.80001ZM6.94998 9.25001C6.94998 5.90869 9.65865 3.20001 13 3.20001C16.3413 3.20001 19.05 5.90869 19.05 9.25001C19.05 12.5913 16.3413 15.3 13 15.3C9.65865 15.3 6.94998 12.5913 6.94998 9.25001ZM16.4499 19.7598C14.1643 19.369 11.8356 19.369 9.54997 19.7598L9.28283 19.8054L9.148 19.0169L9.28283 19.8054C6.73949 20.2403 4.79995 22.6142 4.79995 25.482C4.79995 26.4836 5.54512 27.2 6.3504 27.2H19.6495C20.4548 27.2 21.1999 26.4836 21.1999 25.482C21.1999 22.6142 19.2604 20.2403 16.7171 19.8054L16.8519 19.0169L16.7171 19.8054L16.4499 19.7598ZM16.7196 18.1826L16.5969 18.8999L16.7196 18.1826L16.9867 18.2283C20.3749 18.8076 22.7999 21.9148 22.7999 25.482C22.7999 27.2617 21.4404 28.8 19.6495 28.8H6.3504C4.55945 28.8 3.19995 27.2617 3.19995 25.482C3.19995 21.9148 5.62496 18.8076 9.01318 18.2283L9.28032 18.1826L9.4083 18.9311L9.28033 18.1826C11.7444 17.7614 14.2555 17.7614 16.7196 18.1826Z" fill="#272A35"/>
</svg>
