<svg width="24" height="24" viewBox="0 0 24 24" fill="none" xmlns="http://www.w3.org/2000/svg">
<path fill-rule="evenodd" clip-rule="evenodd" d="M18.0001 2.40002C19.9883 2.40002 21.6001 4.0118 21.6001 6.00002L21.6001 18C21.6001 19.9882 19.9883 21.6 18.0001 21.6L6.0001 21.6C4.01187 21.6 2.4001 19.9882 2.4001 18L2.4001 6.00002C2.4001 4.0118 4.01187 2.40002 6.0001 2.40002L18.0001 2.40002ZM20.4001 6.00002C20.4001 4.67454 19.3256 3.60002 18.0001 3.60002L12.6001 3.60002L12.6001 13.5515L16.5758 9.57576C16.8101 9.34145 17.19 9.34145 17.4244 9.57576C17.6587 9.81007 17.6587 10.19 17.4244 10.4243L12.4244 15.4243C12.19 15.6586 11.8101 15.6586 11.5758 15.4243L6.57583 10.4243C6.34152 10.19 6.34152 9.81007 6.57583 9.57576C6.81015 9.34144 7.19005 9.34144 7.42436 9.57576L11.4001 13.5515L11.4001 3.60002L6.0001 3.60002C4.67461 3.60002 3.6001 4.67454 3.6001 6.00002L3.6001 18C3.6001 19.3255 4.67461 20.4 6.0001 20.4L18.0001 20.4C19.3256 20.4 20.4001 19.3255 20.4001 18L20.4001 6.00002Z" fill="#272A35"/>
</svg>
