<svg width="16" height="16" viewBox="0 0 16 16" fill="none" xmlns="http://www.w3.org/2000/svg">
<path fill-rule="evenodd" clip-rule="evenodd" d="M1.5 3.71429C1.5 2.49137 2.49137 1.5 3.71429 1.5H12.2857C13.5086 1.5 14.5 2.49137 14.5 3.71429V7.14286C14.5 7.419 14.2761 7.64286 14 7.64286C13.7239 7.64286 13.5 7.419 13.5 7.14286V3.71429C13.5 3.04365 12.9563 2.5 12.2857 2.5H3.71429C3.04365 2.5 2.5 3.04365 2.5 3.71429V12.2857C2.5 12.9563 3.04365 13.5 3.71429 13.5H9.71429C9.99043 13.5 10.2143 13.7239 10.2143 14C10.2143 14.2761 9.99043 14.5 9.71429 14.5H3.71429C2.49137 14.5 1.5 13.5086 1.5 12.2857V3.71429ZM4.21788 6.7893C4.41314 6.59404 4.72972 6.59404 4.92498 6.7893L7.06515 8.92947L8.1028 7.37298C8.45285 6.84792 9.19574 6.77435 9.64196 7.22057L13.5 11.0786V9.71429C13.5 9.43814 13.7239 9.21429 14 9.21429C14.2761 9.21429 14.5 9.43814 14.5 9.71429V12.2857C14.5 12.5619 14.2761 12.7857 14 12.7857H11.4286C11.1524 12.7857 10.9286 12.5619 10.9286 12.2857C10.9286 12.0096 11.1524 11.7857 11.4286 11.7857H12.7929L8.93485 7.92768L7.8972 9.48417C7.54715 10.0092 6.80426 10.0828 6.35804 9.63657L4.21788 7.49641C4.02261 7.30115 4.02261 6.98457 4.21788 6.7893Z" fill="#272A35"/>
</svg>
