<svg width="24" height="24" viewBox="0 0 24 24" fill="none" xmlns="http://www.w3.org/2000/svg">
<path fill-rule="evenodd" clip-rule="evenodd" d="M8.82847 2.00002C8.82847 1.66865 9.0971 1.40002 9.42847 1.40002H14.5713C14.9027 1.40002 15.1713 1.66865 15.1713 2.00002C15.1713 2.3314 14.9027 2.60002 14.5713 2.60002H12.5999V3.91803C14.1467 4.0111 15.5965 4.46155 16.8616 5.18651L18.0102 4.06983C18.2478 3.83884 18.6277 3.84419 18.8587 4.08178C19.0897 4.31937 19.0843 4.69923 18.8467 4.93022L17.8864 5.86383C20.1436 7.57184 21.5999 10.2406 21.5999 13.25C21.5999 18.4297 17.2858 22.6 11.9999 22.6C6.71401 22.6 2.3999 18.4297 2.3999 13.25C2.3999 10.2406 3.85624 7.57184 6.11337 5.86383L5.15308 4.93022C4.91549 4.69923 4.91014 4.31937 5.14113 4.08178C5.37213 3.84419 5.75199 3.83884 5.98958 4.06983L7.13817 5.18651C8.40334 4.46155 9.85312 4.0111 11.3999 3.91803V2.60002H9.42847C9.0971 2.60002 8.82847 2.3314 8.82847 2.00002ZM11.9999 5.10002C7.34467 5.10002 3.5999 8.76473 3.5999 13.25C3.5999 17.7353 7.34467 21.4 11.9999 21.4C16.6551 21.4 20.3999 17.7353 20.3999 13.25C20.3999 8.76473 16.6551 5.10002 11.9999 5.10002ZM11.9999 7.65002C12.3313 7.65002 12.5999 7.91865 12.5999 8.25002V11.4961C13.34 11.7402 13.8856 12.4238 13.8856 13.25C13.8856 14.2876 13.0253 15.1 11.9999 15.1C10.9745 15.1 10.1142 14.2876 10.1142 13.25C10.1142 12.4238 10.6598 11.7402 11.3999 11.4961V8.25002C11.3999 7.91865 11.6685 7.65002 11.9999 7.65002ZM11.9999 12.6C11.6051 12.6 11.3142 12.9069 11.3142 13.25C11.3142 13.5932 11.6051 13.9 11.9999 13.9C12.3947 13.9 12.6856 13.5932 12.6856 13.25C12.6856 12.9069 12.3947 12.6 11.9999 12.6Z" fill="#272A35"/>
</svg>
