<svg width="24" height="24" viewBox="0 0 24 24" fill="none" xmlns="http://www.w3.org/2000/svg">
<path fill-rule="evenodd" clip-rule="evenodd" d="M5.57133 3.60002C4.48254 3.60002 3.5999 4.48266 3.5999 5.57145V18.4286C3.5999 19.5174 4.48254 20.4 5.57133 20.4H18.4285C19.5173 20.4 20.3999 19.5174 20.3999 18.4286V8.14288C20.3999 7.05409 19.5173 6.17145 18.4285 6.17145H13.065C12.2239 6.17145 11.4172 5.83732 10.8225 5.24256L9.75736 4.17744C9.38765 3.80773 8.88621 3.60002 8.36335 3.60002H5.57133ZM2.3999 5.57145C2.3999 3.81992 3.8198 2.40002 5.57133 2.40002H8.36335C9.20447 2.40002 10.0111 2.73416 10.6059 3.32891L11.671 4.39404C12.0407 4.76375 12.5422 4.97145 13.065 4.97145H18.4285C20.18 4.97145 21.5999 6.39135 21.5999 8.14288V18.4286C21.5999 20.1801 20.18 21.6 18.4285 21.6H5.57133C3.8198 21.6 2.3999 20.1801 2.3999 18.4286V5.57145ZM9.42847 10.1143C9.75984 10.1143 10.0285 10.3829 10.0285 10.7143V12.6857H11.9999C12.3313 12.6857 12.5999 12.9544 12.5999 13.2857C12.5999 13.6171 12.3313 13.8857 11.9999 13.8857H10.0285V15.8572C10.0285 16.1885 9.75984 16.4572 9.42847 16.4572C9.0971 16.4572 8.82847 16.1885 8.82847 15.8572V13.8857H6.85705C6.52567 13.8857 6.25705 13.6171 6.25705 13.2857C6.25705 12.9544 6.52567 12.6857 6.85705 12.6857H8.82847V10.7143C8.82847 10.3829 9.0971 10.1143 9.42847 10.1143Z" fill="#272A35"/>
</svg>
