<svg width="40" height="40" viewBox="0 0 40 40" fill="none" xmlns="http://www.w3.org/2000/svg">
<path fill-rule="evenodd" clip-rule="evenodd" d="M18.9496 3.0085C19.1324 3.00285 19.3159 3 19.5 3C19.6841 3 19.8676 3.00285 20.0504 3.0085C20.6024 3.02557 21.0361 3.48691 21.019 4.03893C21.0019 4.59096 20.5406 5.02462 19.9886 5.00754C19.8264 5.00253 19.6635 5 19.5 5C19.3365 5 19.1736 5.00253 19.0114 5.00754C18.4594 5.02462 17.9981 4.59096 17.981 4.03893C17.9639 3.48691 18.3976 3.02557 18.9496 3.0085ZM23.1448 4.37264C23.2986 3.84222 23.8534 3.53696 24.3838 3.69082C24.7371 3.79332 25.0859 3.90665 25.4296 4.03043C25.9493 4.21754 26.2188 4.79046 26.0317 5.31009C25.8446 5.82971 25.2717 6.09926 24.7521 5.91215C24.4479 5.80262 24.1393 5.70234 23.8266 5.61164C23.2962 5.45778 22.9909 4.90306 23.1448 4.37264ZM15.8552 4.37264C16.0091 4.90307 15.7038 5.45778 15.1734 5.61164C14.8607 5.70234 14.5521 5.80262 14.2479 5.91215C13.7283 6.09926 13.1554 5.82971 12.9683 5.31009C12.7812 4.79046 13.0507 4.21754 13.5704 4.03043C13.9141 3.90665 14.2629 3.79332 14.6162 3.69082C15.1466 3.53696 15.7014 3.84222 15.8552 4.37264ZM27.9485 6.28887C28.2593 5.83236 28.8814 5.71427 29.3379 6.0251C29.6412 6.23161 29.9376 6.44738 30.2268 6.67201C30.6629 7.01082 30.7419 7.63904 30.4031 8.0752C30.0643 8.51135 29.436 8.59028 28.9999 8.25148C28.7436 8.05241 28.4809 7.86122 28.2122 7.67827C27.7557 7.36743 27.6376 6.74538 27.9485 6.28887ZM11.0515 6.28887C11.3624 6.74538 11.2443 7.36743 10.7878 7.67827C10.5191 7.86122 10.2564 8.05241 10.0001 8.25148C9.56397 8.59028 8.93574 8.51136 8.59694 8.0752C8.25814 7.63904 8.33706 7.01082 8.77322 6.67202C9.0624 6.44738 9.35884 6.23161 9.66212 6.0251C10.1186 5.71427 10.7407 5.83236 11.0515 6.28887ZM31.9248 9.59694C32.361 9.25814 32.9892 9.33706 33.328 9.77322C33.5526 10.0624 33.7684 10.3588 33.9749 10.6621C34.2857 11.1186 34.1676 11.7407 33.7111 12.0515C33.2546 12.3624 32.6326 12.2443 32.3217 11.7878C32.1388 11.5191 31.9476 11.2564 31.7485 11.0001C31.4097 10.564 31.4886 9.93574 31.9248 9.59694ZM7.0752 9.59695C7.51135 9.93575 7.59028 10.564 7.25148 11.0001C7.05241 11.2564 6.86122 11.5191 6.67827 11.7878C6.36743 12.2443 5.74538 12.3624 5.28887 12.0515C4.83236 11.7407 4.71427 11.1186 5.0251 10.6621C5.23161 10.3588 5.44738 10.0624 5.67201 9.77322C6.01082 9.33707 6.63904 9.25815 7.0752 9.59695ZM34.6899 13.9683C35.2095 13.7812 35.7825 14.0507 35.9696 14.5704C36.0933 14.9141 36.2067 15.2629 36.3092 15.6162C36.463 16.1466 36.1578 16.7014 35.6274 16.8552C35.0969 17.0091 34.5422 16.7038 34.3884 16.1734C34.2977 15.8607 34.1974 15.5521 34.0878 15.2479C33.9007 14.7283 34.1703 14.1554 34.6899 13.9683ZM4.31009 13.9683C4.82971 14.1554 5.09926 14.7283 4.91215 15.2479C4.80262 15.5521 4.70234 15.8607 4.61164 16.1734C4.45778 16.7038 3.90306 17.0091 3.37264 16.8552C2.84222 16.7014 2.53696 16.1466 2.69082 15.6162C2.79332 15.2629 2.90665 14.9141 3.03043 14.5704C3.21754 14.0507 3.79046 13.7812 4.31009 13.9683ZM35.9611 18.981C36.5131 18.9639 36.9744 19.3976 36.9915 19.9496C36.9972 20.1324 37 20.3159 37 20.5C37 20.6841 36.9972 20.8676 36.9915 21.0504C36.9744 21.6024 36.5131 22.0361 35.9611 22.019C35.409 22.0019 34.9754 21.5406 34.9925 20.9886C34.9975 20.8264 35 20.6635 35 20.5C35 20.3365 34.9975 20.1736 34.9925 20.0114C34.9754 19.4594 35.409 18.9981 35.9611 18.981ZM3.03893 18.981C3.59096 18.9981 4.02462 19.4594 4.00754 20.0114C4.00253 20.1736 4 20.3365 4 20.5C4 20.6635 4.00253 20.8264 4.00754 20.9886C4.02462 21.5406 3.59096 22.0019 3.03893 22.019C2.48691 22.0361 2.02557 21.6024 2.0085 21.0504C2.00285 20.8676 2 20.6841 2 20.5C2 20.3159 2.00285 20.1324 2.0085 19.9496C2.02557 19.3976 2.48691 18.9639 3.03893 18.981ZM35.6274 24.1448C36.1578 24.2986 36.463 24.8534 36.3092 25.3838C36.2067 25.7371 36.0933 26.0859 35.9696 26.4296C35.7825 26.9493 35.2095 27.2188 34.6899 27.0317C34.1703 26.8446 33.9007 26.2717 34.0878 25.7521C34.1974 25.4479 34.2977 25.1393 34.3884 24.8266C34.5422 24.2962 35.0969 23.9909 35.6274 24.1448ZM3.37264 24.1448C3.90307 23.9909 4.45778 24.2962 4.61164 24.8266C4.70234 25.1393 4.80262 25.4479 4.91215 25.7521C5.09926 26.2717 4.82971 26.8446 4.31009 27.0317C3.79046 27.2188 3.21754 26.9493 3.03043 26.4296C2.90665 26.0859 2.79332 25.7371 2.69082 25.3838C2.53696 24.8534 2.84222 24.2986 3.37264 24.1448ZM5.28887 28.9485C5.74538 28.6376 6.36743 28.7557 6.67827 29.2122C6.86122 29.4809 7.05241 29.7436 7.25148 29.9999C7.59028 30.436 7.51136 31.0643 7.0752 31.4031C6.63904 31.7419 6.01082 31.6629 5.67202 31.2268C5.44738 30.9376 5.23161 30.6412 5.0251 30.3379C4.71427 29.8814 4.83236 29.2593 5.28887 28.9485ZM33.7111 28.9485C34.1676 29.2593 34.2857 29.8814 33.9749 30.3379C33.7684 30.6412 33.5526 30.9376 33.328 31.2268C32.9892 31.6629 32.361 31.7419 31.9248 31.4031C31.4886 31.0643 31.4097 30.436 31.7485 29.9999C31.9476 29.7436 32.1388 29.4809 32.3217 29.2122C32.6326 28.7557 33.2546 28.6376 33.7111 28.9485ZM30.4031 32.9248C30.7419 33.361 30.6629 33.9892 30.2268 34.328C29.9376 34.5526 29.6412 34.7684 29.3379 34.9749C28.8814 35.2857 28.2593 35.1676 27.9485 34.7111C27.6376 34.2546 27.7557 33.6326 28.2122 33.3217C28.4809 33.1388 28.7436 32.9476 28.9999 32.7485C29.436 32.4097 30.0643 32.4886 30.4031 32.9248ZM8.59695 32.9248C8.93575 32.4886 9.56397 32.4097 10.0001 32.7485C10.2564 32.9476 10.5191 33.1388 10.7878 33.3217C11.2443 33.6326 11.3624 34.2546 11.0515 34.7111C10.7407 35.1676 10.1186 35.2857 9.66212 34.9749C9.35884 34.7684 9.06241 34.5526 8.77322 34.328C8.33707 33.9892 8.25815 33.361 8.59695 32.9248ZM26.0317 35.6899C26.2188 36.2095 25.9493 36.7825 25.4296 36.9696C25.0859 37.0933 24.7371 37.2067 24.3838 37.3092C23.8534 37.463 23.2986 37.1578 23.1448 36.6274C22.9909 36.0969 23.2962 35.5422 23.8266 35.3884C24.1393 35.2977 24.4479 35.1974 24.7521 35.0878C25.2717 34.9007 25.8446 35.1703 26.0317 35.6899ZM12.9683 35.6899C13.1554 35.1703 13.7283 34.9007 14.2479 35.0878C14.5521 35.1974 14.8607 35.2977 15.1734 35.3884C15.7038 35.5422 16.0091 36.0969 15.8552 36.6274C15.7014 37.1578 15.1466 37.463 14.6162 37.3092C14.2629 37.2067 13.9141 37.0933 13.5704 36.9696C13.0507 36.7825 12.7812 36.2095 12.9683 35.6899ZM17.981 36.9611C17.9981 36.409 18.4594 35.9754 19.0114 35.9925C19.1736 35.9975 19.3365 36 19.5 36C19.6635 36 19.8264 35.9975 19.9886 35.9925C20.5406 35.9754 21.0019 36.409 21.019 36.9611C21.0361 37.5131 20.6024 37.9744 20.0504 37.9915C19.8676 37.9972 19.6841 38 19.5 38C19.3159 38 19.1324 37.9972 18.9496 37.9915C18.3976 37.9744 17.9639 37.5131 17.981 36.9611Z" fill="#272A35"/>
<path fill-rule="evenodd" clip-rule="evenodd" d="M18.5 4C18.5 3.44772 18.9477 3 19.5 3C29.165 3 37 10.835 37 20.5C37 30.165 29.165 38 19.5 38C9.83502 38 2 30.165 2 20.5C2 19.9477 2.44772 19.5 3 19.5C3.55228 19.5 4 19.9477 4 20.5C4 29.0604 10.9396 36 19.5 36C28.0604 36 35 29.0604 35 20.5C35 11.9396 28.0604 5 19.5 5C18.9477 5 18.5 4.55228 18.5 4ZM19.5 9.1875C20.0523 9.1875 20.5 9.63522 20.5 10.1875V17.6045C21.7003 18.019 22.5625 19.1588 22.5625 20.5C22.5625 22.1914 21.1914 23.5625 19.5 23.5625C18.1588 23.5625 17.019 22.7003 16.6045 21.5H13.3125C12.7602 21.5 12.3125 21.0523 12.3125 20.5C12.3125 19.9477 12.7602 19.5 13.3125 19.5H16.6045C16.9107 18.6131 17.6131 17.9107 18.5 17.6045V10.1875C18.5 9.63522 18.9477 9.1875 19.5 9.1875ZM19.5 19.4375C18.9132 19.4375 18.4375 19.9132 18.4375 20.5C18.4375 21.0868 18.9132 21.5625 19.5 21.5625C20.0868 21.5625 20.5625 21.0868 20.5625 20.5C20.5625 19.9132 20.0868 19.4375 19.5 19.4375Z" fill="#272A35"/>
</svg>
