<svg width="16" height="16" viewBox="0 0 16 16" fill="none" xmlns="http://www.w3.org/2000/svg">
<path fill-rule="evenodd" clip-rule="evenodd" d="M7.375 2.5C7.15812 2.5 7 2.66957 7 2.85714V10.9286H9.5V2.85714C9.5 2.66957 9.34188 2.5 9.125 2.5H7.375ZM10.5 6.6942V2.85714C10.5 2.09794 9.87462 1.5 9.125 1.5H7.375C6.62538 1.5 6 2.09794 6 2.85714V4.97991C5.88044 4.94644 5.75458 4.92857 5.625 4.92857H3.875C3.12538 4.92857 2.5 5.52652 2.5 6.28571V10.5714C2.5 11.3306 3.12538 11.9286 3.875 11.9286H12.625C13.3746 11.9286 14 11.3306 14 10.5714V8C14 7.2408 13.3746 6.64286 12.625 6.64286H10.875C10.7454 6.64286 10.6196 6.66072 10.5 6.6942ZM10.5 8V10.9286H12.625C12.8419 10.9286 13 10.759 13 10.5714V8C13 7.81242 12.8419 7.64286 12.625 7.64286H10.875C10.6581 7.64286 10.5 7.81242 10.5 8ZM6 6.28571C6 6.09814 5.84188 5.92857 5.625 5.92857H3.875C3.65812 5.92857 3.5 6.09814 3.5 6.28571V10.5714C3.5 10.759 3.65812 10.9286 3.875 10.9286H6V6.28571ZM13.5 14.5L3 14.5C2.72386 14.5 2.5 14.2761 2.5 14C2.5 13.7239 2.72386 13.5 3 13.5L13.5 13.5C13.7761 13.5 14 13.7239 14 14C14 14.2761 13.7761 14.5 13.5 14.5Z" fill="#272A35"/>
</svg>
