<svg width="24" height="24" viewBox="0 0 24 24" fill="none" xmlns="http://www.w3.org/2000/svg">
<path fill-rule="evenodd" clip-rule="evenodd" d="M2.3999 18C2.3999 19.9882 4.01168 21.6 5.9999 21.6H17.9999C19.9881 21.6 21.5999 19.9882 21.5999 18V5.99998C21.5999 4.01175 19.9881 2.39997 17.9999 2.39997H5.9999C4.01168 2.39997 2.3999 4.01175 2.3999 5.99998V18ZM5.9999 20.4C4.67442 20.4 3.5999 19.3255 3.5999 18V8.08544L7.03138 12.3748L7.96842 11.6252L3.5999 6.16451V5.99998C3.5999 4.67449 4.67442 3.59998 5.9999 3.59998H17.9999C19.3254 3.59998 20.3999 4.67449 20.3999 5.99998V8.41451L16.9314 12.7502L17.8684 13.4998L20.3999 10.3354V18C20.3999 19.3255 19.3254 20.4 17.9999 20.4H5.9999ZM16.0684 12.7502L13.3684 9.37516L12.4314 10.1248L15.1314 13.4998L16.0684 12.7502ZM10.6314 9.37516L8.83138 11.6252L9.76842 12.3748L11.5684 10.1248L10.6314 9.37516Z" fill="#272A35"/>
<path fill-rule="evenodd" clip-rule="evenodd" d="M17 13.2C17.4418 13.2 17.8 13.5582 17.8 14C17.8 14.4418 17.4418 14.8 17 14.8C16.5582 14.8 16.2 14.4418 16.2 14C16.2 13.5582 16.5582 13.2 17 13.2ZM17 12C18.1046 12 19 12.8954 19 14C19 15.1046 18.1046 16 17 16C15.8954 16 15 15.1046 15 14C15 12.8954 15.8954 12 17 12Z" fill="#272A35"/>
<path fill-rule="evenodd" clip-rule="evenodd" d="M12 8.2C12.4418 8.2 12.8 8.55817 12.8 9C12.8 9.44183 12.4418 9.8 12 9.8C11.5582 9.8 11.2 9.44183 11.2 9C11.2 8.55817 11.5582 8.2 12 8.2ZM12 7C13.1046 7 14 7.89543 14 9C14 10.1046 13.1046 11 12 11C10.8954 11 10 10.1046 10 9C10 7.89543 10.8954 7 12 7Z" fill="#272A35"/>
<path fill-rule="evenodd" clip-rule="evenodd" d="M8 12.2C8.44183 12.2 8.8 12.5582 8.8 13C8.8 13.4418 8.44183 13.8 8 13.8C7.55817 13.8 7.2 13.4418 7.2 13C7.2 12.5582 7.55817 12.2 8 12.2ZM8 11C9.10457 11 10 11.8954 10 13C10 14.1046 9.10457 15 8 15C6.89543 15 6 14.1046 6 13C6 11.8954 6.89543 11 8 11Z" fill="#272A35"/>
</svg>
