<svg width="40" height="40" viewBox="0 0 40 40" fill="none" xmlns="http://www.w3.org/2000/svg">
<path fill-rule="evenodd" clip-rule="evenodd" d="M10 12.6667C7.79086 12.6667 6 14.4575 6 16.6667V30C6 32.2091 7.79086 34 10 34H24.1667C25.9156 34 27.3333 32.5822 27.3333 30.8333H29.3333C29.3333 33.6868 27.0201 36 24.1667 36H10C6.6863 36 4 33.3137 4 30V16.6667C4 13.353 6.68629 10.6667 10 10.6667V12.6667Z" fill="#272A35"/>
<path fill-rule="evenodd" clip-rule="evenodd" d="M23.3334 10.2222C23.8857 10.2222 24.3334 10.6699 24.3334 11.2222V15.6667H28.7779C29.3301 15.6667 29.7779 16.1144 29.7779 16.6667C29.7779 17.219 29.3301 17.6667 28.7779 17.6667H24.3334V22.1111C24.3334 22.6634 23.8857 23.1111 23.3334 23.1111C22.7811 23.1111 22.3334 22.6634 22.3334 22.1111V17.6667H17.889C17.3367 17.6667 16.889 17.219 16.889 16.6667C16.889 16.1144 17.3367 15.6667 17.889 15.6667H22.3334V11.2222C22.3334 10.6699 22.7811 10.2222 23.3334 10.2222ZM30.0001 7H16.6667C15.0099 7 13.6667 8.34315 13.6667 10V23.3333C13.6667 24.9902 15.0099 26.3333 16.6668 26.3333H30.0001C31.6569 26.3333 33.0001 24.9902 33.0001 23.3333V10C33.0001 8.34315 31.6569 7 30.0001 7ZM16.6667 5C13.9053 5 11.6667 7.23858 11.6667 10V23.3333C11.6667 26.0948 13.9053 28.3333 16.6668 28.3333H30.0001C32.7615 28.3333 35.0001 26.0948 35.0001 23.3333V10C35.0001 7.23858 32.7615 5 30.0001 5H16.6667Z" fill="#272A35"/>
</svg>
