<svg width="24" height="24" viewBox="0 0 24 24" fill="none" xmlns="http://www.w3.org/2000/svg">
<path fill-rule="evenodd" clip-rule="evenodd" d="M20.9999 2.90002C21.3313 2.90002 21.5999 3.16865 21.5999 3.50002V5.66938C21.5999 6.60844 20.7958 7.29816 19.8952 7.29816H17.9951C17.6637 7.29816 17.3951 7.02953 17.3951 6.69816C17.3951 6.36679 17.6637 6.09816 17.9951 6.09816L19.5754 6.09816C18.967 4.91365 17.7238 4.10002 16.2867 4.10002H7.71309C5.67203 4.10002 4.02628 5.73905 4.02628 7.75002V12C4.02628 12.3314 3.75765 12.6 3.42628 12.6C3.09491 12.6 2.82628 12.3314 2.82628 12V7.75002C2.82628 5.06658 5.01907 2.90002 7.71309 2.90002H16.2867C18.0121 2.90002 19.5301 3.7878 20.3999 5.13032V3.50002C20.3999 3.16865 20.6685 2.90002 20.9999 2.90002ZM16.8437 8.24677C17.0836 8.33146 17.2439 8.55818 17.2439 8.81252L17.2439 12.9619C17.2439 12.9622 17.2439 12.9626 17.2439 12.9629V15.4531C17.2439 15.7845 16.9753 16.0532 16.6439 16.0532C16.3126 16.0532 16.0439 15.7845 16.0439 15.4531V13.5629H13.2949C13.0638 13.5629 12.8532 13.4302 12.7535 13.2217C12.6539 13.0132 12.6828 12.766 12.8279 12.5861L16.177 8.43574C16.3367 8.2378 16.6039 8.16207 16.8437 8.24677ZM9.38763 9.41252C8.98812 9.41252 8.64089 9.62699 8.45535 9.94498C8.36486 10.1001 8.31309 10.2796 8.31309 10.4727C8.31309 10.8041 8.04446 11.0727 7.71309 11.0727C7.38172 11.0727 7.11309 10.8041 7.11309 10.4727C7.11309 10.061 7.22442 9.67351 7.41888 9.34022C7.81241 8.66577 8.5475 8.21252 9.38763 8.21252C10.6389 8.21252 11.6622 9.21956 11.6622 10.4727C11.6622 11.1426 11.3394 11.6972 10.8138 12.4158C10.5652 12.7557 10.2344 13.1782 9.82207 13.7046C9.55727 14.0427 9.25888 14.4236 8.92715 14.8531H11.0622C11.3935 14.8531 11.6622 15.1218 11.6622 15.4531C11.6622 15.7845 11.3935 16.0532 11.0622 16.0532H7.71309C7.48538 16.0532 7.27729 15.9242 7.17588 15.7204C7.07447 15.5165 7.09721 15.2728 7.23459 15.0912C7.9108 14.1973 8.45211 13.507 8.89018 12.9484C9.2845 12.4455 9.59516 12.0494 9.84526 11.7074C10.3663 10.9951 10.4622 10.7196 10.4622 10.4727C10.4622 9.89204 9.98597 9.41252 9.38763 9.41252ZM20.5735 11.4C20.9049 11.4 21.1735 11.6687 21.1735 12V16.25C21.1735 18.9335 18.9807 21.1 16.2867 21.1H7.71309C5.9877 21.1 4.46965 20.2122 3.5999 18.8697V20.5C3.5999 20.8314 3.33127 21.1 2.9999 21.1C2.66853 21.1 2.3999 20.8314 2.3999 20.5L2.3999 18.3307C2.3999 17.3916 3.20404 16.7019 4.10457 16.7019H6.00469C6.33606 16.7019 6.60469 16.9705 6.60469 17.3019C6.60469 17.6333 6.33606 17.9019 6.00469 17.9019H4.42441C5.03277 19.0864 6.276 19.9 7.71309 19.9H16.2867C18.3278 19.9 19.9735 18.261 19.9735 16.25V12C19.9735 11.6687 20.2422 11.4 20.5735 11.4Z" fill="#272A35"/>
</svg>
