<svg width="40" height="40" viewBox="0 0 40 40" fill="none" xmlns="http://www.w3.org/2000/svg">
<path fill-rule="evenodd" clip-rule="evenodd" d="M9.28571 4.33337C7.4229 4.33337 6 5.75696 6 7.40815V27.782C6 29.4332 7.4229 30.8568 9.28571 30.8568H13.4206C15.1661 30.8568 16.8157 31.6857 17.8053 33.0972L19.0358 34.852C19.4858 35.4938 20.5142 35.4938 20.9642 34.852L22.1947 33.0972C23.1843 31.6857 24.8339 30.8568 26.5794 30.8568H30.7143C32.5771 30.8568 34 29.4332 34 27.782V7.40815C34 5.75696 32.5771 4.33337 30.7143 4.33337H9.28571ZM4 7.40815C4 4.55847 6.41466 2.33337 9.28571 2.33337H30.7143C33.5853 2.33337 36 4.55847 36 7.40815V27.782C36 30.6317 33.5853 32.8568 30.7143 32.8568H26.5794C25.4589 32.8568 24.4322 33.3897 23.8322 34.2454L22.6017 36.0002C21.3554 37.7778 18.6446 37.7778 17.3983 36.0002L16.1678 34.2454C15.5678 33.3897 14.5411 32.8568 13.4206 32.8568H9.28571C6.41466 32.8568 4 30.6317 4 27.782V7.40815ZM21.9763 9.91708C23.1818 8.65631 25.226 8.6125 26.4889 9.81329L27.2223 10.5106C28.4305 11.6593 28.4798 13.5312 27.3264 14.7375L16.1433 26.4335C15.9546 26.6308 15.6935 26.7424 15.4205 26.7424L11.6532 26.7424C11.1009 26.7424 10.6532 26.2947 10.6532 25.7424L10.6532 22.1606C10.6532 21.9031 10.7525 21.6556 10.9305 21.4695L21.9763 9.91708ZM25.1108 11.2627C24.6435 10.8184 23.8624 10.8385 23.4219 11.2992L12.6532 22.5617L12.6532 24.7424L14.9931 24.7424L25.8809 13.3554C26.2663 12.9523 26.2537 12.3493 25.8442 11.96L25.1108 11.2627ZM20.0714 25.7446C20.0714 25.1923 20.5191 24.7446 21.0714 24.7446H28.5714C29.1237 24.7446 29.5714 25.1923 29.5714 25.7446C29.5714 26.2969 29.1237 26.7446 28.5714 26.7446H21.0714C20.5191 26.7446 20.0714 26.2969 20.0714 25.7446Z" fill="#272A35"/>
</svg>
