<svg width="16" height="16" viewBox="0 0 16 16" fill="none" xmlns="http://www.w3.org/2000/svg">
<path fill-rule="evenodd" clip-rule="evenodd" d="M4.92857 2C4.92857 1.72386 5.15243 1.5 5.42857 1.5H8C8.27614 1.5 8.5 1.72386 8.5 2V4.57143C8.5 4.84757 8.27614 5.07143 8 5.07143C7.72386 5.07143 7.5 4.84757 7.5 4.57143V3.20711L4.65363 6.05348C4.18478 6.52232 3.5489 6.78571 2.88586 6.78571H2C1.72386 6.78571 1.5 6.56186 1.5 6.28571C1.5 6.00957 1.72386 5.78571 2 5.78571H2.88586C3.28368 5.78571 3.66521 5.62768 3.94652 5.34637L6.79289 2.5H5.42857C5.15243 2.5 4.92857 2.27614 4.92857 2ZM11.4286 3.35714C11.2313 3.35714 11.0714 3.51704 11.0714 3.71429V13.5H13.1429C13.3401 13.5 13.5 13.3401 13.5 13.1429V3.71429C13.5 3.51704 13.3401 3.35714 13.1429 3.35714H11.4286ZM10.0714 13.5V8C10.0714 7.80276 9.91153 7.64286 9.71429 7.64286H8C7.80276 7.64286 7.64286 7.80276 7.64286 8V13.5H10.0714ZM6.64286 13.5V10.5714C6.64286 10.3742 6.48296 10.2143 6.28571 10.2143H4.57143C4.37418 10.2143 4.21429 10.3742 4.21429 10.5714V13.1429C4.21429 13.3401 4.37418 13.5 4.57143 13.5H6.64286ZM6.64286 9.26177C6.52906 9.23081 6.40932 9.21429 6.28571 9.21429H4.57143C3.8219 9.21429 3.21429 9.8219 3.21429 10.5714V13.1429C3.21429 13.8924 3.8219 14.5 4.57143 14.5H13.1429C13.8924 14.5 14.5 13.8924 14.5 13.1429V3.71429C14.5 2.96476 13.8924 2.35714 13.1429 2.35714H11.4286C10.679 2.35714 10.0714 2.96476 10.0714 3.71429V6.69034C9.95763 6.65938 9.83789 6.64286 9.71429 6.64286H8C7.25047 6.64286 6.64286 7.25047 6.64286 8V9.26177Z" fill="#272A35"/>
</svg>
