<svg width="40" height="40" viewBox="0 0 40 40" fill="none" xmlns="http://www.w3.org/2000/svg">
<path fill-rule="evenodd" clip-rule="evenodd" d="M9.28571 6C7.47106 6 6 7.47106 6 9.28571V30.7143C6 32.5289 7.47106 34 9.28571 34H30.7143C32.5289 34 34 32.5289 34 30.7143V22.1429C34 21.5906 34.4477 21.1429 35 21.1429C35.5523 21.1429 36 21.5906 36 22.1429V30.7143C36 33.6335 33.6335 36 30.7143 36H9.28571C6.36649 36 4 33.6335 4 30.7143V9.28571C4 6.36649 6.36649 4 9.28571 4H24.2857C24.838 4 25.2857 4.44772 25.2857 5C25.2857 5.55228 24.838 6 24.2857 6H9.28571ZM27.5714 9.28571C27.5714 8.73343 28.0191 8.28571 28.5714 8.28571H35C35.5523 8.28571 36 8.73343 36 9.28571V15.7143C36 16.2666 35.5523 16.7143 35 16.7143C34.4477 16.7143 34 16.2666 34 15.7143V11.6999L24.9928 20.7071C23.4188 22.2811 20.8669 22.2811 19.2929 20.7071C18.5 19.9142 17.2143 19.9142 16.4214 20.7071L12.1357 24.9928C11.7452 25.3833 11.112 25.3833 10.7215 24.9928C10.3309 24.6023 10.3309 23.9691 10.7215 23.5786L15.0072 19.2929C16.5812 17.7189 19.1331 17.7189 20.7071 19.2929C21.5 20.0858 22.7857 20.0858 23.5786 19.2929L32.5858 10.2857H28.5714C28.0191 10.2857 27.5714 9.838 27.5714 9.28571Z" fill="#272A35"/>
</svg>
