<svg width="40" height="40" viewBox="0 0 40 40" fill="none" xmlns="http://www.w3.org/2000/svg">
<path fill-rule="evenodd" clip-rule="evenodd" d="M8.75 8.5C7.25182 8.5 6 9.74769 6 11.3333V12.25H34V11.3333C34 9.74769 32.7482 8.5 31.25 8.5H8.75ZM36 11.3333C36 8.68479 33.894 6.5 31.25 6.5H8.75C6.10604 6.5 4 8.68479 4 11.3333V26.6667C4 29.3152 6.10604 31.5 8.75 31.5H31.25C33.894 31.5 36 29.3152 36 26.6667V11.3333ZM34 14.25H6V26.6667C6 28.2523 7.25182 29.5 8.75 29.5H31.25C32.7482 29.5 34 28.2523 34 26.6667V14.25ZM9.625 24.75C9.625 24.1977 10.0727 23.75 10.625 23.75H18.125C18.6773 23.75 19.125 24.1977 19.125 24.75C19.125 25.3023 18.6773 25.75 18.125 25.75H10.625C10.0727 25.75 9.625 25.3023 9.625 24.75ZM22.75 24.75C22.75 24.1977 23.1977 23.75 23.75 23.75H25.625C26.1773 23.75 26.625 24.1977 26.625 24.75C26.625 25.3023 26.1773 25.75 25.625 25.75H23.75C23.1977 25.75 22.75 25.3023 22.75 24.75Z" fill="#272A35"/>
</svg>
