<svg width="16" height="16" viewBox="0 0 16 16" fill="none" xmlns="http://www.w3.org/2000/svg">
<path fill-rule="evenodd" clip-rule="evenodd" d="M3.71429 2.5C3.04365 2.5 2.5 3.04365 2.5 3.71429V12.2857C2.5 12.9563 3.04365 13.5 3.71429 13.5H12.2857C12.9563 13.5 13.5 12.9563 13.5 12.2857V5.42857C13.5 4.75794 12.9563 4.21429 12.2857 4.21429H8.71008C8.12282 4.21429 7.5596 3.981 7.14434 3.56574L6.43426 2.85566C6.20654 2.62793 5.89768 2.5 5.57563 2.5H3.71429ZM1.5 3.71429C1.5 2.49137 2.49137 1.5 3.71429 1.5H5.57563C6.1629 1.5 6.72611 1.73329 7.14137 2.14855L7.85145 2.85863C8.07917 3.08635 8.38803 3.21429 8.71008 3.21429H12.2857C13.5086 3.21429 14.5 4.20566 14.5 5.42857V12.2857C14.5 13.5086 13.5086 14.5 12.2857 14.5H3.71429C2.49137 14.5 1.5 13.5086 1.5 12.2857V3.71429ZM5.32607 7.3954C5.85607 6.8654 6.71536 6.8654 7.24536 7.3954L8.35355 8.50359C8.54882 8.69885 8.54882 9.01543 8.35355 9.2107C8.15829 9.40596 7.84171 9.40596 7.64645 9.2107L6.78571 8.34996V10.7857C6.78571 11.0619 6.56186 11.2857 6.28571 11.2857C6.00957 11.2857 5.78571 11.0619 5.78571 10.7857V8.34996L4.92498 9.2107C4.72972 9.40596 4.41314 9.40596 4.21788 9.2107C4.02261 9.01543 4.02261 8.69885 4.21788 8.50359L5.32607 7.3954Z" fill="#272A35"/>
</svg>
