<svg width="32" height="32" viewBox="0 0 32 32" fill="none" xmlns="http://www.w3.org/2000/svg">
<path fill-rule="evenodd" clip-rule="evenodd" d="M8.49995 4.80001C7.28492 4.80001 6.29995 5.78499 6.29995 7.00001V9.20001H6.99995C7.44178 9.20001 7.79995 9.55818 7.79995 10C7.79995 10.4418 7.44178 10.8 6.99995 10.8H6.29995V18.2H6.99995C7.44178 18.2 7.79995 18.5582 7.79995 19C7.79995 19.4418 7.44178 19.8 6.99995 19.8H6.29995V22C6.29995 23.215 7.28493 24.2 8.49995 24.2H24.9999C26.215 24.2 27.2 23.215 27.2 22V7.00001C27.2 5.78499 26.215 4.80001 24.9999 4.80001H8.49995ZM24.2 25.8H21.2999V26.5C21.2999 26.8866 21.6134 27.2 22 27.2H23.5C23.8865 27.2 24.2 26.8866 24.2 26.5V25.8ZM19.7 25.8H13.8V26.5C13.8 27.7703 12.7702 28.8 11.5 28.8H9.99995C8.7297 28.8 7.69995 27.7703 7.69995 26.5L7.69995 25.7157C5.98542 25.3483 4.69995 23.8243 4.69995 22V19.8H3.99995C3.55812 19.8 3.19995 19.4418 3.19995 19C3.19995 18.5582 3.55812 18.2 3.99995 18.2H4.69995V10.8H3.99995C3.55812 10.8 3.19995 10.4418 3.19995 10C3.19995 9.55818 3.55812 9.20001 3.99995 9.20001H4.69995V7.00001C4.69995 4.90133 6.40127 3.20001 8.49995 3.20001H24.9999C27.0986 3.20001 28.7999 4.90133 28.7999 7.00001V22C28.7999 23.8243 27.5145 25.3483 25.7999 25.7157V26.5C25.7999 27.7703 24.7702 28.8 23.5 28.8H22C20.7297 28.8 19.7 27.7703 19.7 26.5V25.8ZM9.29995 25.8V26.5C9.29995 26.8866 9.61335 27.2 9.99995 27.2H11.5C11.8866 27.2 12.2 26.8866 12.2 26.5V25.8H9.29995ZM17.5 7.70001C17.9418 7.70001 18.3 8.05818 18.3 8.50001V9.25999C20.5866 9.60619 22.3938 11.4134 22.74 13.7H23.5C23.9418 13.7 24.2999 14.0582 24.2999 14.5C24.2999 14.9418 23.9418 15.3 23.5 15.3H22.74C22.3938 17.5866 20.5866 19.3938 18.3 19.74V20.5C18.3 20.9418 17.9418 21.3 17.5 21.3C17.0581 21.3 16.7 20.9418 16.7 20.5V19.74C14.4133 19.3938 12.6061 17.5866 12.2599 15.3H11.5C11.0581 15.3 10.7 14.9418 10.7 14.5C10.7 14.0582 11.0581 13.7 11.5 13.7H12.2599C12.6061 11.4134 14.4133 9.60619 16.7 9.25999V8.50001C16.7 8.05818 17.0581 7.70001 17.5 7.70001ZM17.5 10.8C15.4565 10.8 13.8 12.4566 13.8 14.5C13.8 16.5435 15.4565 18.2 17.5 18.2C19.5434 18.2 21.2 16.5435 21.2 14.5C21.2 12.4566 19.5434 10.8 17.5 10.8Z" fill="#272A35"/>
</svg>
