<svg width="40" height="40" viewBox="0 0 40 40" fill="none" xmlns="http://www.w3.org/2000/svg">
<path fill-rule="evenodd" clip-rule="evenodd" d="M9 14.6429C9 8.731 13.9595 4 20 4C26.0405 4 31 8.731 31 14.6429V28.5714C31 32.7081 27.5329 36 23.3333 36C19.1337 36 15.6667 32.7081 15.6667 28.5714V14.6429C15.6667 12.2814 17.6414 10.4286 20 10.4286C22.3586 10.4286 24.3333 12.2814 24.3333 14.6429V26.4286C24.3333 26.9809 23.8856 27.4286 23.3333 27.4286C22.781 27.4286 22.3333 26.9809 22.3333 26.4286V14.6429C22.3333 13.4539 21.3233 12.4286 20 12.4286C18.6767 12.4286 17.6667 13.4539 17.6667 14.6429V28.5714C17.6667 31.5356 20.1691 34 23.3333 34C26.4975 34 29 31.5356 29 28.5714V14.6429C29 9.90351 25.0052 6 20 6C14.9948 6 11 9.90351 11 14.6429V26.4286C11 26.9809 10.5523 27.4286 10 27.4286C9.44772 27.4286 9 26.9809 9 26.4286V14.6429Z" fill="#272A35"/>
</svg>
