<svg width="16" height="16" viewBox="0 0 16 16" fill="none" xmlns="http://www.w3.org/2000/svg">
<path fill-rule="evenodd" clip-rule="evenodd" d="M1.5 4.66828C1.5 3.45804 2.50428 2.5 3.71429 2.5H12.2857C13.4957 2.5 14.5 3.45804 14.5 4.66828V9.67313C14.5 10.8834 13.4957 11.8414 12.2857 11.8414H6.13865C5.81228 11.8414 5.50192 11.9677 5.27518 12.1884L3.81195 13.6123C2.97521 14.4266 1.5 13.8774 1.5 12.6642V4.66828ZM3.71429 3.5C3.03075 3.5 2.5 4.03579 2.5 4.66828V12.6642C2.5 12.9373 2.87132 13.1324 3.11452 12.8957L4.57776 11.4717C4.994 11.0666 5.55571 10.8414 6.13865 10.8414H12.2857C12.9693 10.8414 13.5 10.3056 13.5 9.67313V4.66828C13.5 4.03579 12.9693 3.5 12.2857 3.5H3.71429ZM6.28571 5.00242C6.56186 5.00242 6.78571 5.22628 6.78571 5.50242V6.67071H8C8.27614 6.67071 8.5 6.89457 8.5 7.17071C8.5 7.44685 8.27614 7.67071 8 7.67071H6.78571V8.83899C6.78571 9.11513 6.56186 9.33899 6.28571 9.33899C6.00957 9.33899 5.78571 9.11513 5.78571 8.83899V7.67071H4.57143C4.29529 7.67071 4.07143 7.44685 4.07143 7.17071C4.07143 6.89457 4.29529 6.67071 4.57143 6.67071H5.78571V5.50242C5.78571 5.22628 6.00957 5.00242 6.28571 5.00242Z" fill="#272A35"/>
</svg>
