<svg width="24" height="24" viewBox="0 0 24 24" fill="none" xmlns="http://www.w3.org/2000/svg">
<path fill-rule="evenodd" clip-rule="evenodd" d="M7.78938 4.10002C4.94333 4.10002 2.5999 6.49731 2.5999 9.50002C2.5999 12.5027 4.94333 14.9 7.78938 14.9H9.36832C9.69969 14.9 9.96832 15.1687 9.96832 15.5C9.96832 15.8314 9.69969 16.1 9.36832 16.1H7.78938C4.24055 16.1 1.3999 13.1247 1.3999 9.50002C1.3999 5.87532 4.24055 2.90002 7.78938 2.90002H11.4736C11.805 2.90002 12.0736 3.16865 12.0736 3.50002C12.0736 3.8314 11.805 4.10002 11.4736 4.10002H7.78938ZM14.9789 3.50002C14.9789 3.16865 15.2475 2.90002 15.5789 2.90002H21.9999C22.3313 2.90002 22.5999 3.16865 22.5999 3.50002C22.5999 3.8314 22.3313 4.10002 21.9999 4.10002H15.5789C15.2475 4.10002 14.9789 3.8314 14.9789 3.50002ZM14.9789 9.50002C14.9789 9.16865 15.2475 8.90002 15.5789 8.90002H21.9999C22.3313 8.90002 22.5999 9.16865 22.5999 9.50002C22.5999 9.8314 22.3313 10.1 21.9999 10.1H15.5789C15.2475 10.1 14.9789 9.8314 14.9789 9.50002ZM14.9789 15.5C14.9789 15.1687 15.2475 14.9 15.5789 14.9H21.9999C22.3313 14.9 22.5999 15.1687 22.5999 15.5C22.5999 15.8314 22.3313 16.1 21.9999 16.1H15.5789C15.2475 16.1 14.9789 15.8314 14.9789 15.5Z" fill="#272A35"/>
<path fill-rule="evenodd" clip-rule="evenodd" d="M12.1125 15.5433L10.1291 13.5555L10.1635 17.5649L12.1125 15.5433ZM10.6759 18.7619C10.0576 19.4033 8.98707 18.962 8.97937 18.0625L8.93665 13.0783C8.92894 12.1788 9.99169 11.7192 10.621 12.3499L13.0866 14.821C13.4767 15.2119 13.4822 15.8512 13.0989 16.2488L10.6759 18.7619Z" fill="#272A35"/>
</svg>
