<svg width="40" height="40" viewBox="0 0 40 40" fill="none" xmlns="http://www.w3.org/2000/svg">
<path fill-rule="evenodd" clip-rule="evenodd" d="M4 12.5C4 7.80558 7.80558 4 12.5 4H27.5C32.1944 4 36 7.80558 36 12.5V27.5C36 32.1944 32.1944 36 27.5 36H12.5C7.80558 36 4 32.1944 4 27.5V12.5ZM6 21H7.8125C8.36478 21 8.8125 20.5523 8.8125 20C8.8125 19.4477 8.36478 19 7.8125 19H6V12.5C6 8.91015 8.91015 6 12.5 6H19V7.8125C19 8.36478 19.4477 8.8125 20 8.8125C20.5523 8.8125 21 8.36478 21 7.8125V6H27.5C31.0899 6 34 8.91015 34 12.5V19H32.1875C31.6352 19 31.1875 19.4477 31.1875 20C31.1875 20.5523 31.6352 21 32.1875 21H34V27.5C34 31.0899 31.0899 34 27.5 34H21V32.1875C21 31.6352 20.5523 31.1875 20 31.1875C19.4477 31.1875 19 31.6352 19 32.1875V34H12.5C8.91015 34 6 31.0899 6 27.5V21ZM20 11.5C20.5523 11.5 21 11.9477 21 12.5V20C21 20.2652 20.8946 20.5196 20.7071 20.7071L16.9571 24.4571C16.5666 24.8476 15.9334 24.8476 15.5429 24.4571C15.1524 24.0666 15.1524 23.4334 15.5429 23.0429L19 19.5858V12.5C19 11.9477 19.4477 11.5 20 11.5Z" fill="#272A35"/>
</svg>
