<svg width="32" height="32" viewBox="0 0 32 32" fill="none" xmlns="http://www.w3.org/2000/svg">
<path fill-rule="evenodd" clip-rule="evenodd" d="M6.99995 7.80001C5.80545 7.80001 4.79995 8.80149 4.79995 10.0833V10.825H27.2V10.0833C27.2 8.80149 26.1945 7.80001 25 7.80001H6.99995ZM28.8 10.0833C28.8 7.95944 27.1192 6.20001 25 6.20001H6.99995C4.88075 6.20001 3.19995 7.95944 3.19995 10.0833V22.4167C3.19995 24.5406 4.88075 26.3 6.99995 26.3H25C27.1192 26.3 28.8 24.5406 28.8 22.4167V10.0833ZM27.2 12.425H4.79995V22.4167C4.79995 23.6985 5.80545 24.7 6.99995 24.7H25C26.1945 24.7 27.2 23.6985 27.2 22.4167V12.425ZM7.69995 20.875C7.69995 20.4332 8.05812 20.075 8.49995 20.075H14.5C14.9418 20.075 15.3 20.4332 15.3 20.875C15.3 21.3168 14.9418 21.675 14.5 21.675H8.49995C8.05812 21.675 7.69995 21.3168 7.69995 20.875ZM18.2 20.875C18.2 20.4332 18.5581 20.075 19 20.075H20.5C20.9418 20.075 21.3 20.4332 21.3 20.875C21.3 21.3168 20.9418 21.675 20.5 21.675H19C18.5581 21.675 18.2 21.3168 18.2 20.875Z" fill="#272A35"/>
</svg>
