<svg width="32" height="32" viewBox="0 0 32 32" fill="none" xmlns="http://www.w3.org/2000/svg">
<path fill-rule="evenodd" clip-rule="evenodd" d="M10.429 4.45869C10.0022 4.10788 9.29995 4.38404 9.29995 5.04436V7.20293H13.7671L10.429 4.45869ZM15.2 8.80293H5.49995C5.13376 8.80293 4.79995 9.1142 4.79995 9.54436V11.0858C4.79995 11.5159 5.13376 11.8272 5.49995 11.8272H15.2V8.80293ZM15.2 13.4272H6.29995V23.4172C6.29995 24.6987 7.30533 25.7 8.49995 25.7H15.2V13.4272ZM16.8 25.7V13.4272H25.7V23.4172C25.7 24.6987 24.6946 25.7 23.5 25.7H16.8ZM8.49995 27.3C6.38086 27.3 4.69995 25.5409 4.69995 23.4172V13.2824C3.81554 12.9491 3.19995 12.0795 3.19995 11.0858V9.54436C3.19995 8.27191 4.20929 7.20293 5.49995 7.20293H7.69995V5.04436C7.69995 3.11969 9.90746 1.9587 11.445 3.22273L15.2124 6.3199C15.2793 5.94562 15.6064 5.66151 16 5.66151C16.3935 5.66151 16.7206 5.94562 16.7875 6.3199L20.5549 3.22273C22.0924 1.9587 24.2999 3.11969 24.2999 5.04436V7.20293H26.5C27.7906 7.20293 28.7999 8.27191 28.7999 9.54436V11.0858C28.7999 12.0795 28.1844 12.9491 27.2999 13.2824V23.4172C27.2999 25.5409 25.619 27.3 23.5 27.3H8.49995ZM26.5 8.80293C26.8661 8.80293 27.2 9.1142 27.2 9.54436V11.0858C27.2 11.5159 26.8661 11.8272 26.5 11.8272H16.8V8.80293H26.5ZM22.7 7.20293V5.04436C22.7 4.38404 21.9977 4.10788 21.5709 4.45869L18.2328 7.20293H22.7Z" fill="#272A35"/>
</svg>
