<svg width="40" height="40" viewBox="0 0 40 40" fill="none" xmlns="http://www.w3.org/2000/svg">
<path fill-rule="evenodd" clip-rule="evenodd" d="M20 2.5C20.2652 2.5 20.5196 2.60536 20.7071 2.79289L26.3321 8.41789C26.7226 8.80842 26.7226 9.44158 26.3321 9.83211C25.9416 10.2226 25.3084 10.2226 24.9179 9.83211L21 5.91421V13.5C21 14.0523 20.5523 14.5 20 14.5C19.4477 14.5 19 14.0523 19 13.5V5.91421L15.0821 9.83211C14.6916 10.2226 14.0584 10.2226 13.6679 9.83211C13.2774 9.44158 13.2774 8.80842 13.6679 8.41789L19.2929 2.79289C19.4804 2.60536 19.7348 2.5 20 2.5ZM9.83211 13.6679C10.2226 14.0584 10.2226 14.6916 9.83211 15.0821L5.91421 19H13.5C14.0523 19 14.5 19.4477 14.5 20C14.5 20.5523 14.0523 21 13.5 21H5.91421L9.83211 24.9179C10.2226 25.3084 10.2226 25.9416 9.83211 26.3321C9.44158 26.7226 8.80842 26.7226 8.41789 26.3321L2.79289 20.7071C2.60536 20.5196 2.5 20.2652 2.5 20C2.5 19.7348 2.60536 19.4804 2.79289 19.2929L8.41789 13.6679C8.80842 13.2774 9.44158 13.2774 9.83211 13.6679ZM30.1679 13.6679C30.5584 13.2774 31.1916 13.2774 31.5821 13.6679L37.2071 19.2929C37.3946 19.4804 37.5 19.7348 37.5 20C37.5 20.2652 37.3946 20.5196 37.2071 20.7071L31.5821 26.3321C31.1916 26.7226 30.5584 26.7226 30.1679 26.3321C29.7774 25.9416 29.7774 25.3084 30.1679 24.9179L34.0858 21H26.5C25.9477 21 25.5 20.5523 25.5 20C25.5 19.4477 25.9477 19 26.5 19H34.0858L30.1679 15.0821C29.7774 14.6916 29.7774 14.0584 30.1679 13.6679ZM19 26.5C19 25.9477 19.4477 25.5 20 25.5C20.5523 25.5 21 25.9477 21 26.5V34.0858L24.9179 30.1679C25.3084 29.7774 25.9416 29.7774 26.3321 30.1679C26.7226 30.5584 26.7226 31.1916 26.3321 31.5821L20.7071 37.2071C20.5196 37.3946 20.2652 37.5 20 37.5C19.7348 37.5 19.4804 37.3946 19.2929 37.2071L13.6679 31.5821C13.2774 31.1916 13.2774 30.5584 13.6679 30.1679C14.0584 29.7774 14.6916 29.7774 15.0821 30.1679L19 34.0858V26.5Z" fill="#272A35"/>
</svg>
