<svg width="25" height="24" viewBox="0 0 25 24" fill="none" xmlns="http://www.w3.org/2000/svg">
<path fill-rule="evenodd" clip-rule="evenodd" d="M12.5756 14.5758C12.81 14.3414 13.1899 14.3414 13.4242 14.5758L15.9999 17.1515L18.5756 14.5758C18.81 14.3414 19.1899 14.3414 19.4242 14.5758C19.6585 14.8101 19.6585 15.19 19.4242 15.4243L16.8484 18L19.4242 20.5758C19.6585 20.8101 19.6585 21.19 19.4242 21.4243C19.1899 21.6586 18.81 21.6586 18.5756 21.4243L15.9999 18.8486L13.4242 21.4243C13.1899 21.6586 12.81 21.6586 12.5756 21.4243C12.3413 21.19 12.3413 20.8101 12.5756 20.5758L15.1514 18L12.5756 15.4243C12.3413 15.19 12.3413 14.8101 12.5756 14.5758Z" fill="#272A35"/>
<path fill-rule="evenodd" clip-rule="evenodd" d="M0.399902 6.00002C0.399902 4.0118 2.01168 2.40002 3.9999 2.40002H14.9999C16.9881 2.40002 18.5999 4.0118 18.5999 6.00002V11.9643C18.5999 12.2957 18.3313 12.5643 17.9999 12.5643C17.6685 12.5643 17.3999 12.2957 17.3999 11.9643V6.00002C17.3999 4.67454 16.3254 3.60002 14.9999 3.60002H3.9999C2.67442 3.60002 1.5999 4.67454 1.5999 6.00002V15C1.5999 16.3255 2.67442 17.4 3.9999 17.4H9.4999C9.83127 17.4 10.0999 17.6687 10.0999 18C10.0999 18.3314 9.83127 18.6 9.4999 18.6H3.9999C2.01168 18.6 0.399902 16.9882 0.399902 15V6.00002Z" fill="#272A35"/>
<path fill-rule="evenodd" clip-rule="evenodd" d="M1.61581 3.53911C1.87037 3.32697 2.24871 3.36136 2.46085 3.61593L8.42441 10.7722C8.98412 11.4439 10.0157 11.4439 10.5754 10.7722L16.539 3.61593C16.7511 3.36136 17.1295 3.32697 17.384 3.53911C17.6386 3.75125 17.673 4.12958 17.4608 4.38415L11.4973 11.5404C10.4578 12.7878 8.54201 12.7878 7.50254 11.5404L1.53898 4.38415C1.32685 4.12958 1.36124 3.75125 1.61581 3.53911Z" fill="#272A35"/>
</svg>
