<svg width="32" height="32" viewBox="0 0 32 32" fill="none" xmlns="http://www.w3.org/2000/svg">
<path fill-rule="evenodd" clip-rule="evenodd" d="M6.99995 6.30001C5.83972 6.30001 4.79995 7.33144 4.79995 8.73078V9.54617H24.2V8.73078C24.2 7.33144 23.1602 6.30001 22 6.30001H6.99995ZM25.7999 9.63449V8.73078C25.7999 6.56151 24.1534 4.70001 22 4.70001H6.99995C4.84647 4.70001 3.19995 6.56151 3.19995 8.73078V23.2692C3.19995 25.4385 4.84647 27.3 6.99995 27.3H25C27.1534 27.3 28.7999 25.4385 28.7999 23.2692V13.5769C28.7999 11.6855 27.5481 10.028 25.7999 9.63449ZM27.2 14.3923V13.5769C27.2 12.1776 26.1602 11.1462 25 11.1462H4.79995V23.2692C4.79995 24.6686 5.83972 25.7 6.99995 25.7H25C26.1602 25.7 27.2 24.6686 27.2 23.2692V22.4539H25C22.8465 22.4539 21.2 20.5924 21.2 18.4231C21.2 16.2538 22.8465 14.3923 25 14.3923H27.2ZM27.2 20.8539V15.9923H25C23.8397 15.9923 22.7999 17.0237 22.7999 18.4231C22.7999 19.8224 23.8397 20.8539 25 20.8539H27.2Z" fill="#272A35"/>
</svg>
