<svg width="40" height="40" viewBox="0 0 40 40" fill="none" xmlns="http://www.w3.org/2000/svg">
<path fill-rule="evenodd" clip-rule="evenodd" d="M22.9187 6.49599C20.9418 5.83607 18.7825 5.83637 16.7975 6.48674C13.5762 7.54217 11.0601 10.1855 10.1738 13.4916L10.0832 13.8299C9.48734 16.0525 9.37784 18.3799 9.76236 20.6499L9.80197 20.8837C9.82062 20.9939 9.84187 21.103 9.86563 21.211C9.96818 21.6771 9.72707 22.1507 9.28985 22.342C8.23962 22.8015 7.5 23.8621 7.5 25.1023C7.5 26.5384 8.49905 27.7637 9.8721 28.0465L10.4943 28.1746C12.0474 28.4944 13.6126 28.7329 15.1838 28.89C18.1797 29.1897 21.1973 29.1937 24.1938 28.9021C25.8061 28.7452 27.4123 28.5027 29.0057 28.1746L29.6279 28.0465C31.001 27.7637 32 26.5384 32 25.1023C32 23.8615 31.2596 22.8005 30.2086 22.3413C29.7692 22.1494 29.5279 21.6726 29.6334 21.2048C29.6606 21.0841 29.6848 20.9621 29.7056 20.8388L29.7476 20.591C30.1262 18.3561 30.0275 16.0653 29.4583 13.8723L29.337 13.4053C28.4913 10.147 26.073 7.54893 22.9187 6.49599ZM23.552 4.5989L23.2362 5.54504L23.552 4.5989C27.3556 5.8686 30.2589 8.99633 31.2729 12.9028L31.3941 13.3699C32.0317 15.826 32.1443 18.391 31.7247 20.8943C33.0952 21.786 34 23.3391 34 25.1023C34 27.4729 32.3482 29.5283 30.0313 30.0054L29.4091 30.1335C28.0888 30.4053 26.7602 30.6209 25.4265 30.7801C25.4257 30.951 25.4101 31.1235 25.3736 31.292L25.2536 31.8467C24.8364 33.7746 23.3618 35.2985 21.4498 35.7587L21.1252 35.8368C20.2211 36.0544 19.2789 36.0544 18.3748 35.8368L18.0502 35.7587C16.1382 35.2985 14.6636 33.7746 14.2464 31.8467L14.1264 31.292C14.0894 31.1211 14.0637 30.9492 14.0491 30.7772C12.7237 30.6183 11.4031 30.4037 10.0909 30.1335L9.46873 30.0054C7.15184 29.5283 5.5 27.4729 5.5 25.1023C5.5 23.3391 6.40486 21.7858 7.77548 20.8942C7.36088 18.3692 7.48891 15.7833 8.15137 13.312L8.24204 12.9738C9.30342 9.01439 12.3125 5.8516 16.1748 4.58615C18.5634 3.80354 21.1631 3.80146 23.552 4.5989ZM16.1049 30.9789L16.2012 31.4238C16.458 32.6105 17.3622 33.536 18.5182 33.8142L18.8428 33.8923C19.4393 34.0359 20.0607 34.0359 20.6572 33.8923L20.9818 33.8142C22.1378 33.536 23.042 32.6105 23.2988 31.4238L23.3951 30.9789C20.9685 31.1642 18.5315 31.1642 16.1049 30.9789Z" fill="#272A35"/>
</svg>
