<svg width="32" height="32" viewBox="0 0 32 32" fill="none" xmlns="http://www.w3.org/2000/svg">
<path fill-rule="evenodd" clip-rule="evenodd" d="M13.5 3.80001C12.2849 3.80001 11.3 4.78499 11.3 6.00001V6.70001H20.7V6.00001C20.7 4.78499 19.715 3.80001 18.5 3.80001H13.5ZM22.2999 6.70001V6.00001C22.2999 3.90133 20.5986 2.20001 18.5 2.20001H13.5C11.4013 2.20001 9.69995 3.90133 9.69995 6.00001V6.70001H2.99995C2.55812 6.70001 2.19995 7.05818 2.19995 7.50001C2.19995 7.94184 2.55812 8.30001 2.99995 8.30001H5.69995V25.5C5.69995 27.5987 7.40127 29.3 9.49995 29.3H22.5C24.5986 29.3 26.2999 27.5987 26.2999 25.5V8.30001H29C29.4418 8.30001 29.7999 7.94184 29.7999 7.50001C29.7999 7.05818 29.4418 6.70001 29 6.70001H22.2999ZM7.29995 8.30001V25.5C7.29995 26.715 8.28492 27.7 9.49995 27.7H22.5C23.715 27.7 24.7 26.715 24.7 25.5V8.30001H7.29995ZM13.5 13.2C13.9418 13.2 14.3 13.5582 14.3 14V22C14.3 22.4418 13.9418 22.8 13.5 22.8C13.0581 22.8 12.7 22.4418 12.7 22V14C12.7 13.5582 13.0581 13.2 13.5 13.2ZM19 13.2C19.4418 13.2 19.7999 13.5582 19.7999 14V22C19.7999 22.4418 19.4418 22.8 19 22.8C18.5581 22.8 18.2 22.4418 18.2 22V14C18.2 13.5582 18.5581 13.2 19 13.2Z" fill="#272A35"/>
</svg>
