<svg width="40" height="40" viewBox="0 0 40 40" fill="none" xmlns="http://www.w3.org/2000/svg">
<path fill-rule="evenodd" clip-rule="evenodd" d="M34 20C34 12.268 27.732 6 20 6C12.268 6 6 12.268 6 20C6 27.732 12.268 34 20 34C27.732 34 34 27.732 34 20ZM20 4C28.8366 4 36 11.1634 36 20C36 28.8366 28.8366 36 20 36C11.1634 36 4 28.8366 4 20C4 11.1634 11.1634 4 20 4ZM16.9852 26.216L22.2765 20.9247C22.7872 20.414 22.7872 19.586 22.2765 19.0753L16.9852 13.784C16.5947 13.3935 16.5947 12.7603 16.9852 12.3698C17.3757 11.9793 18.0089 11.9793 18.3994 12.3698L23.6907 17.6611C24.9824 18.9528 24.9824 21.0472 23.6907 22.3389L18.3994 27.6302C18.0089 28.0207 17.3757 28.0207 16.9852 27.6302C16.5947 27.2397 16.5947 26.6065 16.9852 26.216Z" fill="#272A35"/>
</svg>
