<svg width="24" height="24" viewBox="0 0 24 24" fill="none" xmlns="http://www.w3.org/2000/svg">
<path fill-rule="evenodd" clip-rule="evenodd" d="M5.57133 3.60002C4.48254 3.60002 3.5999 4.48266 3.5999 5.57145V18.4286C3.5999 19.5174 4.48254 20.4 5.57133 20.4H18.4285C19.5173 20.4 20.3999 19.5174 20.3999 18.4286V8.14288C20.3999 7.05409 19.5173 6.17145 18.4285 6.17145H13.065C12.2239 6.17145 11.4172 5.83732 10.8225 5.24256L9.75736 4.17744C9.38765 3.80773 8.88621 3.60002 8.36335 3.60002H5.57133ZM2.3999 5.57145C2.3999 3.81992 3.8198 2.40002 5.57133 2.40002H8.36335C9.20447 2.40002 10.0111 2.73416 10.6059 3.32891L11.671 4.39404C12.0407 4.76375 12.5422 4.97145 13.065 4.97145H18.4285C20.18 4.97145 21.5999 6.39135 21.5999 8.14288V18.4286C21.5999 20.1801 20.18 21.6 18.4285 21.6H5.57133C3.8198 21.6 2.3999 20.1801 2.3999 18.4286V5.57145ZM8.09507 11.1992C8.83149 10.4628 10.0255 10.4628 10.7619 11.1992L12.4242 12.8615C12.6585 13.0958 12.6585 13.4757 12.4242 13.71C12.1899 13.9443 11.81 13.9443 11.5756 13.71L10.0285 12.1628V16.1786C10.0285 16.51 9.75984 16.7786 9.42847 16.7786C9.0971 16.7786 8.82847 16.51 8.82847 16.1786V12.1628L7.28131 13.71C7.04699 13.9443 6.66709 13.9443 6.43278 13.71C6.19847 13.4757 6.19847 13.0958 6.43278 12.8615L8.09507 11.1992Z" fill="#272A35"/>
</svg>
