<svg width="40" height="40" viewBox="0 0 40 40" fill="none" xmlns="http://www.w3.org/2000/svg">
<path fill-rule="evenodd" clip-rule="evenodd" d="M31.6667 27.3333C32.9553 27.3333 34 26.2887 34 25V10C34 7.79086 32.2091 6 30 6H15.8333C14.0844 6 12.6667 7.41776 12.6667 9.16667C12.6667 9.71895 12.2189 10.1667 11.6667 10.1667C11.1144 10.1667 10.6667 9.71895 10.6667 9.16667C10.6667 6.3132 12.9799 4 15.8333 4H30C33.3137 4 36 6.68629 36 10V25C36 27.3932 34.0599 29.3333 31.6667 29.3333C31.1144 29.3333 30.6667 28.8856 30.6667 28.3333C30.6667 27.781 31.1144 27.3333 31.6667 27.3333Z" fill="#272A35"/>
<path fill-rule="evenodd" clip-rule="evenodd" d="M9.99992 33H23.3333C24.9901 33 26.3333 31.6568 26.3333 30V16.6666C26.3333 15.0098 24.9901 13.6666 23.3332 13.6666H9.99992C8.34307 13.6666 6.99992 15.0098 6.99992 16.6667V30C6.99992 31.6568 8.34307 33 9.99992 33ZM23.3333 35C26.0947 35 28.3333 32.7614 28.3333 30V16.6666C28.3333 13.9052 26.0947 11.6666 23.3332 11.6666H9.99992C7.2385 11.6666 4.99992 13.9052 4.99992 16.6667V30C4.99992 32.7614 7.2385 35 9.99992 35H23.3333Z" fill="#272A35"/>
</svg>
