<svg width="16" height="16" viewBox="0 0 16 16" fill="none" xmlns="http://www.w3.org/2000/svg">
<path fill-rule="evenodd" clip-rule="evenodd" d="M3.33301 1.96899C3.60915 1.96899 3.83301 2.19285 3.83301 2.46899V12.6592C3.83301 13.1686 4.19863 13.5 4.55481 13.5H11.458C11.8137 13.5 12.1798 13.1684 12.1798 12.6592V2.46899C12.1798 2.19285 12.4037 1.96899 12.6798 1.96899C12.956 1.96899 13.1798 2.19285 13.1798 2.46899V12.6592C13.1798 13.6315 12.4512 14.5 11.458 14.5H4.55481C3.5609 14.5 2.83301 13.6314 2.83301 12.6592V2.46899C2.83301 2.19285 3.05687 1.96899 3.33301 1.96899Z" fill="#272A35"/>
<path fill-rule="evenodd" clip-rule="evenodd" d="M1 2.33521C1 2.05906 1.22386 1.83521 1.5 1.83521H14.5C14.7761 1.83521 15 2.05906 15 2.33521C15 2.61135 14.7761 2.83521 14.5 2.83521H1.5C1.22386 2.83521 1 2.61135 1 2.33521Z" fill="#272A35"/>
<path fill-rule="evenodd" clip-rule="evenodd" d="M7.06445 4.42639C7.3406 4.42639 7.56445 4.65025 7.56445 4.92639V11.3884C7.56445 11.6646 7.3406 11.8884 7.06445 11.8884C6.78831 11.8884 6.56445 11.6646 6.56445 11.3884V4.92639C6.56445 4.65025 6.78831 4.42639 7.06445 4.42639Z" fill="#272A35"/>
<path fill-rule="evenodd" clip-rule="evenodd" d="M5.58643 8.25745C5.58643 7.9813 5.81028 7.75745 6.08643 7.75745H7.06509C7.34123 7.75745 7.56509 7.9813 7.56509 8.25745C7.56509 8.53359 7.34123 8.75745 7.06509 8.75745H6.08643C5.81028 8.75745 5.58643 8.53359 5.58643 8.25745Z" fill="#272A35"/>
<path fill-rule="evenodd" clip-rule="evenodd" d="M5.58643 10.0844C5.58643 9.80827 5.81028 9.58441 6.08643 9.58441H9.23135C9.50749 9.58441 9.73135 9.80827 9.73135 10.0844C9.73135 10.3606 9.50749 10.5844 9.23135 10.5844H6.08643C5.81028 10.5844 5.58643 10.3606 5.58643 10.0844Z" fill="#272A35"/>
<path fill-rule="evenodd" clip-rule="evenodd" d="M6.60059 4.92639C6.60059 4.65025 6.82444 4.42639 7.10059 4.42639H8.59791C9.75542 4.42639 10.616 5.44036 10.616 6.59168C10.616 7.74273 9.75566 8.75764 8.59791 8.75764H7.10059C6.82444 8.75764 6.60059 8.53378 6.60059 8.25764C6.60059 7.9815 6.82444 7.75764 7.10059 7.75764H8.59791C9.11769 7.75764 9.616 7.28022 9.616 6.59168C9.616 5.90341 9.11793 5.42639 8.59791 5.42639H7.10059C6.82444 5.42639 6.60059 5.20253 6.60059 4.92639Z" fill="#272A35"/>
</svg>
