<svg width="24" height="24" viewBox="0 0 24 24" fill="none" xmlns="http://www.w3.org/2000/svg">
<path fill-rule="evenodd" clip-rule="evenodd" d="M4.9999 7.59996C4.2267 7.59996 3.5999 8.22676 3.5999 8.99996V19C3.5999 19.7732 4.2267 20.4 4.9999 20.4H14.9999C15.7731 20.4 16.3999 19.7732 16.3999 19V18.5C16.3999 18.1686 16.6685 17.9 16.9999 17.9C17.3313 17.9 17.5999 18.1686 17.5999 18.5V19C17.5999 20.4359 16.4358 21.6 14.9999 21.6H4.9999C3.56396 21.6 2.3999 20.4359 2.3999 19V8.99996C2.3999 7.56402 3.56396 6.39996 4.9999 6.39996H5.9999C6.33127 6.39996 6.5999 6.66859 6.5999 6.99996C6.5999 7.33133 6.33127 7.59996 5.9999 7.59996H4.9999Z" fill="#272A35"/>
<path fill-rule="evenodd" clip-rule="evenodd" d="M13.4 9.4V6.73333H14.6V9.4H17.2667V10.6H14.6V13.2667H13.4V10.6H10.7333V9.4H13.4ZM19 4.2H9C8.55817 4.2 8.2 4.55817 8.2 5V15C8.2 15.4418 8.55817 15.8 9 15.8H19C19.4418 15.8 19.8 15.4418 19.8 15V5C19.8 4.55817 19.4418 4.2 19 4.2ZM9 3C7.89543 3 7 3.89543 7 5V15C7 16.1046 7.89543 17 9 17H19C20.1046 17 21 16.1046 21 15V5C21 3.89543 20.1046 3 19 3H9Z" fill="#272A35"/>
</svg>
