<svg width="24" height="24" viewBox="0 0 24 24" fill="none" xmlns="http://www.w3.org/2000/svg">
<path fill-rule="evenodd" clip-rule="evenodd" d="M14.6711 20.8L11.6205 20.8L14.6711 17.8611L14.6711 20.8ZM15.8711 17.3907C15.8711 16.5087 14.8124 16.0586 14.1773 16.6705L10.4308 20.2799C9.78273 20.9042 10.2247 22 11.1246 22L14.8711 22C15.4234 22 15.8711 21.5523 15.8711 21L15.8711 17.3907Z" fill="#272A35"/>
<path fill-rule="evenodd" clip-rule="evenodd" d="M3.55727 10.5449C3.33337 10.7892 3.3499 11.1688 3.59419 11.3927L11.8525 18.9617C12.0968 19.1856 12.4763 19.1691 12.7002 18.9248C12.9241 18.6805 12.9076 18.301 12.6633 18.0771L4.40499 10.508C4.16071 10.2841 3.78117 10.3007 3.55727 10.5449Z" fill="#272A35"/>
<path fill-rule="evenodd" clip-rule="evenodd" d="M9.32842 3.19998L12.379 3.19998L9.32842 6.13894L9.32842 3.19998ZM8.12842 6.60933C8.12842 7.49128 9.18708 7.9414 9.82222 7.3295L13.5687 3.72014C14.2168 3.09577 13.7748 1.99998 12.8749 1.99998L9.12842 1.99998C8.57613 1.99998 8.12842 2.44769 8.12842 2.99998L8.12842 6.60933Z" fill="#272A35"/>
<path fill-rule="evenodd" clip-rule="evenodd" d="M20.4422 13.4551C20.6661 13.2108 20.6496 12.8312 20.4053 12.6073L12.147 5.03829C11.9027 4.81439 11.5232 4.83092 11.2993 5.07521C11.0754 5.31949 11.0919 5.69903 11.3362 5.92293L19.5945 13.492C19.8388 13.7159 20.2183 13.6993 20.4422 13.4551Z" fill="#272A35"/>
</svg>
