<svg width="40" height="40" viewBox="0 0 40 40" fill="none" xmlns="http://www.w3.org/2000/svg">
<path fill-rule="evenodd" clip-rule="evenodd" d="M12 8.925C9.68036 8.925 7.79995 10.8054 7.79995 13.125V27.875C7.79995 30.1946 9.68036 32.075 12 32.075H20V33.675H12C8.7967 33.675 6.19995 31.0782 6.19995 27.875V13.125C6.19995 9.92175 8.7967 7.325 12 7.325H20V8.925H12Z" fill="#272A35"/>
<path fill-rule="evenodd" clip-rule="evenodd" d="M28.936 7.41634C28.6326 7.35633 28.3196 7.325 28 7.325H26.875V8.925H28C28.2148 8.925 28.4238 8.94604 28.6254 8.98592L28.936 7.41634ZM24.625 7.325H22.375V8.925H24.625V7.325ZM20.125 7.325H19V8.925H20.125V7.325ZM31.9911 9.45748C31.6409 8.93438 31.1907 8.48417 30.6676 8.13396L29.7775 9.46351C30.1268 9.69737 30.4277 9.99828 30.6615 10.3476L31.9911 9.45748ZM32.8 12.125C32.8 11.8055 32.7687 11.4924 32.7087 11.1891L31.1391 11.4996C31.179 11.7012 31.2 11.9103 31.2 12.125V13.1719H32.8V12.125ZM32.8 17.3594V15.2656H31.2V17.3594H32.8ZM32.8 21.5469V19.4531H31.2V21.5469H32.8ZM32.8 25.7344V23.6406H31.2V25.7344H32.8ZM32.8 28.875V27.8281H31.2V28.875C31.2 29.0897 31.179 29.2988 31.1391 29.5004L32.7087 29.8109C32.7687 29.5076 32.8 29.1945 32.8 28.875ZM30.6676 32.866C31.1907 32.5158 31.6409 32.0656 31.9911 31.5425L30.6615 30.6524C30.4277 31.0017 30.1268 31.3026 29.7775 31.5365L30.6676 32.866ZM28 33.675C28.3196 33.675 28.6326 33.6437 28.936 33.5837L28.6254 32.0141C28.4238 32.054 28.2148 32.075 28 32.075H26.875V33.675H28ZM22.375 33.675H24.625V32.075H22.375V33.675ZM19 33.675H20.125V32.075H19V33.675Z" fill="#272A35"/>
<path fill-rule="evenodd" clip-rule="evenodd" d="M19.2 37V4H20.8V37H19.2Z" fill="#272A35"/>
</svg>
