<svg width="32" height="32" viewBox="0 0 32 32" fill="none" xmlns="http://www.w3.org/2000/svg">
<path fill-rule="evenodd" clip-rule="evenodd" d="M6.27358 6.82664V5.42309C6.27358 4.98126 5.91541 4.62309 5.47358 4.62309C5.03176 4.62309 4.67358 4.98126 4.67358 5.42309V8.62822C4.67358 9.07005 5.03176 9.42822 5.47358 9.42822H8.76306C9.20489 9.42822 9.56306 9.07005 9.56306 8.62822C9.56306 8.18639 9.20489 7.82822 8.76306 7.82822H7.53083C9.66022 5.65599 12.665 4.30001 15.9999 4.30001C22.4813 4.30001 27.6999 9.41425 27.6999 15.6795C27.6999 16.1213 28.0581 16.4795 28.4999 16.4795C28.9417 16.4795 29.2999 16.1213 29.2999 15.6795C29.2999 8.49167 23.3256 2.70001 15.9999 2.70001C12.1639 2.70001 8.70278 4.28598 6.27358 6.82664ZM13.672 9.28001C13.6583 9.27931 13.6446 9.27896 13.6307 9.27896C13.1889 9.27896 12.8307 9.63713 12.8307 10.079V15.3834H11.3946C10.9528 15.3834 10.5946 15.7416 10.5946 16.1834C10.5946 16.6252 10.9528 16.9834 11.3946 16.9834H12.8307V18.7314H11.3953C10.9535 18.7314 10.5953 19.0896 10.5953 19.5314C10.5953 19.9732 10.9535 20.3314 11.3953 20.3314H12.8307V21.9211C12.8307 22.3629 13.1889 22.7211 13.6307 22.7211C14.0725 22.7211 14.4307 22.3629 14.4307 21.9211V20.3314H18.5828C19.0246 20.3314 19.3828 19.9732 19.3828 19.5314C19.3828 19.0896 19.0246 18.7314 18.5828 18.7314H14.4307V16.9837H17.1354C19.3952 16.9837 21.4049 15.351 21.4049 13.1307C21.4049 10.91 19.3947 9.27896 17.1354 9.27896H13.7134C13.6995 9.27896 13.6857 9.27931 13.672 9.28001ZM14.4307 15.3837H17.1354C18.7095 15.3837 19.8049 14.2816 19.8049 13.1307C19.8049 11.9802 18.7099 10.879 17.1354 10.879H14.4307V15.3837Z" fill="#272A35"/>
<path fill-rule="evenodd" clip-rule="evenodd" d="M4.54636 10.9218C4.96086 11.0748 5.17287 11.5348 5.0199 11.9493C4.91438 12.2353 4.81971 12.5264 4.7364 12.8224C4.61668 13.2477 4.17485 13.4954 3.74955 13.3757C3.32426 13.256 3.07654 12.8141 3.19626 12.3888C3.29106 12.0521 3.39879 11.7207 3.51886 11.3954C3.67183 10.9809 4.13186 10.7689 4.54636 10.9218ZM3.54034 14.7091C3.98184 14.7262 4.32591 15.0979 4.30884 15.5394C4.30293 15.6922 4.29995 15.8457 4.29995 16C4.29995 16.1543 4.30293 16.3078 4.30884 16.4606C4.32591 16.9021 3.98184 17.2738 3.54034 17.2909C3.09885 17.308 2.7271 16.9639 2.71003 16.5224C2.70333 16.3491 2.69995 16.1749 2.69995 16C2.69995 15.8251 2.70333 15.651 2.71003 15.4776C2.7271 15.0361 3.09884 14.6921 3.54034 14.7091ZM3.74955 18.6243C4.17485 18.5046 4.61668 18.7523 4.7364 19.1776C4.81971 19.4736 4.91438 19.7648 5.0199 20.0507C5.17287 20.4652 4.96086 20.9252 4.54636 21.0782C4.13186 21.2312 3.67183 21.0191 3.51886 20.6046C3.39879 20.2793 3.29106 19.9479 3.19626 19.6112C3.07654 19.1859 3.32426 18.7441 3.74955 18.6243ZM28.2503 18.6243C28.6756 18.7441 28.9234 19.1859 28.8036 19.6112C28.7088 19.9479 28.6011 20.2793 28.481 20.6046C28.3281 21.0191 27.868 21.2312 27.4535 21.0782C27.039 20.9252 26.827 20.4652 26.98 20.0507C27.0855 19.7648 27.1802 19.4736 27.2635 19.1776C27.3832 18.7523 27.8251 18.5046 28.2503 18.6243ZM5.16033 22.2804C5.52747 22.0346 6.02436 22.133 6.27016 22.5001C6.44083 22.7551 6.62127 23.003 6.81095 23.2432C7.08471 23.59 7.02551 24.0931 6.67871 24.3669C6.33192 24.6406 5.82886 24.5814 5.5551 24.2346C5.33961 23.9616 5.13457 23.68 4.94061 23.3903C4.69481 23.0231 4.79318 22.5262 5.16033 22.2804ZM26.8396 22.2804C27.2067 22.5262 27.3051 23.0231 27.0593 23.3903C26.8653 23.68 26.6603 23.9616 26.4448 24.2346C26.171 24.5814 25.668 24.6406 25.3212 24.3669C24.9744 24.0931 24.9152 23.59 25.189 23.2432C25.3786 23.003 25.5591 22.7551 25.7297 22.5001C25.9755 22.133 26.4724 22.0346 26.8396 22.2804ZM7.63311 25.3212C7.90687 24.9745 8.40993 24.9152 8.75672 25.189C8.997 25.3787 9.24488 25.5591 9.49981 25.7298C9.86696 25.9756 9.96533 26.4725 9.71953 26.8396C9.47373 27.2068 8.97685 27.3051 8.6097 27.0594C8.31998 26.8654 8.03832 26.6604 7.76535 26.4449C7.41855 26.1711 7.35935 25.668 7.63311 25.3212ZM24.3668 25.3212C24.6406 25.668 24.5814 26.1711 24.2346 26.4449C23.9616 26.6604 23.6799 26.8654 23.3902 27.0594C23.0231 27.3051 22.5262 27.2068 22.2804 26.8396C22.0346 26.4725 22.1329 25.9756 22.5001 25.7298C22.755 25.5591 23.0029 25.3787 23.2432 25.189C23.59 24.9152 24.093 24.9745 24.3668 25.3212ZM10.9218 27.4536C11.0747 27.0391 11.5348 26.8271 11.9493 26.9801C12.2352 27.0856 12.5264 27.1802 12.8223 27.2636C13.2476 27.3833 13.4953 27.8251 13.3756 28.2504C13.2559 28.6757 12.8141 28.9234 12.3888 28.8037C12.052 28.7089 11.7207 28.6012 11.3953 28.4811C10.9808 28.3281 10.7688 27.8681 10.9218 27.4536ZM21.0781 27.4536C21.2311 27.8681 21.0191 28.3281 20.6046 28.4811C20.2792 28.6012 19.9479 28.7089 19.6111 28.8037C19.1858 28.9234 18.744 28.6757 18.6243 28.2504C18.5046 27.8251 18.7523 27.3833 19.1776 27.2636C19.4735 27.1802 19.7647 27.0856 20.0506 26.9801C20.4651 26.8271 20.9252 27.0391 21.0781 27.4536ZM14.7091 28.4596C14.7261 28.0181 15.0979 27.6741 15.5394 27.6911C15.6921 27.697 15.8457 27.7 16 27.7C16.1542 27.7 16.3078 27.697 16.4605 27.6911C16.902 27.6741 17.2738 28.0181 17.2908 28.4596C17.3079 28.9011 16.9638 29.2729 16.5223 29.2899C16.349 29.2966 16.1748 29.3 16 29.3C15.8251 29.3 15.6509 29.2966 15.4776 29.2899C15.0361 29.2729 14.692 28.9011 14.7091 28.4596Z" fill="#272A35"/>
</svg>
