<svg width="32" height="32" viewBox="0 0 32 32" fill="none" xmlns="http://www.w3.org/2000/svg">
<path fill-rule="evenodd" clip-rule="evenodd" d="M13.3241 4.26864C13.728 4.44765 13.9104 4.92023 13.7313 5.32417L11.2295 10.9693H20.7704L18.2686 5.32417C18.0895 4.92023 18.2719 4.44765 18.6758 4.26864C19.0797 4.08962 19.5523 4.27195 19.7313 4.67589L22.5204 10.9693H28C28.4418 10.9693 28.7999 11.3274 28.7999 11.7693C28.7999 12.2111 28.4418 12.5693 28 12.5693H26.7736C26.9303 13.0147 26.973 13.5072 26.8792 13.9833L24.8069 24.5042C24.441 26.3618 22.9453 27.8 21.0934 27.8H10.9065C9.05458 27.8 7.55886 26.3618 7.19299 24.5042L5.12068 13.9833C5.02691 13.5072 5.06962 13.0147 5.22635 12.5693H3.99995C3.55812 12.5693 3.19995 12.2111 3.19995 11.7693C3.19995 11.3274 3.55812 10.9693 3.99995 10.9693H9.47945L12.2686 4.67589C12.4476 4.27195 12.9202 4.08962 13.3241 4.26864ZM9.98168 12.5693H7.36988C7.02835 12.5693 6.55634 12.9929 6.69051 13.6741L8.76282 24.195C9.007 25.4347 9.94617 26.2 10.9065 26.2H21.0934C22.0537 26.2 22.9929 25.4347 23.2371 24.195L25.3094 13.6741C25.4436 12.9929 24.9716 12.5693 24.63 12.5693H22.0182C22.0063 12.5695 21.9944 12.5695 21.9825 12.5693H10.0174C10.0055 12.5695 9.99359 12.5695 9.98168 12.5693ZM10.633 16.0548C11.0701 15.9902 11.4768 16.2922 11.5414 16.7293L12.2914 21.8062C12.3559 22.2433 12.0539 22.6499 11.6169 22.7145C11.1798 22.7791 10.7731 22.4771 10.7085 22.04L9.95854 16.9631C9.89397 16.526 10.196 16.1193 10.633 16.0548ZM21.3669 16.0548C21.8039 16.1193 22.1059 16.526 22.0414 16.9631L21.2914 22.04C21.2268 22.4771 20.8201 22.7791 20.383 22.7145C19.946 22.6499 19.644 22.2433 19.7085 21.8062L20.4585 16.7293C20.5231 16.2922 20.9298 15.9902 21.3669 16.0548ZM16 16.0462C16.4418 16.0462 16.8 16.4044 16.8 16.8462V21.9231C16.8 22.3649 16.4418 22.7231 16 22.7231C15.5581 22.7231 15.2 22.3649 15.2 21.9231V16.8462C15.2 16.4044 15.5581 16.0462 16 16.0462Z" fill="#272A35"/>
</svg>
