<svg width="24" height="24" viewBox="0 0 24 24" fill="none" xmlns="http://www.w3.org/2000/svg">
<path fill-rule="evenodd" clip-rule="evenodd" d="M5.57133 3.60002C4.48254 3.60002 3.5999 4.48266 3.5999 5.57145V18.4286C3.5999 19.5174 4.48254 20.4 5.57133 20.4H18.4285C19.5173 20.4 20.3999 19.5174 20.3999 18.4286V5.57145C20.3999 4.48266 19.5173 3.60002 18.4285 3.60002H5.57133ZM2.3999 5.57145C2.3999 3.81992 3.8198 2.40002 5.57133 2.40002H18.4285C20.18 2.40002 21.5999 3.81992 21.5999 5.57145V18.4286C21.5999 20.1801 20.18 21.6 18.4285 21.6H5.57133C3.8198 21.6 2.3999 20.1801 2.3999 18.4286V5.57145ZM11.9999 8.74288C10.201 8.74288 8.74276 10.2012 8.74276 12C8.74276 13.7989 10.201 15.2572 11.9999 15.2572C13.7988 15.2572 15.257 13.7989 15.257 12C15.257 10.2012 13.7988 8.74288 11.9999 8.74288ZM7.54276 12C7.54276 9.53841 9.53829 7.54288 11.9999 7.54288C14.4615 7.54288 16.457 9.53841 16.457 12C16.457 14.4616 14.4615 16.4572 11.9999 16.4572C9.53829 16.4572 7.54276 14.4616 7.54276 12Z" fill="#272A35"/>
</svg>
