<svg width="32" height="32" viewBox="0 0 32 32" fill="none" xmlns="http://www.w3.org/2000/svg">
<path fill-rule="evenodd" clip-rule="evenodd" d="M19.0708 3.28441C19.2751 3.18222 19.5135 3.1723 19.7256 3.25717L26.1418 5.82365C27.7472 6.46581 28.8 8.0207 28.8 9.74978V25.4679C28.8 27.2467 27.0034 28.463 25.3519 27.8024L19.465 25.4476L12.9292 28.7155C12.7248 28.8177 12.4864 28.8276 12.2743 28.7427L5.85807 26.1763C4.25266 25.5341 3.19995 23.9792 3.19995 22.2501V6.53201C3.19995 4.75324 4.99647 3.53693 6.64802 4.19755L12.5349 6.55232L19.0708 3.28441ZM20.2285 24.0298L25.9461 26.3168C26.5467 26.557 27.2 26.1147 27.2 25.4679V9.74978C27.2 8.67494 26.5456 7.7084 25.5476 7.30921L20.2285 5.18158V14.2857C20.2285 14.7275 19.8703 15.0857 19.4285 15.0857C18.9867 15.0857 18.6285 14.7275 18.6285 14.2857V5.29438L12.9292 8.14406C12.7248 8.24626 12.4864 8.25617 12.2743 8.1713L6.05379 5.68312C5.45323 5.44289 4.79995 5.88518 4.79995 6.53201V22.2501C4.79995 23.325 5.45434 24.2915 6.4523 24.6907L11.7714 26.8183V16C11.7714 15.5581 12.1296 15.2 12.5714 15.2C13.0132 15.2 13.3714 15.5581 13.3714 16V26.7055L18.6285 24.077V21.1428C18.6285 20.701 18.9867 20.3428 19.4285 20.3428C19.8703 20.3428 20.2285 20.701 20.2285 21.1428V24.0298Z" fill="#272A35"/>
</svg>
