<svg width="24" height="24" viewBox="0 0 24 24" fill="none" xmlns="http://www.w3.org/2000/svg">
<path d="M19 3.90249H18.4H19ZM19 20.1383H19.6H19ZM5 3.90249H5.6H5ZM5 20.1383H4.4H5ZM7.46258 3.78827L7.94183 4.14927L7.94183 4.14927L7.46258 3.78827ZM7.7642 3.38784L7.28495 3.02684L7.28495 3.02684L7.7642 3.38784ZM9.2358 3.38784L8.75655 3.74884L8.75655 3.74884L9.2358 3.38784ZM9.375 3.57264L9.85425 3.21165L9.85425 3.21164L9.375 3.57264ZM14.625 3.57264L14.1458 3.21164L14.1458 3.21165L14.625 3.57264ZM14.7642 3.38784L15.2435 3.74884L15.2435 3.74884L14.7642 3.38784ZM16.2358 3.38784L16.715 3.02685L16.715 3.02685L16.2358 3.38784ZM16.5374 3.78828L16.0582 4.14927L16.5374 3.78828ZM7.86002 20.5721L8.19184 20.0722H8.19184L7.86002 20.5721ZM7.38725 20.2583L7.05542 20.7582H7.05542L7.38725 20.2583ZM9.375 20.4161L9.04318 19.9162H9.04318L9.375 20.4161ZM9.13998 20.5721L9.47181 21.072H9.47181L9.13998 20.5721ZM14.86 20.5721L14.5282 21.072L14.5282 21.072L14.86 20.5721ZM14.625 20.4161L14.9568 19.9162L14.9568 19.9162L14.625 20.4161ZM16.6128 20.2583L16.9446 20.7582H16.9446L16.6128 20.2583ZM16.14 20.5721L15.8082 20.0722H15.8082L16.14 20.5721ZM17.6198 20.5718L17.0836 20.841V20.841L17.6198 20.5718ZM12.875 20.4161L12.5432 19.9162L12.875 20.4161ZM6.38018 20.5718L5.844 20.3025V20.3025L6.38018 20.5718ZM17.6837 3.58265L18.2452 3.79413L18.2452 3.79413L17.6837 3.58265ZM6.31627 3.58265L5.75477 3.79413L5.75477 3.79413L6.31627 3.58265ZM18.4 3.90249V20.1383H19.6V3.90249H18.4ZM4.4 3.90249L4.4 20.1383H5.6L5.6 3.90249H4.4ZM7.94183 4.14927L8.24345 3.74884L7.28495 3.02684L6.98333 3.42727L7.94183 4.14927ZM8.75655 3.74884L8.89575 3.93364L9.85425 3.21164L9.71505 3.02684L8.75655 3.74884ZM15.1042 3.93364L15.2435 3.74884L14.285 3.02684L14.1458 3.21164L15.1042 3.93364ZM15.7565 3.74884L16.0582 4.14927L17.0167 3.42728L16.715 3.02685L15.7565 3.74884ZM8.19184 20.0722L7.71907 19.7584L7.05542 20.7582L7.5282 21.072L8.19184 20.0722ZM9.04318 19.9162L8.80816 20.0722L9.47181 21.072L9.70682 20.916L9.04318 19.9162ZM15.1918 20.0722L14.9568 19.9162L14.2932 20.916L14.5282 21.072L15.1918 20.0722ZM16.2809 19.7584L15.8082 20.0722L16.4718 21.072L16.9446 20.7582L16.2809 19.7584ZM18.156 20.3025C17.8128 19.6192 16.9752 19.2976 16.2809 19.7584L16.9446 20.7582C16.9599 20.748 16.9699 20.7458 16.9743 20.7452C16.9792 20.7445 16.9853 20.7446 16.9935 20.7472C17.0081 20.7517 17.0486 20.7712 17.0836 20.841L18.156 20.3025ZM14.5282 21.072C15.1258 21.4687 15.8742 21.4687 16.4718 21.072L15.8082 20.0722C15.6127 20.202 15.3873 20.202 15.1918 20.0722L14.5282 21.072ZM13.2068 20.916C13.5479 20.6896 13.9521 20.6896 14.2932 20.916L14.9568 19.9162C14.2135 19.4229 13.2865 19.4229 12.5432 19.9162L13.2068 20.916ZM10.7932 20.916C11.5365 21.4094 12.4635 21.4094 13.2068 20.916L12.5432 19.9162C12.2021 20.1427 11.7979 20.1427 11.4568 19.9162L10.7932 20.916ZM9.70682 20.916C10.0479 20.6896 10.4521 20.6896 10.7932 20.916L11.4568 19.9162C10.7135 19.4229 9.78645 19.4229 9.04318 19.9162L9.70682 20.916ZM7.52819 21.072C8.12584 21.4687 8.87416 21.4687 9.47181 21.072L8.80816 20.0722C8.61268 20.202 8.38732 20.202 8.19184 20.0722L7.52819 21.072ZM6.91637 20.841C6.95143 20.7712 6.9919 20.7517 7.00649 20.7472C7.01471 20.7446 7.02077 20.7445 7.02567 20.7452C7.03013 20.7458 7.04006 20.748 7.05542 20.7582L7.71907 19.7584C7.02483 19.2976 6.18716 19.6191 5.844 20.3025L6.91637 20.841ZM16.0582 4.14927C16.3549 4.54316 16.8141 4.72291 17.2652 4.642C17.7103 4.56215 18.0762 4.24286 18.2452 3.79413L17.1222 3.37118C17.1051 3.41675 17.0848 3.43917 17.0735 3.44901C17.0617 3.45923 17.0541 3.4607 17.0533 3.46085C17.0528 3.46094 17.0533 3.46107 17.0523 3.46064C17.0519 3.46051 17.0377 3.45521 17.0167 3.42728L16.0582 4.14927ZM15.2435 3.74884C15.3314 3.63204 15.4286 3.6 15.5 3.6C15.5714 3.6 15.6686 3.63204 15.7565 3.74884L16.715 3.02685C16.4135 2.62652 15.9696 2.4 15.5 2.4C15.0304 2.4 14.5865 2.62652 14.285 3.02685L15.2435 3.74884ZM12.3958 3.93364C12.7341 4.38289 13.2292 4.63386 13.75 4.63386C14.2708 4.63386 14.7659 4.38289 15.1042 3.93364L14.1458 3.21165C14.0209 3.37736 13.8726 3.43386 13.75 3.43386C13.6274 3.43386 13.4791 3.37736 13.3542 3.21165L12.3958 3.93364ZM11.6042 3.93364C11.7291 3.76793 11.8774 3.71143 12 3.71143C12.1226 3.71143 12.2709 3.76793 12.3958 3.93364L13.3542 3.21165C13.0159 2.7624 12.5208 2.51143 12 2.51143C11.4792 2.51143 10.9841 2.7624 10.6458 3.21165L11.6042 3.93364ZM8.89575 3.93364C9.23415 4.38289 9.72922 4.63386 10.25 4.63386C10.7708 4.63386 11.2659 4.38289 11.6042 3.93364L10.6458 3.21165C10.5209 3.37736 10.3726 3.43386 10.25 3.43386C10.1274 3.43386 9.97908 3.37736 9.85425 3.21165L8.89575 3.93364ZM8.24345 3.74884C8.33143 3.63204 8.42857 3.6 8.5 3.6C8.57143 3.6 8.66857 3.63204 8.75655 3.74884L9.71505 3.02685C9.4135 2.62652 8.9696 2.4 8.5 2.4C8.0304 2.4 7.5865 2.62652 7.28495 3.02684L8.24345 3.74884ZM5.75477 3.79413C5.92378 4.24286 6.28969 4.56215 6.73484 4.642C7.18591 4.72291 7.64513 4.54316 7.94183 4.14927L6.98333 3.42727C6.96228 3.45521 6.94807 3.46051 6.94774 3.46064C6.94668 3.46107 6.94721 3.46094 6.94671 3.46085C6.94585 3.4607 6.93833 3.45923 6.92653 3.44901C6.91516 3.43917 6.89493 3.41675 6.87777 3.37118L5.75477 3.79413ZM18.4 20.1383C18.4 20.2413 18.3718 20.3031 18.3478 20.337C18.3223 20.3731 18.2934 20.3899 18.273 20.3963C18.2533 20.4025 18.2413 20.3998 18.2338 20.3966C18.2293 20.3946 18.1947 20.3795 18.156 20.3025L17.0836 20.841C17.4029 21.4769 18.0477 21.7248 18.6325 21.5412C19.1971 21.3639 19.6 20.8211 19.6 20.1383H18.4ZM19.6 3.90249C19.6 3.21281 19.1745 2.67912 18.5954 2.5384C17.9969 2.39298 17.3738 2.70331 17.1222 3.37118L18.2452 3.79413C18.2607 3.75292 18.2765 3.73005 18.286 3.71875C18.2953 3.70766 18.3011 3.7045 18.3018 3.70413C18.3027 3.70363 18.3029 3.70362 18.3034 3.70356C18.3042 3.70347 18.3071 3.70326 18.312 3.70447C18.3219 3.70686 18.34 3.71498 18.3577 3.73836C18.3734 3.75915 18.4 3.80743 18.4 3.90249H19.6ZM5.6 3.90249C5.6 3.80744 5.62658 3.75915 5.6423 3.73836C5.65998 3.71498 5.67815 3.70686 5.68795 3.70447C5.69295 3.70326 5.69584 3.70347 5.69664 3.70356C5.69711 3.70362 5.69732 3.70363 5.69825 3.70414C5.69892 3.7045 5.70475 3.70766 5.71404 3.71875C5.7235 3.73005 5.73925 3.75292 5.75477 3.79413L6.87777 3.37118C6.62623 2.70331 6.0031 2.39298 5.40461 2.5384C4.82552 2.67912 4.4 3.21281 4.4 3.90249H5.6ZM4.4 20.1383C4.4 20.8211 4.80293 21.3639 5.3675 21.5412C5.95231 21.7248 6.59706 21.4769 6.91637 20.841L5.844 20.3025C5.80533 20.3795 5.77073 20.3946 5.76621 20.3966C5.75867 20.3998 5.74669 20.4025 5.72704 20.3963C5.70656 20.3899 5.67766 20.3731 5.65215 20.3369C5.62822 20.3031 5.6 20.2413 5.6 20.1383H4.4Z" fill="#272A35"/>
<path fill-rule="evenodd" clip-rule="evenodd" d="M10.5996 8.21914C10.5996 8.55051 10.331 8.81914 9.99961 8.81914H7.99961C7.66824 8.81914 7.39961 8.55051 7.39961 8.21914C7.39961 7.88777 7.66824 7.61914 7.99961 7.61914H9.99961C10.331 7.61914 10.5996 7.88777 10.5996 8.21914Z" fill="#272A35"/>
<path fill-rule="evenodd" clip-rule="evenodd" d="M16.6001 15.1889C16.6001 15.5202 16.3315 15.7889 16.0001 15.7889H14.0001C13.6687 15.7889 13.4001 15.5202 13.4001 15.1889C13.4001 14.8575 13.6687 14.5889 14.0001 14.5889H16.0001C16.3315 14.5889 16.6001 14.8575 16.6001 15.1889Z" fill="#272A35"/>
<path fill-rule="evenodd" clip-rule="evenodd" d="M5.3999 11.704C5.3999 11.3726 5.66853 11.104 5.9999 11.104L6.4999 11.104C6.83127 11.104 7.0999 11.3726 7.0999 11.704C7.0999 12.0354 6.83127 12.304 6.4999 12.304L5.9999 12.304C5.66853 12.304 5.3999 12.0354 5.3999 11.704ZM7.8999 11.704C7.8999 11.3726 8.16853 11.104 8.4999 11.104L9.4999 11.104C9.83127 11.104 10.0999 11.3726 10.0999 11.704C10.0999 12.0354 9.83127 12.304 9.4999 12.304L8.4999 12.304C8.16853 12.304 7.8999 12.0354 7.8999 11.704ZM10.8999 11.704C10.8999 11.3726 11.1685 11.104 11.4999 11.104L12.4999 11.104C12.8313 11.104 13.0999 11.3726 13.0999 11.704C13.0999 12.0354 12.8313 12.304 12.4999 12.304L11.4999 12.304C11.1685 12.304 10.8999 12.0354 10.8999 11.704ZM13.8999 11.704C13.8999 11.3726 14.1685 11.104 14.4999 11.104L15.4999 11.104C15.8313 11.104 16.0999 11.3726 16.0999 11.704C16.0999 12.0354 15.8313 12.304 15.4999 12.304L14.4999 12.304C14.1685 12.304 13.8999 12.0354 13.8999 11.704ZM16.8999 11.704C16.8999 11.3726 17.1685 11.104 17.4999 11.104L17.9999 11.104C18.3313 11.104 18.5999 11.3726 18.5999 11.704C18.5999 12.0354 18.3313 12.304 17.9999 12.304L17.4999 12.304C17.1685 12.304 16.8999 12.0354 16.8999 11.704Z" fill="#272A35"/>
</svg>
