<svg width="40" height="40" viewBox="0 0 40 40" fill="none" xmlns="http://www.w3.org/2000/svg">
<path fill-rule="evenodd" clip-rule="evenodd" d="M18.125 4C18.6773 4 19.125 4.44772 19.125 5V10.0858L21.1679 8.04289C21.5584 7.65237 22.1916 7.65237 22.5821 8.04289C22.9726 8.43342 22.9726 9.06658 22.5821 9.45711L20.1579 11.8813C19.0352 13.004 17.2148 13.004 16.0921 11.8813L13.6679 9.45711C13.2774 9.06658 13.2774 8.43342 13.6679 8.04289C14.0584 7.65237 14.6916 7.65237 15.0821 8.04289L17.125 10.0858V5C17.125 4.44772 17.5727 4 18.125 4ZM8.75 11.625C7.23122 11.625 6 12.8562 6 14.375V15.25H30.25V14.375C30.25 12.8562 29.0188 11.625 27.5 11.625H25.625C25.0727 11.625 24.625 11.1773 24.625 10.625C24.625 10.0727 25.0727 9.625 25.625 9.625H27.5C30.1234 9.625 32.25 11.7516 32.25 14.375V15.3554C34.3932 15.8147 36 17.7197 36 20V31.25C36 33.8734 33.8734 36 31.25 36H8.75C6.12665 36 4 33.8734 4 31.25V14.375C4 11.7516 6.12665 9.625 8.75 9.625H10.625C11.1773 9.625 11.625 10.0727 11.625 10.625C11.625 11.1773 11.1773 11.625 10.625 11.625H8.75ZM34 28.375V22.875H31.25C29.7312 22.875 28.5 24.1062 28.5 25.625C28.5 27.1438 29.7312 28.375 31.25 28.375H34ZM34 20.875H31.25C28.6266 20.875 26.5 23.0016 26.5 25.625C26.5 28.2484 28.6266 30.375 31.25 30.375H34V31.25C34 32.7688 32.7688 34 31.25 34H8.75C7.23122 34 6 32.7688 6 31.25V17.25H31.25C32.7688 17.25 34 18.4812 34 20V20.875Z" fill="#272A35"/>
</svg>
