<svg width="16" height="16" viewBox="0 0 16 16" fill="none" xmlns="http://www.w3.org/2000/svg">
<path fill-rule="evenodd" clip-rule="evenodd" d="M8 1.5C8.27614 1.5 8.5 1.72386 8.5 2V2.85739C10.9689 3.095 12.9089 5.05992 13.143 7.5L14 7.5C14.2761 7.5 14.5 7.72386 14.5 8C14.5 8.27614 14.2761 8.5 14 8.5L13.1426 8.5C13.0645 9.31084 12.7998 10.0656 12.3929 10.7213C12.2472 10.9559 11.939 11.028 11.7044 10.8824C11.4697 10.7368 11.3976 10.4286 11.5432 10.1939C11.9162 9.59286 12.1411 8.88864 12.1647 8.12925C12.1659 8.08794 12.1666 8.04676 12.1667 8.00571C12.1667 8.00381 12.1667 8.00191 12.1667 8C12.1667 7.99807 12.1667 7.99615 12.1667 7.99423C12.1649 5.7544 10.3842 3.90532 8.12925 3.83534C8.08803 3.83406 8.04694 3.83338 8.00598 3.8333C8.00399 3.83332 8.002 3.83333 8 3.83333C7.99778 3.83333 7.99556 3.83332 7.99334 3.83329C7.40333 3.83385 6.84151 3.95763 6.33222 4.18048C6.07924 4.29118 5.78442 4.17583 5.67372 3.92285C5.56302 3.66986 5.67837 3.37504 5.93135 3.26434C6.42053 3.0503 6.94839 2.91007 7.5 2.85707V2C7.5 1.72386 7.72386 1.5 8 1.5ZM3.04159 2.33586C3.24865 2.15315 3.56461 2.1729 3.74732 2.37996L13.0857 12.9635C13.2684 13.1705 13.2486 13.4865 13.0416 13.6692C12.8345 13.8519 12.5186 13.8321 12.3359 13.6251L11.0515 12.1695C10.3213 12.7046 9.44618 13.0521 8.5 13.1429V14C8.5 14.2761 8.27614 14.5 8 14.5C7.72386 14.5 7.5 14.2761 7.5 14V13.1426C5.03106 12.905 3.09114 10.9401 2.85702 8.5L2 8.5C1.72386 8.5 1.5 8.27614 1.5 8C1.5 7.72386 1.72386 7.5 2 7.5L2.8574 7.5C2.97092 6.32116 3.47856 5.26243 4.243 4.45318L2.99748 3.04159C2.81478 2.83452 2.83452 2.51856 3.04159 2.33586ZM4.90802 5.20686C4.2682 5.91431 3.86724 6.84293 3.83534 7.87075C3.83406 7.91207 3.83338 7.95326 3.8333 7.99433C3.83332 7.99622 3.83333 7.99811 3.83333 8C3.83333 8.00204 3.83332 8.00408 3.8333 8.00612C3.83527 10.2458 5.61595 12.0947 7.87075 12.1647C7.91199 12.1659 7.9531 12.1666 7.99408 12.1667C7.99605 12.1667 7.99803 12.1667 8 12.1667C8.00229 12.1667 8.00458 12.1667 8.00687 12.1667C8.88934 12.1658 9.7104 11.8891 10.3865 11.4158L9.22473 10.0991C8.80812 10.3755 8.30571 10.5249 7.77242 10.4905C6.4014 10.4019 5.41998 9.15795 5.50922 7.77656C5.54185 7.27145 5.71197 6.80659 5.98089 6.42279L4.90802 5.20686ZM6.67441 7.20878C6.5813 7.39792 6.52197 7.61146 6.50714 7.84103C6.44952 8.73294 7.07671 9.44346 7.83689 9.49257C8.09037 9.50895 8.33483 9.45263 8.55236 9.33712L6.67441 7.20878ZM7.57161 5.84312C7.58941 5.56755 7.82724 5.35859 8.1028 5.37639C9.47382 5.46496 10.4552 6.70893 10.366 8.09032C10.3482 8.36589 10.1104 8.57485 9.83481 8.55705C9.55924 8.53925 9.35028 8.30142 9.36808 8.02585C9.4257 7.13394 8.79851 6.42342 8.03834 6.37431C7.76277 6.35651 7.55381 6.11869 7.57161 5.84312Z" fill="#272A35"/>
</svg>
