<svg width="24" height="24" viewBox="0 0 24 24" fill="none" xmlns="http://www.w3.org/2000/svg">
<path fill-rule="evenodd" clip-rule="evenodd" d="M6.3999 5.57145C6.3999 3.83597 7.772 2.40002 9.4999 2.40002H14.4999C16.2278 2.40002 17.5999 3.83597 17.5999 5.57145V9.4286C17.5999 9.75997 17.3313 10.0286 16.9999 10.0286C16.6685 10.0286 16.3999 9.75997 16.3999 9.4286V5.57145C16.3999 4.46662 15.5334 3.60002 14.4999 3.60002H9.4999C8.46638 3.60002 7.5999 4.46662 7.5999 5.57145V9.4286C7.5999 9.75997 7.33127 10.0286 6.9999 10.0286C6.66853 10.0286 6.3999 9.75997 6.3999 9.4286V5.57145ZM11.9999 7.54288C12.3313 7.54288 12.5999 7.81151 12.5999 8.14288V15.8572C12.5999 16.1885 12.3313 16.4572 11.9999 16.4572C11.6685 16.4572 11.3999 16.1885 11.3999 15.8572L11.3999 8.14288C11.3999 7.81151 11.6685 7.54288 11.9999 7.54288ZM6.9999 13.9715C7.33127 13.9715 7.5999 14.2401 7.5999 14.5715L7.5999 18.4286C7.5999 19.5334 8.46638 20.4 9.4999 20.4L14.4999 20.4C15.5334 20.4 16.3999 19.5334 16.3999 18.4286V14.5715C16.3999 14.2401 16.6685 13.9715 16.9999 13.9715C17.3313 13.9715 17.5999 14.2401 17.5999 14.5715V18.4286C17.5999 20.1641 16.2278 21.6 14.4999 21.6L9.4999 21.6C7.772 21.6 6.3999 20.1641 6.3999 18.4286L6.3999 14.5715C6.3999 14.2401 6.66853 13.9715 6.9999 13.9715Z" fill="#272A35"/>
</svg>
