<svg width="40" height="40" viewBox="0 0 40 40" fill="none" xmlns="http://www.w3.org/2000/svg">
<path fill-rule="evenodd" clip-rule="evenodd" d="M7.29289 7.29289C7.68342 6.90237 8.31658 6.90237 8.70711 7.29289L20 18.5858L31.2929 7.29289C31.6834 6.90237 32.3166 6.90237 32.7071 7.29289C33.0976 7.68342 33.0976 8.31658 32.7071 8.70711L21.4142 20L32.7071 31.2929C33.0976 31.6834 33.0976 32.3166 32.7071 32.7071C32.3166 33.0976 31.6834 33.0976 31.2929 32.7071L20 21.4142L8.70711 32.7071C8.31658 33.0976 7.68342 33.0976 7.29289 32.7071C6.90237 32.3166 6.90237 31.6834 7.29289 31.2929L18.5858 20L7.29289 8.70711C6.90237 8.31658 6.90237 7.68342 7.29289 7.29289Z" fill="#272A35"/>
</svg>
