<svg width="32" height="32" viewBox="0 0 32 32" fill="none" xmlns="http://www.w3.org/2000/svg">
<path fill-rule="evenodd" clip-rule="evenodd" d="M11.4482 4.79995C10.0618 4.79995 8.93788 5.92387 8.93788 7.3103V20.5517C8.93788 21.9381 10.0618 23.062 11.4482 23.062H24.6896C26.076 23.062 27.2 21.9381 27.2 20.5517V13.0758H23.0344C20.7644 13.0758 18.9241 11.2355 18.9241 8.96547V4.79995H11.4482ZM20.5241 5.93132L26.0686 11.4758H23.0344C21.648 11.4758 20.5241 10.3519 20.5241 8.96547V5.93132ZM7.41569 6.5103C7.78795 4.62315 9.45189 3.19995 11.4482 3.19995H19.7241C19.9363 3.19995 20.1397 3.28424 20.2898 3.43427L28.5656 11.7101C28.7157 11.8602 28.8 12.0636 28.8 12.2758V20.5517C28.8 22.548 27.3767 24.2119 25.4896 24.5842V24.6896C25.4896 26.9597 23.6493 28.8 21.3793 28.8H7.3103C5.04022 28.8 3.19995 26.9597 3.19995 24.6896V10.6206C3.19995 8.35056 5.04022 6.5103 7.3103 6.5103H7.41569ZM7.33788 8.1103H7.3103C5.92387 8.1103 4.79995 9.23422 4.79995 10.6206V24.6896C4.79995 26.076 5.92387 27.2 7.3103 27.2H21.3793C22.7657 27.2 23.8896 26.076 23.8896 24.6896V24.662H11.4482C9.17815 24.662 7.33788 22.8218 7.33788 20.5517V8.1103Z" fill="#272A35"/>
</svg>
