<svg width="40" height="40" viewBox="0 0 40 40" fill="none" xmlns="http://www.w3.org/2000/svg">
<path fill-rule="evenodd" clip-rule="evenodd" d="M4 9.28571C4 6.3665 6.36649 4 9.28571 4H30.7143C33.6335 4 36 6.3665 36 9.28571V17.8571C36 18.4094 35.5523 18.8571 35 18.8571C34.4477 18.8571 34 18.4094 34 17.8571V9.28571C34 7.47106 32.5289 6 30.7143 6H9.28571C7.47106 6 6 7.47106 6 9.28571V30.7143C6 32.5289 7.47106 34 9.28571 34H24.2857C24.838 34 25.2857 34.4477 25.2857 35C25.2857 35.5523 24.838 36 24.2857 36H9.28571C6.36649 36 4 33.6335 4 30.7143V9.28571ZM10.7215 17.15C11.112 16.7595 11.7452 16.7595 12.1357 17.15L15.8326 20.847C16.7996 21.8139 18.4094 21.6545 19.1679 20.5167C20.6266 18.3288 23.7222 18.0223 25.5816 19.8817L34 28.3001V24.2857C34 23.7334 34.4477 23.2857 35 23.2857C35.5523 23.2857 36 23.7334 36 24.2857V30.7143C36 31.2666 35.5523 31.7143 35 31.7143H28.5714C28.0191 31.7143 27.5714 31.2666 27.5714 30.7143C27.5714 30.162 28.0191 29.7143 28.5714 29.7143H32.5858L24.1674 21.2959C23.2004 20.3289 21.5906 20.4883 20.8321 21.6261C19.3734 23.8141 16.2778 24.1206 14.4184 22.2612L10.7215 18.5642C10.3309 18.1737 10.3309 17.5406 10.7215 17.15Z" fill="#272A35"/>
</svg>
