<svg width="16" height="16" viewBox="0 0 16 16" fill="none" xmlns="http://www.w3.org/2000/svg">
<path fill-rule="evenodd" clip-rule="evenodd" d="M14.5 12C14.5 13.3807 13.3807 14.5 12 14.5L4 14.5C2.61929 14.5 1.5 13.3807 1.5 12L1.5 4C1.5 2.61929 2.61929 1.5 4 1.5L12 1.5C13.3807 1.5 14.5 2.61929 14.5 4L14.5 12ZM12 13.5C12.8284 13.5 13.5 12.8284 13.5 12L13.5 8.5L7.20711 8.5L9.68689 10.9798C9.88215 11.175 9.88215 11.4916 9.68689 11.6869C9.49162 11.8821 9.17504 11.8821 8.97978 11.6869L5.29289 8L8.97978 4.31311C9.17504 4.11785 9.49163 4.11785 9.68689 4.31311C9.88215 4.50837 9.88215 4.82496 9.68689 5.02022L7.20711 7.5L13.5 7.5L13.5 4C13.5 3.17157 12.8284 2.5 12 2.5L4 2.5C3.17157 2.5 2.5 3.17157 2.5 4L2.5 12C2.5 12.8284 3.17157 13.5 4 13.5L12 13.5Z" fill="#272A35"/>
</svg>
