<svg width="24" height="24" viewBox="0 0 24 24" fill="none" xmlns="http://www.w3.org/2000/svg">
<path fill-rule="evenodd" clip-rule="evenodd" d="M11.9999 1.40002C12.3313 1.40002 12.5999 1.66865 12.5999 2.00002V2.4785C13.1704 2.52115 13.7366 2.6317 14.2845 2.81077C16.5809 3.5613 18.3408 5.41775 18.9578 7.74507L18.3778 7.89884L18.9578 7.74507L19.0244 7.99619C19.4092 9.44775 19.4787 10.9641 19.2283 12.4442C20.0513 12.9703 20.5999 13.8911 20.5999 14.9415C20.5999 16.355 19.5988 17.5689 18.2117 17.8485L17.8196 17.9276C17.1238 18.0678 16.4242 18.1827 15.7221 18.2722C15.7084 18.3424 15.693 18.4123 15.6757 18.4818L15.5883 18.8336C15.2598 20.1555 14.2171 21.1818 12.8889 21.4962C12.3044 21.6346 11.6954 21.6346 11.1109 21.4962C9.78269 21.1818 8.73999 20.1555 8.41155 18.8336L8.32412 18.4818C8.30685 18.4123 8.29137 18.3424 8.27768 18.2722C7.5756 18.1827 6.87597 18.0678 6.18019 17.9276L5.78809 17.8485C4.40097 17.5689 3.3999 16.355 3.3999 14.9415C3.3999 13.891 3.94849 12.9702 4.77171 12.4441C4.52436 10.951 4.60314 9.42225 5.00304 7.96173L5.05085 7.78709C5.69666 5.42841 7.52039 3.55127 9.85224 2.80327C10.3563 2.64159 10.8758 2.53653 11.3999 2.48856V2.00002C11.3999 1.66865 11.6685 1.40002 11.9999 1.40002ZM11.9593 3.65923C11.3709 3.66909 10.7832 3.76487 10.2188 3.94592C8.26611 4.57229 6.745 6.14363 6.20825 8.10398L6.16044 8.27863C5.80045 9.5934 5.73431 10.9705 5.96665 12.3134L5.99066 12.4521C6.05889 12.8465 5.85323 13.2147 5.53076 13.3888C4.97383 13.6895 4.5999 14.2734 4.5999 14.9415C4.5999 15.779 5.1936 16.5045 6.02524 16.6722L6.41734 16.7512C7.33839 16.9369 8.26648 17.0762 9.19808 17.169C11.1687 17.3654 13.155 17.3541 15.1238 17.1351C15.9473 17.0435 16.7676 16.9155 17.5825 16.7512L17.9746 16.6722C18.8062 16.5045 19.3999 15.779 19.3999 14.9415C19.3999 14.2801 19.0335 13.7013 18.4858 13.398C18.1555 13.2151 17.943 12.8345 18.0138 12.4255L18.0392 12.2783C18.2679 10.9563 18.2084 9.60089 17.8644 8.30371L17.7979 8.0526C17.2857 6.12073 15.8238 4.57631 13.9117 3.9514C13.3103 3.75486 12.6811 3.65744 12.0515 3.65839C12.0345 3.65984 12.0173 3.66058 11.9999 3.66058C11.9863 3.66058 11.9727 3.66013 11.9593 3.65923ZM9.54167 18.4055L9.57614 18.5443C9.79556 19.4273 10.4934 20.1169 11.3873 20.3285C11.7901 20.4239 12.2097 20.4239 12.6125 20.3285C13.5064 20.1169 14.2042 19.4273 14.4237 18.5443L14.4581 18.4055C12.8222 18.5425 11.1776 18.5425 9.54167 18.4055Z" fill="#272A35"/>
</svg>
