<svg width="16" height="16" viewBox="0 0 16 16" fill="none" xmlns="http://www.w3.org/2000/svg">
<path fill-rule="evenodd" clip-rule="evenodd" d="M9.14844 2.69034C8.43285 2.43714 7.65161 2.43712 6.93239 2.6869C5.76385 3.09274 4.83524 4.11617 4.5066 5.41567L4.47239 5.55096C4.25019 6.42957 4.20929 7.35009 4.35276 8.24786L4.3677 8.34139C4.37455 8.38426 4.38235 8.42671 4.39107 8.46873C4.43828 8.69618 4.32262 8.92619 4.11188 9.02393C3.76501 9.18481 3.5 9.56914 3.5 10.0409C3.5 10.5904 3.85834 11.0248 4.30301 11.1219L4.53779 11.1731C5.11884 11.2999 5.70437 11.3945 6.29208 11.4568C7.41267 11.5756 8.54135 11.5772 9.66216 11.4616C10.2652 11.3994 10.8661 11.3032 11.4622 11.1731L11.697 11.1219C12.1417 11.0248 12.5 10.5904 12.5 10.0409C12.5 9.56889 12.2347 9.18443 11.8876 9.02369C11.6758 8.92563 11.5601 8.69412 11.6087 8.46587C11.6186 8.41892 11.6275 8.37143 11.6352 8.32341L11.651 8.22429C11.7923 7.34039 11.7554 6.4343 11.5431 5.56737L11.4974 5.38053C11.1837 4.09967 10.2914 3.09476 9.14844 2.69034ZM6.60432 1.74225C7.53554 1.41884 8.55013 1.41788 9.48201 1.74762C10.9647 2.27225 12.0805 3.55765 12.4687 5.14268L12.5144 5.32951C12.7534 6.30531 12.7989 7.32316 12.6484 8.31807C13.1701 8.70253 13.5 9.33774 13.5 10.0409C13.5 11.0142 12.858 11.892 11.9102 12.0989L11.6755 12.1501C11.2066 12.2524 10.7349 12.335 10.2615 12.3978C10.2582 12.4427 10.2523 12.4877 10.2432 12.5322L10.1979 12.7541C10.0355 13.5495 9.45591 14.2003 8.67672 14.3991L8.55426 14.4303L8.43066 13.9458L8.55426 14.4303C8.19001 14.5232 7.80999 14.5232 7.44574 14.4303L7.32328 14.3991C6.54408 14.2003 5.96448 13.5495 5.8021 12.7541L5.7568 12.5322C5.74764 12.4873 5.74025 12.4423 5.73458 12.3973C5.26247 12.3345 4.7921 12.2522 4.32455 12.1501L4.08976 12.0989C3.142 11.892 2.5 11.0142 2.5 10.0409C2.5 9.33764 2.83002 8.70235 3.35178 8.3179C3.20326 7.31419 3.25456 6.28781 3.50291 5.30578L3.53712 5.17049C3.94345 3.56379 5.0998 2.26477 6.60432 1.74225ZM6.7715 12.5032L6.78189 12.5541C6.87384 13.0045 7.1919 13.3335 7.57049 13.4301L7.69295 13.4613C7.89499 13.5129 8.10501 13.5129 8.30705 13.4613L8.42951 13.4301C8.8081 13.3335 9.12616 13.0045 9.21811 12.5541L9.2285 12.5032C8.41042 12.5618 7.58958 12.5618 6.7715 12.5032Z" fill="#272A35"/>
</svg>
