<svg width="16" height="16" viewBox="0 0 16 16" fill="none" xmlns="http://www.w3.org/2000/svg">
<path fill-rule="evenodd" clip-rule="evenodd" d="M8 2.5C4.96243 2.5 2.5 4.96243 2.5 8C2.5 9.85631 3.41963 11.4978 4.82814 12.4938L10.3063 3.00543C9.60486 2.68102 8.82357 2.5 8 2.5ZM11.1718 3.50619L5.69373 12.9946C6.39513 13.319 7.17643 13.5 8 13.5C11.0376 13.5 13.5 11.0376 13.5 8C13.5 6.14369 12.5804 4.50217 11.1718 3.50619ZM1.5 8C1.5 4.41015 4.41015 1.5 8 1.5C11.5899 1.5 14.5 4.41015 14.5 8C14.5 11.5899 11.5899 14.5 8 14.5C4.41015 14.5 1.5 11.5899 1.5 8ZM5.84099 3.75C6.11713 3.75 6.34099 3.97386 6.34099 4.25V5.34099H7.43198C7.70812 5.34099 7.93198 5.56485 7.93198 5.84099C7.93198 6.11713 7.70812 6.34099 7.43198 6.34099H6.34099V7.43198C6.34099 7.70812 6.11713 7.93198 5.84099 7.93198C5.56485 7.93198 5.34099 7.70812 5.34099 7.43198V6.34099H4.25C3.97386 6.34099 3.75 6.11713 3.75 5.84099C3.75 5.56485 3.97386 5.34099 4.25 5.34099H5.34099V4.25C5.34099 3.97386 5.56485 3.75 5.84099 3.75ZM8.25 10.341C8.25 10.0649 8.47386 9.84102 8.75 9.84102H11.932C12.2081 9.84102 12.432 10.0649 12.432 10.341C12.432 10.6172 12.2081 10.841 11.932 10.841H8.75C8.47386 10.841 8.25 10.6172 8.25 10.341Z" fill="#272A35"/>
</svg>
