<svg width="32" height="32" viewBox="0 0 32 32" fill="none" xmlns="http://www.w3.org/2000/svg">
<path fill-rule="evenodd" clip-rule="evenodd" d="M9.19995 7.42852C9.19995 5.19683 10.8043 3.19995 13 3.19995H19C21.1956 3.19995 22.8 5.19683 22.8 7.42852V12.5714C22.8 13.0132 22.4418 13.3714 22 13.3714C21.5581 13.3714 21.2 13.0132 21.2 12.5714V7.42852C21.2 5.87312 20.118 4.79995 19 4.79995H13C11.8819 4.79995 10.8 5.87312 10.8 7.42852V12.5714C10.8 13.0132 10.4418 13.3714 9.99995 13.3714C9.55812 13.3714 9.19995 13.0132 9.19995 12.5714V7.42852ZM16 10.0571C16.4418 10.0571 16.8 10.4153 16.8 10.8571L16.8 21.1428C16.8 21.5846 16.4418 21.9428 16 21.9428C15.5581 21.9428 15.2 21.5846 15.2 21.1428V10.8571C15.2 10.4153 15.5581 10.0571 16 10.0571ZM9.99995 18.6285C10.4418 18.6285 10.8 18.9867 10.8 19.4285L10.8 24.5714C10.8 26.1268 11.8819 27.1999 13 27.1999L19 27.2C20.118 27.2 21.2 26.1268 21.2 24.5714V19.4285C21.2 18.9867 21.5581 18.6285 22 18.6285C22.4418 18.6285 22.8 18.9867 22.8 19.4285V24.5714C22.8 26.8031 21.1956 28.8 19 28.8L13 28.7999C10.8043 28.7999 9.19995 26.8031 9.19995 24.5714L9.19995 19.4285C9.19995 18.9867 9.55812 18.6285 9.99995 18.6285Z" fill="#272A35"/>
</svg>
