<svg width="24" height="24" viewBox="0 0 24 24" fill="none" xmlns="http://www.w3.org/2000/svg">
<path fill-rule="evenodd" clip-rule="evenodd" d="M19.7777 3.90002C20.1091 3.90002 20.3777 4.16865 20.3777 4.50002L20.3777 7.73754L21.5777 6.54923C21.8132 6.31607 22.1931 6.31794 22.4262 6.5534C22.6594 6.78886 22.6575 7.16876 22.4221 7.40192L20.9855 8.82442C20.3178 9.48563 19.2376 9.48563 18.5698 8.82442L17.1333 7.40192C16.8978 7.16876 16.896 6.78886 17.1291 6.5534C17.3623 6.31794 17.7422 6.31607 17.9776 6.54923L19.1777 7.73754L19.1777 4.50002C19.1777 4.16865 19.4463 3.90002 19.7777 3.90002ZM6.12515 11.3536C6.12515 11.354 6.12515 11.3545 6.12515 11.3549L6.12532 11.3935C6.12663 11.6933 5.90635 11.9481 5.60945 11.9902C3.90353 12.2317 2.5999 13.6832 2.5999 15.4275C2.5999 17.3398 4.16706 18.9 6.1127 18.9L6.11772 18.9H16.1009C17.7221 18.9 19.0262 17.6002 19.0262 16.0092C19.0262 14.4183 17.7221 13.1185 16.1009 13.1185C16.0576 13.1185 16.0146 13.1194 15.9718 13.1212C14.8945 13.1674 13.9699 13.7889 13.5019 14.681C13.348 14.9744 12.9853 15.0875 12.6919 14.9335C12.3984 14.7796 12.2854 14.4169 12.4393 14.1235C12.8297 13.3793 13.4441 12.7694 14.1935 12.3812C14.2798 12.0539 14.3258 11.7101 14.3258 11.3549C14.3258 9.12127 12.4956 7.30052 10.2255 7.30052C7.95579 7.30052 6.12584 9.12058 6.12515 11.3536ZM15.9524 11.9211C15.7961 11.9266 15.642 11.9407 15.4907 11.9629C15.5139 11.7633 15.5258 11.5604 15.5258 11.3549C15.5258 8.44743 13.1472 6.10052 10.2255 6.10052C7.45791 6.10052 5.17764 8.20633 4.94474 10.8997C2.91014 11.4144 1.3999 13.2425 1.3999 15.4275C1.3999 18.0136 3.51547 20.1 6.1127 20.1L6.11867 20.1H16.1009C18.3737 20.1 20.2262 18.2741 20.2262 16.0092C20.2262 13.7444 18.3737 11.9185 16.1009 11.9185C16.0512 11.9185 16.0017 11.9193 15.9524 11.9211Z" fill="#272A35"/>
</svg>
