<svg width="16" height="16" viewBox="0 0 16 16" fill="none" xmlns="http://www.w3.org/2000/svg">
<path fill-rule="evenodd" clip-rule="evenodd" d="M8 1C8.13261 1 8.25978 1.05268 8.35355 1.14645L10.5695 3.36236C10.7647 3.55762 10.7647 3.8742 10.5695 4.06946C10.3742 4.26472 10.0576 4.26472 9.86235 4.06946L8.5 2.70711V5.4394C8.5 5.71554 8.27614 5.9394 8 5.9394C7.72386 5.9394 7.5 5.71554 7.5 5.4394V2.70711L6.13764 4.06946C5.94238 4.26472 5.6258 4.26472 5.43054 4.06946C5.23528 3.8742 5.23528 3.55762 5.43054 3.36236L7.64645 1.14645C7.74021 1.05268 7.86739 1 8 1ZM4.06946 5.43054C4.26472 5.6258 4.26472 5.94238 4.06946 6.13764L2.70711 7.5H5.43939C5.71553 7.5 5.93939 7.72386 5.93939 8C5.93939 8.27614 5.71553 8.5 5.43939 8.5H2.70711L4.06946 9.86235C4.26472 10.0576 4.26472 10.3742 4.06946 10.5695C3.8742 10.7647 3.55762 10.7647 3.36236 10.5695L1.14645 8.35355C1.05268 8.25978 1 8.13261 1 8C1 7.86739 1.05268 7.74021 1.14645 7.64645L3.36236 5.43054C3.55762 5.23528 3.8742 5.23528 4.06946 5.43054ZM11.9305 5.43054C12.1258 5.23528 12.4424 5.23528 12.6376 5.43054L14.8536 7.64645C14.9473 7.74021 15 7.86739 15 8C15 8.13261 14.9473 8.25978 14.8536 8.35355L12.6376 10.5695C12.4424 10.7647 12.1258 10.7647 11.9305 10.5695C11.7353 10.3742 11.7353 10.0576 11.9305 9.86235L13.2929 8.5H10.5606C10.2845 8.5 10.0606 8.27614 10.0606 8C10.0606 7.72386 10.2845 7.5 10.5606 7.5H13.2929L11.9305 6.13764C11.7353 5.94238 11.7353 5.6258 11.9305 5.43054ZM8 10.0606C8.27614 10.0606 8.5 10.2845 8.5 10.5606V13.2929L9.86235 11.9305C10.0576 11.7353 10.3742 11.7353 10.5695 11.9305C10.7647 12.1258 10.7647 12.4424 10.5695 12.6376L8.35355 14.8536C8.25978 14.9473 8.13261 15 8 15C7.86739 15 7.74021 14.9473 7.64645 14.8536L5.43054 12.6376C5.23528 12.4424 5.23528 12.1258 5.43054 11.9305C5.6258 11.7353 5.94238 11.7353 6.13764 11.9305L7.5 13.2929V10.5606C7.5 10.2845 7.72386 10.0606 8 10.0606Z" fill="#272A35"/>
</svg>
