<svg width="32" height="32" viewBox="0 0 32 32" fill="none" xmlns="http://www.w3.org/2000/svg">
<path fill-rule="evenodd" clip-rule="evenodd" d="M11.9328 3.63739C14.2831 2.81826 16.867 3.16194 18.9362 4.56414C20.7506 5.79378 23.0769 5.98176 25.0698 5.08141C26.8344 4.28418 28.7999 5.61046 28.7999 7.53881V13.2592C28.7999 14.2843 28.3001 15.2509 27.4536 15.8246L26.2854 16.6163C23.5597 18.4634 19.9965 18.3287 17.4103 16.284C16.0764 15.2294 14.3831 14.7976 12.7345 15.0849L12.6615 15.0976C12.5386 15.119 12.4177 15.1265 12.3 15.1215L12.3 23.3552C12.3 23.797 11.9418 24.1552 11.5 24.1552C11.0581 24.1552 10.7 23.797 10.7 23.3552L10.7 5.31975C10.7 4.58369 11.1557 3.90823 11.8648 3.66108L11.9328 3.63739ZM12.3 13.4158C12.3 13.4585 12.3171 13.4877 12.3371 13.5051C12.3473 13.514 12.3568 13.5185 12.3636 13.5205C12.3695 13.5222 12.3763 13.5232 12.3868 13.5213L12.4598 13.5086C14.5629 13.1421 16.7159 13.6953 18.4026 15.0289C20.4431 16.6421 23.2416 16.7462 25.3878 15.2918L26.556 14.5001C26.9517 14.2319 27.2 13.7678 27.2 13.2592V7.53881C27.2 6.72869 26.3944 6.23866 25.7285 6.53951C23.2345 7.66629 20.3184 7.43364 18.0386 5.88865C16.3849 4.76796 14.3285 4.49681 12.4593 5.14826L12.3914 5.17195C12.3497 5.18648 12.3 5.23785 12.3 5.31975V13.4158ZM7.75135 21.2945C7.903 21.7095 7.68953 22.1688 7.27455 22.3205C6.3871 22.6448 5.73161 23.0006 5.31303 23.3506C4.88946 23.7049 4.79995 23.9708 4.79995 24.1293C4.79995 24.6588 5.30732 25.4394 7.05527 26.1209C8.72649 26.7725 11.2432 27.2 14.5 27.2C17.7567 27.2 20.2734 26.7725 21.9446 26.1209C23.6926 25.4394 24.2 24.6588 24.2 24.1293C24.2 23.9708 24.1104 23.7049 23.6869 23.3506C23.2683 23.0006 22.6128 22.6448 21.7254 22.3205C21.3104 22.1688 21.0969 21.7095 21.2486 21.2945C21.4002 20.8795 21.8596 20.666 22.2745 20.8177C23.2542 21.1757 24.0987 21.6092 24.7133 22.1233C25.323 22.6332 25.7999 23.3062 25.7999 24.1293C25.7999 25.7376 24.371 26.8922 22.5258 27.6116C20.6039 28.361 17.8706 28.8 14.5 28.8C11.1293 28.8 8.396 28.361 6.47407 27.6116C4.62888 26.8922 3.19995 25.7376 3.19995 24.1293C3.19995 23.3062 3.6769 22.6332 4.28656 22.1233C4.90121 21.6092 5.74571 21.1757 6.72535 20.8177C7.14034 20.666 7.59969 20.8795 7.75135 21.2945Z" fill="#272A35"/>
</svg>
