<svg width="32" height="32" viewBox="0 0 32 32" fill="none" xmlns="http://www.w3.org/2000/svg">
<path fill-rule="evenodd" clip-rule="evenodd" d="M14.9714 4.80001C9.35387 4.80001 4.79995 9.35393 4.79995 14.9715C4.79995 20.589 9.35387 25.1429 14.9714 25.1429C20.589 25.1429 25.1429 20.589 25.1429 14.9715C25.1429 9.35393 20.589 4.80001 14.9714 4.80001ZM3.19995 14.9715C3.19995 8.47028 8.47022 3.20001 14.9714 3.20001C21.4726 3.20001 26.7429 8.47028 26.7429 14.9715C26.7429 17.9342 25.6484 20.6412 23.8417 22.7103L28.5656 27.4343C28.8781 27.7467 28.8781 28.2533 28.5656 28.5657C28.2532 28.8781 27.7467 28.8781 27.4343 28.5657L22.7103 23.8417C20.6411 25.6484 17.9341 26.7429 14.9714 26.7429C8.47022 26.7429 3.19995 21.4727 3.19995 14.9715Z" fill="#272A35"/>
</svg>
