<svg width="32" height="32" viewBox="0 0 32 32" fill="none" xmlns="http://www.w3.org/2000/svg">
<path fill-rule="evenodd" clip-rule="evenodd" d="M4.32687 15.2H5.8437C6.28553 15.2 6.6437 15.5582 6.6437 16C6.6437 16.4418 6.28553 16.8 5.8437 16.8H4.32687C4.72016 22.6243 9.3757 27.2798 15.2 27.6731V26.1563C15.2 25.7144 15.5581 25.3563 16 25.3563C16.4418 25.3563 16.8 25.7144 16.8 26.1563V27.6731C22.6242 27.2798 27.2797 22.6243 27.673 16.8H26.1562C25.7144 16.8 25.3562 16.4418 25.3562 16C25.3562 15.5582 25.7144 15.2 26.1562 15.2H27.673C27.2797 9.37576 22.6242 4.72022 16.8 4.32693V5.84376C16.8 6.28559 16.4418 6.64376 16 6.64376C15.5581 6.64376 15.2 6.28559 15.2 5.84376V4.32693C9.3757 4.72022 4.72016 9.37576 4.32687 15.2ZM2.69995 16C2.69995 8.65462 8.65456 2.70001 16 2.70001C23.3453 2.70001 29.2999 8.65462 29.2999 16C29.2999 23.3454 23.3453 29.3 16 29.3C8.65456 29.3 2.69995 23.3454 2.69995 16ZM16 8.95001C16.4418 8.95001 16.8 9.30818 16.8 9.75001V16C16.8 16.2122 16.7157 16.4157 16.5656 16.5657L13.4406 19.6907C13.1282 20.0031 12.6217 20.0031 12.3093 19.6907C11.9968 19.3783 11.9968 18.8717 12.3093 18.5593L15.2 15.6686V9.75001C15.2 9.30818 15.5581 8.95001 16 8.95001Z" fill="#272A35"/>
</svg>
