<svg width="24" height="24" viewBox="0 0 24 24" fill="none" xmlns="http://www.w3.org/2000/svg">
<path fill-rule="evenodd" clip-rule="evenodd" d="M10.8888 4.60002C9.9472 4.60002 9.26657 5.2944 9.26657 6.05291V10.7452C9.26657 11.5037 9.9472 12.1981 10.8888 12.1981H17.2699C18.0037 12.1981 18.7161 12.467 19.2484 12.9587L20.5103 14.1244C20.6714 14.2733 20.8976 14.3045 21.0996 14.2272C21.3 14.1505 21.3999 14.002 21.3999 13.8393V6.05291C21.3999 5.2944 20.7193 4.60002 19.7777 4.60002H10.8888ZM8.06657 8.53225V6.05291C8.06657 4.54387 9.37579 3.40002 10.8888 3.40002H19.7777C21.2907 3.40002 22.5999 4.54387 22.5999 6.05291V13.8393C22.5999 14.591 22.1014 15.1288 21.5284 15.348C20.957 15.5666 20.2348 15.5036 19.696 15.0058L18.4341 13.8401C18.1329 13.5618 17.7148 13.3981 17.2699 13.3981H15.9184C15.9281 13.441 15.9332 13.4855 15.9332 13.5313V15.8775C15.9332 17.3865 14.624 18.5303 13.111 18.5303H6.7299C6.28499 18.5303 5.86694 18.6941 5.56569 18.9723L4.30383 20.1381C3.76504 20.6358 3.04278 20.6989 2.47138 20.4802C1.89845 20.261 1.3999 19.7232 1.3999 18.9715V11.1851C1.3999 9.67609 2.70912 8.53225 4.22212 8.53225H8.06657ZM14.7481 13.3981C14.7384 13.441 14.7332 13.4855 14.7332 13.5313V15.8775C14.7332 16.636 14.0526 17.3303 13.111 17.3303H6.7299C5.99607 17.3303 5.28367 17.5992 4.75141 18.0909L3.48955 19.2566C3.32838 19.4055 3.10224 19.4368 2.90024 19.3595C2.69976 19.2827 2.5999 19.1343 2.5999 18.9715V11.1851C2.5999 10.4266 3.28053 9.73225 4.22212 9.73225H8.06657V10.7452C8.06657 12.2543 9.37578 13.3981 10.8888 13.3981H14.7481Z" fill="#272A35"/>
</svg>
