<svg width="24" height="24" viewBox="0 0 24 24" fill="none" xmlns="http://www.w3.org/2000/svg">
<path fill-rule="evenodd" clip-rule="evenodd" d="M11.2285 3.60002C7.01534 3.60002 3.5999 7.01546 3.5999 11.2286C3.5999 15.4418 7.01534 18.8572 11.2285 18.8572C15.4417 18.8572 18.8571 15.4418 18.8571 11.2286C18.8571 7.01546 15.4417 3.60002 11.2285 3.60002ZM2.3999 11.2286C2.3999 6.35272 6.3526 2.40002 11.2285 2.40002C16.1044 2.40002 20.0571 6.35272 20.0571 11.2286C20.0571 13.4506 19.2362 15.4809 17.8812 17.0328L21.4242 20.5758C21.6585 20.8101 21.6585 21.19 21.4242 21.4243C21.1899 21.6586 20.81 21.6586 20.5756 21.4243L17.0327 17.8813C15.4808 19.2363 13.4505 20.0572 11.2285 20.0572C6.3526 20.0572 2.3999 16.1045 2.3999 11.2286ZM7.54276 11.3572C7.54276 11.0258 7.81139 10.7572 8.14276 10.7572H14.5713C14.9027 10.7572 15.1713 11.0258 15.1713 11.3572C15.1713 11.6885 14.9027 11.9572 14.5713 11.9572H8.14276C7.81139 11.9572 7.54276 11.6885 7.54276 11.3572Z" fill="#272A35"/>
</svg>
