<svg width="40" height="40" viewBox="0 0 40 40" fill="none" xmlns="http://www.w3.org/2000/svg">
<path fill-rule="evenodd" clip-rule="evenodd" d="M9.28571 6C7.47106 6 6 7.47106 6 9.28571V30.7143C6 32.5289 7.47106 34 9.28571 34H30.7143C32.5289 34 34 32.5289 34 30.7143V16.7143H28.5714C25.6522 16.7143 23.2857 14.3478 23.2857 11.4286V6H9.28571ZM25.2857 7.41421L32.5858 14.7143H28.5714C26.7568 14.7143 25.2857 13.2432 25.2857 11.4286V7.41421ZM4 9.28571C4 6.36649 6.36649 4 9.28571 4H24.6999L36 15.3001V30.7143C36 33.6335 33.6335 36 30.7143 36H9.28571C6.36649 36 4 33.6335 4 30.7143V9.28571ZM15.7143 16.8571C16.2666 16.8571 16.7143 17.3049 16.7143 17.8571V21.1429H20C20.5523 21.1429 21 21.5906 21 22.1429C21 22.6951 20.5523 23.1429 20 23.1429H16.7143V26.4286C16.7143 26.9809 16.2666 27.4286 15.7143 27.4286C15.162 27.4286 14.7143 26.9809 14.7143 26.4286V23.1429H11.4286C10.8763 23.1429 10.4286 22.6951 10.4286 22.1429C10.4286 21.5906 10.8763 21.1429 11.4286 21.1429H14.7143V17.8571C14.7143 17.3049 15.162 16.8571 15.7143 16.8571Z" fill="#272A35"/>
</svg>
