<svg width="24" height="24" viewBox="0 0 24 24" fill="none" xmlns="http://www.w3.org/2000/svg">
<path fill-rule="evenodd" clip-rule="evenodd" d="M3.11981 11.4H4.28115C4.61252 11.4 4.88115 11.6687 4.88115 12C4.88115 12.3314 4.61252 12.6 4.28115 12.6H3.11981C3.41519 17.0373 6.96265 20.5847 11.3999 20.8801V19.7188C11.3999 19.3874 11.6685 19.1188 11.9999 19.1188C12.3313 19.1188 12.5999 19.3874 12.5999 19.7188V20.8801C17.0372 20.5847 20.5846 17.0373 20.88 12.6H19.7187C19.3873 12.6 19.1187 12.3314 19.1187 12C19.1187 11.6687 19.3873 11.4 19.7187 11.4H20.88C20.5846 6.96277 17.0372 3.41531 12.5999 3.11993V4.28127C12.5999 4.61265 12.3313 4.88127 11.9999 4.88127C11.6685 4.88127 11.3999 4.61265 11.3999 4.28127V3.11993C6.96265 3.41531 3.41519 6.96277 3.11981 11.4ZM1.8999 12C1.8999 6.42195 6.42183 1.90002 11.9999 1.90002C17.578 1.90002 22.0999 6.42195 22.0999 12C22.0999 17.5781 17.578 22.1 11.9999 22.1C6.42183 22.1 1.8999 17.5781 1.8999 12ZM11.9999 6.65002C12.3313 6.65002 12.5999 6.91865 12.5999 7.25002V12C12.5999 12.1592 12.5367 12.3118 12.4242 12.4243L10.0492 14.7993C9.81485 15.0336 9.43495 15.0336 9.20064 14.7993C8.96632 14.565 8.96632 14.1851 9.20064 13.9508L11.3999 11.7515V7.25002C11.3999 6.91865 11.6685 6.65002 11.9999 6.65002Z" fill="#272A35"/>
</svg>
