<svg width="40" height="40" viewBox="0 0 40 40" fill="none" xmlns="http://www.w3.org/2000/svg">
<path fill-rule="evenodd" clip-rule="evenodd" d="M8.15283 5.17249C8.70512 5.17249 9.15283 5.6202 9.15283 6.17249V31.6479C9.15283 33.0222 10.1648 34 11.2543 34H28.7778C29.8662 34 30.8793 33.0219 30.8793 31.6479V6.17249C30.8793 5.6202 31.3271 5.17249 31.8793 5.17249C32.4316 5.17249 32.8793 5.6202 32.8793 6.17249V31.6479C32.8793 33.978 31.1136 36 28.7778 36H11.2543C8.91674 36 7.15283 33.9777 7.15283 31.6479V6.17249C7.15283 5.6202 7.60055 5.17249 8.15283 5.17249Z" fill="#272A35"/>
<path fill-rule="evenodd" clip-rule="evenodd" d="M2.5 5.83801C2.5 5.28573 2.94772 4.83801 3.5 4.83801H36.5C37.0523 4.83801 37.5 5.28573 37.5 5.83801C37.5 6.3903 37.0523 6.83801 36.5 6.83801H3.5C2.94772 6.83801 2.5 6.3903 2.5 5.83801Z" fill="#272A35"/>
<path fill-rule="evenodd" clip-rule="evenodd" d="M17.626 11.3159C18.1783 11.3159 18.626 11.7636 18.626 12.3159V28.471C18.626 29.0233 18.1783 29.471 17.626 29.471C17.0737 29.471 16.626 29.0233 16.626 28.471V12.3159C16.626 11.7636 17.0737 11.3159 17.626 11.3159Z" fill="#272A35"/>
<path fill-rule="evenodd" clip-rule="evenodd" d="M14.1421 20.6437C14.1421 20.0914 14.5898 19.6437 15.1421 19.6437H17.6264C18.1787 19.6437 18.6264 20.0914 18.6264 20.6437C18.6264 21.196 18.1787 21.6437 17.6264 21.6437H15.1421C14.5898 21.6437 14.1421 21.196 14.1421 20.6437Z" fill="#272A35"/>
<path fill-rule="evenodd" clip-rule="evenodd" d="M14.1426 25.2111C14.1426 24.6588 14.5903 24.2111 15.1426 24.2111H23.1258C23.6781 24.2111 24.1258 24.6588 24.1258 25.2111C24.1258 25.7633 23.6781 26.2111 23.1258 26.2111H15.1426C14.5903 26.2111 14.1426 25.7633 14.1426 25.2111Z" fill="#272A35"/>
<path fill-rule="evenodd" clip-rule="evenodd" d="M16.7168 12.3159C16.7168 11.7636 17.1645 11.3159 17.7168 11.3159H21.5177C24.2706 11.3159 26.3713 13.7017 26.3713 16.4791C26.3713 19.2561 24.2711 21.644 21.5177 21.644H17.7168C17.1645 21.644 16.7168 21.1963 16.7168 20.644C16.7168 20.0918 17.1645 19.644 17.7168 19.644H21.5177C23.0226 19.644 24.3713 18.3012 24.3713 16.4791C24.3713 14.6576 23.0231 13.3159 21.5177 13.3159H17.7168C17.1645 13.3159 16.7168 12.8682 16.7168 12.3159Z" fill="#272A35"/>
</svg>
