<svg width="24" height="24" viewBox="0 0 24 24" fill="none" xmlns="http://www.w3.org/2000/svg">
<path fill-rule="evenodd" clip-rule="evenodd" d="M11.9999 3C12.3313 3 12.5999 3.26863 12.5999 3.6L12.5999 15.2943L17.6369 10.2574C17.8712 10.0231 18.2511 10.0231 18.4854 10.2574C18.7197 10.4917 18.7197 10.8716 18.4854 11.1059L13.3333 16.258C12.5969 16.9944 11.4029 16.9944 10.6665 16.258L5.51441 11.1059C5.2801 10.8716 5.2801 10.4917 5.51441 10.2574C5.74873 10.0231 6.12863 10.0231 6.36294 10.2574L11.3999 15.2943L11.3999 3.6C11.3999 3.26863 11.6685 3 11.9999 3ZM2.9999 14.8571C3.33127 14.8571 3.5999 15.1258 3.5999 15.4571V19.3143C3.5999 19.693 3.90691 20 4.28562 20H19.7142C20.0929 20 20.3999 19.693 20.3999 19.3143V15.4571C20.3999 15.1258 20.6685 14.8571 20.9999 14.8571C21.3313 14.8571 21.5999 15.1258 21.5999 15.4571V19.3143C21.5999 20.3557 20.7556 21.2 19.7142 21.2H4.28562C3.24417 21.2 2.3999 20.3557 2.3999 19.3143V15.4571C2.3999 15.1258 2.66853 14.8571 2.9999 14.8571Z" fill="#272A35"/>
</svg>
