<svg width="16" height="16" viewBox="0 0 16 16" fill="none" xmlns="http://www.w3.org/2000/svg">
<path fill-rule="evenodd" clip-rule="evenodd" d="M5.75 1.5C6.02614 1.5 6.25 1.72386 6.25 2V2.24913H9.75V2C9.75 1.72386 9.97386 1.5 10.25 1.5C10.5261 1.5 10.75 1.72386 10.75 2V2.24913H12.5C13.604 2.24913 14.5 3.14324 14.5 4.2474V9.86589C14.5 10.142 14.2761 10.3659 14 10.3659C13.7239 10.3659 13.5 10.142 13.5 9.86589V5.8711H2.5V12.4879C2.5 13.0386 2.94717 13.4861 3.5 13.4861H9.5C9.77614 13.4861 10 13.71 10 13.9861C10 14.2623 9.77614 14.4861 9.5 14.4861H3.5C2.39598 14.4861 1.5 13.592 1.5 12.4879V4.2474C1.5 3.14324 2.39598 2.24913 3.5 2.24913H5.25V2C5.25 1.72386 5.47386 1.5 5.75 1.5ZM5.25 3.24913H3.5C2.94717 3.24913 2.5 3.69662 2.5 4.2474V4.8711H13.5V4.2474C13.5 3.69662 13.0528 3.24913 12.5 3.24913H10.75V3.49826C10.75 3.77441 10.5261 3.99826 10.25 3.99826C9.97386 3.99826 9.75 3.77441 9.75 3.49826V3.24913H6.25V3.49826C6.25 3.77441 6.02614 3.99826 5.75 3.99826C5.47386 3.99826 5.25 3.77441 5.25 3.49826V3.24913ZM3.75 7.99306C3.75 7.71692 3.97386 7.49306 4.25 7.49306H5C5.27614 7.49306 5.5 7.71692 5.5 7.99306C5.5 8.2692 5.27614 8.49306 5 8.49306H4.25C3.97386 8.49306 3.75 8.2692 3.75 7.99306ZM6.75 7.99306C6.75 7.71692 6.97386 7.49306 7.25 7.49306H8.75C9.02614 7.49306 9.25 7.71692 9.25 7.99306C9.25 8.2692 9.02614 8.49306 8.75 8.49306H7.25C6.97386 8.49306 6.75 8.2692 6.75 7.99306ZM10.5 7.99306C10.5 7.71692 10.7239 7.49306 11 7.49306H11.75C12.0261 7.49306 12.25 7.71692 12.25 7.99306C12.25 8.2692 12.0261 8.49306 11.75 8.49306H11C10.7239 8.49306 10.5 8.2692 10.5 7.99306ZM3.75 10.9896C3.75 10.7134 3.97386 10.4896 4.25 10.4896H5C5.27614 10.4896 5.5 10.7134 5.5 10.9896C5.5 11.2657 5.27614 11.4896 5 11.4896H4.25C3.97386 11.4896 3.75 11.2657 3.75 10.9896ZM6.75 10.9896C6.75 10.7134 6.97386 10.4896 7.25 10.4896H8.75C9.02614 10.4896 9.25 10.7134 9.25 10.9896C9.25 11.2657 9.02614 11.4896 8.75 11.4896H7.25C6.97386 11.4896 6.75 11.2657 6.75 10.9896ZM14.2943 11.3345C14.5175 11.4971 14.5667 11.8098 14.4042 12.033L12.9823 13.9858C12.4972 14.6521 11.5109 14.6747 10.9957 14.0314L10.6097 13.5496C10.4371 13.334 10.4719 13.0194 10.6874 12.8467C10.903 12.6741 11.2176 12.7089 11.3903 12.9244L11.7762 13.4063C11.8793 13.535 12.077 13.5304 12.1739 13.3972L13.5958 11.4444C13.7583 11.2212 14.0711 11.172 14.2943 11.3345Z" fill="#272A35"/>
</svg>
