<svg width="40" height="40" viewBox="0 0 40 40" fill="none" xmlns="http://www.w3.org/2000/svg">
<path fill-rule="evenodd" clip-rule="evenodd" d="M20 4C20.5523 4 21 4.44772 21 5V7.3726C27.2364 7.8615 32.148 12.8391 32.6282 19L35 19C35.5523 19 36 19.4477 36 20C36 20.5523 35.5523 21 35 21L32.6274 21C32.4647 23.0738 31.805 25.0033 30.7697 26.6713C30.4785 27.1406 29.862 27.2849 29.3927 26.9937C28.9235 26.7024 28.7792 26.0859 29.0704 25.6167C30.0256 24.0776 30.6012 22.2745 30.6615 20.3309C30.6648 20.2246 30.6666 20.1187 30.6667 20.0131C30.6667 20.0087 30.6667 20.0044 30.6667 20C30.6667 19.9951 30.6667 19.9903 30.6668 19.9854C30.6623 14.2514 26.1035 9.51761 20.3309 9.33847C20.2248 9.33517 20.119 9.33344 20.0136 9.33324C20.0091 9.3333 20.0045 9.33333 20 9.33333C19.9951 9.33333 19.9901 9.3333 19.9852 9.33323C18.4744 9.33436 17.0351 9.65125 15.7303 10.2222C15.2244 10.4436 14.6347 10.2129 14.4133 9.7069C14.1919 9.20093 14.4226 8.61129 14.9286 8.38989C16.1943 7.83608 17.5657 7.48379 19 7.37185V5C19 4.44772 19.4477 4 20 4ZM7.76937 6.0271C8.18349 5.6617 8.81543 5.70119 9.18083 6.11532L32.5268 32.5741C32.8922 32.9882 32.8527 33.6201 32.4386 33.9855C32.0244 34.3509 31.3925 34.3114 31.0271 33.8973L27.6638 30.0856C25.7806 31.5183 23.4861 32.4342 21 32.6282V35C21 35.5523 20.5523 36 20 36C19.4477 36 19 35.5523 19 35V32.6274C12.7636 32.1385 7.85201 27.1609 7.37177 21L5 21C4.44771 21 4 20.5523 4 20C4 19.4477 4.44772 19 5 19L7.37262 19C7.61274 15.9384 8.93547 13.195 10.9473 11.1402L7.68115 7.43856C7.31575 7.02443 7.35525 6.3925 7.76937 6.0271ZM12.2748 12.6447C10.5266 14.4793 9.42324 16.9376 9.33847 19.6691C9.33517 19.7754 9.33344 19.8814 9.33325 19.987C9.33331 19.9913 9.33333 19.9957 9.33333 20C9.33333 20.0046 9.3333 20.0092 9.33324 20.0138C9.33731 25.7482 13.8962 30.4824 19.6691 30.6615C19.7753 30.6648 19.8811 30.6666 19.9865 30.6668C19.991 30.6667 19.9955 30.6667 20 30.6667C20.0047 30.6667 20.0093 30.6667 20.014 30.6668C22.374 30.6651 24.563 29.8928 26.3365 28.5812L23.1025 24.9161C22.07 25.6573 20.7994 26.0641 19.4472 25.9767C16.1723 25.7652 13.8073 22.7886 14.0225 19.4575C14.1057 18.1702 14.5594 16.9931 15.2721 16.0416L12.2748 12.6447ZM16.6378 17.5894C16.2895 18.1663 16.0662 18.8457 16.0184 19.5865C15.8664 21.9386 17.5229 23.8483 19.5761 23.9809C20.3668 24.032 21.1229 23.8199 21.7691 23.4049L16.6378 17.5894ZM19.1785 14.6239C19.2141 14.0728 19.6898 13.6549 20.2409 13.6905C23.5157 13.902 25.8807 16.8786 25.6655 20.2097C25.6299 20.7608 25.1543 21.1787 24.6031 21.1431C24.052 21.1075 23.6341 20.6319 23.6697 20.0808C23.8216 17.7286 22.1651 15.8189 20.112 15.6863C19.5608 15.6507 19.1429 15.175 19.1785 14.6239Z" fill="#272A35"/>
</svg>
