<svg width="32" height="32" viewBox="0 0 32 32" fill="none" xmlns="http://www.w3.org/2000/svg">
<path fill-rule="evenodd" clip-rule="evenodd" d="M9.9033 6.46658C6.40044 6.46658 3.46646 9.5308 3.46646 13.4313C3.46646 17.3318 6.40044 20.396 9.9033 20.396H11.877C12.3188 20.396 12.677 20.7542 12.677 21.196C12.677 21.6378 12.3188 21.996 11.877 21.996H9.9033C5.41256 21.996 1.86646 18.1075 1.86646 13.4313C1.86646 8.75511 5.41256 4.86658 9.9033 4.86658H14.5086C14.9504 4.86658 15.3086 5.22475 15.3086 5.66658C15.3086 6.1084 14.9504 6.46658 14.5086 6.46658H9.9033ZM18.8401 5.66658C18.8401 5.22475 19.1983 4.86658 19.6401 4.86658H27.6665C28.1083 4.86658 28.4665 5.22475 28.4665 5.66658C28.4665 6.1084 28.1083 6.46658 27.6665 6.46658H19.6401C19.1983 6.46658 18.8401 6.1084 18.8401 5.66658ZM18.8401 13.4313C18.8401 12.9895 19.1983 12.6313 19.6401 12.6313H27.6665C28.1083 12.6313 28.4665 12.9895 28.4665 13.4313C28.4665 13.8731 28.1083 14.2313 27.6665 14.2313H19.6401C19.1983 14.2313 18.8401 13.8731 18.8401 13.4313ZM18.8401 21.196C18.8401 20.7542 19.1983 20.396 19.6401 20.396H27.6665C28.1083 20.396 28.4665 20.7542 28.4665 21.196C28.4665 21.6378 28.1083 21.996 27.6665 21.996H19.6401C19.1983 21.996 18.8401 21.6378 18.8401 21.196Z" fill="#272A35"/>
<path fill-rule="evenodd" clip-rule="evenodd" d="M15.2068 21.2522L12.8999 18.8587L12.9399 23.6864L15.2068 21.2522ZM13.8856 25.0152C12.9747 25.9933 11.3972 25.3193 11.3858 23.9472L11.3417 18.6238C11.3304 17.2521 12.8957 16.552 13.8229 17.514L16.3665 20.1532C16.9414 20.7497 16.9498 21.7248 16.3852 22.331L13.8856 25.0152Z" fill="#272A35"/>
</svg>
