<svg width="16" height="16" viewBox="0 0 16 16" fill="none" xmlns="http://www.w3.org/2000/svg">
<path fill-rule="evenodd" clip-rule="evenodd" d="M1.5 4C1.5 2.61929 2.61929 1.5 4 1.5H11.3333C12.714 1.5 13.8333 2.61929 13.8333 4V7.97619C13.8333 8.25233 13.6095 8.47619 13.3333 8.47619C13.0572 8.47619 12.8333 8.25233 12.8333 7.97619V4C12.8333 3.17157 12.1618 2.5 11.3333 2.5H4C3.17157 2.5 2.5 3.17157 2.5 4V10C2.5 10.8284 3.17157 11.5 4 11.5H7.66667C7.94281 11.5 8.16667 11.7239 8.16667 12C8.16667 12.2761 7.94281 12.5 7.66667 12.5H4C2.61929 12.5 1.5 11.3807 1.5 10V4Z" fill="#272A35"/>
<path fill-rule="evenodd" clip-rule="evenodd" d="M2.34642 2.28256C2.55856 2.10578 2.87385 2.13444 3.05063 2.34658L7.28241 7.42471C7.4823 7.66459 7.85073 7.66459 8.05063 7.42471L12.2824 2.34658C12.4592 2.13444 12.7745 2.10578 12.9866 2.28256C13.1987 2.45934 13.2274 2.77462 13.0506 2.98676L8.81885 8.0649C8.21916 8.78453 7.11388 8.78453 6.51419 8.0649L2.28241 2.98676C2.10562 2.77462 2.13429 2.45934 2.34642 2.28256Z" fill="#272A35"/>
<path fill-rule="evenodd" clip-rule="evenodd" d="M11.8 9.6C11.5791 9.43431 11.2657 9.47909 11.1 9.7L9.6 11.7C9.46667 11.8778 9.46667 12.1222 9.6 12.3L11.1 14.3C11.2657 14.5209 11.5791 14.5657 11.8 14.4C12.0209 14.2343 12.0657 13.9209 11.9 13.7L11 12.5H14C14.2761 12.5 14.5 12.2761 14.5 12C14.5 11.7239 14.2761 11.5 14 11.5H11L11.9 10.3C12.0657 10.0791 12.0209 9.76568 11.8 9.6Z" fill="#272A35"/>
</svg>
