<svg width="24" height="24" viewBox="0 0 24 24" fill="none" xmlns="http://www.w3.org/2000/svg">
<path fill-rule="evenodd" clip-rule="evenodd" d="M5.2499 5.60002C4.35901 5.60002 3.5999 6.35531 3.5999 7.33336V7.90002H20.3999V7.33336C20.3999 6.35531 19.6408 5.60002 18.7499 5.60002H5.2499ZM21.5999 7.33336C21.5999 5.73408 20.3443 4.40002 18.7499 4.40002H5.2499C3.65551 4.40002 2.3999 5.73408 2.3999 7.33336V16.6667C2.3999 18.266 3.65551 19.6 5.2499 19.6H18.7499C20.3443 19.6 21.5999 18.266 21.5999 16.6667V7.33336ZM20.3999 9.10002H3.5999V16.6667C3.5999 17.6447 4.35901 18.4 5.2499 18.4H18.7499C19.6408 18.4 20.3999 17.6447 20.3999 16.6667V9.10002ZM5.7749 15.5C5.7749 15.1687 6.04353 14.9 6.3749 14.9H10.8749C11.2063 14.9 11.4749 15.1687 11.4749 15.5C11.4749 15.8314 11.2063 16.1 10.8749 16.1H6.3749C6.04353 16.1 5.7749 15.8314 5.7749 15.5ZM13.6499 15.5C13.6499 15.1687 13.9185 14.9 14.2499 14.9H15.3749C15.7063 14.9 15.9749 15.1687 15.9749 15.5C15.9749 15.8314 15.7063 16.1 15.3749 16.1H14.2499C13.9185 16.1 13.6499 15.8314 13.6499 15.5Z" fill="#272A35"/>
</svg>
