<svg width="40" height="40" viewBox="0 0 40 40" fill="none" xmlns="http://www.w3.org/2000/svg">
<path fill-rule="evenodd" clip-rule="evenodd" d="M15.7071 9.29289C16.0977 9.68342 16.0977 10.3166 15.7071 10.7071L7.82846 18.5858C7.04741 19.3668 7.04741 20.6332 7.82846 21.4142L15.7071 29.2929C16.0977 29.6834 16.0977 30.3166 15.7071 30.7071C15.3166 31.0976 14.6835 31.0976 14.2929 30.7071L6.41425 22.8284C4.85215 21.2663 4.85215 18.7337 6.41425 17.1716L14.2929 9.29289C14.6835 8.90237 15.3166 8.90237 15.7071 9.29289ZM24.2929 9.29289C24.6835 8.90237 25.3166 8.90237 25.7071 9.29289L33.5858 17.1716C35.1479 18.7337 35.1479 21.2663 33.5858 22.8284L25.7071 30.7071C25.3166 31.0976 24.6835 31.0976 24.2929 30.7071C23.9024 30.3166 23.9024 29.6834 24.2929 29.2929L32.1716 21.4142C32.9527 20.6332 32.9527 19.3668 32.1716 18.5858L24.2929 10.7071C23.9024 10.3166 23.9024 9.68342 24.2929 9.29289Z" fill="#272A35"/>
</svg>
