<svg width="40" height="40" viewBox="0 0 40 40" fill="none" xmlns="http://www.w3.org/2000/svg">
<path fill-rule="evenodd" clip-rule="evenodd" d="M13.0526 10C8.36086 10 4.5 13.9445 4.5 18.8824C4.5 23.8202 8.36086 27.7647 13.0526 27.7647H15.6579C16.2102 27.7647 16.6579 28.2124 16.6579 28.7647C16.6579 29.317 16.2102 29.7647 15.6579 29.7647H13.0526C7.19286 29.7647 2.5 24.8603 2.5 18.8824C2.5 12.9045 7.19286 8 13.0526 8H19.1316C19.6839 8 20.1316 8.44772 20.1316 9C20.1316 9.55228 19.6839 10 19.1316 10H13.0526ZM24.9053 9C24.9053 8.44772 25.353 8 25.9053 8H36.5C37.0523 8 37.5 8.44772 37.5 9C37.5 9.55228 37.0523 10 36.5 10H25.9053C25.353 10 24.9053 9.55228 24.9053 9ZM24.9053 18.8824C24.9053 18.3301 25.353 17.8824 25.9053 17.8824H36.5C37.0523 17.8824 37.5 18.3301 37.5 18.8824C37.5 19.4346 37.0523 19.8824 36.5 19.8824H25.9053C25.353 19.8824 24.9053 19.4346 24.9053 18.8824ZM24.9053 28.7647C24.9053 28.2124 25.353 27.7647 25.9053 27.7647H36.5C37.0523 27.7647 37.5 28.2124 37.5 28.7647C37.5 29.317 37.0523 29.7647 36.5 29.7647H25.9053C25.353 29.7647 24.9053 29.317 24.9053 28.7647Z" fill="#272A35"/>
<path fill-rule="evenodd" clip-rule="evenodd" d="M16.9905 32.1125L20.1547 28.8364L16.9347 25.6151L16.9905 32.1125ZM18.4044 33.527C17.1666 34.8086 15.0237 33.9269 15.0082 32.1295L14.9524 25.6321C14.937 23.8348 17.0645 22.9163 18.3241 24.1765L21.5441 27.3978C22.325 28.179 22.3359 29.4564 21.5686 30.2509L18.4044 33.527Z" fill="#272A35"/>
</svg>
