<svg width="24" height="24" viewBox="0 0 24 24" fill="none" xmlns="http://www.w3.org/2000/svg">
<path fill-rule="evenodd" clip-rule="evenodd" d="M3.3999 6.00002C3.3999 5.66865 3.66853 5.40002 3.9999 5.40002H19.9999C20.3313 5.40002 20.5999 5.66865 20.5999 6.00002C20.5999 6.3314 20.3313 6.60002 19.9999 6.60002H3.9999C3.66853 6.60002 3.3999 6.3314 3.3999 6.00002ZM3.3999 12C3.3999 11.6687 3.66853 11.4 3.9999 11.4H19.9999C20.3313 11.4 20.5999 11.6687 20.5999 12C20.5999 12.3314 20.3313 12.6 19.9999 12.6H3.9999C3.66853 12.6 3.3999 12.3314 3.3999 12ZM3.3999 18C3.3999 17.6687 3.66853 17.4 3.9999 17.4H19.9999C20.3313 17.4 20.5999 17.6687 20.5999 18C20.5999 18.3314 20.3313 18.6 19.9999 18.6H3.9999C3.66853 18.6 3.3999 18.3314 3.3999 18Z" fill="#272A35"/>
</svg>
