<svg width="16" height="16" viewBox="0 0 16 16" fill="none" xmlns="http://www.w3.org/2000/svg">
<path fill-rule="evenodd" clip-rule="evenodd" d="M4 2.5C3.09649 2.5 2.5 3.11319 2.5 3.71429V9.71429C2.5 10.3154 3.09649 10.9286 4 10.9286H8C8.90351 10.9286 9.5 10.3154 9.5 9.71429V7.57143C9.5 7.29529 9.72386 7.07143 10 7.07143C10.2761 7.07143 10.5 7.29529 10.5 7.57143V9.71429C10.5 11.0067 9.30562 11.9286 8 11.9286H6.5V12.2857C6.5 12.8868 7.09649 13.5 8 13.5H12C12.9035 13.5 13.5 12.8868 13.5 12.2857V7.14286C13.5 6.54176 12.9035 5.92857 12 5.92857H8C7.09649 5.92857 6.5 6.54176 6.5 7.14286V9.28571C6.5 9.56186 6.27614 9.78571 6 9.78571C5.72386 9.78571 5.5 9.56186 5.5 9.28571V7.14286C5.5 5.85041 6.69438 4.92857 8 4.92857H9.5V3.71429C9.5 3.11319 8.90351 2.5 8 2.5H4ZM10.5 4.92857V3.71429C10.5 2.42184 9.30562 1.5 8 1.5H4C2.69438 1.5 1.5 2.42184 1.5 3.71429V9.71429C1.5 11.0067 2.69438 11.9286 4 11.9286H5.5V12.2857C5.5 13.5782 6.69438 14.5 8 14.5H12C13.3056 14.5 14.5 13.5782 14.5 12.2857V7.14286C14.5 5.85041 13.3056 4.92857 12 4.92857H10.5Z" fill="#272A35"/>
</svg>
