<svg width="16" height="16" viewBox="0 0 16 16" fill="none" xmlns="http://www.w3.org/2000/svg">
<path d="M9.66667 13.5H4V14.5H9.66667V13.5ZM2.5 12V6.66665H1.5V12H2.5ZM4 13.5C3.17157 13.5 2.5 12.8284 2.5 12H1.5C1.5 13.3807 2.61929 14.5 4 14.5V13.5ZM9.66667 14.5C10.8633 14.5 11.8333 13.5299 11.8333 12.3333H10.8333C10.8333 12.9777 10.311 13.5 9.66667 13.5V14.5ZM2.5 6.66665C2.5 5.83823 3.17157 5.16666 4 5.16666V4.16666C2.61929 4.16666 1.5 5.28594 1.5 6.66665H2.5Z" fill="#272A35"/>
<path d="M8.83317 4.48889V6.16667H7.15539V7.16667H8.83317V8.84444H9.83317V7.16667H11.5109V6.16667H9.83317V4.48889H8.83317ZM6.6665 2.5H11.9998C12.8283 2.5 13.4998 3.17157 13.4998 4V9.33333C13.4998 10.1618 12.8283 10.8333 11.9998 10.8333H6.6665C5.83808 10.8333 5.1665 10.1618 5.1665 9.33333V4C5.1665 3.17157 5.83808 2.5 6.6665 2.5Z" stroke="#272A35"/>
<path fill-rule="evenodd" clip-rule="evenodd" d="M4 5.16666C3.17157 5.16666 2.5 5.83823 2.5 6.66665V12C2.5 12.8284 3.17157 13.5 4 13.5H9.66667C10.311 13.5 10.8333 12.9777 10.8333 12.3333H11.8333C11.8333 13.5299 10.8633 14.5 9.66667 14.5H4C2.61929 14.5 1.5 13.3807 1.5 12V6.66665C1.5 5.28594 2.61929 4.16666 4 4.16666V5.16666Z" fill="#272A35"/>
<path fill-rule="evenodd" clip-rule="evenodd" d="M8.83317 6.16667V4.48889H9.83317V6.16667H11.5109V7.16667H9.83317V8.84444H8.83317V7.16667H7.15539V6.16667H8.83317ZM11.9998 3H6.6665C6.11422 3 5.6665 3.44771 5.6665 4V9.33333C5.6665 9.88562 6.11422 10.3333 6.6665 10.3333H11.9998C12.5521 10.3333 12.9998 9.88562 12.9998 9.33333V4C12.9998 3.44771 12.5521 3 11.9998 3ZM6.6665 2C5.56193 2 4.6665 2.89543 4.6665 4V9.33333C4.6665 10.4379 5.56193 11.3333 6.6665 11.3333H11.9998C13.1044 11.3333 13.9998 10.4379 13.9998 9.33333V4C13.9998 2.89543 13.1044 2 11.9998 2H6.6665Z" fill="#272A35"/>
</svg>
