<svg width="40" height="40" viewBox="0 0 40 40" fill="none" xmlns="http://www.w3.org/2000/svg">
<path fill-rule="evenodd" clip-rule="evenodd" d="M8.75 8C7.30827 8 6 9.29725 6 11.0769V12.1154H30.25V11.0769C30.25 9.29725 28.9417 8 27.5 8H8.75ZM32.25 12.2264V11.0769C32.25 8.35335 30.2004 6 27.5 6H8.75C6.0496 6 4 8.35335 4 11.0769V29.4231C4 32.1466 6.0496 34.5 8.75 34.5H31.25C33.9504 34.5 36 32.1466 36 29.4231V17.1923C36 14.8166 34.4406 12.7226 32.25 12.2264ZM34 18.2308V17.1923C34 15.4126 32.6917 14.1154 31.25 14.1154H6V29.4231C6 31.2027 7.30827 32.5 8.75 32.5H31.25C32.6917 32.5 34 31.2027 34 29.4231V28.3846H31.25C28.5496 28.3846 26.5 26.0313 26.5 23.3077C26.5 20.5841 28.5496 18.2308 31.25 18.2308H34ZM34 26.3846V20.2308H31.25C29.8083 20.2308 28.5 21.528 28.5 23.3077C28.5 25.0874 29.8083 26.3846 31.25 26.3846H34Z" fill="#272A35"/>
</svg>
