<svg width="32" height="32" viewBox="0 0 32 32" fill="none" xmlns="http://www.w3.org/2000/svg">
<path fill-rule="evenodd" clip-rule="evenodd" d="M3.19995 24C3.19995 26.651 5.34898 28.8 7.99995 28.8H24C26.6509 28.8 28.8 26.651 28.8 24V8.00005C28.8 5.34908 26.6509 3.20005 24 3.20005H7.99995C5.34899 3.20005 3.19995 5.34908 3.19995 8.00005V24ZM7.99995 27.2C6.23264 27.2 4.79995 25.7674 4.79995 24V8.00005C4.79995 6.23274 6.23264 4.80005 7.99995 4.80005H24C25.7673 4.80005 27.2 6.23274 27.2 8.00005V24C27.2 25.7674 25.7673 27.2 24 27.2H7.99995ZM8.79995 22.8C9.24178 22.8 9.59995 22.4419 9.59995 22V8.50005C9.59995 8.05822 9.24178 7.70005 8.79995 7.70005C8.35812 7.70005 7.99995 8.05822 7.99995 8.50005V22C7.99995 22.4419 8.35812 22.8 8.79995 22.8ZM23.2 22.8C23.6418 22.8 24 22.4419 24 22V8.50005C24 8.05822 23.6418 7.70005 23.2 7.70005C22.7581 7.70005 22.4 8.05822 22.4 8.50005V22C22.4 22.4419 22.7581 22.8 23.2 22.8ZM13.6 19.8C14.0418 19.8 14.4 19.4419 14.4 19V8.50005C14.4 8.05822 14.0418 7.70005 13.6 7.70005C13.1581 7.70005 12.8 8.05822 12.8 8.50005V19C12.8 19.4419 13.1581 19.8 13.6 19.8ZM18.4 13.8C18.8418 13.8 19.2 13.4419 19.2 13V8.50005C19.2 8.05822 18.8418 7.70005 18.4 7.70005C17.9581 7.70005 17.6 8.05822 17.6 8.50005V13C17.6 13.4419 17.9581 13.8 18.4 13.8Z" fill="#272A35"/>
</svg>
