<svg width="32" height="32" viewBox="0 0 32 32" fill="none" xmlns="http://www.w3.org/2000/svg">
<path fill-rule="evenodd" clip-rule="evenodd" d="M9.99995 7.04995C7.68036 7.04995 5.79995 8.93036 5.79995 11.25V20.75C5.79995 23.0695 7.68036 24.95 9.99995 24.95H16V26.5499H9.99995C6.7967 26.5499 4.19995 23.9532 4.19995 20.75V11.25C4.19995 8.0467 6.7967 5.44995 9.99995 5.44995H16V7.04995H9.99995Z" fill="#272A35"/>
<path fill-rule="evenodd" clip-rule="evenodd" d="M23.936 5.5413C23.6326 5.48129 23.3196 5.44995 23 5.44995H22.125V7.04995H23C23.2148 7.04995 23.4238 7.07099 23.6254 7.11088L23.936 5.5413ZM20.375 5.44995H18.625V7.04995H20.375V5.44995ZM16.875 5.44995H16V7.04995H16.875V5.44995ZM26.9911 7.58243C26.6409 7.05933 26.1907 6.60912 25.6676 6.25891L24.7775 7.58846C25.1268 7.82232 25.4277 8.12323 25.6615 8.47254L26.9911 7.58243ZM27.8 10.25C27.8 9.93041 27.7687 9.61739 27.7087 9.31405L26.1391 9.62456C26.179 9.82618 26.2 10.0352 26.2 10.25V11.2083H27.8V10.25ZM27.8 15.0416V13.125H26.2V15.0416H27.8ZM27.8 18.875V16.9583H26.2V18.875H27.8ZM27.8 21.75V20.7916H26.2V21.75C26.2 21.9647 26.179 22.1737 26.1391 22.3753L27.7087 22.6859C27.7687 22.3825 27.8 22.0695 27.8 21.75ZM25.6676 25.741C26.1907 25.3908 26.6409 24.9406 26.9911 24.4175L25.6615 23.5274C25.4277 23.8767 25.1268 24.1776 24.7775 24.4114L25.6676 25.741ZM23 26.5499C23.3196 26.5499 23.6326 26.5186 23.936 26.4586L23.6254 24.889C23.4238 24.9289 23.2148 24.95 23 24.95H22.125V26.5499H23ZM18.625 26.5499H20.375V24.95H18.625V26.5499ZM16 26.5499H16.875V24.95H16V26.5499Z" fill="#272A35"/>
<path fill-rule="evenodd" clip-rule="evenodd" d="M15.1997 29V3H16.7997V29H15.1997Z" fill="#272A35"/>
</svg>
