<svg width="16" height="16" viewBox="0 0 16 16" fill="none" xmlns="http://www.w3.org/2000/svg">
<path fill-rule="evenodd" clip-rule="evenodd" d="M5.75 1.5C6.02614 1.5 6.25 1.72386 6.25 2V2.25H9.75V2C9.75 1.72386 9.97386 1.5 10.25 1.5C10.5261 1.5 10.75 1.72386 10.75 2V2.25H12.5C13.6046 2.25 14.5 3.14543 14.5 4.25V9.875C14.5 10.1511 14.2761 10.375 14 10.375C13.7239 10.375 13.5 10.1511 13.5 9.875V5.875H2.5V12.5C2.5 13.0523 2.94772 13.5 3.5 13.5H9.5C9.77614 13.5 10 13.7239 10 14C10 14.2761 9.77614 14.5 9.5 14.5H3.5C2.39543 14.5 1.5 13.6046 1.5 12.5V4.25C1.5 3.14543 2.39543 2.25 3.5 2.25H5.25V2C5.25 1.72386 5.47386 1.5 5.75 1.5ZM5.25 3.25H3.5C2.94772 3.25 2.5 3.69772 2.5 4.25V4.875H13.5V4.25C13.5 3.69772 13.0523 3.25 12.5 3.25H10.75V3.5C10.75 3.77614 10.5261 4 10.25 4C9.97386 4 9.75 3.77614 9.75 3.5V3.25H6.25V3.5C6.25 3.77614 6.02614 4 5.75 4C5.47386 4 5.25 3.77614 5.25 3.5V3.25ZM3.75 8C3.75 7.72386 3.97386 7.5 4.25 7.5H5C5.27614 7.5 5.5 7.72386 5.5 8C5.5 8.27614 5.27614 8.5 5 8.5H4.25C3.97386 8.5 3.75 8.27614 3.75 8ZM6.75 8C6.75 7.72386 6.97386 7.5 7.25 7.5H8.75C9.02614 7.5 9.25 7.72386 9.25 8C9.25 8.27614 9.02614 8.5 8.75 8.5H7.25C6.97386 8.5 6.75 8.27614 6.75 8ZM10.5 8C10.5 7.72386 10.7239 7.5 11 7.5H11.75C12.0261 7.5 12.25 7.72386 12.25 8C12.25 8.27614 12.0261 8.5 11.75 8.5H11C10.7239 8.5 10.5 8.27614 10.5 8ZM3.75 11C3.75 10.7239 3.97386 10.5 4.25 10.5H5C5.27614 10.5 5.5 10.7239 5.5 11C5.5 11.2761 5.27614 11.5 5 11.5H4.25C3.97386 11.5 3.75 11.2761 3.75 11ZM6.75 11C6.75 10.7239 6.97386 10.5 7.25 10.5H8.75C9.02614 10.5 9.25 10.7239 9.25 11C9.25 11.2761 9.02614 11.5 8.75 11.5H7.25C6.97386 11.5 6.75 11.2761 6.75 11ZM12.5 10.5C12.7761 10.5 13 10.7239 13 11V12H14C14.2761 12 14.5 12.2239 14.5 12.5C14.5 12.7761 14.2761 13 14 13H13V14C13 14.2761 12.7761 14.5 12.5 14.5C12.2239 14.5 12 14.2761 12 14V13H11C10.7239 13 10.5 12.7761 10.5 12.5C10.5 12.2239 10.7239 12 11 12H12V11C12 10.7239 12.2239 10.5 12.5 10.5Z" fill="#272A35"/>
</svg>
