<svg width="32" height="32" viewBox="0 0 32 32" fill="none" xmlns="http://www.w3.org/2000/svg">
<path fill-rule="evenodd" clip-rule="evenodd" d="M8.33498 3.50343C10.8708 2.80911 13.5555 3.32017 15.7096 4.89296L15.8339 4.98375C17.9074 6.49772 20.5435 6.73848 22.814 5.63327C24.7668 4.68274 26.7999 6.27056 26.7999 8.33462V15.3766C26.7999 16.4853 26.2913 17.5448 25.406 18.1912L24.1901 19.0789C21.1237 21.3179 17.0591 21.1539 14.1588 18.6833C12.7116 17.4505 10.8806 16.9062 9.07483 17.1534L7.66518 17.3464C7.35972 17.3882 7.06838 17.364 6.79995 17.2866L6.79995 28C6.79995 28.4418 6.44178 28.8 5.99995 28.8C5.55813 28.8 5.19995 28.4418 5.19995 28L5.19995 15.073C5.19995 15.0721 5.19995 15.0713 5.19995 15.0704V6.17437C5.19995 5.14494 5.84964 4.18393 6.86654 3.9055L8.33498 3.50343ZM6.79995 6.37635C6.79995 6.37592 6.79995 6.37549 6.79995 6.37507V6.17437C6.79995 5.78984 7.03821 5.51739 7.28908 5.44869L8.75752 5.04663C10.8122 4.48405 12.9958 4.89262 14.7661 6.18517L14.8904 6.27596C17.4353 8.13413 20.7031 8.44027 23.5143 7.07189C24.2224 6.72721 25.2 7.24369 25.2 8.33462V15.3766C25.2 16.0066 24.9099 16.5723 24.4625 16.899L23.2466 17.7867C20.7829 19.5856 17.5376 19.4597 15.1963 17.4653C13.4144 15.9473 11.1304 15.2571 8.85781 15.5682L7.44816 15.7612C7.17202 15.799 6.80078 15.5589 6.79995 15.072L6.79995 6.37635Z" fill="#272A35"/>
</svg>
