<svg width="16" height="16" viewBox="0 0 16 16" fill="none" xmlns="http://www.w3.org/2000/svg">
<path fill-rule="evenodd" clip-rule="evenodd" d="M6.71056 2.04649C6.96102 2.16278 7.06979 2.46009 6.9535 2.71055L5.78341 5.23077H10.2166L9.0465 2.71055C8.93021 2.46009 9.03898 2.16278 9.28944 2.04649C9.53991 1.93021 9.83722 2.03898 9.9535 2.28944L11.3191 5.23077H14C14.2761 5.23077 14.5 5.45462 14.5 5.73077C14.5 6.00691 14.2761 6.23077 14 6.23077H13.5285C13.5724 6.41885 13.5774 6.61829 13.5369 6.81472L12.5007 11.8361C12.3054 12.7828 11.5113 13.5 10.5467 13.5H5.45326C4.48865 13.5 3.69464 12.7828 3.49929 11.8361L2.46314 6.81472C2.42261 6.61829 2.42759 6.41885 2.47151 6.23077H2C1.72386 6.23077 1.5 6.00691 1.5 5.73077C1.5 5.45462 1.72386 5.23077 2 5.23077H4.68088L6.0465 2.28944C6.16278 2.03898 6.46009 1.93021 6.71056 2.04649ZM4.98876 6.23077H3.68496C3.56694 6.23077 3.39301 6.37276 3.44251 6.61263L4.47866 11.634C4.58834 12.1655 5.01177 12.5 5.45326 12.5H10.5467C10.9882 12.5 11.4117 12.1655 11.5213 11.634L12.5575 6.61263C12.607 6.37276 12.4331 6.23077 12.315 6.23077H11.0112C11.004 6.23093 10.9967 6.23093 10.9894 6.23077H5.0106C5.00333 6.23093 4.99605 6.23093 4.98876 6.23077ZM5.29853 7.65973C5.57142 7.61749 5.82688 7.80448 5.86912 8.07737L6.24412 10.5005C6.28635 10.7733 6.09936 11.0288 5.82647 11.071C5.55358 11.1133 5.29812 10.9263 5.25588 10.6534L4.88088 8.23031C4.83865 7.95742 5.02564 7.70196 5.29853 7.65973ZM10.7015 7.65973C10.9744 7.70196 11.1614 7.95742 11.1191 8.23031L10.7441 10.6534C10.7019 10.9263 10.4464 11.1133 10.1735 11.071C9.90064 11.0288 9.71365 10.7733 9.75588 10.5005L10.1309 8.07737C10.1731 7.80448 10.4286 7.61749 10.7015 7.65973ZM8 7.65384C8.27614 7.65384 8.5 7.8777 8.5 8.15384V10.5769C8.5 10.8531 8.27614 11.0769 8 11.0769C7.72386 11.0769 7.5 10.8531 7.5 10.5769V8.15384C7.5 7.8777 7.72386 7.65384 8 7.65384Z" fill="#272A35"/>
</svg>
