<svg width="24" height="24" viewBox="0 0 24 24" fill="none" xmlns="http://www.w3.org/2000/svg">
<path fill-rule="evenodd" clip-rule="evenodd" d="M8.9999 3.59999C7.05536 3.59999 5.51657 5.11462 5.51657 6.93749C5.51657 8.76036 7.05536 10.275 8.9999 10.275C10.9444 10.275 12.4832 8.76036 12.4832 6.93749C12.4832 5.11462 10.9444 3.59999 8.9999 3.59999ZM4.31657 6.93749C4.31657 4.41112 6.43412 2.39999 8.9999 2.39999C11.5657 2.39999 13.6832 4.41112 13.6832 6.93749C13.6832 9.46387 11.5657 11.475 8.9999 11.475C6.43412 11.475 4.31657 9.46387 4.31657 6.93749ZM11.6968 15.2721C9.91021 14.9971 8.0896 14.9971 6.30298 15.2721L6.09521 15.3041C4.06518 15.6165 2.5999 17.2967 2.5999 19.2372C2.5999 19.859 3.129 20.4 3.82803 20.4H14.1718C14.8708 20.4 15.3999 19.859 15.3999 19.2372C15.3999 17.2967 13.9346 15.6165 11.9046 15.3041L11.6968 15.2721ZM6.12046 14.0861C8.02804 13.7925 9.97176 13.7925 11.8793 14.0861L12.0871 14.118C14.6705 14.5156 16.5999 16.6726 16.5999 19.2372C16.5999 20.5625 15.492 21.6 14.1718 21.6H3.82803C2.50777 21.6 1.3999 20.5625 1.3999 19.2372C1.3999 16.6726 3.32928 14.5156 5.91268 14.118L6.12046 14.0861Z" fill="#272A35"/>
<path fill-rule="evenodd" clip-rule="evenodd" d="M14.3999 2.99999C14.3999 2.66862 14.6685 2.39999 14.9999 2.39999C17.5657 2.39999 19.6832 4.41112 19.6832 6.93749C19.6832 9.46387 17.5657 11.475 14.9999 11.475C14.6685 11.475 14.3999 11.2064 14.3999 10.875C14.3999 10.5436 14.6685 10.275 14.9999 10.275C16.9444 10.275 18.4832 8.76036 18.4832 6.93749C18.4832 5.11462 16.9444 3.59999 14.9999 3.59999C14.6685 3.59999 14.3999 3.33136 14.3999 2.99999ZM15.8479 14.6791C15.8479 14.3477 16.1166 14.0791 16.4479 14.0791H17.5776C17.748 14.0791 17.9186 14.0921 18.0871 14.118C20.6705 14.5156 22.5999 16.6726 22.5999 19.2372C22.5999 20.5625 21.492 21.6 20.1718 21.6H17.7881C17.4567 21.6 17.1881 21.3314 17.1881 21C17.1881 20.6686 17.4567 20.4 17.7881 20.4H20.1718C20.8708 20.4 21.3999 19.859 21.3999 19.2372C21.3999 17.2967 19.9346 15.6165 17.9046 15.3041C17.7965 15.2874 17.687 15.2791 17.5776 15.2791H16.4479C16.1166 15.2791 15.8479 15.0105 15.8479 14.6791Z" fill="#272A35"/>
</svg>
