<svg width="32" height="32" viewBox="0 0 32 32" fill="none" xmlns="http://www.w3.org/2000/svg">
<path fill-rule="evenodd" clip-rule="evenodd" d="M7.91406 7.85713C7.91406 7.4153 8.27223 7.05713 8.71406 7.05713H23.2855C23.7273 7.05713 24.0855 7.4153 24.0855 7.85713C24.0855 8.29896 23.7273 8.65713 23.2855 8.65713H8.71406C8.27223 8.65713 7.91406 8.29896 7.91406 7.85713Z" fill="#272A35"/>
<path fill-rule="evenodd" clip-rule="evenodd" d="M15.9516 22.3962L18.8775 19.5707L13.2295 19.5774L15.9516 22.3962ZM11.9152 20.5196C10.9962 19.568 11.6695 17.9792 12.9924 17.9777L19.1235 17.9704C20.4734 17.9688 21.1383 19.6117 20.1673 20.5494L16.9911 23.6166C16.3952 24.1921 15.4456 24.1755 14.8701 23.5796L11.9152 20.5196Z" fill="#272A35"/>
<path fill-rule="evenodd" clip-rule="evenodd" d="M16.023 12.2039C16.4649 12.2039 16.823 12.5621 16.823 13.0039L16.8232 17.9479C16.8232 18.3897 16.4651 18.7479 16.0232 18.7479C15.5814 18.7479 15.2232 18.3898 15.2232 17.948L15.223 13.0039C15.223 12.5621 15.5812 12.2039 16.023 12.2039Z" fill="#272A35"/>
<path fill-rule="evenodd" clip-rule="evenodd" d="M3.19995 7.99995C3.19995 5.34899 5.34898 3.19995 7.99995 3.19995H24C26.6509 3.19995 28.7999 5.34898 28.7999 7.99995V24C28.7999 26.6509 26.6509 28.7999 24 28.7999H7.99995C5.34899 28.7999 3.19995 26.6509 3.19995 24V7.99995ZM7.99995 4.79995C6.23264 4.79995 4.79995 6.23264 4.79995 7.99995V24C4.79995 25.7673 6.23264 27.2 7.99995 27.2H24C25.7673 27.2 27.2 25.7673 27.2 24V7.99995C27.2 6.23264 25.7673 4.79995 24 4.79995H7.99995Z" fill="#272A35"/>
</svg>
