<svg width="40" height="40" viewBox="0 0 40 40" fill="none" xmlns="http://www.w3.org/2000/svg">
<path fill-rule="evenodd" clip-rule="evenodd" d="M14.375 4C14.9273 4 15.375 4.44772 15.375 5V5.875H24.625V5C24.625 4.44772 25.0727 4 25.625 4C26.1773 4 26.625 4.44772 26.625 5V5.875H31.25C33.8734 5.875 36 8.00165 36 10.625V24.6875C36 25.2398 35.5523 25.6875 35 25.6875C34.4477 25.6875 34 25.2398 34 24.6875V14.4375H6V31.25C6 32.7688 7.23122 34 8.75 34H23.75C24.3023 34 24.75 34.4477 24.75 35C24.75 35.5523 24.3023 36 23.75 36H8.75C6.12665 36 4 33.8734 4 31.25V10.625C4 8.00165 6.12665 5.875 8.75 5.875H13.375V5C13.375 4.44772 13.8227 4 14.375 4ZM13.375 7.875H8.75C7.23122 7.875 6 9.10622 6 10.625V12.4375H34V10.625C34 9.10622 32.7688 7.875 31.25 7.875H26.625V8.75C26.625 9.30228 26.1773 9.75 25.625 9.75C25.0727 9.75 24.625 9.30228 24.625 8.75V7.875H15.375V8.75C15.375 9.30228 14.9273 9.75 14.375 9.75C13.8227 9.75 13.375 9.30228 13.375 8.75V7.875ZM9.625 20C9.625 19.4477 10.0727 19 10.625 19H12.5C13.0523 19 13.5 19.4477 13.5 20C13.5 20.5523 13.0523 21 12.5 21H10.625C10.0727 21 9.625 20.5523 9.625 20ZM17.125 20C17.125 19.4477 17.5727 19 18.125 19H21.875C22.4273 19 22.875 19.4477 22.875 20C22.875 20.5523 22.4273 21 21.875 21H18.125C17.5727 21 17.125 20.5523 17.125 20ZM26.5 20C26.5 19.4477 26.9477 19 27.5 19H29.375C29.9273 19 30.375 19.4477 30.375 20C30.375 20.5523 29.9273 21 29.375 21H27.5C26.9477 21 26.5 20.5523 26.5 20ZM9.625 27.5C9.625 26.9477 10.0727 26.5 10.625 26.5H12.5C13.0523 26.5 13.5 26.9477 13.5 27.5C13.5 28.0523 13.0523 28.5 12.5 28.5H10.625C10.0727 28.5 9.625 28.0523 9.625 27.5ZM17.125 27.5C17.125 26.9477 17.5727 26.5 18.125 26.5H21.875C22.4273 26.5 22.875 26.9477 22.875 27.5C22.875 28.0523 22.4273 28.5 21.875 28.5H18.125C17.5727 28.5 17.125 28.0523 17.125 27.5ZM31.25 26.5C31.8023 26.5 32.25 26.9477 32.25 27.5V30.25H35C35.5523 30.25 36 30.6977 36 31.25C36 31.8023 35.5523 32.25 35 32.25H32.25V35C32.25 35.5523 31.8023 36 31.25 36C30.6977 36 30.25 35.5523 30.25 35V32.25H27.5C26.9477 32.25 26.5 31.8023 26.5 31.25C26.5 30.6977 26.9477 30.25 27.5 30.25H30.25V27.5C30.25 26.9477 30.6977 26.5 31.25 26.5Z" fill="#272A35"/>
</svg>
