<svg width="24" height="24" viewBox="0 0 24 24" fill="none" xmlns="http://www.w3.org/2000/svg">
<path fill-rule="evenodd" clip-rule="evenodd" d="M5.57133 3.60002C4.48254 3.60002 3.5999 4.48266 3.5999 5.57145V18.4286C3.5999 19.5174 4.48254 20.4 5.57133 20.4H18.4285C19.5173 20.4 20.3999 19.5174 20.3999 18.4286V13.2857C20.3999 12.9544 20.6685 12.6857 20.9999 12.6857C21.3313 12.6857 21.5999 12.9544 21.5999 13.2857V18.4286C21.5999 20.1801 20.18 21.6 18.4285 21.6H5.57133C3.8198 21.6 2.3999 20.1801 2.3999 18.4286V5.57145C2.3999 3.81992 3.8198 2.40002 5.57133 2.40002H14.5713C14.9027 2.40002 15.1713 2.66865 15.1713 3.00002C15.1713 3.3314 14.9027 3.60002 14.5713 3.60002H5.57133ZM16.5428 5.57145C16.5428 5.24008 16.8114 4.97145 17.1428 4.97145H20.9999C21.3313 4.97145 21.5999 5.24008 21.5999 5.57145V9.4286C21.5999 9.75997 21.3313 10.0286 20.9999 10.0286C20.6685 10.0286 20.3999 9.75997 20.3999 9.4286V7.01998L14.417 13.0029C13.7921 13.6277 12.7791 13.6277 12.1542 13.0029L10.997 11.8457C10.8408 11.6895 10.5876 11.6895 10.4313 11.8457L7.28131 14.9957C7.04699 15.23 6.6671 15.23 6.43278 14.9957C6.19847 14.7614 6.19847 14.3815 6.43278 14.1472L9.58282 10.9972C10.2077 10.3723 11.2207 10.3723 11.8456 10.9972L13.0028 12.1544C13.159 12.3106 13.4122 12.3106 13.5685 12.1544L19.5514 6.17145H17.1428C16.8114 6.17145 16.5428 5.90282 16.5428 5.57145Z" fill="#272A35"/>
</svg>
