<svg width="16" height="16" viewBox="0 0 16 16" fill="none" xmlns="http://www.w3.org/2000/svg">
<path fill-rule="evenodd" clip-rule="evenodd" d="M4.25 2.5C3.69772 2.5 3.25 2.94772 3.25 3.5V4.5H3.5C3.77614 4.5 4 4.72386 4 5C4 5.27614 3.77614 5.5 3.5 5.5H3.25V9H3.5C3.77614 9 4 9.22386 4 9.5C4 9.77614 3.77614 10 3.5 10H3.25V11C3.25 11.5523 3.69772 12 4.25 12H12.5C13.0523 12 13.5 11.5523 13.5 11V3.5C13.5 2.94772 13.0523 2.5 12.5 2.5H4.25ZM12 13H10.75V13.25C10.75 13.3881 10.8619 13.5 11 13.5H11.75C11.8881 13.5 12 13.3881 12 13.25V13ZM9.75 13H7V13.25C7 13.9404 6.44036 14.5 5.75 14.5H5C4.30964 14.5 3.75 13.9404 3.75 13.25L3.75 12.937C2.88739 12.715 2.25 11.9319 2.25 11V10H2C1.72386 10 1.5 9.77614 1.5 9.5C1.5 9.22386 1.72386 9 2 9H2.25V5.5H2C1.72386 5.5 1.5 5.27614 1.5 5C1.5 4.72386 1.72386 4.5 2 4.5H2.25V3.5C2.25 2.39543 3.14543 1.5 4.25 1.5H12.5C13.6046 1.5 14.5 2.39543 14.5 3.5V11C14.5 11.9319 13.8626 12.715 13 12.937V13.25C13 13.9404 12.4404 14.5 11.75 14.5H11C10.3096 14.5 9.75 13.9404 9.75 13.25V13ZM4.75 13V13.25C4.75 13.3881 4.86193 13.5 5 13.5H5.75C5.88807 13.5 6 13.3881 6 13.25V13H4.75ZM8.75 3.75C9.02614 3.75 9.25 3.97386 9.25 4.25V4.54534C10.3679 4.75069 11.2493 5.63208 11.4547 6.75H11.75C12.0261 6.75 12.25 6.97386 12.25 7.25C12.25 7.52614 12.0261 7.75 11.75 7.75H11.4547C11.2493 8.86792 10.3679 9.74931 9.25 9.95466V10.25C9.25 10.5261 9.02614 10.75 8.75 10.75C8.47386 10.75 8.25 10.5261 8.25 10.25V9.95466C7.13208 9.74931 6.25069 8.86792 6.04534 7.75H5.75C5.47386 7.75 5.25 7.52614 5.25 7.25C5.25 6.97386 5.47386 6.75 5.75 6.75H6.04534C6.25069 5.63208 7.13208 4.75069 8.25 4.54534V4.25C8.25 3.97386 8.47386 3.75 8.75 3.75ZM8.75 5.5C7.7835 5.5 7 6.2835 7 7.25C7 8.2165 7.7835 9 8.75 9C9.7165 9 10.5 8.2165 10.5 7.25C10.5 6.2835 9.7165 5.5 8.75 5.5Z" fill="#272A35"/>
</svg>
