<svg width="32" height="32" viewBox="0 0 32 32" fill="none" xmlns="http://www.w3.org/2000/svg">
<path fill-rule="evenodd" clip-rule="evenodd" d="M26.1111 5.19995C26.5529 5.19995 26.9111 5.55812 26.9111 5.99995L26.9111 10.2819L28.4299 8.7394C28.7399 8.42457 29.2464 8.42064 29.5612 8.73064C29.8761 9.04063 29.88 9.54714 29.57 9.86197L27.7025 11.7586C26.825 12.6498 25.3971 12.6498 24.5196 11.7586L22.6521 9.86197C22.3421 9.54714 22.3461 9.04063 22.6609 8.73063C22.9757 8.42064 23.4822 8.42457 23.7922 8.7394L25.3111 10.2819L25.3111 5.99995C25.3111 5.55812 25.6692 5.19995 26.1111 5.19995ZM8.38277 15.1381C8.38277 15.1387 8.38277 15.1392 8.38277 15.1398L8.383 15.1913C8.3847 15.59 8.09255 15.9291 7.69798 15.9864C5.50368 16.3051 3.79995 18.228 3.79995 20.5699C3.79995 23.1387 5.84718 25.2 8.34658 25.2L8.35434 25.1999L21.3313 25.1999C23.4088 25.1999 25.1141 23.486 25.1141 21.3456C25.1141 19.2051 23.4088 17.4912 21.3313 17.4912C21.2794 17.4912 21.2277 17.4923 21.1763 17.4944C19.7878 17.5514 18.5856 18.3718 17.9741 19.5672C17.7729 19.9606 17.2909 20.1163 16.8976 19.9151C16.5042 19.7139 16.3484 19.2319 16.5497 18.8386C17.0556 17.8494 17.8539 17.0346 18.8306 16.5143C18.9434 16.0762 19.0036 15.6157 19.0036 15.1398C19.0036 12.1425 16.6144 9.73394 13.6932 9.73394C10.7725 9.73394 8.38366 12.1416 8.38277 15.1381ZM21.1365 15.8947C20.9408 15.9018 20.7479 15.9194 20.5582 15.947C20.5882 15.682 20.6036 15.4126 20.6036 15.1398C20.6036 11.2823 17.5214 8.13394 13.6932 8.13394C10.0666 8.13394 7.10944 10.9595 6.80807 14.5367C4.15069 15.2306 2.19995 17.6752 2.19995 20.5699C2.19995 23.9989 4.94026 26.8 8.34658 26.8L8.35564 26.7999L21.3313 26.7999C24.3158 26.7999 26.7141 24.3462 26.7141 21.3456C26.7141 18.3449 24.3158 15.8912 21.3313 15.8912C21.266 15.8912 21.2011 15.8924 21.1365 15.8947Z" fill="#272A35"/>
</svg>
