<svg width="32" height="32" viewBox="0 0 32 32" fill="none" xmlns="http://www.w3.org/2000/svg">
<path fill-rule="evenodd" clip-rule="evenodd" d="M13.8063 4.52012C15.1083 3.42664 16.8916 3.42664 18.1936 4.52012L21.5688 7.35483C21.5695 7.35545 21.5703 7.35607 21.571 7.3567L25.4158 10.5858C25.5747 10.7192 25.7219 10.8651 25.8569 11.0217L29.5199 14.154C29.8557 14.4412 29.8951 14.9462 29.608 15.282C29.3208 15.6178 28.8158 15.6572 28.48 15.3701L26.9111 14.0284V24.1032C26.9111 26.2946 25.3761 28.3 23.2222 28.3H8.77774C6.62383 28.3 5.08885 26.2946 5.08885 24.1032V14.0284L3.5199 15.3701C3.1841 15.6572 2.67911 15.6178 2.39196 15.282C2.10481 14.9462 2.14424 14.4412 2.48004 14.154L6.14302 11.0217C6.27807 10.8651 6.42526 10.7192 6.58411 10.5858L10.4292 7.35643C10.4298 7.35598 10.4303 7.35554 10.4308 7.3551L13.8063 4.52012ZM7.28833 12.1475L11.4616 8.57878L14.8353 5.74533C15.5423 5.15157 16.4576 5.15157 17.1646 5.74533L20.5383 8.57876L24.7116 12.1475C25.0824 12.6175 25.3111 13.2604 25.3111 13.9625V24.1032C25.3111 25.6638 24.2593 26.7 23.2222 26.7H19.6889V20.7064C19.6889 19.453 18.8006 18.208 17.4444 18.208H14.5555C13.1994 18.208 12.3111 19.453 12.3111 20.7064V26.7H8.77774C7.74068 26.7 6.68885 25.6638 6.68885 24.1032V13.9625C6.68885 13.2604 6.91757 12.6175 7.28833 12.1475ZM13.9111 26.7H18.0889V20.7064C18.0889 20.0839 17.6837 19.808 17.4444 19.808H14.5555C14.3162 19.808 13.9111 20.0839 13.9111 20.7064V26.7Z" fill="#272A35"/>
</svg>
