<svg width="24" height="24" viewBox="0 0 24 24" fill="none" xmlns="http://www.w3.org/2000/svg">
<path fill-rule="evenodd" clip-rule="evenodd" d="M6.3749 3.60002C5.46363 3.60002 4.7249 4.33875 4.7249 5.25002V6.90002H5.2499C5.58127 6.90002 5.8499 7.16865 5.8499 7.50002C5.8499 7.8314 5.58127 8.10002 5.2499 8.10002H4.7249V13.65H5.2499C5.58127 13.65 5.8499 13.9187 5.8499 14.25C5.8499 14.5814 5.58127 14.85 5.2499 14.85H4.7249V16.5C4.7249 17.4113 5.46363 18.15 6.3749 18.15H18.7499C19.6612 18.15 20.3999 17.4113 20.3999 16.5V5.25002C20.3999 4.33875 19.6612 3.60002 18.7499 3.60002H6.3749ZM18.1499 19.35H15.9749V19.875C15.9749 20.165 16.21 20.4 16.4999 20.4H17.6249C17.9149 20.4 18.1499 20.165 18.1499 19.875V19.35ZM14.7749 19.35H10.3499V19.875C10.3499 20.8277 9.57759 21.6 8.6249 21.6H7.4999C6.54721 21.6 5.7749 20.8277 5.7749 19.875L5.7749 19.2868C4.489 19.0112 3.5249 17.8682 3.5249 16.5V14.85H2.9999C2.66853 14.85 2.3999 14.5814 2.3999 14.25C2.3999 13.9187 2.66853 13.65 2.9999 13.65H3.5249V8.10002H2.9999C2.66853 8.10002 2.3999 7.8314 2.3999 7.50002C2.3999 7.16865 2.66853 6.90002 2.9999 6.90002H3.5249V5.25002C3.5249 3.67601 4.80089 2.40002 6.3749 2.40002H18.7499C20.3239 2.40002 21.5999 3.67601 21.5999 5.25002V16.5C21.5999 17.8682 20.6358 19.0112 19.3499 19.2868L19.3499 19.875C19.3499 20.8277 18.5776 21.6 17.6249 21.6H16.4999C15.5472 21.6 14.7749 20.8277 14.7749 19.875V19.35ZM6.9749 19.35V19.875C6.9749 20.165 7.20995 20.4 7.4999 20.4H8.6249C8.91485 20.4 9.1499 20.165 9.1499 19.875V19.35H6.9749ZM13.1249 5.77502C13.4563 5.77502 13.7249 6.04365 13.7249 6.37502V6.94501C15.4399 7.20466 16.7953 8.56006 17.0549 10.275H17.6249C17.9563 10.275 18.2249 10.5437 18.2249 10.875C18.2249 11.2064 17.9563 11.475 17.6249 11.475H17.0549C16.7953 13.19 15.4399 14.5454 13.7249 14.805V15.375C13.7249 15.7064 13.4563 15.975 13.1249 15.975C12.7935 15.975 12.5249 15.7064 12.5249 15.375V14.805C10.8099 14.5454 9.45454 13.19 9.19489 11.475H8.6249C8.29353 11.475 8.0249 11.2064 8.0249 10.875C8.0249 10.5437 8.29353 10.275 8.6249 10.275H9.19489C9.45454 8.56006 10.8099 7.20466 12.5249 6.94501V6.37502C12.5249 6.04365 12.7935 5.77502 13.1249 5.77502ZM13.1249 8.10002C11.5923 8.10002 10.3499 9.34243 10.3499 10.875C10.3499 12.4076 11.5923 13.65 13.1249 13.65C14.6575 13.65 15.8999 12.4076 15.8999 10.875C15.8999 9.34243 14.6575 8.10002 13.1249 8.10002Z" fill="#272A35"/>
</svg>
