<svg width="32" height="32" viewBox="0 0 32 32" fill="none" xmlns="http://www.w3.org/2000/svg">
<path fill-rule="evenodd" clip-rule="evenodd" d="M7.99995 10.1333C6.23264 10.1333 4.79995 11.566 4.79995 13.3333V24C4.79995 25.7673 6.23264 27.2 7.99995 27.2H19.3333C20.7324 27.2 21.8666 26.0658 21.8666 24.6667H23.4666C23.4666 26.9494 21.6161 28.8 19.3333 28.8H7.99995C5.34898 28.8 3.19995 26.651 3.19995 24V13.3333C3.19995 10.6824 5.34899 8.53333 7.99995 8.53333V10.1333Z" fill="#272A35"/>
<path fill-rule="evenodd" clip-rule="evenodd" d="M17.8666 12.5333V8.97778H19.4666V12.5333H23.0221V14.1333H19.4666V17.6889H17.8666V14.1333H14.311V12.5333H17.8666ZM23.9999 5.6H13.3333C12.0078 5.6 10.9333 6.67452 10.9333 8V18.6667C10.9333 19.9921 12.0078 21.0667 13.3333 21.0667H23.9999C25.3254 21.0667 26.3999 19.9922 26.3999 18.6667V8C26.3999 6.67452 25.3254 5.6 23.9999 5.6ZM13.3333 4C11.1241 4 9.33325 5.79086 9.33325 8V18.6667C9.33325 20.8758 11.1241 22.6667 13.3333 22.6667H23.9999C26.2091 22.6667 27.9999 20.8758 27.9999 18.6667V8C27.9999 5.79086 26.2091 4 23.9999 4H13.3333Z" fill="#272A35"/>
</svg>
