<svg width="16" height="16" viewBox="0 0 16 16" fill="none" xmlns="http://www.w3.org/2000/svg">
<path fill-rule="evenodd" clip-rule="evenodd" d="M14 8C14 4.68629 11.3137 2 8 2C4.68629 2 2 4.68629 2 8C2 11.3137 4.68629 14 8 14C11.3137 14 14 11.3137 14 8ZM8 1C11.866 1 15 4.13401 15 8C15 11.866 11.866 15 8 15C4.13401 15 1 11.866 1 8C1 4.13401 4.13401 1 8 1ZM6.64645 10.6464L8.93934 8.35355C9.1346 8.15829 9.1346 7.84171 8.93934 7.64645L6.64645 5.35355C6.45118 5.15829 6.45118 4.84171 6.64645 4.64645C6.84171 4.45118 7.15829 4.45118 7.35355 4.64645L9.64645 6.93934C10.2322 7.52513 10.2322 8.47487 9.64645 9.06066L7.35355 11.3536C7.15829 11.5488 6.84171 11.5488 6.64645 11.3536C6.45118 11.1583 6.45118 10.8417 6.64645 10.6464Z" fill="#272A35"/>
</svg>
