<svg width="24" height="24" viewBox="0 0 24 24" fill="none" xmlns="http://www.w3.org/2000/svg">
<path fill-rule="evenodd" clip-rule="evenodd" d="M18.5633 4.4126C19.2325 3.72917 20.3228 3.72917 20.9921 4.4126L22.4286 5.87967C22.6604 6.11643 22.6564 6.49631 22.4197 6.72815C22.1829 6.95999 21.803 6.95599 21.5712 6.71923L20.3777 5.50035L20.3777 8.56889C20.3777 8.90026 20.1091 9.16889 19.7777 9.16889C19.4463 9.16889 19.1777 8.90026 19.1777 8.56889L19.1777 5.50035L17.9842 6.71923C17.7523 6.95599 17.3724 6.95999 17.1357 6.72815C16.8989 6.49631 16.8949 6.11643 17.1268 5.87967L18.5633 4.4126ZM6.12515 11.0984C6.12515 11.0988 6.12515 11.0992 6.12515 11.0997L6.12532 11.1396C6.12659 11.4385 5.90774 11.6927 5.61203 11.7359C3.9187 11.9832 2.5999 13.4765 2.5999 15.2998C2.5999 17.3001 4.18446 18.9 6.1127 18.9L6.11769 18.9L16.1009 18.9C17.7047 18.9 19.0262 17.5688 19.0262 15.8999C19.0262 14.231 17.7047 12.8997 16.1009 12.8997C14.9784 12.8997 13.9965 13.5491 13.5054 14.5145C13.3552 14.8099 12.9939 14.9275 12.6986 14.7773C12.4032 14.627 12.2856 14.2658 12.4358 13.9704C12.8243 13.2068 13.4383 12.5775 14.1899 12.1766C14.2785 11.8335 14.3258 11.4727 14.3258 11.0997C14.3258 8.768 12.4782 6.89945 10.2255 6.89945C7.97317 6.89945 6.12581 8.76732 6.12515 11.0984ZM15.4882 11.7457C15.5131 11.5337 15.5258 11.3181 15.5258 11.0997C15.5258 8.12916 13.1646 5.69945 10.2255 5.69945C7.43659 5.69945 5.16805 7.88712 4.94342 10.6486C2.89889 11.18 1.3999 13.0678 1.3999 15.2998C1.3999 17.939 3.49806 20.1 6.1127 20.1L16.1009 20.1C18.3911 20.1 20.2262 18.2076 20.2262 15.8999C20.2262 13.5921 18.3911 11.6997 16.1009 11.6997C15.8926 11.6997 15.688 11.7154 15.4882 11.7457Z" fill="#272A35"/>
</svg>
