<svg width="32" height="32" viewBox="0 0 32 32" fill="none" xmlns="http://www.w3.org/2000/svg">
<path fill-rule="evenodd" clip-rule="evenodd" d="M15.5 27.4C21.5199 27.4 26.4 22.5199 26.4 16.5C26.4 10.4801 21.5199 5.6 15.5 5.6C9.4801 5.6 4.6 10.4801 4.6 16.5C4.6 22.5199 9.4801 27.4 15.5 27.4ZM15.5 29C22.4036 29 28 23.4036 28 16.5C28 9.59644 22.4036 4 15.5 4C8.59644 4 3 9.59644 3 16.5C3 23.4036 8.59644 29 15.5 29Z" fill="#272A35"/>
<path fill-rule="evenodd" clip-rule="evenodd" d="M9.93451 10.9343C10.2469 10.6218 10.7535 10.6218 11.0659 10.9343L15.5002 15.3686L19.9345 10.9343C20.2469 10.6218 20.7535 10.6218 21.0659 10.9343C21.3783 11.2467 21.3783 11.7532 21.0659 12.0656L16.6316 16.5L21.0659 20.9343C21.3783 21.2467 21.3783 21.7532 21.0659 22.0656C20.7535 22.3781 20.2469 22.3781 19.9345 22.0656L15.5002 17.6313L11.0659 22.0656C10.7535 22.3781 10.2469 22.3781 9.93451 22.0656C9.62209 21.7532 9.62209 21.2467 9.93451 20.9343L14.3688 16.5L9.93451 12.0656C9.62209 11.7532 9.62209 11.2467 9.93451 10.9343Z" fill="#272A35"/>
</svg>
