<svg width="24" height="24" viewBox="0 0 24 24" fill="none" xmlns="http://www.w3.org/2000/svg">
<path fill-rule="evenodd" clip-rule="evenodd" d="M9.32939 20.8L12.38 20.8L9.32939 17.8611L9.32939 20.8ZM8.12939 17.3907C8.12939 16.5087 9.18806 16.0586 9.8232 16.6705L13.5697 20.2799C14.2178 20.9042 13.7758 22 12.8759 22L9.12939 22C8.57711 22 8.12939 21.5523 8.12939 21L8.12939 17.3907Z" fill="#272A35"/>
<path fill-rule="evenodd" clip-rule="evenodd" d="M20.4432 10.5449C20.6671 10.7892 20.6506 11.1688 20.4063 11.3927L12.148 18.9617C11.9037 19.1856 11.5242 19.1691 11.3003 18.9248C11.0764 18.6805 11.0929 18.301 11.3372 18.0771L19.5955 10.508C19.8398 10.2841 20.2193 10.3007 20.4432 10.5449Z" fill="#272A35"/>
<path fill-rule="evenodd" clip-rule="evenodd" d="M14.6716 3.19998L11.621 3.19998L14.6716 6.13894L14.6716 3.19998ZM15.8716 6.60933C15.8716 7.49128 14.8129 7.9414 14.1778 7.3295L10.4313 3.72014C9.78322 3.09577 10.2252 1.99998 11.1251 1.99998L14.8716 1.99998C15.4239 1.99998 15.8716 2.44769 15.8716 2.99998L15.8716 6.60933Z" fill="#272A35"/>
<path fill-rule="evenodd" clip-rule="evenodd" d="M3.55776 13.4551C3.33386 13.2108 3.35039 12.8312 3.59468 12.6073L11.853 5.03829C12.0973 4.81439 12.4768 4.83092 12.7007 5.07521C12.9246 5.31949 12.9081 5.69903 12.6638 5.92293L4.40548 13.492C4.16119 13.7159 3.78166 13.6993 3.55776 13.4551Z" fill="#272A35"/>
</svg>
