<svg width="32" height="32" viewBox="0 0 32 32" fill="none" xmlns="http://www.w3.org/2000/svg">
<path fill-rule="evenodd" clip-rule="evenodd" d="M14.1112 4.80001C12.9878 4.80001 12.1334 5.66621 12.1334 6.66668L12.1334 22.6504C12.1336 22.6608 12.1336 22.6711 12.1334 22.6814V25.3333C12.1334 26.3338 12.9878 27.2 14.1112 27.2H25.2223C26.3457 27.2 27.2001 26.3338 27.2001 25.3333V6.66668C27.2001 5.66621 26.3457 4.80001 25.2223 4.80001L14.1112 4.80001ZM10.5334 19.5506L10.5334 7.94358L7.26236 9.52943C6.27019 10.0104 5.91463 11.1481 6.40992 12.0491L10.5334 19.5506ZM10.5731 6.14622C10.8337 4.45689 12.3436 3.20001 14.1112 3.20001L25.2223 3.20001C27.1672 3.20001 28.8001 4.72163 28.8001 6.66668V25.3333C28.8001 27.2784 27.1672 28.8 25.2223 28.8H14.1112C12.3006 28.8 10.7603 27.4812 10.5563 25.7296L4.46018 20.7071C3.02263 19.5227 2.77683 17.4512 3.91993 15.9804L5.57474 13.8512L5.0078 12.8198C4.05292 11.0828 4.78296 8.95335 6.56437 8.0897L10.5731 6.14622ZM6.41423 15.3784L10.5334 22.872V23.6377L5.47758 19.4722C4.69836 18.8302 4.57943 17.7392 5.18324 16.9623L6.41423 15.3784ZM15.5001 7.20001C15.9419 7.20001 16.3001 7.55818 16.3001 8.00001V9.33335C16.3001 9.77517 15.9419 10.1333 15.5001 10.1333C15.0583 10.1333 14.7001 9.77517 14.7001 9.33335V8.00001C14.7001 7.55818 15.0583 7.20001 15.5001 7.20001ZM23.8334 7.20001C24.2753 7.20001 24.6334 7.55819 24.6334 8.00001V9.33335C24.6334 9.77517 24.2753 10.1333 23.8334 10.1333C23.3916 10.1333 23.0334 9.77517 23.0334 9.33335V8.00001C23.0334 7.55819 23.3916 7.20001 23.8334 7.20001ZM19.6668 12.8C17.7763 12.8 16.3001 14.2632 16.3001 16C16.3001 17.7369 17.7763 19.2 19.6668 19.2C21.5572 19.2 23.0334 17.7369 23.0334 16C23.0334 14.2632 21.5572 12.8 19.6668 12.8ZM14.7001 16C14.7001 13.3186 16.9548 11.2 19.6668 11.2C22.3787 11.2 24.6334 13.3186 24.6334 16C24.6334 18.6814 22.3787 20.8 19.6668 20.8C16.9548 20.8 14.7001 18.6814 14.7001 16ZM15.5001 21.8667C15.9419 21.8667 16.3001 22.2249 16.3001 22.6667V24C16.3001 24.4418 15.9419 24.8 15.5001 24.8C15.0583 24.8 14.7001 24.4418 14.7001 24V22.6667C14.7001 22.2249 15.0583 21.8667 15.5001 21.8667ZM23.8334 21.8667C24.2753 21.8667 24.6334 22.2249 24.6334 22.6667V24C24.6334 24.4418 24.2753 24.8 23.8334 24.8C23.3916 24.8 23.0334 24.4418 23.0334 24V22.6667C23.0334 22.2249 23.3916 21.8667 23.8334 21.8667Z" fill="#272A35"/>
</svg>
