<svg width="24" height="24" viewBox="0 0 24 24" fill="none" xmlns="http://www.w3.org/2000/svg">
<path d="M14.345 20.2114L14.1142 19.6575L14.345 20.2114ZM12.872 20.8254L12.6411 20.2716H12.6411L12.872 20.8254ZM11.128 20.8254L11.3589 20.2716H11.3589L11.128 20.8254ZM9.65497 20.2114L9.88583 19.6575L9.65497 20.2114ZM10.9649 3.25031L10.691 2.71647L10.9649 3.25031ZM9.54455 3.979L9.27067 3.44516V3.44516L9.54455 3.979ZM6.30887 5.15102L6.44028 5.73645L6.30887 5.15102ZM5.78987 5.26751L5.65847 4.68208H5.65847L5.78987 5.26751ZM18.2101 5.26751L18.3415 4.68208V4.68208L18.2101 5.26751ZM17.6911 5.15102L17.5597 5.73645L17.6911 5.15102ZM14.4554 3.979L14.1816 4.51285V4.51285L14.4554 3.979ZM13.0351 3.25031L13.309 2.71647V2.71647L13.0351 3.25031ZM19.4 7.52124V11.6749H20.6V7.52124H19.4ZM4.6 11.6749V7.52124H3.4V11.6749H4.6ZM14.1142 19.6575L12.6411 20.2716L13.1028 21.3792L14.5759 20.7652L14.1142 19.6575ZM11.3589 20.2716L9.88583 19.6575L9.42412 20.7652L10.8972 21.3792L11.3589 20.2716ZM10.691 2.71647L9.27067 3.44516L9.81844 4.51285L11.2388 3.78415L10.691 2.71647ZM6.17747 4.56558L5.65847 4.68208L5.92128 5.85294L6.44028 5.73645L6.17747 4.56558ZM18.3415 4.68208L17.8225 4.56558L17.5597 5.73645L18.0787 5.85294L18.3415 4.68208ZM14.7293 3.44516L13.309 2.71647L12.7612 3.78415L14.1816 4.51285L14.7293 3.44516ZM17.8225 4.56558C16.7491 4.32465 15.7099 3.94824 14.7293 3.44516L14.1816 4.51285C15.2522 5.06215 16.3872 5.47327 17.5597 5.73645L17.8225 4.56558ZM9.27067 3.44516C8.29009 3.94824 7.25086 4.32465 6.17747 4.56558L6.44028 5.73645C7.6128 5.47327 8.74776 5.06215 9.81844 4.51285L9.27067 3.44516ZM12.6411 20.2716C12.2304 20.4428 11.7696 20.4428 11.3589 20.2716L10.8972 21.3792C11.6034 21.6736 12.3966 21.6736 13.1028 21.3792L12.6411 20.2716ZM11.2388 3.78415C11.7174 3.53862 12.2826 3.53862 12.7612 3.78415L13.309 2.71647C12.4865 2.29451 11.5135 2.29451 10.691 2.71647L11.2388 3.78415ZM3.4 11.6749C3.4 15.6539 5.77579 19.2444 9.42412 20.7652L9.88583 19.6575C6.68963 18.3252 4.6 15.175 4.6 11.6749H3.4ZM19.4 11.6749C19.4 15.175 17.3104 18.3252 14.1142 19.6575L14.5759 20.7652C18.2242 19.2444 20.6 15.6539 20.6 11.6749H19.4ZM20.6 7.52124C20.6 6.16233 19.6651 4.97915 18.3415 4.68208L18.0787 5.85294C18.8468 6.02534 19.4 6.71597 19.4 7.52124H20.6ZM4.6 7.52124C4.6 6.71597 5.15321 6.02534 5.92128 5.85294L5.65847 4.68208C4.33494 4.97915 3.4 6.16233 3.4 7.52124H4.6Z" fill="#272A35"/>
<path fill-rule="evenodd" clip-rule="evenodd" d="M12.7611 3.78418C12.2825 3.53864 11.7173 3.53864 11.2387 3.78418L9.81834 4.51287C8.74766 5.06218 7.6127 5.47329 6.44018 5.73647L5.92118 5.85297C5.15311 6.02537 4.5999 6.716 4.5999 7.52126V11.675C4.5999 15.175 6.68953 18.3252 9.88573 19.6576L11.3588 20.2716C11.7695 20.4428 12.2303 20.4428 12.641 20.2716L14.1141 19.6576C17.3103 18.3252 19.3999 15.175 19.3999 11.675V7.52126C19.3999 6.716 18.8467 6.02537 18.0786 5.85297L17.5596 5.73647C16.3871 5.47329 15.2521 5.06218 14.1815 4.51287L12.7611 3.78418ZM10.6909 2.7165C11.5134 2.29453 12.4864 2.29453 13.3089 2.71649L14.7292 3.44519C15.7098 3.94827 16.749 4.32467 17.8224 4.56561L18.3414 4.6821C19.665 4.97918 20.5999 6.16235 20.5999 7.52126V11.675C20.5999 15.6539 18.2241 19.2444 14.5758 20.7652L13.1027 21.3792C12.3965 21.6736 11.6033 21.6736 10.8971 21.3792L9.42402 20.7652C5.77569 19.2444 3.3999 15.6539 3.3999 11.675V7.52126C3.3999 6.16236 4.33484 4.97918 5.65837 4.6821L6.17737 4.56561C7.25076 4.32468 8.28999 3.94827 9.27057 3.44519L10.6909 2.7165Z" fill="#272A35"/>
</svg>
