<svg width="24" height="24" viewBox="0 0 24 24" fill="none" xmlns="http://www.w3.org/2000/svg">
<path fill-rule="evenodd" clip-rule="evenodd" d="M11.9999 2.40002C12.3313 2.40002 12.5999 2.66865 12.5999 3.00002V4.42336C16.3188 4.71381 19.2861 7.6811 19.5766 11.4L20.9999 11.4C21.3313 11.4 21.5999 11.6687 21.5999 12C21.5999 12.3314 21.3313 12.6 20.9999 12.6L19.5766 12.6C19.2861 16.3189 16.3188 19.2862 12.5999 19.5767V21C12.5999 21.3314 12.3313 21.6 11.9999 21.6C11.6685 21.6 11.3999 21.3314 11.3999 21V19.5767C7.68098 19.2862 4.71368 16.3189 4.42324 12.6H2.9999C2.66853 12.6 2.3999 12.3314 2.3999 12C2.3999 11.6687 2.66853 11.4 2.9999 11.4H4.42324C4.71368 7.6811 7.68098 4.71381 11.3999 4.42336V3.00002C11.3999 2.66865 11.6685 2.40002 11.9999 2.40002ZM11.9999 5.60002C8.46528 5.60002 5.5999 8.4654 5.5999 12C5.5999 15.5346 8.46528 18.4 11.9999 18.4C15.5345 18.4 18.3999 15.5346 18.3999 12C18.3999 8.4654 15.5345 5.60002 11.9999 5.60002ZM11.9999 9.60002C10.6744 9.60002 9.5999 10.6745 9.5999 12C9.5999 13.3255 10.6744 14.4 11.9999 14.4C13.3254 14.4 14.3999 13.3255 14.3999 12C14.3999 10.6745 13.3254 9.60002 11.9999 9.60002ZM8.3999 12C8.3999 10.0118 10.0117 8.40002 11.9999 8.40002C13.9881 8.40002 15.5999 10.0118 15.5999 12C15.5999 13.9882 13.9881 15.6 11.9999 15.6C10.0117 15.6 8.3999 13.9882 8.3999 12Z" fill="#272A35"/>
</svg>
