<svg width="32" height="32" viewBox="0 0 32 32" fill="none" xmlns="http://www.w3.org/2000/svg">
<path fill-rule="evenodd" clip-rule="evenodd" d="M17.511 5.42587C16.6765 4.59131 15.3234 4.59131 14.4889 5.42587L5.42587 14.4889C4.59131 15.3234 4.59131 16.6765 5.42587 17.511L14.4889 26.574C15.3234 27.4086 16.6765 27.4086 17.511 26.574L26.574 17.511C27.4086 16.6765 27.4086 15.3234 26.574 14.4889L17.511 5.42587ZM13.3575 4.2945C14.8169 2.8351 17.183 2.8351 18.6424 4.2945L27.7054 13.3575C29.1648 14.8169 29.1648 17.183 27.7054 18.6424L18.6424 27.7054C17.183 29.1648 14.8169 29.1648 13.3575 27.7054L4.29449 18.6424C2.8351 17.183 2.8351 14.8169 4.2945 13.3575L13.3575 4.2945ZM17.8818 11.763C18.1942 11.4506 18.7007 11.4506 19.0131 11.763L21.4013 14.1511C22.2872 15.037 22.2872 16.4734 21.4013 17.3593L19.0131 19.7474C18.7007 20.0598 18.1942 20.0598 17.8818 19.7474C17.5694 19.435 17.5694 18.9284 17.8818 18.616L19.9426 16.5552H12.3944V18.9369C12.3944 19.3788 12.0363 19.7369 11.5944 19.7369C11.1526 19.7369 10.7944 19.3788 10.7944 18.9369V15.7552C10.7944 15.3133 11.1526 14.9552 11.5944 14.9552H19.9426L17.8818 12.8944C17.5694 12.582 17.5694 12.0754 17.8818 11.763Z" fill="#272A35"/>
</svg>
