<svg width="24" height="24" viewBox="0 0 24 24" fill="none" xmlns="http://www.w3.org/2000/svg">
<path fill-rule="evenodd" clip-rule="evenodd" d="M10.6666 3.60002C10.2408 3.60002 9.93324 3.92741 9.93324 4.28574V16.5429H14.0666V4.28574C14.0666 3.92741 13.759 3.60002 13.3332 3.60002H10.6666ZM15.2666 10.2554V4.28574C15.2666 3.22391 14.3802 2.40002 13.3332 2.40002H10.6666C9.61957 2.40002 8.73324 3.22391 8.73324 4.28574V7.68398C8.50575 7.59283 8.2577 7.54288 7.9999 7.54288H5.33324C4.28624 7.54288 3.3999 8.36676 3.3999 9.4286V15.8572C3.3999 16.919 4.28624 17.7429 5.33324 17.7429H18.6666C19.7136 17.7429 20.5999 16.919 20.5999 15.8572V12C20.5999 10.9382 19.7136 10.1143 18.6666 10.1143H15.9999C15.7421 10.1143 15.4941 10.1643 15.2666 10.2554ZM15.2666 12V16.5429H18.6666C19.0923 16.5429 19.3999 16.2155 19.3999 15.8572V12C19.3999 11.6417 19.0923 11.3143 18.6666 11.3143H15.9999C15.5741 11.3143 15.2666 11.6417 15.2666 12ZM8.73324 9.4286C8.73324 9.07027 8.42566 8.74288 7.9999 8.74288H5.33324C4.90747 8.74288 4.5999 9.07027 4.5999 9.4286V15.8572C4.5999 16.2155 4.90747 16.5429 5.33324 16.5429H8.73324V9.4286ZM19.9999 21.6L3.9999 21.6C3.66853 21.6 3.3999 21.3314 3.3999 21C3.3999 20.6687 3.66853 20.4 3.9999 20.4L19.9999 20.4C20.3313 20.4 20.5999 20.6687 20.5999 21C20.5999 21.3314 20.3313 21.6 19.9999 21.6Z" fill="#272A35"/>
</svg>
