<svg width="32" height="32" viewBox="0 0 32 32" fill="none" xmlns="http://www.w3.org/2000/svg">
<path fill-rule="evenodd" clip-rule="evenodd" d="M2.19995 4.99995C2.19995 4.55812 2.55812 4.19995 2.99995 4.19995H28C28.4418 4.19995 28.7999 4.55812 28.7999 4.99995C28.7999 5.44178 28.4418 5.79995 28 5.79995H2.99995C2.55812 5.79995 2.19995 5.44178 2.19995 4.99995ZM2.19995 13.9519C2.19995 13.5101 2.55812 13.1519 2.99995 13.1519H23.524C26.4378 13.1519 28.7999 15.514 28.7999 18.4279C28.7999 21.3417 26.4378 23.7039 23.524 23.7039H20.1875C19.7456 23.7039 19.3875 23.3457 19.3875 22.9039C19.3875 22.462 19.7456 22.1039 20.1875 22.1039H23.524C25.5542 22.1039 27.2 20.4581 27.2 18.4279C27.2 16.3977 25.5542 14.7519 23.524 14.7519H2.99995C2.55812 14.7519 2.19995 14.3937 2.19995 13.9519ZM2.9812 22.9039C2.9812 22.462 3.33937 22.1039 3.7812 22.1039H12.375C12.8168 22.1039 13.175 22.462 13.175 22.9039C13.175 23.3457 12.8168 23.7039 12.375 23.7039H3.7812C3.33937 23.7039 2.9812 23.3457 2.9812 22.9039Z" fill="#272A35"/>
<path fill-rule="evenodd" clip-rule="evenodd" d="M16.7378 22.7398L18.9965 20.4523L18.9573 25.0662L16.7378 22.7398ZM17.9998 26.3794C18.9224 27.3464 20.5197 26.6808 20.5312 25.3246L20.5744 20.2207C20.5859 18.8647 19.0005 18.172 18.0616 19.1229L15.563 21.6533C14.981 22.2428 14.9727 23.2066 15.5446 23.8059L17.9998 26.3794Z" fill="#272A35"/>
</svg>
