<svg width="16" height="16" viewBox="0 0 16 16" fill="none" xmlns="http://www.w3.org/2000/svg">
<path fill-rule="evenodd" clip-rule="evenodd" d="M12.6667 6.16667C12.9428 6.16667 13.1667 6.39052 13.1667 6.66667V7.5H14C14.2761 7.5 14.5 7.72386 14.5 8C14.5 8.27614 14.2761 8.5 14 8.5H13.1667V9.33333C13.1667 9.60947 12.9428 9.83333 12.6667 9.83333C12.3905 9.83333 12.1667 9.60947 12.1667 9.33333V8.5H11.3333C11.0572 8.5 10.8333 8.27614 10.8333 8C10.8333 7.72386 11.0572 7.5 11.3333 7.5H12.1667V6.66667C12.1667 6.39052 12.3905 6.16667 12.6667 6.16667Z" fill="#272A35"/>
<path fill-rule="evenodd" clip-rule="evenodd" d="M6.66668 2.5C5.42209 2.5 4.44446 3.46838 4.44446 4.625C4.44446 5.78162 5.42209 6.75 6.66668 6.75C7.91127 6.75 8.8889 5.78162 8.8889 4.625C8.8889 3.46838 7.91127 2.5 6.66668 2.5ZM3.44446 4.625C3.44446 2.88213 4.90439 1.5 6.66668 1.5C8.42897 1.5 9.8889 2.88213 9.8889 4.625C9.8889 6.36787 8.42897 7.75 6.66668 7.75C4.90439 7.75 3.44446 6.36787 3.44446 4.625ZM8.44412 9.97894C7.26658 9.7848 6.06675 9.7848 4.88922 9.97894L4.7507 10.0018C3.46588 10.2136 2.5 11.3652 2.5 12.741C2.5 13.1756 2.83699 13.5 3.21875 13.5H10.1146C10.4963 13.5 10.8333 13.1756 10.8333 12.741C10.8333 11.3652 9.86746 10.2136 8.58264 10.0018L8.44412 9.97894ZM8.60679 8.99226L8.74531 9.01509C10.5361 9.31034 11.8333 10.8993 11.8333 12.741C11.8333 13.697 11.079 14.5 10.1146 14.5H3.21875C2.25432 14.5 1.5 13.697 1.5 12.741C1.5 10.8993 2.79722 9.31034 4.58802 9.01509L4.72654 8.99226C6.0118 8.78036 7.32153 8.78036 8.60679 8.99226Z" fill="#272A35"/>
</svg>
