<svg width="16" height="16" viewBox="0 0 16 16" fill="none" xmlns="http://www.w3.org/2000/svg">
<path fill-rule="evenodd" clip-rule="evenodd" d="M6.70658 1.92789C7.47918 1.35737 8.52082 1.35737 9.29342 1.92789L13.5791 5.0926C14.1606 5.52196 14.5 6.21004 14.5 6.93695V12.2278C14.5 13.4669 13.5242 14.5 12.2857 14.5H10.5714C9.80636 14.5 9.21429 13.8636 9.21429 13.1139V10.4555C9.21429 10.2265 9.03885 10.0694 8.85714 10.0694H7.14286C6.96115 10.0694 6.78571 10.2265 6.78571 10.4555V13.1139C6.78571 13.8636 6.19364 14.5 5.42857 14.5H3.71429C2.47583 14.5 1.5 13.4669 1.5 12.2278V6.93695C1.5 6.21004 1.83942 5.52196 2.42086 5.0926L6.70658 1.92789ZM8.69939 2.73233C8.27989 2.42256 7.72011 2.42256 7.30061 2.73233L3.01489 5.89704C2.69532 6.13302 2.5 6.51917 2.5 6.93695V12.2278C2.5 12.9462 3.05919 13.5 3.71429 13.5H5.42857C5.61028 13.5 5.78571 13.3429 5.78571 13.1139V10.4555C5.78571 9.70579 6.37779 9.0694 7.14286 9.0694H8.85714C9.62221 9.0694 10.2143 9.70579 10.2143 10.4555V13.1139C10.2143 13.3429 10.3897 13.5 10.5714 13.5H12.2857C12.9408 13.5 13.5 12.9462 13.5 12.2278V6.93695C13.5 6.51917 13.3047 6.13302 12.9851 5.89704L8.69939 2.73233Z" fill="#272A35"/>
</svg>
