<svg width="24" height="24" viewBox="0 0 24 24" fill="none" xmlns="http://www.w3.org/2000/svg">
<path fill-rule="evenodd" clip-rule="evenodd" d="M7.82498 3.21801C7.49222 2.94841 6.9749 3.176 6.9749 3.64147V5.22824H10.3062L7.82498 3.21801ZM11.3999 6.42824H4.1249C3.84208 6.42824 3.5999 6.66253 3.5999 6.96756V8.10687C3.5999 8.4119 3.84208 8.64619 4.1249 8.64619H11.3999V6.42824ZM11.3999 9.84619H4.7249V17.2214C4.7249 18.1556 5.47076 18.9 6.3749 18.9H11.3999V9.84619ZM12.5999 18.9V9.84619H19.2749V17.2214C19.2749 18.1556 18.529 18.9 17.6249 18.9H12.5999ZM6.3749 20.1C4.79376 20.1 3.5249 18.804 3.5249 17.2214V9.73834C2.86504 9.49173 2.3999 8.85022 2.3999 8.10687V6.96756C2.3999 6.01413 3.16508 5.22824 4.1249 5.22824H5.7749V3.64147C5.7749 2.1963 7.43993 1.36164 8.58039 2.28562L11.4101 4.57819C11.4621 4.29972 11.7064 4.08893 11.9999 4.08893C12.2934 4.08893 12.5377 4.29972 12.5897 4.57819L15.4194 2.28562C16.5599 1.36164 18.2249 2.1963 18.2249 3.64147V5.22824H19.8749C20.8347 5.22824 21.5999 6.01413 21.5999 6.96756V8.10687C21.5999 8.85022 21.1348 9.49173 20.4749 9.73834V17.2214C20.4749 18.804 19.206 20.1 17.6249 20.1H6.3749ZM19.8749 6.42824C20.1577 6.42824 20.3999 6.66253 20.3999 6.96756V8.10687C20.3999 8.4119 20.1577 8.64619 19.8749 8.64619H12.5999V6.42824H19.8749ZM17.0249 5.22824V3.64147C17.0249 3.176 16.5076 2.94841 16.1748 3.21801L13.6936 5.22824H17.0249Z" fill="#272A35"/>
</svg>
