<svg width="24" height="24" viewBox="0 0 24 24" fill="none" xmlns="http://www.w3.org/2000/svg">
<path fill-rule="evenodd" clip-rule="evenodd" d="M8.14276 3.60002C7.81139 3.60002 7.54276 3.3314 7.54276 3.00002C7.54276 2.66865 7.81139 2.40002 8.14276 2.40002H11.9999C12.3313 2.40002 12.5999 2.66865 12.5999 3.00002V6.85717C12.5999 7.18854 12.3313 7.45717 11.9999 7.45717C11.6685 7.45717 11.3999 7.18854 11.3999 6.85717V4.44855L6.28849 9.55997C5.98843 9.86002 5.58146 10.0286 5.15712 10.0286H2.9999C2.66853 10.0286 2.3999 9.75997 2.3999 9.4286C2.3999 9.09722 2.66853 8.8286 2.9999 8.8286H5.15712C5.2632 8.8286 5.36495 8.78645 5.43996 8.71144L10.5514 3.60002H8.14276ZM17.1428 4.88574C16.764 4.88574 16.457 5.19274 16.457 5.57145V20.4H19.7142C20.0929 20.4 20.3999 20.093 20.3999 19.7143V5.57145C20.3999 5.19274 20.0929 4.88574 19.7142 4.88574H17.1428ZM15.257 20.4V12C15.257 11.6213 14.95 11.3143 14.5713 11.3143H11.9999C11.6212 11.3143 11.3142 11.6213 11.3142 12V20.4H15.257ZM10.1142 20.4V15.8572C10.1142 15.4785 9.80718 15.1715 9.42847 15.1715H6.85705C6.47834 15.1715 6.17133 15.4785 6.17133 15.8572V19.7143C6.17133 20.093 6.47834 20.4 6.85705 20.4H10.1142ZM10.1142 14.1C9.90166 14.017 9.67039 13.9715 9.42847 13.9715H6.85705C5.81559 13.9715 4.97133 14.8157 4.97133 15.8572V19.7143C4.97133 20.7558 5.81559 21.6 6.85705 21.6H19.7142C20.7556 21.6 21.5999 20.7558 21.5999 19.7143V5.57145C21.5999 4.53 20.7556 3.68574 19.7142 3.68574H17.1428C16.1013 3.68574 15.257 4.53 15.257 5.57145V10.2429C15.0445 10.1599 14.8132 10.1143 14.5713 10.1143H11.9999C10.9585 10.1143 10.1142 10.9586 10.1142 12V14.1Z" fill="#272A35"/>
</svg>
