<svg width="32" height="32" viewBox="0 0 32 32" fill="none" xmlns="http://www.w3.org/2000/svg">
<path fill-rule="evenodd" clip-rule="evenodd" d="M23.1212 24.2525L7.74748 8.87885C6.09648 10.79 5.1 13.2774 5.1 16C5.1 22.0199 9.9801 26.9 16 26.9C18.7226 26.9 21.21 25.9035 23.1212 24.2525ZM24.2525 23.1212L8.87885 7.74748C10.79 6.09648 13.2774 5.1 16 5.1C22.0199 5.1 26.9 9.9801 26.9 16C26.9 18.7226 25.9035 21.21 24.2525 23.1212ZM25.3865 24.2551C27.3245 22.0532 28.5 19.1639 28.5 16C28.5 9.09644 22.9036 3.5 16 3.5C12.8361 3.5 9.94677 4.67546 7.74486 6.61349C7.5445 6.78984 7.34983 6.9725 7.16117 7.16117C6.9725 7.34983 6.78984 7.5445 6.61349 7.74486C4.67546 9.94677 3.5 12.8361 3.5 16C3.5 22.9036 9.09644 28.5 16 28.5C19.1639 28.5 22.0532 27.3245 24.2551 25.3865C24.4555 25.2102 24.6502 25.0275 24.8388 24.8388C25.0275 24.6502 25.2102 24.4555 25.3865 24.2551Z" fill="#272A35"/>
</svg>
