<svg width="16" height="16" viewBox="0 0 16 16" fill="none" xmlns="http://www.w3.org/2000/svg">
<path fill-rule="evenodd" clip-rule="evenodd" d="M7.25 1.5C7.52614 1.5 7.75 1.72386 7.75 2V3H8.75C9.02614 3 9.25 3.22386 9.25 3.5C9.25 3.77614 9.02614 4 8.75 4H7.75V5C7.75 5.27614 7.52614 5.5 7.25 5.5C6.97386 5.5 6.75 5.27614 6.75 5V4H5.75C5.47386 4 5.25 3.77614 5.25 3.5C5.25 3.22386 5.47386 3 5.75 3H6.75V2C6.75 1.72386 6.97386 1.5 7.25 1.5ZM3.5 4.75C2.94772 4.75 2.5 5.19772 2.5 5.75V6H12V5.75C12 5.19772 11.5523 4.75 11 4.75H10.25C9.97386 4.75 9.75 4.52614 9.75 4.25C9.75 3.97386 9.97386 3.75 10.25 3.75H11C12.1046 3.75 13 4.64543 13 5.75V6.06301C13.8626 6.28503 14.5 7.06808 14.5 8V12.5C14.5 13.6046 13.6046 14.5 12.5 14.5H3.5C2.39543 14.5 1.5 13.6046 1.5 12.5V5.75C1.5 4.64543 2.39543 3.75 3.5 3.75H4.25C4.52614 3.75 4.75 3.97386 4.75 4.25C4.75 4.52614 4.52614 4.75 4.25 4.75H3.5ZM13.5 11.25V9.25H12.5C11.9477 9.25 11.5 9.69772 11.5 10.25C11.5 10.8023 11.9477 11.25 12.5 11.25H13.5ZM13.5 8.25H12.5C11.3954 8.25 10.5 9.14543 10.5 10.25C10.5 11.3546 11.3954 12.25 12.5 12.25H13.5V12.5C13.5 13.0523 13.0523 13.5 12.5 13.5H3.5C2.94772 13.5 2.5 13.0523 2.5 12.5V7H12.5C13.0523 7 13.5 7.44772 13.5 8V8.25Z" fill="#272A35"/>
</svg>
