<svg width="40" height="40" viewBox="0 0 40 40" fill="none" xmlns="http://www.w3.org/2000/svg">
<path fill-rule="evenodd" clip-rule="evenodd" d="M32.3546 6.98018L28.7625 10.5022L35.9468 10.5022L32.3546 6.98018ZM28.7625 12.4823C26.9632 12.4823 26.0621 10.3494 27.3344 9.10197L30.9265 5.57998C31.7152 4.80667 32.994 4.80667 33.7827 5.57998L37.3749 9.10197C38.6472 10.3494 37.7461 12.4823 35.9468 12.4823H33.2458V26.7383C33.2458 30.5371 29.9972 33.5175 26.1158 33.5175C22.2343 33.5175 18.9857 30.5371 18.9857 26.7383V13.2537C18.9857 10.6689 16.7453 8.47453 13.8557 8.47453C10.9661 8.47453 8.72561 10.6689 8.72561 13.2537V27.508H11.208C13.0073 27.508 13.9084 29.6409 12.6361 30.8884L9.04393 34.4103C8.25521 35.1836 6.97646 35.1836 6.18774 34.4103L2.59558 30.8883C1.32329 29.6409 2.22438 27.508 4.02368 27.508H6.72561V13.2537C6.72561 9.45494 9.97419 6.47453 13.8557 6.47453C17.7371 6.47453 20.9857 9.45494 20.9857 13.2537V26.7383C20.9857 29.3231 23.2262 31.5175 26.1158 31.5175C29.0054 31.5175 31.2458 29.3231 31.2458 26.7383V12.4823H28.7625ZM11.208 29.4882L7.61584 33.0101L4.02368 29.4882H11.208Z" fill="#272A35"/>
</svg>
