<svg width="32" height="32" viewBox="0 0 32 32" fill="none" xmlns="http://www.w3.org/2000/svg">
<path fill-rule="evenodd" clip-rule="evenodd" d="M3.19995 5.84617C3.19995 4.54797 4.08248 3.20001 5.49995 3.20001H26.5C27.9174 3.20001 28.7999 4.54797 28.7999 5.84617V11.3846C28.7999 12.6828 27.9174 14.0308 26.5 14.0308H25.7999V24.3077C25.7999 26.6255 24.2458 28.8 21.9999 28.8H9.99995C7.75405 28.8 6.19995 26.6255 6.19995 24.3077L6.19995 14.0308H5.49995C4.08248 14.0308 3.19995 12.6828 3.19995 11.3846V5.84617ZM7.79995 13.2308L7.79995 24.3077C7.79995 26.0683 8.93214 27.2 9.99995 27.2H19.6999L19.7 8.49232H12.3L12.3 11.3846C12.3 11.8265 11.9418 12.1846 11.5 12.1846C11.0581 12.1846 10.7 11.8265 10.7 11.3846L10.7 8.49232H8.49995C8.26057 8.49232 7.79995 8.79747 7.79995 9.53847V13.2308ZM8.49995 6.89232C7.08248 6.89232 6.19995 8.24027 6.19995 9.53847V12.4308H5.49995C5.26057 12.4308 4.79995 12.1256 4.79995 11.3846V5.84617C4.79995 5.10516 5.26057 4.80001 5.49995 4.80001H26.5C26.7393 4.80001 27.2 5.10516 27.2 5.84617V11.3846C27.2 12.1256 26.7393 12.4308 26.5 12.4308H25.7999V9.53847C25.7999 8.24027 24.9174 6.89232 23.5 6.89232L8.49995 6.89232ZM21.2999 8.49232V27.2H21.9999C23.0678 27.2 24.2 26.0683 24.2 24.3077V9.53847C24.2 8.79747 23.7393 8.49232 23.5 8.49232H21.2999ZM11.5 16.1231C11.9418 16.1231 12.3 16.4813 12.3 16.9231V18.7692C12.3 19.2111 11.9418 19.5692 11.5 19.5692C11.0581 19.5692 10.7 19.2111 10.7 18.7692V16.9231C10.7 16.4813 11.0581 16.1231 11.5 16.1231Z" fill="#272A35"/>
</svg>
