<svg width="24" height="24" viewBox="0 0 24 24" fill="none" xmlns="http://www.w3.org/2000/svg">
<path fill-rule="evenodd" clip-rule="evenodd" d="M5.3999 8.78574C5.3999 5.23863 8.37558 2.40002 11.9999 2.40002C15.6242 2.40002 18.5999 5.23863 18.5999 8.78574V17.1429C18.5999 19.6249 16.5197 21.6 13.9999 21.6C11.4801 21.6 9.3999 19.6249 9.3999 17.1429V8.78574C9.3999 7.36887 10.5847 6.25717 11.9999 6.25717C13.4151 6.25717 14.5999 7.36887 14.5999 8.78574V15.8572C14.5999 16.1885 14.3313 16.4572 13.9999 16.4572C13.6685 16.4572 13.3999 16.1885 13.3999 15.8572V8.78574C13.3999 8.07237 12.7939 7.45717 11.9999 7.45717C11.2059 7.45717 10.5999 8.07237 10.5999 8.78574V17.1429C10.5999 18.9214 12.1014 20.4 13.9999 20.4C15.8984 20.4 17.3999 18.9214 17.3999 17.1429V8.78574C17.3999 5.94213 15.003 3.60002 11.9999 3.60002C8.99681 3.60002 6.5999 5.94213 6.5999 8.78574V15.8572C6.5999 16.1885 6.33127 16.4572 5.9999 16.4572C5.66853 16.4572 5.3999 16.1885 5.3999 15.8572V8.78574Z" fill="#272A35"/>
</svg>
