<svg width="32" height="32" viewBox="0 0 32 32" fill="none" xmlns="http://www.w3.org/2000/svg">
<path fill-rule="evenodd" clip-rule="evenodd" d="M16 1.70001C16.4418 1.70001 16.8 2.05818 16.8 2.50001V3.11996C17.546 3.17679 18.2864 3.32218 19.0029 3.55697C22.0216 4.546 24.3338 6.99199 25.1444 10.0571L24.371 10.2616L25.1444 10.0571L25.2318 10.3875C25.7367 12.2967 25.8282 14.2909 25.5006 16.2377C26.5811 16.9329 27.2999 18.1459 27.2999 19.5283C27.2999 21.3917 25.9833 22.9942 24.1558 23.3636L23.6412 23.4676C22.7306 23.6516 21.815 23.8024 20.8962 23.92C20.8786 24.0099 20.8587 24.0995 20.8367 24.1886L20.7219 24.6516C20.2901 26.3939 18.9187 27.7481 17.1701 28.1631C16.4007 28.3457 15.5992 28.3457 14.8298 28.1631C13.0812 27.7481 11.7098 26.3939 11.278 24.6516L11.1632 24.1886C11.1412 24.0995 11.1213 24.0099 11.1037 23.92C10.1849 23.8024 9.2693 23.6516 8.35873 23.4676L7.8441 23.3636C6.01656 22.9942 4.69995 21.3917 4.69995 19.5283C4.69995 18.1458 5.41885 16.9328 6.49957 16.2376C6.17592 14.2738 6.27971 12.2631 6.80437 10.3421L6.86713 10.1123C7.71554 7.00591 10.1117 4.53274 13.1768 3.54707C13.8357 3.33517 14.5148 3.19706 15.2 3.13339V2.50001C15.2 2.05818 15.5581 1.70001 16 1.70001ZM15.9463 4.69372C15.1756 4.70672 14.4059 4.83251 13.6666 5.07025C11.1082 5.89296 9.1143 7.95727 8.4106 10.5338L8.34784 10.7636C7.8757 12.4923 7.78895 14.3031 8.09368 16.0687L8.12519 16.2513C8.21534 16.7737 7.94382 17.2625 7.51587 17.4941C6.78902 17.8875 6.29995 18.6522 6.29995 19.5283C6.29995 20.6267 7.07647 21.5761 8.16106 21.7953L8.67569 21.8993C9.8841 22.1435 11.1017 22.3267 12.324 22.4488C14.9094 22.7071 17.5155 22.6922 20.0985 22.4041C21.1788 22.2836 22.2551 22.1153 23.3242 21.8993L23.8388 21.7953C24.9234 21.5761 25.6999 20.6267 25.6999 19.5283C25.6999 18.661 25.2207 17.9029 24.5059 17.5061C24.0678 17.2629 23.7873 16.7579 23.8808 16.2163L23.9142 16.0227C24.2142 14.2844 24.136 12.5021 23.6849 10.7966L23.5976 10.4661C22.9261 7.92703 21.0098 5.89819 18.5048 5.07744C17.7171 4.81936 16.893 4.69142 16.0684 4.6926C16.0458 4.69451 16.023 4.69548 16 4.69548C15.9819 4.69548 15.9641 4.69489 15.9463 4.69372ZM12.7892 24.0981L12.831 24.2667C13.1182 25.4255 14.0313 26.3291 15.1992 26.6063C15.7257 26.7312 16.2742 26.7312 16.8007 26.6063C17.9686 26.3291 18.8817 25.4255 19.1689 24.2667L19.2107 24.0981C17.0739 24.2766 14.926 24.2766 12.7892 24.0981Z" fill="#272A35"/>
</svg>
