<svg width="40" height="40" viewBox="0 0 40 40" fill="none" xmlns="http://www.w3.org/2000/svg">
<path fill-rule="evenodd" clip-rule="evenodd" d="M24.2908 29.7682L24.2908 34.5001L19.4535 34.5001L24.2908 29.7682ZM26.2908 29.7682C26.2908 27.9969 24.1584 27.0999 22.8922 28.3385L18.055 33.0704C16.7736 34.3238 17.6611 36.5001 19.4535 36.5001L24.2908 36.5001C25.3953 36.5001 26.2908 35.6046 26.2908 34.5001L26.2908 29.7682Z" fill="#272A35"/>
<path fill-rule="evenodd" clip-rule="evenodd" d="M6.26793 17.5868C5.89168 17.9911 5.91441 18.6238 6.3187 19.0001L19.7384 31.489C20.1427 31.8652 20.7755 31.8425 21.1517 31.4382C21.528 31.0339 21.5052 30.4011 21.1009 30.0249L7.68123 17.536C7.27693 17.1598 6.64418 17.1825 6.26793 17.5868Z" fill="#272A35"/>
<path fill-rule="evenodd" clip-rule="evenodd" d="M15.7087 10.2319L15.7087 5.49996L20.546 5.49996L15.7087 10.2319ZM13.7087 10.2319C13.7087 12.0031 15.8412 12.9001 17.1073 11.6616L21.9445 6.92966C23.2259 5.67624 22.3384 3.49996 20.546 3.49996L15.7087 3.49996C14.6042 3.49996 13.7087 4.39539 13.7087 5.49996L13.7087 10.2319Z" fill="#272A35"/>
<path fill-rule="evenodd" clip-rule="evenodd" d="M33.7318 22.4132C34.1081 22.0089 34.0853 21.3762 33.6811 20.9999L20.2613 8.51104C19.857 8.13479 19.2243 8.15752 18.848 8.56182C18.4718 8.96611 18.4945 9.59887 18.8988 9.97512L32.3185 22.464C32.7228 22.8402 33.3556 22.8175 33.7318 22.4132Z" fill="#272A35"/>
</svg>
