<svg width="40" height="40" viewBox="0 0 40 40" fill="none" xmlns="http://www.w3.org/2000/svg">
<path fill-rule="evenodd" clip-rule="evenodd" d="M19.8641 6C16.7925 6 14.0656 7.96545 13.0943 10.8794L12.9487 11.3162C12.774 11.8402 12.2077 12.1233 11.6838 11.9487C11.1598 11.774 10.8767 11.2077 11.0513 10.6838L11.1969 10.2469C12.4405 6.51631 15.9317 4 19.8641 4C24.9097 4 29 8.0903 29 13.1359V16.1C31.2822 16.5633 33 18.581 33 21V31C33 33.7614 30.7614 36 28 36H12C9.23858 36 7 33.7614 7 31V21C7 18.2386 9.23858 16 12 16H27V13.1359C27 9.19487 23.8051 6 19.8641 6ZM12 18C10.3431 18 9 19.3431 9 21V31C9 32.6569 10.3431 34 12 34H28C29.6569 34 31 32.6569 31 31V21C31 19.3431 29.6569 18 28 18H12ZM17 25C17 24.4477 17.4477 24 18 24H22C22.5523 24 23 24.4477 23 25C23 25.5523 22.5523 26 22 26H21V29C21 29.5523 20.5523 30 20 30C19.4477 30 19 29.5523 19 29V26H18C17.4477 26 17 25.5523 17 25Z" fill="#272A35"/>
</svg>
