<svg width="40" height="40" viewBox="0 0 40 40" fill="none" xmlns="http://www.w3.org/2000/svg">
<path fill-rule="evenodd" clip-rule="evenodd" d="M4 30C4 33.3137 6.68629 36 10 36H30C33.3137 36 36 33.3137 36 30V10C36 6.68629 33.3137 4 30 4H10C6.68629 4 4 6.68629 4 10V30ZM10 34C7.79086 34 6 32.2091 6 30V10C6 7.79086 7.79086 6 10 6H30C32.2091 6 34 7.79086 34 10V30C34 32.2091 32.2091 34 30 34H10ZM11 28.5C11.5523 28.5 12 28.0523 12 27.5V10.625C12 10.0727 11.5523 9.625 11 9.625C10.4477 9.625 10 10.0727 10 10.625V27.5C10 28.0523 10.4477 28.5 11 28.5ZM29 28.5C29.5523 28.5 30 28.0523 30 27.5V10.625C30 10.0727 29.5523 9.625 29 9.625C28.4477 9.625 28 10.0727 28 10.625V27.5C28 28.0523 28.4477 28.5 29 28.5ZM17 24.75C17.5523 24.75 18 24.3023 18 23.75V10.625C18 10.0727 17.5523 9.625 17 9.625C16.4477 9.625 16 10.0727 16 10.625V23.75C16 24.3023 16.4477 24.75 17 24.75ZM23 17.25C23.5523 17.25 24 16.8023 24 16.25V10.625C24 10.0727 23.5523 9.625 23 9.625C22.4477 9.625 22 10.0727 22 10.625V16.25C22 16.8023 22.4477 17.25 23 17.25Z" fill="#272A35"/>
</svg>
