<svg width="40" height="40" viewBox="0 0 40 40" fill="none" xmlns="http://www.w3.org/2000/svg">
<path fill-rule="evenodd" clip-rule="evenodd" d="M21.5503 7.03553C24.2839 4.30186 28.7161 4.30186 31.4497 7.03553L32.1569 7.74264C34.8905 10.4763 34.8905 14.9085 32.1569 17.6421L27.0657 22.7333C26.6752 23.1238 26.042 23.1238 25.6515 22.7333C25.2609 22.3428 25.2609 21.7096 25.6515 21.3191L30.7426 16.2279C32.6953 14.2753 32.6953 11.1095 30.7426 9.15685L30.0355 8.44975C28.0829 6.49712 24.9171 6.49712 22.9645 8.44974L17.8733 13.5409C17.4828 13.9314 16.8496 13.9314 16.4591 13.5409C16.0686 13.1504 16.0686 12.5172 16.4591 12.1267L21.5503 7.03553ZM25.9697 13.2227C26.3602 13.6132 26.3602 14.2464 25.9697 14.6369L14.3024 26.3042C13.9119 26.6947 13.2787 26.6947 12.8882 26.3042C12.4977 25.9137 12.4977 25.2805 12.8882 24.89L24.5555 13.2227C24.946 12.8322 25.5791 12.8322 25.9697 13.2227ZM13.2064 16.7936C13.5969 17.1841 13.5969 17.8173 13.2064 18.2078L8.11522 23.299C6.1626 25.2516 6.1626 28.4174 8.11522 30.3701L8.82233 31.0772C10.775 33.0298 13.9408 33.0298 15.8934 31.0772L20.9846 25.986C21.3751 25.5955 22.0083 25.5955 22.3988 25.986C22.7893 26.3765 22.7893 27.0097 22.3988 27.4002L17.3076 32.4914C14.5739 35.225 10.1418 35.225 7.40812 32.4914L6.70101 31.7843C3.96734 29.0506 3.96733 24.6184 6.70101 21.8848L11.7922 16.7936C12.1827 16.4031 12.8159 16.4031 13.2064 16.7936Z" fill="#272A35"/>
</svg>
