<svg width="40" height="40" viewBox="0 0 40 40" fill="none" xmlns="http://www.w3.org/2000/svg">
<path fill-rule="evenodd" clip-rule="evenodd" d="M17.6388 6C16.2346 6 15.1666 7.08275 15.1666 8.33333L15.1666 28.3131C15.1669 28.326 15.1669 28.3389 15.1666 28.3518V31.6667C15.1666 32.9173 16.2346 34 17.6388 34H31.5277C32.9319 34 33.9999 32.9173 33.9999 31.6667V8.33333C33.9999 7.08275 32.9319 6 31.5277 6L17.6388 6ZM13.1666 24.4382L13.1666 9.92946L9.07777 11.9118C7.83756 12.513 7.39311 13.9351 8.01222 15.0614L13.1666 24.4382ZM13.2162 7.68276C13.5419 5.5711 15.4293 4 17.6388 4L31.5277 4C33.9588 4 35.9999 5.90202 35.9999 8.33333V31.6667C35.9999 34.098 33.9588 36 31.5277 36H17.6388C15.3755 36 13.4502 34.3515 13.1952 32.162L5.57505 25.8838C3.7781 24.4033 3.47085 21.814 4.89973 19.9755L6.96824 17.314L6.25956 16.0248C5.06597 13.8534 5.97852 11.1917 8.20528 10.1121L13.2162 7.68276ZM8.0176 19.223L13.1666 28.59V29.5471L6.8468 24.3402C5.87277 23.5377 5.72411 22.1739 6.47887 21.2028L8.0176 19.223ZM19.3749 9C19.9272 9 20.3749 9.44772 20.3749 10V11.6667C20.3749 12.219 19.9272 12.6667 19.3749 12.6667C18.8227 12.6667 18.3749 12.219 18.3749 11.6667V10C18.3749 9.44772 18.8227 9 19.3749 9ZM29.7916 9C30.3439 9 30.7916 9.44772 30.7916 10V11.6667C30.7916 12.219 30.3439 12.6667 29.7916 12.6667C29.2393 12.6667 28.7916 12.219 28.7916 11.6667V10C28.7916 9.44772 29.2393 9 29.7916 9ZM24.5833 16C22.2202 16 20.3749 17.8289 20.3749 20C20.3749 22.1711 22.2202 24 24.5833 24C26.9463 24 28.7916 22.1711 28.7916 20C28.7916 17.8289 26.9463 16 24.5833 16ZM18.3749 20C18.3749 16.6482 21.1934 14 24.5833 14C27.9732 14 30.7916 16.6482 30.7916 20C30.7916 23.3518 27.9732 26 24.5833 26C21.1934 26 18.3749 23.3518 18.3749 20ZM19.3749 27.3333C19.9272 27.3333 20.3749 27.781 20.3749 28.3333V30C20.3749 30.5523 19.9272 31 19.3749 31C18.8227 31 18.3749 30.5523 18.3749 30V28.3333C18.3749 27.781 18.8227 27.3333 19.3749 27.3333ZM29.7916 27.3333C30.3439 27.3333 30.7916 27.781 30.7916 28.3333V30C30.7916 30.5523 30.3439 31 29.7916 31C29.2393 31 28.7916 30.5523 28.7916 30V28.3333C28.7916 27.781 29.2393 27.3333 29.7916 27.3333Z" fill="#272A35"/>
</svg>
