<svg width="24" height="24" viewBox="0 0 24 24" fill="none" xmlns="http://www.w3.org/2000/svg">
<path fill-rule="evenodd" clip-rule="evenodd" d="M12.7611 3.78418C12.2825 3.53864 11.7173 3.53864 11.2387 3.78418L9.81834 4.51287C8.74766 5.06218 7.6127 5.47329 6.44018 5.73647L5.92118 5.85297C5.15311 6.02537 4.5999 6.716 4.5999 7.52126V11.675C4.5999 15.175 6.68953 18.3252 9.88573 19.6576L11.3588 20.2716C11.7695 20.4428 12.2303 20.4428 12.641 20.2716L14.1141 19.6576C17.3103 18.3252 19.3999 15.175 19.3999 11.675V7.52126C19.3999 6.716 18.8467 6.02537 18.0786 5.85297L17.5596 5.73647C16.3871 5.47329 15.2521 5.06218 14.1815 4.51287L12.7611 3.78418ZM10.6909 2.7165C11.5134 2.29453 12.4864 2.29453 13.3089 2.71649L14.7292 3.44519C15.7098 3.94827 16.749 4.32467 17.8224 4.56561L18.3414 4.6821C19.665 4.97918 20.5999 6.16235 20.5999 7.52126V11.675C20.5999 15.6539 18.2241 19.2444 14.5758 20.7652L13.1027 21.3792C12.3965 21.6736 11.6033 21.6736 10.8971 21.3792L9.42402 20.7652C5.77569 19.2444 3.3999 15.6539 3.3999 11.675V7.52126C3.3999 6.16236 4.33484 4.97918 5.65837 4.6821L6.17737 4.56561C7.25076 4.32468 8.28999 3.94827 9.27057 3.44519L10.6909 2.7165ZM14.7078 10.3734C14.9432 10.6065 14.9451 10.9864 14.712 11.2219L12.4725 13.4839C11.7914 14.1718 10.6846 14.1718 10.0035 13.4839L9.28781 12.761C9.05467 12.5255 9.05657 12.1456 9.29205 11.9125C9.52754 11.6793 9.90743 11.6813 10.1406 11.9167L10.8563 12.6396C11.0678 12.8533 11.4082 12.8533 11.6197 12.6396L13.8592 10.3776C14.0924 10.1421 14.4723 10.1402 14.7078 10.3734Z" fill="#272A35"/>
</svg>
