<svg width="16" height="16" viewBox="0 0 16 16" fill="none" xmlns="http://www.w3.org/2000/svg">
<path fill-rule="evenodd" clip-rule="evenodd" d="M7.48573 2.5C4.73219 2.5 2.5 4.73219 2.5 7.48573C2.5 10.2393 4.73219 12.4715 7.48573 12.4715C10.2393 12.4715 12.4715 10.2393 12.4715 7.48573C12.4715 4.73219 10.2393 2.5 7.48573 2.5ZM1.5 7.48573C1.5 4.1799 4.1799 1.5 7.48573 1.5C10.7916 1.5 13.4715 4.1799 13.4715 7.48573C13.4715 8.95864 12.9395 10.3073 12.0571 11.35L14.3536 13.6464C14.5488 13.8417 14.5488 14.1583 14.3536 14.3536C14.1583 14.5488 13.8417 14.5488 13.6464 14.3536L11.35 12.0571C10.3073 12.9395 8.95864 13.4715 7.48573 13.4715C4.1799 13.4715 1.5 10.7916 1.5 7.48573ZM4.92857 7.57143C4.92857 7.29529 5.15243 7.07143 5.42857 7.07143H9.71429C9.99043 7.07143 10.2143 7.29529 10.2143 7.57143C10.2143 7.84757 9.99043 8.07143 9.71429 8.07143H5.42857C5.15243 8.07143 4.92857 7.84757 4.92857 7.57143Z" fill="#272A35"/>
</svg>
