<svg width="24" height="24" viewBox="0 0 24 24" fill="none" xmlns="http://www.w3.org/2000/svg">
<path fill-rule="evenodd" clip-rule="evenodd" d="M17.9999 3.60002L5.9999 3.60007C4.67442 3.60007 3.59991 4.67459 3.59991 6.00007L3.5999 14.7749H9.24124L9.38264 15.175C9.76388 16.2536 10.7926 17.0249 11.9999 17.0249C13.2072 17.0249 14.2359 16.2536 14.6171 15.175L14.7585 14.7749H20.3999L20.3999 6.00002C20.3999 4.67454 19.3254 3.60002 17.9999 3.60002ZM20.3999 15.9749H15.5819C14.9399 17.3057 13.5779 18.2249 11.9999 18.2249C10.4219 18.2249 9.05987 17.3057 8.41786 15.9749H3.5999L3.5999 18C3.5999 19.3254 4.67441 20.4 5.99989 20.4L17.9999 20.4C19.3254 20.4 20.3999 19.3255 20.3999 18V15.9749ZM5.99989 2.40007L17.9999 2.40002C19.9881 2.40002 21.5999 4.01179 21.5999 6.00002L21.5999 18C21.5999 19.9882 19.9881 21.6 17.9999 21.6L5.99989 21.6C4.01167 21.5999 2.3999 19.9882 2.3999 18L2.39991 6.00007C2.39991 4.01185 4.01167 2.40008 5.99989 2.40007Z" fill="#272A35"/>
<path fill-rule="evenodd" clip-rule="evenodd" d="M11.9637 7.16387L14.1581 9.283L9.92215 9.27798L11.9637 7.16387ZM8.73218 8.78277C8.11952 9.41719 8.56839 10.4764 9.45033 10.4774L14.6526 10.4836C15.5525 10.4847 15.9958 9.38938 15.3484 8.76425L12.6534 6.16173C12.2562 5.77808 11.6231 5.78913 11.2394 6.18641L8.73218 8.78277Z" fill="#272A35"/>
<path fill-rule="evenodd" clip-rule="evenodd" d="M12.0173 14.808C12.3487 14.808 12.6173 14.5394 12.6173 14.2081L12.6175 10.5C12.6175 10.1687 12.3489 9.90003 12.0175 9.90002C11.6861 9.90001 11.4175 10.1686 11.4175 10.5L11.4173 14.208C11.4173 14.5394 11.686 14.808 12.0173 14.808Z" fill="#272A35"/>
</svg>
