<svg width="40" height="40" viewBox="0 0 40 40" fill="none" xmlns="http://www.w3.org/2000/svg">
<path fill-rule="evenodd" clip-rule="evenodd" d="M20 6C12.268 6 6 12.268 6 20C6 27.732 12.268 34 20 34C27.732 34 34 27.732 34 20C34 12.268 27.732 6 20 6ZM4 20C4 11.1634 11.1634 4 20 4C28.8366 4 36 11.1634 36 20C36 28.8366 28.8366 36 20 36C11.1634 36 4 28.8366 4 20ZM26.216 23.0148L20.9247 17.7235C20.414 17.2128 19.586 17.2128 19.0753 17.7235L13.784 23.0148C13.3935 23.4053 12.7603 23.4053 12.3698 23.0148C11.9793 22.6243 11.9793 21.9911 12.3698 21.6006L17.6611 16.3093C18.9528 15.0176 21.0472 15.0176 22.3389 16.3093L27.6302 21.6006C28.0207 21.9911 28.0207 22.6243 27.6302 23.0148C27.2397 23.4053 26.6065 23.4053 26.216 23.0148Z" fill="#272A35"/>
</svg>
