<svg width="41" height="40" viewBox="0 0 41 40" fill="none" xmlns="http://www.w3.org/2000/svg">
<path fill-rule="evenodd" clip-rule="evenodd" d="M31.6645 24.2526C32.0772 24.6195 32.1144 25.2516 31.7475 25.6644L23.606 34.8235C22.8104 35.7186 21.412 35.7186 20.6164 34.8235L16.9193 30.6644C16.5524 30.2516 16.5896 29.6195 17.0024 29.2526C17.4152 28.8857 18.0472 28.9229 18.4142 29.3356L22.1112 33.4948L30.2527 24.3356C30.6196 23.9229 31.2517 23.8857 31.6645 24.2526Z" fill="#272A35"/>
<path fill-rule="evenodd" clip-rule="evenodd" d="M0 10C0 6.68629 2.68629 4 6 4H24.3333C27.647 4 30.3333 6.68629 30.3333 10V19.9405C30.3333 20.4928 29.8856 20.9405 29.3333 20.9405C28.781 20.9405 28.3333 20.4928 28.3333 19.9405V10C28.3333 7.79086 26.5425 6 24.3333 6H6C3.79086 6 2 7.79086 2 10V25C2 27.2091 3.79086 29 6 29H11.8333C12.3856 29 12.8333 29.4477 12.8333 30C12.8333 30.5523 12.3856 31 11.8333 31H6C2.68629 31 0 28.3137 0 25V10Z" fill="#272A35"/>
<path fill-rule="evenodd" clip-rule="evenodd" d="M2.02659 5.89846C2.45087 5.5449 3.08143 5.60222 3.43499 6.0265L13.6303 18.2609C14.4299 19.2204 15.9036 19.2204 16.7032 18.2609L26.8986 6.0265C27.2521 5.60222 27.8827 5.5449 28.307 5.89846C28.7312 6.25202 28.7886 6.88259 28.435 7.30687L18.2397 19.5413C16.6405 21.4603 13.6931 21.4603 12.0939 19.5413L1.89855 7.30687C1.54499 6.88259 1.60231 6.25202 2.02659 5.89846Z" fill="#272A35"/>
</svg>
