<svg width="40" height="40" viewBox="0 0 40 40" fill="none" xmlns="http://www.w3.org/2000/svg">
<path fill-rule="evenodd" clip-rule="evenodd" d="M31.6667 15.7667C32.1637 15.7667 32.5667 16.1696 32.5667 16.6667V19.1H35C35.4971 19.1 35.9 19.5029 35.9 20C35.9 20.4971 35.4971 20.9 35 20.9H32.5667V23.3333C32.5667 23.8304 32.1637 24.2333 31.6667 24.2333C31.1696 24.2333 30.7667 23.8304 30.7667 23.3333V20.9H28.3333C27.8363 20.9 27.4333 20.4971 27.4333 20C27.4333 19.5029 27.8363 19.1 28.3333 19.1H30.7667V16.6667C30.7667 16.1696 31.1696 15.7667 31.6667 15.7667Z" fill="#272A35"/>
<path fill-rule="evenodd" clip-rule="evenodd" d="M16.6668 5.89998C13.3741 5.89998 10.7612 8.46573 10.7612 11.5625C10.7612 14.6592 13.3741 17.225 16.6668 17.225C19.9595 17.225 22.5724 14.6592 22.5724 11.5625C22.5724 8.46573 19.9595 5.89998 16.6668 5.89998ZM8.96124 11.5625C8.96124 7.41048 12.4423 4.09998 16.6668 4.09998C20.8913 4.09998 24.3724 7.41048 24.3724 11.5625C24.3724 15.7145 20.8913 19.025 16.6668 19.025C12.4423 19.025 8.96124 15.7145 8.96124 11.5625ZM21.1673 24.602C18.1858 24.1104 15.1477 24.1104 12.1662 24.602L11.8199 24.6591C8.43076 25.2178 5.9001 28.2498 5.9001 31.8524C5.9001 33.1215 6.88864 34.1 8.04698 34.1H25.2865C26.4449 34.1 27.4334 33.1215 27.4334 31.8524C27.4334 28.2498 24.9028 25.2178 21.5136 24.6591L21.1673 24.602ZM21.4601 22.826L21.3137 23.714L21.4601 22.826L21.8064 22.883C26.1063 23.592 29.2334 27.4114 29.2334 31.8524C29.2334 34.06 27.4937 35.9 25.2865 35.9H8.04698C5.83982 35.9 4.1001 34.06 4.1001 31.8524C4.1001 27.4114 7.22718 23.592 11.5271 22.883L11.8734 22.826L12.0154 23.6873L11.8734 22.826C15.0488 22.3024 18.2847 22.3024 21.4601 22.826Z" fill="#272A35"/>
</svg>
