<svg width="24" height="24" viewBox="0 0 24 24" fill="none" xmlns="http://www.w3.org/2000/svg">
<path fill-rule="evenodd" clip-rule="evenodd" d="M9.56759 8.56406C9.81396 8.34246 10.1933 8.36254 10.4149 8.60892L13.1047 11.5993C13.3099 11.8275 13.3099 12.1737 13.1046 12.4019L10.4149 15.3912C10.1932 15.6376 9.81385 15.6576 9.56752 15.436C9.32118 15.2143 9.30116 14.8349 9.52281 14.5886L11.3116 12.6006H2.9999C2.66853 12.6006 2.3999 12.3319 2.3999 12.0006C2.3999 11.6692 2.66853 11.4006 2.9999 11.4006H11.3119L9.52274 9.41141C9.30114 9.16503 9.32122 8.78566 9.56759 8.56406Z" fill="#272A35"/>
<path fill-rule="evenodd" clip-rule="evenodd" d="M7.0171 2.8413C10.8554 2.25287 14.7505 2.25293 18.5887 2.84148C18.6093 2.84463 18.6297 2.84885 18.6498 2.85413C19.3159 3.02862 19.9118 3.41203 20.3662 3.94692C20.8202 4.48131 21.1143 5.14433 21.2182 5.85072L21.2201 5.86387L21.22 5.86389C21.7268 9.93603 21.7268 14.064 21.22 18.1361L21.2187 18.1463L21.2186 18.1463C21.1128 18.8918 20.7906 19.5882 20.2904 20.1317C19.7895 20.6758 19.1347 21.0391 18.4179 21.1575L18.4126 21.1584L18.4126 21.1584C14.6331 21.7472 10.7959 21.7472 7.01645 21.1586C6.29564 21.0505 5.63739 20.6863 5.14083 20.1353C4.64584 19.5861 4.33752 18.8811 4.2548 18.1326C4.14824 17.2946 4.06508 16.45 4.00416 15.6046C3.98034 15.2741 4.22897 14.9868 4.55948 14.963C4.88999 14.9392 5.17724 15.1878 5.20106 15.5183C5.2606 16.3446 5.34185 17.1691 5.44585 17.9863L5.44722 17.997L5.44712 17.997C5.50278 18.5077 5.7118 18.9764 6.03222 19.3319C6.3519 19.6866 6.76245 19.9074 7.19559 19.9721L7.19931 19.9726C10.856 20.5423 14.5682 20.5425 18.2249 19.9731C18.6646 19.8999 19.08 19.6747 19.4074 19.319C19.7351 18.963 19.956 18.4958 20.0298 17.9826C20.5234 14.0129 20.5235 9.9887 20.03 6.01902C19.9568 5.52889 19.7534 5.07898 19.4517 4.72386C19.156 4.37581 18.7804 4.13535 18.3741 4.0226C14.6666 3.4575 10.905 3.45917 7.19785 4.02761L7.1956 4.02796L7.1956 4.02795C6.76246 4.09269 6.35193 4.31347 6.03225 4.66817C5.71183 5.02371 5.5028 5.4924 5.44712 6.00307L5.44595 6.01381L5.44585 6.0138C5.34264 6.82457 5.25988 7.66095 5.199 8.51562C5.17545 8.84616 4.88841 9.09502 4.55788 9.07148C4.22735 9.04793 3.97849 8.76089 4.00203 8.43036C4.06431 7.55606 4.14901 6.69929 4.2548 5.86741C4.33756 5.11899 4.64588 4.41402 5.14085 3.8648C5.63755 3.31368 6.29604 2.94935 7.0171 2.8413Z" fill="#272A35"/>
</svg>
