<svg width="32" height="32" viewBox="0 0 32 32" fill="none" xmlns="http://www.w3.org/2000/svg">
<path fill-rule="evenodd" clip-rule="evenodd" d="M6.75673 10.2415C5.67603 10.2415 4.79995 11.1176 4.79995 12.1983V23.6667C4.79995 25.434 6.23264 26.8667 7.99995 26.8667H20.0429C21.3985 26.8667 22.4974 25.7678 22.4974 24.4122C22.4974 23.9704 22.8555 23.6122 23.2974 23.6122C23.7392 23.6122 24.0974 23.9704 24.0974 24.4122C24.0974 26.6514 22.2821 28.4667 20.0429 28.4667H7.99995C5.34898 28.4667 3.19995 26.3177 3.19995 23.6667V12.1983C3.19995 10.2339 4.79237 8.64148 6.75673 8.64148C7.19855 8.64148 7.55673 8.99965 7.55673 9.44148C7.55673 9.88331 7.19855 10.2415 6.75673 10.2415Z" fill="#272A35"/>
<path fill-rule="evenodd" clip-rule="evenodd" d="M12.7026 21.6252H24C25.3255 21.6252 26.4 20.5507 26.4 19.2252V8.99999C26.4 7.67451 25.3255 6.59999 24 6.59999H12.7026C11.3771 6.59999 10.3026 7.67451 10.3026 9V19.2252C10.3026 20.5507 11.3771 21.6252 12.7026 21.6252ZM24 23.2252C26.2091 23.2252 28 21.4344 28 19.2252V8.99999C28 6.79086 26.2091 4.99999 24 4.99999H12.7026C10.4934 4.99999 8.70258 6.79086 8.70258 9V19.2252C8.70258 21.4344 10.4934 23.2252 12.7026 23.2252H24Z" fill="#272A35"/>
</svg>
