<svg width="40" height="40" viewBox="0 0 40 40" fill="none" xmlns="http://www.w3.org/2000/svg">
<path fill-rule="evenodd" clip-rule="evenodd" d="M9.28571 6C7.47106 6 6 7.47106 6 9.28571V30.7143C6 32.5289 7.47106 34 9.28571 34H30.7143C32.5289 34 34 32.5289 34 30.7143V9.28571C34 7.47106 32.5289 6 30.7143 6H9.28571ZM4 9.28571C4 6.36649 6.36649 4 9.28571 4H30.7143C33.6335 4 36 6.3665 36 9.28571V30.7143C36 33.6335 33.6335 36 30.7143 36H9.28571C6.36649 36 4 33.6335 4 30.7143V9.28571ZM20 14.5714C17.0019 14.5714 14.5714 17.0019 14.5714 20C14.5714 22.9981 17.0019 25.4286 20 25.4286C22.9981 25.4286 25.4286 22.9981 25.4286 20C25.4286 17.0019 22.9981 14.5714 20 14.5714ZM12.5714 20C12.5714 15.8973 15.8973 12.5714 20 12.5714C24.1027 12.5714 27.4286 15.8973 27.4286 20C27.4286 24.1027 24.1027 27.4286 20 27.4286C15.8973 27.4286 12.5714 24.1027 12.5714 20Z" fill="#272A35"/>
</svg>
