<svg width="16" height="16" viewBox="0 0 16 16" fill="none" xmlns="http://www.w3.org/2000/svg">
<path fill-rule="evenodd" clip-rule="evenodd" d="M3.64655 3.87112C2.62607 4.94675 2 6.40026 2 8C2 11.3137 4.68629 14 8 14C11.0523 14 13.5723 11.7208 13.9509 8.77147C13.8539 8.78905 13.7544 8.79578 13.6545 8.79065L8.31053 8.51659C7.96289 8.49876 7.63657 8.34357 7.40336 8.08514L7.14499 7.79883C7.1447 7.79851 7.14441 7.79819 7.14412 7.79787L3.81843 4.11262C3.7515 4.03846 3.69404 3.95723 3.64655 3.87112ZM4.56698 3.07923C4.5156 3.11507 4.48778 3.16628 4.48327 3.23005C4.47848 3.29768 4.50152 3.37695 4.56082 3.44266L7.88651 7.1279C7.88661 7.12801 7.8867 7.12812 7.8868 7.12822C7.99311 7.2457 8.17055 7.26505 8.29968 7.17317L12.3443 4.29533C12.4165 4.24402 12.4561 4.17162 12.4661 4.10456C12.4755 4.04132 12.4594 3.98531 12.417 3.93919C12.4021 3.92293 12.387 3.90676 12.3719 3.89067C12.2899 3.80347 12.2053 3.71872 12.1183 3.63654M13.1441 4.9116C13.0791 4.98537 13.0055 5.05223 12.9241 5.11013L9.46085 7.57427L13.7057 7.79197C13.7941 7.7965 13.8701 7.76435 13.9195 7.71796C13.9662 7.67421 13.9883 7.62031 13.9837 7.55783C13.9153 6.6315 13.6323 5.73007 13.153 4.92648C13.1501 4.92152 13.1471 4.91656 13.1441 4.9116ZM4.56698 3.07923C4.6622 3.01279 4.75924 2.9492 4.85796 2.88852C5.13097 2.7207 5.41684 2.57512 5.71275 2.4531C5.84482 2.39864 5.97889 2.34887 6.11471 2.30391C6.12821 2.29944 6.14174 2.29502 6.15528 2.29065C6.45731 2.19306 6.7658 2.11985 7.0778 2.07131C7.096 2.06848 7.11421 2.06574 7.13243 2.06307C7.27921 2.04162 7.42637 2.02567 7.57362 2.01518C7.73302 2.00382 7.89253 1.99886 8.05177 2.00023C8.22348 2.00171 8.39487 2.01056 8.56548 2.02672C8.59482 2.02949 8.62413 2.03249 8.65342 2.03569C9.31713 2.10841 9.96763 2.29178 10.577 2.58161C10.7336 2.65606 10.8871 2.73739 11.0371 2.82544C11.4275 3.05458 11.7897 3.32657 12.1173 3.63556M12.8161 2.92014C11.5613 1.73007 9.86592 1 8 1C4.13401 1 1 4.13401 1 8C1 11.866 4.13401 15 8 15C11.866 15 15 11.866 15 8C15 6.14095 14.2753 4.45116 13.093 3.19773M12.8182 2.92207C12.8175 2.92143 12.8168 2.92077 12.8161 2.92014Z" fill="#272A35"/>
</svg>
