<svg width="32" height="32" viewBox="0 0 32 32" fill="none" xmlns="http://www.w3.org/2000/svg">
<path fill-rule="evenodd" clip-rule="evenodd" d="M12.8662 3.89281C13.7661 2.96908 15.2338 2.96908 16.1337 3.89281L18.073 5.88369C18.3813 6.20018 18.3747 6.70667 18.0582 7.01496C17.7417 7.32326 17.2352 7.31662 16.9269 7.00013L15.3 5.32994V9.52164C15.3 9.96347 14.9418 10.3216 14.5 10.3216C14.0581 10.3216 13.7 9.96347 13.7 9.52164V5.32994L12.073 7.00013C11.7647 7.31662 11.2582 7.32326 10.9417 7.01496C10.6252 6.70667 10.6186 6.20018 10.9269 5.88369L12.8662 3.89281ZM6.99995 8.78177C5.80458 8.78177 4.79995 9.78253 4.79995 11.0615V11.8014H24.2V11.0615C24.2 9.78253 23.1953 8.78177 22 8.78177H20.5C20.0581 8.78177 19.7 8.4236 19.7 7.98177C19.7 7.53995 20.0581 7.18177 20.5 7.18177H22C24.1183 7.18177 25.7999 8.9387 25.7999 11.0615V11.8871C27.5265 12.2636 28.7999 13.8338 28.7999 15.6811V24.9203C28.7999 27.0431 27.1183 28.8 25 28.8H6.99995C4.88162 28.8 3.19995 27.0431 3.19995 24.9203V11.0615C3.19995 8.9387 4.88162 7.18177 6.99995 7.18177H8.49995C8.94178 7.18177 9.29995 7.53995 9.29995 7.98177C9.29995 8.4236 8.94178 8.78177 8.49995 8.78177H6.99995ZM27.2 22.5804V18.021H25C23.8046 18.021 22.7999 19.0217 22.7999 20.3007C22.7999 21.5797 23.8046 22.5804 25 22.5804H27.2ZM27.2 16.421H25C22.8816 16.421 21.2 18.1779 21.2 20.3007C21.2 22.4235 22.8816 24.1804 25 24.1804H27.2V24.9203C27.2 26.1993 26.1953 27.2 25 27.2H6.99995C5.80458 27.2 4.79995 26.1993 4.79995 24.9203V13.4014H25C26.1953 13.4014 27.2 14.4021 27.2 15.6811V16.421Z" fill="#272A35"/>
</svg>
