<svg width="32" height="32" viewBox="0 0 32 32" fill="none" xmlns="http://www.w3.org/2000/svg">
<path fill-rule="evenodd" clip-rule="evenodd" d="M3.19995 24C3.19995 26.651 5.34899 28.8 7.99995 28.8H24C26.6509 28.8 28.8 26.651 28.8 24V8.00005C28.8 5.34908 26.6509 3.20005 24 3.20005H7.99995C5.34899 3.20005 3.19995 5.34908 3.19995 8.00005V24ZM7.99995 27.2C6.23264 27.2 4.79995 25.7674 4.79995 24V10.7807L9.37526 16.4998L10.6246 15.5003L4.79995 8.21943V8.00005C4.79995 6.23274 6.23264 4.80005 7.99995 4.80005H24C25.7673 4.80005 27.2 6.23274 27.2 8.00005V11.2194L22.5753 17.0003L23.8246 17.9998L27.2 13.7807V24C27.2 25.7674 25.7673 27.2 24 27.2H7.99995ZM21.4246 17.0003L17.8246 12.5003L16.5753 13.4998L20.1753 17.9998L21.4246 17.0003ZM14.1753 12.5003L11.7753 15.5003L13.0246 16.4998L15.4246 13.4998L14.1753 12.5003Z" fill="#272A35"/>
<path fill-rule="evenodd" clip-rule="evenodd" d="M22.6667 17.6C23.2558 17.6 23.7333 18.0776 23.7333 18.6667C23.7333 19.2558 23.2558 19.7334 22.6667 19.7334C22.0776 19.7334 21.6 19.2558 21.6 18.6667C21.6 18.0776 22.0776 17.6 22.6667 17.6ZM22.6667 16C24.1394 16 25.3333 17.1939 25.3333 18.6667C25.3333 20.1395 24.1394 21.3334 22.6667 21.3334C21.1939 21.3334 20 20.1395 20 18.6667C20 17.1939 21.1939 16 22.6667 16Z" fill="#272A35"/>
<path fill-rule="evenodd" clip-rule="evenodd" d="M15.9999 10.9334C16.589 10.9334 17.0666 11.411 17.0666 12.0001C17.0666 12.5892 16.589 13.0667 15.9999 13.0667C15.4108 13.0667 14.9333 12.5892 14.9333 12.0001C14.9333 11.411 15.4108 10.9334 15.9999 10.9334ZM15.9999 9.33341C17.4727 9.33341 18.6666 10.5273 18.6666 12.0001C18.6666 13.4728 17.4727 14.6667 15.9999 14.6667C14.5272 14.6667 13.3333 13.4728 13.3333 12.0001C13.3333 10.5273 14.5272 9.33341 15.9999 9.33341Z" fill="#272A35"/>
<path fill-rule="evenodd" clip-rule="evenodd" d="M10.6667 16.2667C11.2558 16.2667 11.7333 16.7442 11.7333 17.3333C11.7333 17.9224 11.2558 18.4 10.6667 18.4C10.0776 18.4 9.6 17.9224 9.6 17.3333C9.6 16.7442 10.0776 16.2667 10.6667 16.2667ZM10.6667 14.6667C12.1394 14.6667 13.3333 15.8606 13.3333 17.3333C13.3333 18.8061 12.1394 20 10.6667 20C9.19391 20 8 18.8061 8 17.3333C8 15.8606 9.19391 14.6667 10.6667 14.6667Z" fill="#272A35"/>
</svg>
