<svg width="16" height="16" viewBox="0 0 16 16" fill="none" xmlns="http://www.w3.org/2000/svg">
<path fill-rule="evenodd" clip-rule="evenodd" d="M8 1.5C8.27614 1.5 8.5 1.72386 8.5 2V6.28571C8.5 6.56186 8.27614 6.78571 8 6.78571C7.72386 6.78571 7.5 6.56186 7.5 6.28571V2C7.5 1.72386 7.72386 1.5 8 1.5ZM6.40288 3.53149C6.50383 3.78852 6.37731 4.07872 6.12029 4.17967C4.28262 4.90148 3 6.64308 3 8.66318C3 11.3204 5.22427 13.5 8 13.5C10.7757 13.5 13 11.3204 13 8.66318C13 6.70086 11.79 5.00166 10.0361 4.24414C9.78259 4.13464 9.66584 3.84037 9.77534 3.58687C9.88483 3.33336 10.1791 3.21661 10.4326 3.3261C12.527 4.23069 14 6.27446 14 8.66318C14 11.9009 11.2994 14.5 8 14.5C4.70059 14.5 2 11.9009 2 8.66318C2 6.20385 3.5611 4.1105 5.75469 3.2489C6.01172 3.14794 6.30192 3.27446 6.40288 3.53149Z" fill="#272A35"/>
</svg>
