<svg width="24" height="24" viewBox="0 0 24 24" fill="none" xmlns="http://www.w3.org/2000/svg">
<path fill-rule="evenodd" clip-rule="evenodd" d="M21.3623 6.37L19.2921 4.33501L17.2218 6.37H21.3623ZM16.7349 7.55965C15.8363 7.55965 15.3864 6.4918 16.0217 5.86726L18.5789 3.3536C18.9728 2.96644 19.6114 2.96644 20.0052 3.3536L22.5624 5.86726C23.1978 6.4918 22.7478 7.55965 21.8493 7.55965H19.8276V15.9854C19.8276 18.2346 17.9086 20.0011 15.6138 20.0011C13.3189 20.0011 11.3999 18.2346 11.3999 15.9854V8.01561C11.3999 6.49201 10.0829 5.19997 8.38613 5.19997C6.68932 5.19997 5.37232 6.49201 5.37232 8.01561V16.4403H7.26514C8.16366 16.4403 8.61365 17.5081 7.9783 18.1327L5.42108 20.6463C5.02722 21.0335 4.38864 21.0335 3.99477 20.6463L1.43756 18.1327C0.802205 17.5081 1.25218 16.4403 2.15071 16.4403H4.17232V8.01561C4.17232 5.7664 6.09124 3.99997 8.38613 3.99997C10.681 3.99997 12.5999 5.7664 12.5999 8.01561V15.9854C12.5999 17.509 13.9169 18.8011 15.6138 18.8011C17.3106 18.8011 18.6276 17.509 18.6276 15.9854V7.55965H16.7349ZM4.70793 19.6649L2.63768 17.6299H6.77817L4.70793 19.6649Z" fill="#272A35"/>
</svg>
