<svg width="16" height="16" viewBox="0 0 16 16" fill="none" xmlns="http://www.w3.org/2000/svg">
<path fill-rule="evenodd" clip-rule="evenodd" d="M1 14.5C1 14.7761 1.22386 15 1.5 15H14.5C14.7761 15 15 14.7761 15 14.5C15 14.2239 14.7761 14 14.5 14H1.5C1.22386 14 1 14.2239 1 14.5ZM1 9.65102C1 9.92716 1.22386 10.151 1.5 10.151H12.0755C13.6907 10.151 15 8.84168 15 7.22653C15 5.61138 13.6907 4.30204 12.0755 4.30204H10.4375C10.1614 4.30204 9.9375 4.5259 9.9375 4.80204C9.9375 5.07818 10.1614 5.30204 10.4375 5.30204H12.0755C13.1384 5.30204 14 6.16366 14 7.22653C14 8.2894 13.1384 9.15102 12.0755 9.15102H1.5C1.22386 9.15102 1 9.37488 1 9.65102ZM1.40625 4.80204C1.40625 5.07818 1.63011 5.30204 1.90625 5.30204H6.375C6.65114 5.30204 6.875 5.07818 6.875 4.80204C6.875 4.5259 6.65114 4.30204 6.375 4.30204H1.90625C1.63011 4.30204 1.40625 4.5259 1.40625 4.80204Z" fill="#272A35"/>
<path fill-rule="evenodd" clip-rule="evenodd" d="M8.84812 4.88963L9.67054 5.75724L9.6563 4.00724L8.84812 4.88963ZM9.78417 2.39074C10.0851 2.06217 10.6064 2.28873 10.6102 2.74973L10.6448 6.99756C10.6485 7.45833 10.1314 7.69338 9.82502 7.37017L7.82872 5.26419C7.63875 5.06378 7.63594 4.73623 7.82246 4.53259L9.78417 2.39074Z" fill="#272A35"/>
</svg>
