<svg width="40" height="40" viewBox="0 0 40 40" fill="none" xmlns="http://www.w3.org/2000/svg">
<path fill-rule="evenodd" clip-rule="evenodd" d="M4 10C4 6.68629 6.68629 4 10 4H28.3333C31.647 4 34.3333 6.68629 34.3333 10V19.9405C34.3333 20.4928 33.8856 20.9405 33.3333 20.9405C32.781 20.9405 32.3333 20.4928 32.3333 19.9405V10C32.3333 7.79086 30.5425 6 28.3333 6H10C7.79086 6 6 7.79086 6 10V25C6 27.2091 7.79086 29 10 29H19.1667C19.719 29 20.1667 29.4477 20.1667 30C20.1667 30.5523 19.719 31 19.1667 31H10C6.6863 31 4 28.3137 4 25V10Z" fill="#272A35"/>
<path fill-rule="evenodd" clip-rule="evenodd" d="M6.02659 5.89846C6.45087 5.5449 7.08143 5.60222 7.43499 6.0265L17.6303 18.2609C18.4299 19.2204 19.9036 19.2204 20.7032 18.2609L30.8986 6.0265C31.2521 5.60222 31.8827 5.5449 32.307 5.89846C32.7312 6.25202 32.7886 6.88259 32.435 7.30687L22.2397 19.5413C20.6405 21.4603 17.6931 21.4603 16.0939 19.5413L5.89855 7.30687C5.54499 6.88259 5.60231 6.25202 6.02659 5.89846Z" fill="#272A35"/>
<path fill-rule="evenodd" clip-rule="evenodd" d="M30.65 24.2C31.0918 23.8686 31.7186 23.9582 32.05 24.4L35.8 29.4C36.0667 29.7556 36.0667 30.2444 35.8 30.6L32.05 35.6C31.7186 36.0418 31.0918 36.1314 30.65 35.8C30.2082 35.4686 30.1186 34.8418 30.45 34.4L33 31H25C24.4477 31 24 30.5523 24 30C24 29.4477 24.4477 29 25 29H33L30.45 25.6C30.1186 25.1582 30.2082 24.5314 30.65 24.2Z" fill="#272A35"/>
</svg>
