<svg width="40" height="40" viewBox="0 0 40 40" fill="none" xmlns="http://www.w3.org/2000/svg">
<path fill-rule="evenodd" clip-rule="evenodd" d="M20 5C20.5523 5 21 5.44772 21 6L21 24.1572L29.3949 15.7623C29.7855 15.3718 30.4186 15.3718 30.8091 15.7623C31.1997 16.1528 31.1997 16.786 30.8091 17.1765L22.2223 25.7633C20.995 26.9907 19.005 26.9907 17.7777 25.7633L9.19085 17.1765C8.80033 16.786 8.80033 16.1528 9.19085 15.7623C9.58138 15.3718 10.2145 15.3718 10.6051 15.7623L19 24.1572L19 6C19 5.44772 19.4477 5 20 5ZM5 23.4286C5.55228 23.4286 6 23.8763 6 24.4286V30.8571C6 31.4883 6.51167 32 7.14286 32H32.8571C33.4883 32 34 31.4883 34 30.8571V24.4286C34 23.8763 34.4477 23.4286 35 23.4286C35.5523 23.4286 36 23.8763 36 24.4286V30.8571C36 32.5929 34.5929 34 32.8571 34H7.14286C5.40711 34 4 32.5929 4 30.8571V24.4286C4 23.8763 4.44772 23.4286 5 23.4286Z" fill="#272A35"/>
</svg>
