<svg width="24" height="24" viewBox="0 0 24 24" fill="none" xmlns="http://www.w3.org/2000/svg">
<path fill-rule="evenodd" clip-rule="evenodd" d="M5.85879 6.27405L17.0588 6.27405C17.3902 6.27405 17.6588 6.54268 17.6588 6.87405C17.6588 7.20542 17.3902 7.47405 17.0588 7.47405L5.85879 7.47405C4.51941 7.47405 3.45879 8.52989 3.45879 9.80165L3.45879 11.168C3.45879 11.4993 3.19016 11.768 2.85879 11.768C2.52742 11.768 2.25879 11.4993 2.25879 11.168L2.25879 9.80165C2.25879 7.83968 3.88447 6.27405 5.85879 6.27405ZM20.8588 12.5197C21.1902 12.5197 21.4588 12.7883 21.4588 13.1197V14.486C21.4588 16.448 19.8331 18.0136 17.8588 18.0136L6.65881 18.0136C6.32744 18.0136 6.05881 17.745 6.05881 17.4136C6.05881 17.0822 6.32744 16.8136 6.65881 16.8136L17.8588 16.8136C19.1982 16.8136 20.2588 15.7578 20.2588 14.486V13.1197C20.2588 12.7883 20.5274 12.5197 20.8588 12.5197Z" fill="#272A35"/>
<path fill-rule="evenodd" clip-rule="evenodd" d="M3.7015 17.0968L5.71612 15.1265L5.68115 19.1006L3.7015 17.0968ZM5.16248 20.283C5.78855 20.9167 6.87207 20.4812 6.87989 19.5927L6.92334 14.6553C6.93116 13.7666 5.85505 13.3121 5.21805 13.9351L2.71515 16.383C2.32031 16.7692 2.31489 17.4007 2.70304 17.7936L5.16248 20.283Z" fill="#272A35"/>
<path fill-rule="evenodd" clip-rule="evenodd" d="M20.0158 6.85023L18.0012 4.87991L18.0361 8.85403L20.0158 6.85023ZM18.5548 10.0365C17.9287 10.6702 16.8452 10.2346 16.8374 9.34608L16.7939 4.40875C16.7861 3.52003 17.8622 3.06555 18.4992 3.68855L21.0021 6.13642C21.397 6.52258 21.4024 7.15412 21.0142 7.547L18.5548 10.0365Z" fill="#272A35"/>
</svg>
