<svg width="32" height="32" viewBox="0 0 32 32" fill="none" xmlns="http://www.w3.org/2000/svg">
<path fill-rule="evenodd" clip-rule="evenodd" d="M16.9888 5.04319C16.3667 4.71895 15.6332 4.71895 15.0111 5.04319L13.1469 6.01478C11.7404 6.74786 10.2491 7.29666 8.7082 7.64801L8.02701 7.80334C7.03129 8.03038 6.29995 8.94543 6.29995 10.0283V15.5666C6.29995 20.2406 9.04669 24.4386 13.2341 26.2118L15.1674 27.0305C15.701 27.2565 16.2989 27.2565 16.8325 27.0305L18.7658 26.2118C22.9532 24.4386 25.7 20.2406 25.7 15.5666V10.0283C25.7 8.94543 24.9686 8.03038 23.9729 7.80334L23.2917 7.64801C21.7508 7.29666 20.2595 6.74786 18.853 6.01478L16.9888 5.04319ZM14.2716 3.62433C15.3571 3.05857 16.6428 3.05857 17.7283 3.62433L19.5925 4.59592C20.8782 5.26602 22.2405 5.76726 23.6474 6.08805L24.3286 6.24338C26.0781 6.6423 27.2999 8.22566 27.2999 10.0283V15.5666C27.2999 20.8645 24.1858 25.6542 19.3898 27.6852L17.4564 28.5039C16.524 28.8987 15.4759 28.8987 14.5435 28.5039L12.6101 27.6852C7.81407 25.6542 4.69995 20.8645 4.69995 15.5666V10.0283C4.69995 8.22567 5.9218 6.6423 7.67131 6.24338L8.3525 6.08805C9.75938 5.76726 11.1217 5.26602 12.4074 4.59592L14.2716 3.62433Z" fill="#272A35"/>
</svg>
