<svg width="16" height="16" viewBox="0 0 16 16" fill="none" xmlns="http://www.w3.org/2000/svg">
<path fill-rule="evenodd" clip-rule="evenodd" d="M1.5 2.92308C1.5 2.23915 1.96763 1.5 2.75 1.5H13.25C14.0324 1.5 14.5 2.23915 14.5 2.92308V5.69231C14.5 6.37623 14.0324 7.11539 13.25 7.11539H13V12.1538C13 13.3476 12.1966 14.5 11 14.5H5C3.80342 14.5 3 13.3476 3 12.1538L3 7.11539H2.75C1.96763 7.11539 1.5 6.37623 1.5 5.69231V2.92308ZM4 6.61539L4 12.1538C4 12.9993 4.53972 13.5 5 13.5H11C11.4603 13.5 12 12.9993 12 12.1538V4.76923C12 4.62189 11.9511 4.50424 11.8923 4.43181C11.8342 4.36039 11.7812 4.34615 11.75 4.34615L4.25 4.34615C4.21884 4.34615 4.16576 4.36039 4.10773 4.43181C4.04888 4.50424 4 4.62189 4 4.76923V6.61539ZM13 6.11539V4.76923C13 4.08531 12.5324 3.34615 11.75 3.34615L4.25 3.34615C3.46764 3.34615 3 4.08531 3 4.76923V6.11539H2.75C2.71884 6.11539 2.66576 6.10115 2.60773 6.02973C2.54888 5.9573 2.5 5.83965 2.5 5.69231V2.92308C2.5 2.77573 2.54888 2.65809 2.60773 2.58566C2.66576 2.51423 2.71884 2.5 2.75 2.5H13.25C13.2812 2.5 13.3342 2.51423 13.3923 2.58566C13.4511 2.65809 13.5 2.77573 13.5 2.92308V5.69231C13.5 5.83965 13.4511 5.9573 13.3923 6.02973C13.3342 6.10115 13.2812 6.11539 13.25 6.11539H13Z" fill="#272A35"/>
<path fill-rule="evenodd" clip-rule="evenodd" d="M6.50515 7.40829C6.70139 7.21401 7.01797 7.21559 7.21225 7.41183L7.99979 8.20729L8.78733 7.41183C8.98161 7.21559 9.29819 7.21401 9.49443 7.40829C9.69066 7.60258 9.69225 7.91915 9.49797 8.11539L8.70339 8.91796L9.49797 9.72053C9.69225 9.91677 9.69066 10.2334 9.49443 10.4276C9.29819 10.6219 8.98161 10.6203 8.78733 10.4241L7.99979 9.62863L7.21225 10.4241C7.01797 10.6203 6.70139 10.6219 6.50515 10.4276C6.30892 10.2334 6.30733 9.91677 6.50162 9.72053L7.2962 8.91796L6.50162 8.11539C6.30733 7.91915 6.30892 7.60258 6.50515 7.40829Z" fill="#272A35"/>
</svg>
