<svg width="24" height="24" viewBox="0 0 24 24" fill="none" xmlns="http://www.w3.org/2000/svg">
<path fill-rule="evenodd" clip-rule="evenodd" d="M11.9999 1.40002C12.159 1.40002 12.3116 1.46324 12.4242 1.57576L15.8333 4.98485C16.0676 5.21917 16.0676 5.59906 15.8333 5.83338C15.5989 6.06769 15.219 6.06769 14.9847 5.83338L12.5999 3.44855V8.06064C12.5999 8.39201 12.3313 8.66064 11.9999 8.66064C11.6685 8.66064 11.3999 8.39201 11.3999 8.06064V3.44855L9.01508 5.83338C8.78076 6.06769 8.40086 6.06769 8.16655 5.83338C7.93223 5.59906 7.93223 5.21917 8.16655 4.98485L11.5756 1.57576C11.6882 1.46324 11.8408 1.40002 11.9999 1.40002ZM5.83326 8.16667C6.06757 8.40098 6.06757 8.78088 5.83326 9.0152L3.44843 11.4H8.0605C8.39188 11.4 8.6605 11.6687 8.6605 12C8.6605 12.3314 8.39188 12.6 8.0605 12.6H3.44843L5.83326 14.9849C6.06757 15.2192 6.06757 15.5991 5.83326 15.8334C5.59894 16.0677 5.21904 16.0677 4.98473 15.8334L1.57564 12.4243C1.46312 12.3118 1.3999 12.1592 1.3999 12C1.3999 11.8409 1.46312 11.6883 1.57564 11.5758L4.98473 8.16667C5.21904 7.93235 5.59894 7.93235 5.83326 8.16667ZM18.1665 8.16667C18.4009 7.93236 18.7808 7.93235 19.0151 8.16667L22.4242 11.5758C22.5367 11.6883 22.5999 11.8409 22.5999 12C22.5999 12.1592 22.5367 12.3118 22.4242 12.4243L19.0151 15.8334C18.7808 16.0677 18.4009 16.0677 18.1665 15.8334C17.9322 15.5991 17.9322 15.2192 18.1665 14.9849L20.5514 12.6H15.9393C15.6079 12.6 15.3393 12.3314 15.3393 12C15.3393 11.6687 15.6079 11.4 15.9393 11.4H20.5514L18.1665 9.0152C17.9322 8.78088 17.9322 8.40098 18.1665 8.16667ZM11.9999 15.3394C12.3313 15.3394 12.5999 15.6081 12.5999 15.9394V20.5515L14.9847 18.1667C15.219 17.9324 15.5989 17.9324 15.8333 18.1667C16.0676 18.401 16.0676 18.7809 15.8333 19.0152L12.4242 22.4243C12.3116 22.5368 12.159 22.6 11.9999 22.6C11.8408 22.6 11.6882 22.5368 11.5756 22.4243L8.16655 19.0152C7.93223 18.7809 7.93223 18.401 8.16655 18.1667C8.40086 17.9324 8.78076 17.9324 9.01508 18.1667L11.3999 20.5515V15.9394C11.3999 15.6081 11.6685 15.3394 11.9999 15.3394Z" fill="#272A35"/>
</svg>
