<svg width="24" height="24" viewBox="0 0 24 24" fill="none" xmlns="http://www.w3.org/2000/svg">
<path fill-rule="evenodd" clip-rule="evenodd" d="M3.89514 2.54442C4.14674 2.32877 4.52552 2.3579 4.74117 2.6095L13.9947 13.4053C14.0519 13.4374 14.1048 13.4795 14.1506 13.5315C14.2006 13.5881 14.2379 13.6514 14.2629 13.7181L20.1697 20.6095C20.3854 20.8611 20.3563 21.2399 20.1047 21.4555C19.8531 21.6712 19.4743 21.642 19.2586 21.3904L16.2869 17.9234C15.0255 18.5815 13.5748 19.0285 11.9999 19.0285C9.22777 19.0285 6.84077 17.6461 5.16995 16.1424C4.33063 15.387 3.65451 14.5859 3.18371 13.8797C2.94852 13.5269 2.75902 13.1895 2.62611 12.8861C2.49964 12.5974 2.3999 12.2853 2.3999 12C2.3999 11.6262 2.57305 11.1859 2.79129 10.7736C3.02314 10.3355 3.35535 9.83873 3.77006 9.32721C4.48684 8.44311 5.47262 7.48736 6.66416 6.69689L3.83006 3.39045C3.61441 3.13885 3.64355 2.76007 3.89514 2.54442ZM7.4517 7.61569C6.31949 8.34487 5.3778 9.24962 4.7022 10.0829C4.32643 10.5464 4.04053 10.9785 3.85188 11.3349C3.64963 11.717 3.5999 11.9367 3.5999 12C3.5999 12.0361 3.6207 12.1659 3.72526 12.4046C3.82338 12.6285 3.97539 12.9039 4.18217 13.214C4.5953 13.8337 5.20489 14.5594 5.97271 15.2504C7.51617 16.6395 9.62918 17.8285 11.9999 17.8285C13.246 17.8285 14.4208 17.5008 15.4826 16.9851L13.5713 14.7552C13.108 15.0199 12.5713 15.1714 11.9999 15.1714C10.2484 15.1714 8.82847 13.7515 8.82847 12C8.82847 11.2537 9.08667 10.5674 9.51764 10.026L7.4517 7.61569ZM10.322 10.9643C10.1357 11.2654 10.0285 11.62 10.0285 12C10.0285 13.0888 10.9111 13.9714 11.9999 13.9714C12.2722 13.9714 12.5313 13.9164 12.7669 13.8168L10.322 10.9643ZM11.9999 6.1714C11.3858 6.1714 10.7895 6.25094 10.2157 6.39318C9.89405 6.47291 9.56868 6.2768 9.48896 5.95517C9.40923 5.63353 9.60533 5.30816 9.92697 5.22843C10.5882 5.06452 11.2814 4.9714 11.9999 4.9714C14.772 4.9714 17.159 6.35383 18.8299 7.85757C19.6692 8.61296 20.3453 9.41408 20.8161 10.1203C21.0513 10.4731 21.2408 10.8105 21.3737 11.1138C21.5002 11.4025 21.5999 11.7147 21.5999 12C21.5999 12.2778 21.5054 12.5799 21.3854 12.8592C21.2594 13.1523 21.0799 13.4774 20.8572 13.8174C20.4116 14.498 19.7716 15.2712 18.9763 16.0086C18.7333 16.2339 18.3537 16.2196 18.1284 15.9766C17.9031 15.7336 17.9174 15.3539 18.1604 15.1286C18.8882 14.4539 19.4639 13.7547 19.8533 13.16C20.0482 12.8624 20.191 12.5992 20.2829 12.3853C20.3808 12.1575 20.3999 12.0341 20.3999 12C20.3999 11.9639 20.3791 11.834 20.2745 11.5954C20.1764 11.3714 20.0244 11.0961 19.8176 10.7859C19.4045 10.1662 18.7949 9.44056 18.0271 8.74952C16.4836 7.36041 14.3706 6.1714 11.9999 6.1714ZM12.4956 9.40545C12.6302 9.10268 12.9848 8.96639 13.2876 9.10105C14.2203 9.51584 14.9162 10.3674 15.1143 11.3988C15.1768 11.7242 14.9637 12.0387 14.6383 12.1012C14.3129 12.1637 13.9984 11.9506 13.9359 11.6252C13.8132 10.9868 13.3809 10.4558 12.8 10.1975C12.4972 10.0628 12.3609 9.70823 12.4956 9.40545Z" fill="#272A35"/>
</svg>
