<svg width="24" height="24" viewBox="0 0 24 24" fill="none" xmlns="http://www.w3.org/2000/svg">
<path fill-rule="evenodd" clip-rule="evenodd" d="M8.8124 2.40002C9.14377 2.40002 9.4124 2.66865 9.4124 3.00002V3.50821H14.5874V3.00002C14.5874 2.66865 14.856 2.40002 15.1874 2.40002C15.5188 2.40002 15.7874 2.66865 15.7874 3.00002V3.50821H18.3749C19.9034 3.50821 21.0999 4.7932 21.0999 6.32458V14.636C21.0999 14.9673 20.8313 15.236 20.4999 15.236C20.1685 15.236 19.8999 14.9673 19.8999 14.636V8.58686H4.0999V18.5146C4.0999 19.4314 4.80622 20.131 5.6249 20.131H14.1249C14.4563 20.131 14.7249 20.3996 14.7249 20.731C14.7249 21.0624 14.4563 21.331 14.1249 21.331H5.6249C4.09637 21.331 2.8999 20.046 2.8999 18.5146V6.32458C2.8999 4.7932 4.09637 3.50821 5.6249 3.50821H8.2124V3.00002C8.2124 2.66865 8.48103 2.40002 8.8124 2.40002ZM8.2124 4.70821H5.6249C4.80622 4.70821 4.0999 5.40783 4.0999 6.32458V7.38686H19.8999V6.32458C19.8999 5.40783 19.1936 4.70821 18.3749 4.70821H15.7874V5.2164C15.7874 5.54777 15.5188 5.8164 15.1874 5.8164C14.856 5.8164 14.5874 5.54777 14.5874 5.2164V4.70821H9.4124V5.2164C9.4124 5.54777 9.14377 5.8164 8.8124 5.8164C8.48103 5.8164 8.2124 5.54777 8.2124 5.2164V4.70821ZM6.0874 11.8655C6.0874 11.5341 6.35603 11.2655 6.6874 11.2655H7.7499C8.08127 11.2655 8.3499 11.5341 8.3499 11.8655C8.3499 12.1969 8.08127 12.4655 7.7499 12.4655H6.6874C6.35603 12.4655 6.0874 12.1969 6.0874 11.8655ZM10.3374 11.8655C10.3374 11.5341 10.606 11.2655 10.9374 11.2655H13.0624C13.3938 11.2655 13.6624 11.5341 13.6624 11.8655C13.6624 12.1969 13.3938 12.4655 13.0624 12.4655H10.9374C10.606 12.4655 10.3374 12.1969 10.3374 11.8655ZM15.6499 11.8655C15.6499 11.5341 15.9185 11.2655 16.2499 11.2655H17.3124C17.6438 11.2655 17.9124 11.5341 17.9124 11.8655C17.9124 12.1969 17.6438 12.4655 17.3124 12.4655H16.2499C15.9185 12.4655 15.6499 12.1969 15.6499 11.8655ZM6.0874 16.2983C6.0874 15.9669 6.35603 15.6983 6.6874 15.6983H7.7499C8.08127 15.6983 8.3499 15.9669 8.3499 16.2983C8.3499 16.6296 8.08127 16.8983 7.7499 16.8983H6.6874C6.35603 16.8983 6.0874 16.6296 6.0874 16.2983ZM10.3374 16.2983C10.3374 15.9669 10.606 15.6983 10.9374 15.6983H13.0624C13.3938 15.6983 13.6624 15.9669 13.6624 16.2983C13.6624 16.6296 13.3938 16.8983 13.0624 16.8983H10.9374C10.606 16.8983 10.3374 16.6296 10.3374 16.2983ZM16.8972 17.4323C17.1364 17.203 17.5162 17.211 17.7455 17.4502L18.9063 18.6608L20.0668 17.4504C20.2961 17.2112 20.676 17.2032 20.9151 17.4325C21.1543 17.6618 21.1623 18.0417 20.933 18.2808L19.7375 19.5278L20.7507 20.5846C20.98 20.8238 20.972 21.2036 20.7328 21.4329C20.4937 21.6622 20.1138 21.6543 19.8845 21.4151L18.9062 20.3947L17.9278 21.4153C17.6985 21.6545 17.3186 21.6625 17.0795 21.4331C16.8403 21.2038 16.8323 20.824 17.0616 20.5848L18.075 19.5278L16.8793 18.2806C16.65 18.0414 16.658 17.6616 16.8972 17.4323Z" fill="#272A35"/>
</svg>
