<svg width="32" height="32" viewBox="0 0 32 32" fill="none" xmlns="http://www.w3.org/2000/svg">
<path fill-rule="evenodd" clip-rule="evenodd" d="M7.99995 4.79995C6.1125 4.79995 4.79995 6.08806 4.79995 7.42852V19.4285C4.79995 20.769 6.1125 22.0571 7.99995 22.0571H16C17.8874 22.0571 19.2 20.769 19.2 19.4285V15.1428C19.2 14.701 19.5581 14.3428 20 14.3428C20.4418 14.3428 20.7999 14.701 20.7999 15.1428V19.4285C20.7999 21.8752 18.5308 23.6571 16 23.6571H12.8V24.5714C12.8 25.9118 14.1125 27.2 16 27.2H24C25.8874 27.2 27.2 25.9118 27.2 24.5714V14.2857C27.2 12.9452 25.8874 11.6571 24 11.6571H16C14.1125 11.6571 12.8 12.9452 12.8 14.2857V18.5714C12.8 19.0132 12.4418 19.3714 12 19.3714C11.5581 19.3714 11.2 19.0132 11.2 18.5714V14.2857C11.2 11.839 13.4691 10.0571 16 10.0571H19.2V7.42852C19.2 6.08806 17.8874 4.79995 16 4.79995H7.99995ZM20.7999 10.0571V7.42852C20.7999 4.98189 18.5308 3.19995 16 3.19995H7.99995C5.46912 3.19995 3.19995 4.98189 3.19995 7.42852V19.4285C3.19995 21.8752 5.46912 23.6571 7.99995 23.6571H11.2V24.5714C11.2 27.018 13.4691 28.8 16 28.8H24C26.5308 28.8 28.7999 27.018 28.7999 24.5714V14.2857C28.7999 11.839 26.5308 10.0571 24 10.0571H20.7999Z" fill="#272A35"/>
</svg>
