<svg width="16" height="16" viewBox="0 0 16 16" fill="none" xmlns="http://www.w3.org/2000/svg">
<path fill-rule="evenodd" clip-rule="evenodd" d="M3 3L4.33787 3L3 4.28891L3 3ZM2 5.4649C2 5.90587 2.52933 6.13093 2.8469 5.82498L5.92443 2.86008C6.24848 2.5479 6.02749 2 5.57753 2L2.5 2C2.22386 2 2 2.22386 2 2.5L2 5.4649Z" fill="#272A35"/>
<path fill-rule="evenodd" clip-rule="evenodd" d="M6.6098 6.33783C6.79638 6.13426 6.78261 5.81798 6.57903 5.6314L4.74653 3.95184C4.54296 3.76526 4.22667 3.77903 4.04009 3.98261C3.85351 4.18618 3.86729 4.50246 4.07086 4.68904L5.90336 6.3686C6.10693 6.55518 6.42322 6.54141 6.6098 6.33783Z" fill="#272A35"/>
<path fill-rule="evenodd" clip-rule="evenodd" d="M13 3L11.6621 3L13 4.28891L13 3ZM14 5.4649C14 5.90587 13.4707 6.13093 13.1531 5.82498L10.0756 2.86008C9.75152 2.5479 9.97251 2 10.4225 2L13.5 2C13.7761 2 14 2.22386 14 2.5L14 5.4649Z" fill="#272A35"/>
<path fill-rule="evenodd" clip-rule="evenodd" d="M9.3902 6.33783C9.20362 6.13426 9.2174 5.81798 9.42097 5.6314L11.2535 3.95184C11.457 3.76526 11.7733 3.77903 11.9599 3.98261C12.1465 4.18618 12.1327 4.50246 11.9291 4.68904L10.0966 6.3686C9.89307 6.55518 9.57679 6.54141 9.3902 6.33783Z" fill="#272A35"/>
<path fill-rule="evenodd" clip-rule="evenodd" d="M13 12.9742L11.6621 12.9742L13 11.6853L13 12.9742ZM14 10.5093C14 10.0684 13.4707 9.8433 13.1531 10.1492L10.0756 13.1141C9.75152 13.4263 9.97251 13.9742 10.4225 13.9742L13.5 13.9742C13.7761 13.9742 14 13.7504 14 13.4742L14 10.5093Z" fill="#272A35"/>
<path fill-rule="evenodd" clip-rule="evenodd" d="M9.3902 9.63639C9.20362 9.83997 9.2174 10.1563 9.42097 10.3428L11.2535 12.0224C11.457 12.209 11.7733 12.1952 11.9599 11.9916C12.1465 11.788 12.1327 11.4718 11.9291 11.2852L10.0966 9.60563C9.89307 9.41905 9.57679 9.43282 9.3902 9.63639Z" fill="#272A35"/>
<path fill-rule="evenodd" clip-rule="evenodd" d="M3 13L4.33787 13L3 11.7111L3 13ZM2 10.5351C2 10.0941 2.52933 9.86907 2.8469 10.175L5.92443 13.1399C6.24848 13.4521 6.02749 14 5.57753 14L2.5 14C2.22386 14 2 13.7761 2 13.5L2 10.5351Z" fill="#272A35"/>
<path fill-rule="evenodd" clip-rule="evenodd" d="M6.6098 9.66217C6.79638 9.86574 6.78261 10.182 6.57903 10.3686L4.74653 12.0482C4.54296 12.2347 4.22667 12.221 4.04009 12.0174C3.85351 11.8138 3.86729 11.4975 4.07086 11.311L5.90336 9.6314C6.10693 9.44482 6.42322 9.45859 6.6098 9.66217Z" fill="#272A35"/>
</svg>
