<svg width="16" height="16" viewBox="0 0 16 16" fill="none" xmlns="http://www.w3.org/2000/svg">
<path fill-rule="evenodd" clip-rule="evenodd" d="M7.75 2.5C5.404 2.5 3.5 4.40706 3.5 6.76226C3.5 7.98103 3.89109 9.26758 4.82913 10.5488C5.38788 11.312 6.39696 12.4271 7.15913 13.2415C7.48163 13.5862 8.01837 13.5862 8.34087 13.2415C9.10304 12.4271 10.1121 11.312 10.6709 10.5488C11.6089 9.26758 12 7.98103 12 6.76226C12 4.40706 10.096 2.5 7.75 2.5ZM2.5 6.76226C2.5 3.85721 4.84929 1.5 7.75 1.5C10.6507 1.5 13 3.85721 13 6.76226C13 8.20858 12.532 9.69953 11.4777 11.1396C10.8784 11.9581 9.82942 13.1144 9.07102 13.9248C8.35334 14.6917 7.14666 14.6917 6.42898 13.9248C5.67058 13.1144 4.62155 11.9581 4.02225 11.1396C2.96798 9.69953 2.5 8.20858 2.5 6.76226ZM7.75 4.90162C8.02614 4.90162 8.25 5.12547 8.25 5.40162V6.26226H9.10714C9.38329 6.26226 9.60714 6.48612 9.60714 6.76226C9.60714 7.0384 9.38329 7.26226 9.10714 7.26226H8.25V8.12291C8.25 8.39905 8.02614 8.62291 7.75 8.62291C7.47386 8.62291 7.25 8.39905 7.25 8.12291V7.26226H6.39286C6.11671 7.26226 5.89286 7.0384 5.89286 6.76226C5.89286 6.48612 6.11671 6.26226 6.39286 6.26226H7.25V5.40162C7.25 5.12547 7.47386 4.90162 7.75 4.90162Z" fill="#272A35"/>
</svg>
