<svg width="16" height="16" viewBox="0 0 16 16" fill="none" xmlns="http://www.w3.org/2000/svg">
<path fill-rule="evenodd" clip-rule="evenodd" d="M8.25 2.5C6.37349 2.5 4.8125 4.10171 4.8125 6.12776C4.8125 7.1745 5.13366 8.279 5.9039 9.37907C6.32943 9.98681 7.07501 10.8574 7.68691 11.5459C7.99153 11.8886 8.50847 11.8886 8.81309 11.5459C9.42499 10.8574 10.1706 9.98681 10.5961 9.37907C11.3663 8.279 11.6875 7.1745 11.6875 6.12776C11.6875 4.10171 10.1265 2.5 8.25 2.5ZM3.8125 6.12776C3.8125 3.59442 5.77726 1.5 8.25 1.5C10.7227 1.5 12.6875 3.59442 12.6875 6.12776C12.6875 7.39103 12.2965 8.69397 11.4153 9.95263C10.9524 10.6137 10.1705 11.5239 9.56053 12.2102C8.85812 13.0005 7.64188 13.0005 6.93947 12.2102C6.3295 11.5239 5.54763 10.6137 5.08474 9.95263C4.20346 8.69397 3.8125 7.39103 3.8125 6.12776ZM8.25 4.85871C7.61613 4.85871 7.0625 5.40438 7.0625 6.12775C7.0625 6.85112 7.61613 7.39679 8.25 7.39679C8.88386 7.39679 9.4375 6.85112 9.4375 6.12775C9.4375 5.40438 8.88386 4.85871 8.25 4.85871ZM6.0625 6.12775C6.0625 4.89709 7.0199 3.85871 8.25 3.85871C9.4801 3.85871 10.4375 4.89709 10.4375 6.12775C10.4375 7.35841 9.4801 8.39679 8.25 8.39679C7.0199 8.39679 6.0625 7.35841 6.0625 6.12775ZM4.78299 11.0617C4.87645 11.3215 4.74157 11.6079 4.48173 11.7014C4.10165 11.8381 3.83238 11.9843 3.6677 12.1198C3.49916 12.2586 3.5 12.333 3.5 12.3333C3.5 12.3339 3.50088 12.4232 3.71271 12.5822C3.91587 12.7347 4.24159 12.8933 4.68898 13.0353C5.57796 13.3175 6.83705 13.5 8.25 13.5C9.66295 13.5 10.922 13.3175 11.811 13.0353C12.2584 12.8933 12.5841 12.7347 12.7873 12.5822C12.9991 12.4232 13 12.3339 13 12.3333C13 12.333 13.0008 12.2586 12.8323 12.1198C12.6676 11.9843 12.3984 11.8381 12.0183 11.7014C11.7584 11.6079 11.6235 11.3215 11.717 11.0617C11.8105 10.8018 12.0969 10.667 12.3567 10.7604C12.7935 10.9175 13.1805 11.1112 13.4678 11.3478C13.7513 11.5811 14 11.911 14 12.3333C14 12.7931 13.7071 13.1422 13.3876 13.382C13.0594 13.6283 12.6163 13.8288 12.1136 13.9884C11.1025 14.3094 9.73655 14.5 8.25 14.5C6.76345 14.5 5.39754 14.3094 4.3864 13.9884C3.88372 13.8288 3.4406 13.6283 3.11243 13.382C2.79293 13.1422 2.5 12.7931 2.5 12.3333C2.5 11.911 2.74867 11.5811 3.03217 11.3478C3.31952 11.1112 3.7065 10.9175 4.14327 10.7604C4.40312 10.667 4.68953 10.8018 4.78299 11.0617Z" fill="#272A35"/>
</svg>
