<svg width="40" height="40" viewBox="0 0 40 40" fill="none" xmlns="http://www.w3.org/2000/svg">
<path fill-rule="evenodd" clip-rule="evenodd" d="M9.28571 6C7.47106 6 6 7.47106 6 9.28571V30.7143C6 32.5289 7.47106 34 9.28571 34H30.7143C32.5289 34 34 32.5289 34 30.7143V13.5714C34 11.7568 32.5289 10.2857 30.7143 10.2857H21.7752C20.3733 10.2857 19.0289 9.72883 18.0376 8.73757L16.2624 6.96236C15.6462 6.34617 14.8105 6 13.9391 6H9.28571ZM4 9.28571C4 6.36649 6.3665 4 9.28571 4H13.9391C15.3409 4 16.6854 4.55689 17.6766 5.54815L19.4519 7.32335C20.068 7.93954 20.9038 8.28571 21.7752 8.28571H30.7143C33.6335 8.28571 36 10.6522 36 13.5714V30.7143C36 33.6335 33.6335 36 30.7143 36H9.28571C6.36649 36 4 33.6335 4 30.7143V9.28571ZM13.4919 18.6653C14.7193 17.4379 16.7093 17.4379 17.9366 18.6653L20.7071 21.4357C21.0976 21.8263 21.0976 22.4594 20.7071 22.85C20.3166 23.2405 19.6834 23.2405 19.2929 22.85L16.7143 20.2714V26.9643C16.7143 27.5166 16.2666 27.9643 15.7143 27.9643C15.162 27.9643 14.7143 27.5166 14.7143 26.9643V20.2714L12.1357 22.85C11.7452 23.2405 11.112 23.2405 10.7215 22.85C10.3309 22.4594 10.3309 21.8263 10.7215 21.4357L13.4919 18.6653Z" fill="#272A35"/>
</svg>
