<svg width="16" height="16" viewBox="0 0 16 16" fill="none" xmlns="http://www.w3.org/2000/svg">
<path fill-rule="evenodd" clip-rule="evenodd" d="M5.75 1.5C6.02614 1.5 6.25 1.72386 6.25 2V2.23879H9.75V2C9.75 1.72386 9.97386 1.5 10.25 1.5C10.5261 1.5 10.75 1.72386 10.75 2V2.23879H12.5C13.5974 2.23879 14.5 3.11711 14.5 4.21637V9.7573C14.5 10.0334 14.2761 10.2573 14 10.2573C13.7239 10.2573 13.5 10.0334 13.5 9.7573V5.82456H2.5V12.3431C2.5 12.8759 2.94059 13.3206 3.5 13.3206H9.5C9.77614 13.3206 10 13.5445 10 13.8206C10 14.0968 9.77614 14.3206 9.5 14.3206H3.5C2.40256 14.3206 1.5 13.4423 1.5 12.3431V4.21637C1.5 3.11711 2.40256 2.23879 3.5 2.23879H5.25V2C5.25 1.72386 5.47386 1.5 5.75 1.5ZM5.25 3.23879H3.5C2.94059 3.23879 2.5 3.68354 2.5 4.21637V4.82456H13.5V4.21637C13.5 3.68354 13.0594 3.23879 12.5 3.23879H10.75V3.47758C10.75 3.75372 10.5261 3.97758 10.25 3.97758C9.97386 3.97758 9.75 3.75372 9.75 3.47758V3.23879H6.25V3.47758C6.25 3.75372 6.02614 3.97758 5.75 3.97758C5.47386 3.97758 5.25 3.75372 5.25 3.47758V3.23879ZM3.75 7.91032C3.75 7.63418 3.97386 7.41032 4.25 7.41032H5C5.27614 7.41032 5.5 7.63418 5.5 7.91032C5.5 8.18647 5.27614 8.41032 5 8.41032H4.25C3.97386 8.41032 3.75 8.18647 3.75 7.91032ZM6.75 7.91032C6.75 7.63418 6.97386 7.41032 7.25 7.41032H8.75C9.02614 7.41032 9.25 7.63418 9.25 7.91032C9.25 8.18647 9.02614 8.41032 8.75 8.41032H7.25C6.97386 8.41032 6.75 8.18647 6.75 7.91032ZM10.5 7.91032C10.5 7.63418 10.7239 7.41032 11 7.41032H11.75C12.0261 7.41032 12.25 7.63418 12.25 7.91032C12.25 8.18647 12.0261 8.41032 11.75 8.41032H11C10.7239 8.41032 10.5 8.18647 10.5 7.91032ZM3.75 10.8655C3.75 10.5893 3.97386 10.3655 4.25 10.3655H5C5.27614 10.3655 5.5 10.5893 5.5 10.8655C5.5 11.1416 5.27614 11.3655 5 11.3655H4.25C3.97386 11.3655 3.75 11.1416 3.75 10.8655ZM6.75 10.8655C6.75 10.5893 6.97386 10.3655 7.25 10.3655H8.75C9.02614 10.3655 9.25 10.5893 9.25 10.8655C9.25 11.1416 9.02614 11.3655 8.75 11.3655H7.25C6.97386 11.3655 6.75 11.1416 6.75 10.8655ZM11.3938 11.5594C11.5876 11.3626 11.9042 11.3603 12.1009 11.554L12.8751 12.3167L13.6491 11.5542C13.8458 11.3604 14.1624 11.3628 14.3562 11.5595C14.55 11.7562 14.5476 12.0728 14.3509 12.2666L13.5876 13.0185L14.2222 13.6437C14.4189 13.8374 14.4213 14.154 14.2275 14.3507C14.0337 14.5475 13.7172 14.5499 13.5204 14.3561L12.8751 13.7203L12.2296 14.3562C12.0328 14.55 11.7163 14.5476 11.5225 14.3509C11.3287 14.1542 11.3311 13.8376 11.5278 13.6438L12.1626 13.0185L11.3991 12.2665C11.2024 12.0727 11.2 11.7561 11.3938 11.5594Z" fill="#272A35"/>
</svg>
