<svg width="40" height="40" viewBox="0 0 40 40" fill="none" xmlns="http://www.w3.org/2000/svg">
<path fill-rule="evenodd" clip-rule="evenodd" d="M32.8333 6.5C33.3856 6.5 33.8333 6.94772 33.8333 7.5L33.8333 12.8788L35.7928 10.9189C36.1833 10.5283 36.8165 10.5283 37.207 10.9187C37.5976 11.3092 37.5977 11.9424 37.2072 12.3329L34.8369 14.7038C33.7304 15.8105 31.9363 15.8105 30.8298 14.7038L28.4595 12.3329C28.069 11.9424 28.0691 11.3092 28.4596 10.9187C28.8502 10.5282 29.4834 10.5283 29.8739 10.9189L31.8333 12.8788L31.8333 7.5C31.8333 6.94771 32.281 6.5 32.8333 6.5ZM10.3167 18.9226C10.3167 18.9233 10.3167 18.924 10.3167 18.9248L10.3169 18.9891C10.3191 19.4884 9.95274 19.9127 9.45854 19.9834C6.65548 20.3843 4.5 22.7973 4.5 25.7124C4.5 28.909 7.09074 31.5 10.2861 31.5L10.296 31.5H26.7667C29.4266 31.5 31.5833 29.3431 31.5833 26.682C31.5833 24.0209 29.4266 21.8641 26.7667 21.8641C26.6984 21.8641 26.6305 21.8655 26.5629 21.8683C24.7901 21.9421 23.2633 22.9741 22.4891 24.4646C22.2346 24.9547 21.6309 25.1457 21.1408 24.8911C20.6506 24.6365 20.4597 24.0329 20.7142 23.5427C21.3577 22.3039 22.3712 21.2866 23.6089 20.6383C23.7516 20.092 23.8278 19.5179 23.8278 18.9248C23.8278 15.1926 20.803 12.1675 17.0722 12.1675C13.3421 12.1675 10.3178 15.1915 10.3167 18.9226ZM26.5207 19.8684C26.2666 19.8774 26.0161 19.9004 25.7699 19.9365C25.8081 19.6043 25.8278 19.2667 25.8278 18.9248C25.8278 14.0885 21.908 10.1675 17.0722 10.1675C12.4914 10.1675 8.73249 13.6859 8.3489 18.168C4.98559 19.0296 2.5 22.08 2.5 25.7124C2.5 30.0132 5.98575 33.5 10.2861 33.5L26.7667 33.5C30.5316 33.5 33.5833 30.4473 33.5833 26.682C33.5833 22.9168 30.5316 19.8641 26.7667 19.8641C26.6843 19.8641 26.6023 19.8655 26.5207 19.8684Z" fill="#272A35"/>
</svg>
