<svg width="16" height="16" viewBox="0 0 16 16" fill="none" xmlns="http://www.w3.org/2000/svg">
<path fill-rule="evenodd" clip-rule="evenodd" d="M6.5 2.5C5.94772 2.5 5.5 2.94772 5.5 3.5V3.75H10.5V3.5C10.5 2.94772 10.0523 2.5 9.5 2.5H6.5ZM11.5 3.75V3.5C11.5 2.39543 10.6046 1.5 9.5 1.5H6.5C5.39543 1.5 4.5 2.39543 4.5 3.5V3.75H3.5C2.39543 3.75 1.5 4.64543 1.5 5.75V12.5C1.5 13.6046 2.39543 14.5 3.5 14.5H12.5C13.6046 14.5 14.5 13.6046 14.5 12.5V5.75C14.5 4.64543 13.6046 3.75 12.5 3.75H11.5ZM3.5 4.75C2.94772 4.75 2.5 5.19772 2.5 5.75V9.75H6.75V9.5C6.75 8.80964 7.30964 8.25 8 8.25C8.69036 8.25 9.25 8.80964 9.25 9.5V9.75H13.5V5.75C13.5 5.19772 13.0523 4.75 12.5 4.75H3.5ZM13.5 10.75H9.25V11C9.25 11.6904 8.69036 12.25 8 12.25C7.30964 12.25 6.75 11.6904 6.75 11V10.75H2.5V12.5C2.5 13.0523 2.94772 13.5 3.5 13.5H12.5C13.0523 13.5 13.5 13.0523 13.5 12.5V10.75ZM7.75 11C7.75 11.1381 7.86193 11.25 8 11.25C8.13807 11.25 8.25 11.1381 8.25 11V9.5C8.25 9.36193 8.13807 9.25 8 9.25C7.86193 9.25 7.75 9.36193 7.75 9.5V11Z" fill="#272A35"/>
</svg>
