<svg width="40" height="40" viewBox="0 0 40 40" fill="none" xmlns="http://www.w3.org/2000/svg">
<path fill-rule="evenodd" clip-rule="evenodd" d="M6.5 6C6.5 5.44772 6.94772 5 7.5 5H30.5C31.0523 5 31.5 5.44772 31.5 6C31.5 6.55228 31.0523 7 30.5 7H29.0175C29.135 7.307 29.2 7.64208 29.2 8V10.1716C29.2 14.4507 26.4342 18.1724 22.3523 20C26.4342 21.8276 29.2 25.5493 29.2 29.8284V32C29.2 32.3579 29.135 32.693 29.0175 33H30.5C31.0523 33 31.5 33.4477 31.5 34C31.5 34.5523 31.0523 35 30.5 35H7.5C6.94772 35 6.5 34.5523 6.5 34C6.5 33.4477 6.94772 33 7.5 33H8.98247C8.86497 32.693 8.8 32.3579 8.8 32V29.8284C8.8 25.5493 11.5658 21.8276 15.6477 20C11.5658 18.1724 8.8 14.4507 8.8 10.1716V8C8.8 7.64208 8.86497 7.307 8.98247 7H7.5C6.94772 7 6.5 6.55228 6.5 6ZM12.1 7C11.2462 7 10.8 7.57438 10.8 8V10.1716C10.8 10.4515 10.8153 10.7297 10.8453 11.0054C10.8797 11.0018 10.9146 11 10.95 11H27.05C27.0854 11 27.1203 11.0018 27.1547 11.0054C27.1847 10.7297 27.2 10.4515 27.2 10.1716V8C27.2 7.57438 26.7538 7 25.9 7H12.1ZM26.6672 13H11.3328C12.4266 15.8317 15.1304 18.1354 18.7463 18.9215C18.9124 18.9576 19.0876 18.9576 19.2537 18.9215C22.8696 18.1354 25.5734 15.8317 26.6672 13ZM18 21.2657C13.6518 22.5059 10.8 26.0011 10.8 29.8284V31.8088C10.8353 31.2875 11.0231 30.7611 11.3903 30.2822L11.5735 30.0431C13.0162 28.1614 14.9866 26.6545 17.2792 25.6578L17.5727 25.5301C17.7119 25.4696 17.8547 25.4184 18 25.3766L18 21.2657ZM20 25.3766C20.1453 25.4184 20.2881 25.4696 20.4273 25.5301L20.7208 25.6578C23.0134 26.6545 24.9838 28.1614 26.4265 30.0431L26.6097 30.2822C26.9769 30.7611 27.1647 31.2875 27.2 31.8088V29.8284C27.2 26.0011 24.3482 22.5059 20 21.2657L20 25.3766ZM19.6299 27.3643C19.2367 27.1933 18.7633 27.1933 18.3701 27.3643L18.0766 27.4919C16.0731 28.363 14.3824 29.6665 13.1607 31.26L12.9775 31.499C12.7374 31.8122 12.7473 32.1368 12.9214 32.4196C13.1064 32.7203 13.5086 33 14.0976 33H23.9024C24.4914 33 24.8936 32.7203 25.0786 32.4196C25.2527 32.1368 25.2626 31.8122 25.0225 31.499L24.8393 31.26C23.6176 29.6665 21.9269 28.363 19.9234 27.4919L19.6299 27.3643Z" fill="#272A35"/>
</svg>
