<svg width="16" height="16" viewBox="0 0 16 16" fill="none" xmlns="http://www.w3.org/2000/svg">
<path fill-rule="evenodd" clip-rule="evenodd" d="M3.71429 2.5C3.04365 2.5 2.5 3.04365 2.5 3.71429V12.2857C2.5 12.9563 3.04365 13.5 3.71429 13.5H12.2857C12.9563 13.5 13.5 12.9563 13.5 12.2857V6.78571H11.4286C10.2057 6.78571 9.21429 5.79434 9.21429 4.57143V2.5H3.71429ZM10.2143 3.20711L12.7929 5.78571H11.4286C10.7579 5.78571 10.2143 5.24206 10.2143 4.57143V3.20711ZM1.5 3.71429C1.5 2.49137 2.49137 1.5 3.71429 1.5H9.92139L14.5 6.07861V12.2857C14.5 13.5086 13.5086 14.5 12.2857 14.5H3.71429C2.49137 14.5 1.5 13.5086 1.5 12.2857V3.71429ZM6.28571 6.64286C6.56186 6.64286 6.78571 6.86671 6.78571 7.14286V8.35714H8C8.27614 8.35714 8.5 8.581 8.5 8.85714C8.5 9.13329 8.27614 9.35714 8 9.35714H6.78571V10.5714C6.78571 10.8476 6.56186 11.0714 6.28571 11.0714C6.00957 11.0714 5.78571 10.8476 5.78571 10.5714V9.35714H4.57143C4.29529 9.35714 4.07143 9.13329 4.07143 8.85714C4.07143 8.581 4.29529 8.35714 4.57143 8.35714H5.78571V7.14286C5.78571 6.86671 6.00957 6.64286 6.28571 6.64286Z" fill="#272A35"/>
</svg>
