<svg width="40" height="40" viewBox="0 0 40 40" fill="none" xmlns="http://www.w3.org/2000/svg">
<path fill-rule="evenodd" clip-rule="evenodd" d="M30.3063 6.77973C30.7041 6.39662 31.3371 6.40851 31.7203 6.8063L33.75 8.91378L35.7797 6.8063C36.1629 6.40851 36.7959 6.39662 37.1937 6.77973C37.5915 7.16285 37.6034 7.79591 37.2203 8.1937L35.1384 10.3553L37.2203 12.517C37.6034 12.9148 37.5915 13.5478 37.1937 13.9309C36.7959 14.314 36.1628 14.3021 35.7797 13.9044L33.75 11.7969L31.7203 13.9044C31.3371 14.3021 30.7041 14.314 30.3063 13.9309C29.9085 13.5478 29.8966 12.9148 30.2797 12.517L32.3616 10.3553L30.2797 8.1937C29.8966 7.79591 29.9085 7.16285 30.3063 6.77973ZM10.3167 18.4059C10.3167 18.4066 10.3167 18.4073 10.3167 18.4079L10.3169 18.4751C10.319 18.9722 9.95557 19.3954 9.46381 19.4684C6.68578 19.8809 4.5 22.3787 4.5 25.454C4.5 28.8289 7.12562 31.5 10.2861 31.5L10.2943 31.5L10.296 31.5L26.7667 31.5C29.3917 31.5 31.5833 29.2795 31.5833 26.4605C31.5833 23.6416 29.3917 21.4211 26.7667 21.4211C24.9274 21.4211 23.3087 22.5033 22.496 24.1277C22.2489 24.6216 21.6481 24.8216 21.1542 24.5745C20.6603 24.3274 20.4603 23.7267 20.7074 23.2327C21.3468 21.9547 22.3594 20.8981 23.6019 20.224C23.7491 19.6457 23.8278 19.0371 23.8278 18.4079C23.8278 14.4771 20.7681 11.3553 17.0722 11.3553C13.377 11.3553 10.3177 14.4761 10.3167 18.4059ZM25.765 19.4964C25.8065 19.1393 25.8278 18.776 25.8278 18.4079C25.8278 13.4441 21.9429 9.35534 17.0722 9.35534C12.4486 9.35534 8.71335 13.0398 8.34627 17.6597C4.9632 18.5551 2.5 21.7262 2.5 25.454C2.5 29.8619 5.95087 33.5 10.2861 33.5L10.2976 33.5L26.7667 33.5C30.5665 33.5 33.5833 30.3126 33.5833 26.4605C33.5833 22.6085 30.5665 19.4211 26.7667 19.4211C26.4261 19.4211 26.0916 19.4468 25.765 19.4964Z" fill="#272A35"/>
</svg>
