<svg width="24" height="24" viewBox="0 0 24 24" fill="none" xmlns="http://www.w3.org/2000/svg">
<path fill-rule="evenodd" clip-rule="evenodd" d="M11.9999 3.60002C8.47669 3.60002 5.5999 6.51807 5.5999 10.1434C5.5999 12.0084 6.1885 13.9703 7.58801 15.916C8.41735 17.069 9.91022 18.7477 11.0328 19.9687C11.5616 20.5438 12.4382 20.5438 12.967 19.9687C14.0896 18.7477 15.5825 17.069 16.4118 15.916C17.8113 13.9703 18.3999 12.0084 18.3999 10.1434C18.3999 6.51807 15.5231 3.60002 11.9999 3.60002ZM4.3999 10.1434C4.3999 5.87839 7.79113 2.40002 11.9999 2.40002C16.2087 2.40002 19.5999 5.87839 19.5999 10.1434C19.5999 12.2761 18.9225 14.4804 17.386 16.6167C16.5087 17.8363 14.9686 19.5646 13.8504 20.7809C12.8462 21.8731 11.1536 21.8731 10.1495 20.7809C9.03122 19.5646 7.49109 17.8363 6.61383 16.6167C5.07729 14.4804 4.3999 12.2761 4.3999 10.1434ZM11.9999 7.50245C12.3313 7.50245 12.5999 7.77108 12.5999 8.10245V9.54342H13.9999C14.3313 9.54342 14.5999 9.81205 14.5999 10.1434C14.5999 10.4748 14.3313 10.7434 13.9999 10.7434H12.5999V12.1844C12.5999 12.5158 12.3313 12.7844 11.9999 12.7844C11.6685 12.7844 11.3999 12.5158 11.3999 12.1844V10.7434H9.9999C9.66853 10.7434 9.3999 10.4748 9.3999 10.1434C9.3999 9.81205 9.66853 9.54342 9.9999 9.54342H11.3999V8.10245C11.3999 7.77108 11.6685 7.50245 11.9999 7.50245Z" fill="#272A35"/>
</svg>
