<svg width="32" height="32" viewBox="0 0 32 32" fill="none" xmlns="http://www.w3.org/2000/svg">
<path fill-rule="evenodd" clip-rule="evenodd" d="M3.19995 10C3.19995 6.24448 6.24442 3.20001 9.99995 3.20001H22C25.7555 3.20001 28.7999 6.24448 28.7999 10V22C28.7999 25.7555 25.7555 28.8 22 28.8H9.99995C6.24442 28.8 3.19995 25.7555 3.19995 22V10ZM4.79995 16.8H6.24995C6.69178 16.8 7.04995 16.4418 7.04995 16C7.04995 15.5582 6.69178 15.2 6.24995 15.2H4.79995V10C4.79995 7.12813 7.12807 4.80001 9.99995 4.80001H15.2V6.25001C15.2 6.69184 15.5581 7.05001 16 7.05001C16.4418 7.05001 16.8 6.69184 16.8 6.25001V4.80001H22C24.8718 4.80001 27.2 7.12813 27.2 10V15.2H25.75C25.3081 15.2 24.95 15.5582 24.95 16C24.95 16.4418 25.3081 16.8 25.75 16.8H27.2V22C27.2 24.8719 24.8718 27.2 22 27.2H16.8V25.75C16.8 25.3082 16.4418 24.95 16 24.95C15.5581 24.95 15.2 25.3082 15.2 25.75V27.2H9.99995C7.12807 27.2 4.79995 24.8719 4.79995 22V16.8ZM16 9.20001C16.4418 9.20001 16.8 9.55818 16.8 10V16C16.8 16.2122 16.7157 16.4157 16.5656 16.5657L13.5656 19.5657C13.2532 19.8781 12.7467 19.8781 12.4343 19.5657C12.1218 19.2533 12.1218 18.7467 12.4343 18.4343L15.2 15.6686V10C15.2 9.55818 15.5581 9.20001 16 9.20001Z" fill="#272A35"/>
</svg>
