<svg width="16" height="16" viewBox="0 0 16 16" fill="none" xmlns="http://www.w3.org/2000/svg">
<path fill-rule="evenodd" clip-rule="evenodd" d="M2.5 8C2.50004 8.00089 2.50027 8.00668 2.50197 8.01808C2.50395 8.0313 2.50754 8.04959 2.51369 8.07327C2.52612 8.1212 2.54694 8.18327 2.57863 8.25923C2.64217 8.41151 2.7414 8.6005 2.87746 8.81481C3.14934 9.24301 3.55125 9.7455 4.0577 10.2241C5.07839 11.1886 6.46149 12 8 12C9.53851 12 10.9216 11.1886 11.9423 10.2241C12.4487 9.7455 12.8507 9.24301 13.1225 8.81481C13.2586 8.6005 13.3578 8.41151 13.4214 8.25923C13.4531 8.18327 13.4739 8.1212 13.4863 8.07327C13.4925 8.04959 13.496 8.0313 13.498 8.01808C13.4997 8.0067 13.5 8.0009 13.5 8.00001C13.5 8 13.5 8 13.5 8C13.5 7.9991 13.4997 7.9933 13.498 7.98192C13.496 7.96869 13.4925 7.95041 13.4863 7.92673C13.4739 7.8788 13.4531 7.81673 13.4214 7.74077C13.3578 7.58849 13.2586 7.3995 13.1225 7.18519C12.8507 6.75699 12.4487 6.2545 11.9423 5.77591C10.9216 4.81136 9.53851 4 8 4C6.46149 4 5.07839 4.81136 4.0577 5.77591C3.55125 6.2545 3.14934 6.75699 2.87746 7.18519C2.7414 7.3995 2.64217 7.58849 2.57863 7.74077C2.54694 7.81673 2.52612 7.8788 2.51369 7.92673C2.50754 7.95041 2.50395 7.96869 2.50197 7.98192C2.50027 7.99333 2.50004 7.99913 2.5 8ZM3.37087 5.04909C4.49304 3.98864 6.10994 3 8 3C9.89006 3 11.507 3.98864 12.6291 5.04909C13.1941 5.583 13.6493 6.14926 13.9667 6.64918C14.1253 6.89894 14.2538 7.13885 14.3443 7.35571C14.4299 7.56104 14.5 7.78855 14.5 8C14.5 8.21145 14.4299 8.43895 14.3443 8.64429C14.2538 8.86115 14.1253 9.10106 13.9667 9.35082C13.6493 9.85074 13.1941 10.417 12.6291 10.9509C11.507 12.0114 9.89006 13 8 13C6.10994 13 4.49304 12.0114 3.37087 10.9509C2.80589 10.417 2.35067 9.85074 2.03325 9.35082C1.87467 9.10106 1.74622 8.86115 1.65574 8.64429C1.57007 8.43895 1.5 8.21145 1.5 8C1.5 7.78855 1.57007 7.56104 1.65574 7.35571C1.74622 7.13885 1.87467 6.89894 2.03325 6.64918C2.35067 6.14926 2.80589 5.583 3.37087 5.04909ZM8 6.7C7.35208 6.7 6.78571 7.25876 6.78571 8C6.78571 8.74124 7.35208 9.3 8 9.3C8.64792 9.3 9.21429 8.74124 9.21429 8C9.21429 7.25876 8.64792 6.7 8 6.7ZM5.78571 8C5.78571 6.75301 6.75438 5.7 8 5.7C9.24562 5.7 10.2143 6.75301 10.2143 8C10.2143 9.24699 9.24562 10.3 8 10.3C6.75438 10.3 5.78571 9.24699 5.78571 8Z" fill="#272A35"/>
</svg>
