<svg width="16" height="16" viewBox="0 0 16 16" fill="none" xmlns="http://www.w3.org/2000/svg">
<path fill-rule="evenodd" clip-rule="evenodd" d="M7.05565 2.5C6.5453 2.5 6.16676 2.89214 6.16676 3.33333L6.16676 11.3232C6.16688 11.3297 6.16688 11.3361 6.16676 11.3425V12.6667C6.16676 13.1079 6.54529 13.5 7.05565 13.5H12.6112C13.1216 13.5 13.5001 13.1079 13.5001 12.6667V3.33333C13.5001 2.89214 13.1216 2.5 12.6112 2.5L7.05565 2.5ZM5.16676 9.38576L5.16676 4.1314L3.67485 4.85469C3.22809 5.07128 3.07372 5.57812 3.29264 5.97638L5.16676 9.38576ZM5.19655 3.00563C5.35683 2.13685 6.14323 1.5 7.05565 1.5L12.6112 1.5C13.635 1.5 14.5001 2.30177 14.5001 3.33333V12.6667C14.5001 13.6982 13.635 14.5 12.6112 14.5H7.05565C6.11627 14.5 5.31047 13.825 5.184 12.9168L2.16655 10.4307C1.40662 9.80461 1.27579 8.70759 1.88105 7.92883L2.66811 6.91616L2.41631 6.45809C1.91015 5.53729 2.29857 4.4106 3.2386 3.95486L5.19655 3.00563ZM3.19278 7.87065L5.16676 11.4617V11.6069L2.80242 9.65891C2.45396 9.37181 2.40242 8.88758 2.67062 8.54249L3.19278 7.87065ZM7.75009 3.5C8.02623 3.5 8.25009 3.72386 8.25009 4V4.66667C8.25009 4.94281 8.02623 5.16667 7.75009 5.16667C7.47395 5.16667 7.25009 4.94281 7.25009 4.66667V4C7.25009 3.72386 7.47395 3.5 7.75009 3.5ZM11.9168 3.5C12.1929 3.5 12.4168 3.72386 12.4168 4V4.66667C12.4168 4.94281 12.1929 5.16667 11.9168 5.16667C11.6406 5.16667 11.4168 4.94281 11.4168 4.66667V4C11.4168 3.72386 11.6406 3.5 11.9168 3.5ZM9.83342 6.5C8.93954 6.5 8.25009 7.19061 8.25009 8C8.25009 8.80939 8.93954 9.5 9.83342 9.5C10.7273 9.5 11.4168 8.80939 11.4168 8C11.4168 7.19061 10.7273 6.5 9.83342 6.5ZM7.25009 8C7.25009 6.60025 8.42612 5.5 9.83342 5.5C11.2407 5.5 12.4168 6.60025 12.4168 8C12.4168 9.39975 11.2407 10.5 9.83342 10.5C8.42612 10.5 7.25009 9.39975 7.25009 8ZM7.75009 10.8333C8.02623 10.8333 8.25009 11.0572 8.25009 11.3333V12C8.25009 12.2761 8.02623 12.5 7.75009 12.5C7.47395 12.5 7.25009 12.2761 7.25009 12V11.3333C7.25009 11.0572 7.47395 10.8333 7.75009 10.8333ZM11.9168 10.8333C12.1929 10.8333 12.4168 11.0572 12.4168 11.3333V12C12.4168 12.2761 12.1929 12.5 11.9168 12.5C11.6406 12.5 11.4168 12.2761 11.4168 12V11.3333C11.4168 11.0572 11.6406 10.8333 11.9168 10.8333Z" fill="#272A35"/>
</svg>
