<svg width="32" height="32" viewBox="0 0 32 32" fill="none" xmlns="http://www.w3.org/2000/svg">
<path fill-rule="evenodd" clip-rule="evenodd" d="M3.19995 5.84617C3.19995 4.54797 4.08248 3.20001 5.49995 3.20001H26.5C27.9174 3.20001 28.8 4.54797 28.8 5.84617V11.3846C28.8 12.6828 27.9174 14.0308 26.5 14.0308H25.8V24.3077C25.8 26.6255 24.2458 28.8 22 28.8H9.99995C7.75405 28.8 6.19995 26.6255 6.19995 24.3077L6.19995 14.0308H5.49995C4.08248 14.0308 3.19995 12.6828 3.19995 11.3846V5.84617ZM7.79995 13.2308L7.79995 24.3077C7.79995 26.0683 8.93214 27.2 9.99995 27.2H22C23.0678 27.2 24.2 26.0683 24.2 24.3077V9.53847C24.2 8.79747 23.7393 8.49232 23.5 8.49232L8.49995 8.49232C8.26057 8.49232 7.79995 8.79747 7.79995 9.53847V13.2308ZM25.8 12.4308V9.53847C25.8 8.24027 24.9174 6.89232 23.5 6.89232L8.49995 6.89232C7.08248 6.89232 6.19995 8.24027 6.19995 9.53847L6.19995 12.4308H5.49995C5.26057 12.4308 4.79995 12.1256 4.79995 11.3846V5.84617C4.79995 5.10516 5.26057 4.80001 5.49995 4.80001H26.5C26.7393 4.80001 27.2 5.10516 27.2 5.84617V11.3846C27.2 12.1256 26.7393 12.4308 26.5 12.4308H25.8Z" fill="#272A35"/>
<path fill-rule="evenodd" clip-rule="evenodd" d="M13.1512 14.9587C13.4652 14.6478 13.9717 14.6503 14.2826 14.9643L15.9998 16.6988L17.717 14.9643C18.0278 14.6503 18.5344 14.6478 18.8483 14.9587C19.1623 15.2695 19.1649 15.776 18.854 16.09L17.1255 17.8359L18.854 19.5817C19.1649 19.8957 19.1623 20.4022 18.8483 20.7131C18.5344 21.0239 18.0278 21.0214 17.717 20.7074L15.9998 18.973L14.2826 20.7074C13.9717 21.0214 13.4652 21.0239 13.1512 20.7131C12.8372 20.4022 12.8347 19.8957 13.1456 19.5817L14.874 17.8359L13.1456 16.09C12.8347 15.776 12.8372 15.2695 13.1512 14.9587Z" fill="#272A35"/>
</svg>
