<svg width="24" height="24" viewBox="0 0 24 24" fill="none" xmlns="http://www.w3.org/2000/svg">
<path fill-rule="evenodd" clip-rule="evenodd" d="M10.3353 3.4385C11.0311 2.05386 12.9685 2.05387 13.6644 3.4385L15.5851 7.26038C15.683 7.45508 15.8571 7.58552 16.0514 7.62501L20.0925 8.44623C21.5333 8.73901 22.0722 10.5058 21.1251 11.5928L18.2295 14.9164C18.0966 15.069 18.0313 15.2778 18.0565 15.4889L18.5305 19.4528C18.722 21.0539 16.9545 22.2316 15.5913 21.2448L12.378 18.9188C12.1498 18.7536 11.8499 18.7536 11.6217 18.9188L8.40833 21.2448C7.04517 22.2316 5.27769 21.0539 5.46915 19.4528L5.94313 15.4889C5.96837 15.2778 5.90304 15.069 5.77013 14.9164L2.8745 11.5928C1.92748 10.5058 2.46633 8.73901 3.9071 8.44623L7.94825 7.62501C8.14256 7.58552 8.31664 7.45509 8.4145 7.26038L10.3353 3.4385ZM12.5922 3.97736C12.3393 3.47425 11.6603 3.47425 11.4075 3.97735L9.48671 7.79924C9.22819 8.31363 8.75233 8.68614 8.18722 8.80098L4.14607 9.62219C3.6506 9.72288 3.40682 10.377 3.77927 10.8045L6.6749 14.1281C7.03407 14.5404 7.19954 15.0887 7.13464 15.6314L6.66066 19.5952C6.58228 20.2507 7.26415 20.5917 7.7047 20.2728L10.918 17.9468C11.5661 17.4777 12.4335 17.4777 13.0816 17.9468L16.2949 20.2728C16.7355 20.5917 17.4174 20.2507 17.339 19.5952L16.865 15.6314C16.8001 15.0887 16.9656 14.5404 17.3247 14.1281L20.2204 10.8045C20.5928 10.377 20.349 9.72288 19.8536 9.62219L15.8124 8.80098C15.2473 8.68614 14.7715 8.31363 14.5129 7.79924L12.5922 3.97736Z" fill="#272A35"/>
</svg>
