<svg width="32" height="32" viewBox="0 0 32 32" fill="none" xmlns="http://www.w3.org/2000/svg">
<path fill-rule="evenodd" clip-rule="evenodd" d="M28.5314 19.402C28.8616 19.6956 28.8913 20.2012 28.5978 20.5315L22.2341 27.6906C21.5181 28.4961 20.2595 28.4961 19.5434 27.6906L16.7353 24.5315C16.4417 24.2012 16.4715 23.6956 16.8017 23.402C17.1319 23.1085 17.6376 23.1382 17.9311 23.4685L20.7393 26.6276C20.8188 26.7171 20.9587 26.7171 21.0382 26.6276L27.402 19.4685C27.6955 19.1382 28.2011 19.1085 28.5314 19.402Z" fill="#272A35"/>
<path fill-rule="evenodd" clip-rule="evenodd" d="M3.19995 7.99995C3.19995 5.34898 5.34898 3.19995 7.99995 3.19995H22.6666C25.3176 3.19995 27.4666 5.34899 27.4666 7.99995V15.9523C27.4666 16.3942 27.1084 16.7523 26.6666 16.7523C26.2248 16.7523 25.8666 16.3942 25.8666 15.9523V7.99995C25.8666 6.23264 24.4339 4.79995 22.6666 4.79995H7.99995C6.23264 4.79995 4.79995 6.23264 4.79995 7.99995V20C4.79995 21.7673 6.23264 23.2 7.99995 23.2H12.6666C13.1084 23.2 13.4666 23.5581 13.4666 24C13.4666 24.4418 13.1084 24.8 12.6666 24.8H7.99995C5.34898 24.8 3.19995 22.6509 3.19995 20V7.99995Z" fill="#272A35"/>
<path fill-rule="evenodd" clip-rule="evenodd" d="M4.82108 4.71877C5.1605 4.43592 5.66495 4.48178 5.9478 4.8212L13.6431 14.0556C14.5227 15.1111 16.1438 15.1111 17.0233 14.0556L24.7186 4.8212C25.0015 4.48178 25.5059 4.43592 25.8454 4.71877C26.1848 5.00162 26.2307 5.50607 25.9478 5.84549L18.2525 15.0799C16.7332 16.903 13.9332 16.903 12.414 15.0799L4.71865 5.84549C4.43579 5.50607 4.48165 5.00162 4.82108 4.71877Z" fill="#272A35"/>
</svg>
