<svg width="40" height="40" viewBox="0 0 40 40" fill="none" xmlns="http://www.w3.org/2000/svg">
<path fill-rule="evenodd" clip-rule="evenodd" d="M4 19.6667C4 19.1144 4.44772 18.6667 5 18.6667H35C35.5523 18.6667 36 19.1144 36 19.6667C36 20.219 35.5523 20.6667 35 20.6667H5C4.44772 20.6667 4 20.219 4 19.6667Z" fill="#272A35"/>
<path fill-rule="evenodd" clip-rule="evenodd" d="M20 7.66663C18.4722 7.66663 17.25 8.89085 17.25 10.3809C17.25 11.871 18.4722 13.0952 20 13.0952C21.5278 13.0952 22.75 11.871 22.75 10.3809C22.75 8.89085 21.5278 7.66663 20 7.66663ZM15.25 10.3809C15.25 7.76828 17.3857 5.66663 20 5.66663C22.6143 5.66663 24.75 7.76828 24.75 10.3809C24.75 12.9935 22.6143 15.0952 20 15.0952C17.3857 15.0952 15.25 12.9935 15.25 10.3809ZM20 26.2381C18.4722 26.2381 17.25 27.4623 17.25 28.9523C17.25 30.4424 18.4722 31.6666 20 31.6666C21.5278 31.6666 22.75 30.4424 22.75 28.9523C22.75 27.4623 21.5278 26.2381 20 26.2381ZM15.25 28.9523C15.25 26.3397 17.3857 24.2381 20 24.2381C22.6143 24.2381 24.75 26.3397 24.75 28.9523C24.75 31.565 22.6143 33.6666 20 33.6666C17.3857 33.6666 15.25 31.565 15.25 28.9523Z" fill="#272A35"/>
</svg>
