<svg width="16" height="16" viewBox="0 0 16 16" fill="none" xmlns="http://www.w3.org/2000/svg">
<path fill-rule="evenodd" clip-rule="evenodd" d="M9.41943 13L8.31423 13L9.41943 11.8927L9.41943 13ZM10.4194 10.6839C10.4194 10.2382 9.88038 10.0152 9.56554 10.3307L6.75488 13.1468C6.44036 13.4619 6.66355 14 7.10877 14L9.91943 14C10.1956 14 10.4194 13.7761 10.4194 13.5L10.4194 10.6839Z" fill="#272A35"/>
<path fill-rule="evenodd" clip-rule="evenodd" d="M2.63776 6.47271C2.44723 6.67259 2.45481 6.98908 2.6547 7.17961L7.81615 12.0995C8.01603 12.29 8.33253 12.2824 8.52305 12.0825C8.71358 11.8827 8.706 11.5662 8.50611 11.3756L3.34466 6.45577C3.14478 6.26524 2.82829 6.27282 2.63776 6.47271Z" fill="#272A35"/>
<path fill-rule="evenodd" clip-rule="evenodd" d="M6.58057 2L7.68577 2L6.58057 3.10734L6.58057 2ZM5.58057 4.31611C5.58057 4.76179 6.11962 4.98477 6.43446 4.66932L9.24512 1.85321C9.55963 1.53809 9.33645 0.999998 8.89123 0.999999L6.08057 0.999998C5.80442 0.999998 5.58057 1.22386 5.58057 1.5L5.58057 4.31611Z" fill="#272A35"/>
<path fill-rule="evenodd" clip-rule="evenodd" d="M13.3618 8.52729C13.5523 8.32741 13.5447 8.01092 13.3448 7.82039L8.18336 2.90051C7.98348 2.70998 7.66699 2.71757 7.47646 2.91745C7.28593 3.11733 7.29351 3.43382 7.4934 3.62435L12.6548 8.54423C12.8547 8.73476 13.1712 8.72718 13.3618 8.52729Z" fill="#272A35"/>
</svg>
