<svg width="32" height="32" viewBox="0 0 32 32" fill="none" xmlns="http://www.w3.org/2000/svg">
<path fill-rule="evenodd" clip-rule="evenodd" d="M3.19995 7.42852C3.19995 5.09315 5.09315 3.19995 7.42852 3.19995H24.5714C26.9068 3.19995 28.7999 5.09315 28.7999 7.42852V14.2857C28.7999 14.7275 28.4418 15.0857 28 15.0857C27.5581 15.0857 27.2 14.7275 27.2 14.2857V7.42852C27.2 5.9768 26.0231 4.79995 24.5714 4.79995H7.42852C5.9768 4.79995 4.79995 5.9768 4.79995 7.42852V24.5714C4.79995 26.0231 5.9768 27.2 7.42852 27.2H19.4285C19.8703 27.2 20.2285 27.5581 20.2285 28C20.2285 28.4418 19.8703 28.7999 19.4285 28.7999H7.42852C5.09315 28.7999 3.19995 26.9068 3.19995 24.5714V7.42852ZM8.57712 13.72C8.88954 13.4076 9.39607 13.4076 9.70849 13.72L13.5576 17.569C13.8699 17.8814 14.3899 17.8299 14.635 17.4624L16.0337 15.3643C16.8388 14.1567 18.5474 13.9875 19.5737 15.0138L27.2 22.64V19.4285C27.2 18.9867 27.5581 18.6285 28 18.6285C28.4418 18.6285 28.7999 18.9867 28.7999 19.4285V24.5714C28.7999 25.0132 28.4418 25.3714 28 25.3714H22.8571C22.4153 25.3714 22.0571 25.0132 22.0571 24.5714C22.0571 24.1296 22.4153 23.7714 22.8571 23.7714H26.0686L18.4423 16.1451C18.13 15.8328 17.61 15.8843 17.3649 16.2518L15.9662 18.3499C15.1611 19.5575 13.4525 19.7267 12.4262 18.7004L8.57712 14.8514C8.2647 14.5389 8.2647 14.0324 8.57712 13.72Z" fill="#272A35"/>
</svg>
