<svg width="24" height="24" viewBox="0 0 24 24" fill="none" xmlns="http://www.w3.org/2000/svg">
<path fill-rule="evenodd" clip-rule="evenodd" d="M12.0001 20.9C16.9154 20.9 20.9001 16.9153 20.9001 12C20.9001 7.08464 16.9154 3.09998 12.0001 3.09998C7.08476 3.09998 3.1001 7.08464 3.1001 12C3.1001 16.9153 7.08476 20.9 12.0001 20.9ZM22.1001 12C22.1001 17.5781 17.5782 22.1 12.0001 22.1C6.42202 22.1 1.9001 17.5781 1.9001 12C1.9001 6.4219 6.42202 1.89997 12.0001 1.89997C17.5782 1.89997 22.1001 6.4219 22.1001 12ZM8.03975 10.1142L11.3909 13.4653C11.7273 13.8018 12.2728 13.8018 12.6093 13.4653L15.9604 10.1142C16.1948 9.87986 16.5747 9.87986 16.809 10.1142C17.0433 10.3485 17.0433 10.7284 16.809 10.9627L13.4578 14.3139C12.6527 15.1189 11.3475 15.1189 10.5424 14.3139L7.19122 10.9627C6.9569 10.7284 6.9569 10.3485 7.19122 10.1142C7.42553 9.87986 7.80543 9.87986 8.03975 10.1142Z" fill="#272A35"/>
</svg>
