<svg width="16" height="16" viewBox="0 0 16 16" fill="none" xmlns="http://www.w3.org/2000/svg">
<path d="M13 2.1518H12.5H13ZM13 13.8777H13.5H13ZM3 2.1518H3.5H3ZM3 13.8777H2.5H3ZM4.75898 2.06931L5.15995 2.36802V2.36802L4.75898 2.06931ZM4.97443 1.78011L4.57347 1.4814L4.57347 1.4814L4.97443 1.78011ZM6.02557 1.78011L5.62461 2.07882L5.62461 2.07882L6.02557 1.78011ZM6.125 1.91358L6.52596 1.61487L6.52596 1.61486L6.125 1.91358ZM9.875 1.91358L9.47404 1.61486L9.47404 1.61487L9.875 1.91358ZM9.97443 1.78011L10.3754 2.07882L10.3754 2.07882L9.97443 1.78011ZM11.0256 1.78011L11.4265 1.4814L11.4265 1.4814L11.0256 1.78011ZM11.241 2.06931L10.8401 2.36802V2.36802L11.241 2.06931ZM5.04287 14.191L4.76423 14.6062H4.76423L5.04287 14.191ZM4.70518 13.9643L4.98382 13.5492H4.98382L4.70518 13.9643ZM6.125 14.0783L5.84636 13.6632H5.84636L6.125 14.0783ZM5.95713 14.191L6.23577 14.6062H6.23577L5.95713 14.191ZM10.0429 14.191L9.76423 14.6062L9.76423 14.6062L10.0429 14.191ZM9.875 14.0783L10.1536 13.6632L10.1536 13.6632L9.875 14.0783ZM11.2948 13.9643L11.0162 13.5492H11.0162L11.2948 13.9643ZM10.9571 14.191L11.2358 14.6062L11.2358 14.6062L10.9571 14.191ZM12.0142 14.1907L11.5663 14.4131L12.0142 14.1907ZM8.625 14.0783L8.34636 13.6632L8.625 14.0783ZM3.98585 14.1907L3.53803 13.9683L3.53803 13.9683L3.98585 14.1907ZM12.0598 1.9208L12.5284 2.09534V2.09533L12.0598 1.9208ZM3.94019 1.9208L3.47164 2.09533L3.47164 2.09534L3.94019 1.9208ZM12.5 2.1518V13.8777H13.5V2.1518H12.5ZM2.5 2.1518L2.5 13.8777H3.5L3.5 2.1518H2.5ZM5.15995 2.36802L5.37539 2.07882L4.57347 1.4814L4.35802 1.7706L5.15995 2.36802ZM5.62461 2.07882L5.72404 2.21229L6.52596 1.61486L6.42653 1.4814L5.62461 2.07882ZM10.276 2.21229L10.3754 2.07882L9.57347 1.4814L9.47404 1.61486L10.276 2.21229ZM10.6246 2.07882L10.8401 2.36802L11.642 1.7706L11.4265 1.4814L10.6246 2.07882ZM5.32151 13.7758L4.98382 13.5492L4.42654 14.3795L4.76423 14.6062L5.32151 13.7758ZM5.84636 13.6632L5.67849 13.7758L6.23577 14.6062L6.40364 14.4935L5.84636 13.6632ZM10.3215 13.7758L10.1536 13.6632L9.59636 14.4935L9.76423 14.6062L10.3215 13.7758ZM11.0162 13.5492L10.6785 13.7758L11.2358 14.6062L11.5735 14.3795L11.0162 13.5492ZM12.462 13.9683C12.2023 13.4454 11.5563 13.1867 11.0162 13.5492L11.5735 14.3795C11.5757 14.378 11.5723 14.3807 11.5639 14.3819C11.5558 14.383 11.5487 14.382 11.5441 14.3806C11.5397 14.3792 11.5403 14.3783 11.5444 14.382C11.5485 14.3856 11.5572 14.3947 11.5663 14.4131L12.462 13.9683ZM9.76423 14.6062C10.216 14.9094 10.784 14.9094 11.2358 14.6062L10.6785 13.7758C10.5638 13.8528 10.4362 13.8528 10.3215 13.7758L9.76423 14.6062ZM8.90364 14.4935C9.12238 14.3467 9.37762 14.3467 9.59636 14.4935L10.1536 13.6632C9.59782 13.2901 8.90218 13.2901 8.34636 13.6632L8.90364 14.4935ZM7.09636 14.4935C7.65218 14.8665 8.34782 14.8665 8.90364 14.4935L8.34636 13.6632C8.12762 13.81 7.87238 13.81 7.65364 13.6632L7.09636 14.4935ZM6.40364 14.4935C6.62238 14.3467 6.87762 14.3467 7.09636 14.4935L7.65364 13.6632C7.09782 13.2901 6.40218 13.2901 5.84636 13.6632L6.40364 14.4935ZM4.76423 14.6062C5.21603 14.9094 5.78397 14.9094 6.23577 14.6062L5.67849 13.7758C5.56377 13.8528 5.43623 13.8528 5.32151 13.7758L4.76423 14.6062ZM4.43366 14.4131C4.44279 14.3947 4.45146 14.3856 4.45556 14.382C4.45974 14.3783 4.46032 14.3792 4.45594 14.3806C4.45134 14.382 4.44419 14.383 4.43612 14.3819C4.4277 14.3807 4.4243 14.378 4.42654 14.3795L4.98382 13.5492C4.44366 13.1867 3.79773 13.4454 3.53803 13.9683L4.43366 14.4131ZM10.8401 2.36802C11.0665 2.67203 11.4218 2.81529 11.7744 2.75134C12.1214 2.6884 12.4007 2.43799 12.5284 2.09534L11.5913 1.74627C11.5824 1.76996 11.574 1.77665 11.5751 1.77567C11.5759 1.77497 11.5826 1.76981 11.5959 1.76739C11.6096 1.7649 11.6247 1.76646 11.6372 1.77157C11.6503 1.7769 11.6502 1.78163 11.642 1.7706L10.8401 2.36802ZM10.3754 2.07882C10.4265 2.01029 10.475 2 10.5 2C10.525 2 10.5736 2.01029 10.6246 2.07882L11.4265 1.4814C11.1994 1.17645 10.8614 1 10.5 1C10.1386 1 9.80065 1.17645 9.57347 1.4814L10.3754 2.07882ZM8.22404 2.21229C8.47753 2.55256 8.85202 2.74668 9.25 2.74668C9.64798 2.74668 10.0225 2.55256 10.276 2.21229L9.47404 1.61487C9.39666 1.71873 9.31158 1.74668 9.25 1.74668C9.18842 1.74668 9.10334 1.71873 9.02596 1.61487L8.22404 2.21229ZM7.77596 2.21229C7.85334 2.10843 7.93842 2.08047 8 2.08047C8.06158 2.08047 8.14666 2.10843 8.22404 2.21229L9.02596 1.61487C8.77247 1.27459 8.39798 1.08047 8 1.08047C7.60202 1.08047 7.22753 1.27459 6.97404 1.61487L7.77596 2.21229ZM5.72404 2.21229C5.97753 2.55256 6.35202 2.74668 6.75 2.74668C7.14798 2.74668 7.52247 2.55256 7.77596 2.21229L6.97404 1.61487C6.89666 1.71873 6.81158 1.74668 6.75 1.74668C6.68842 1.74668 6.60334 1.71873 6.52596 1.61487L5.72404 2.21229ZM5.37539 2.07882C5.42645 2.01029 5.47497 2 5.5 2C5.52503 2 5.57355 2.01029 5.62461 2.07882L6.42653 1.4814C6.19935 1.17645 5.86143 1 5.5 1C5.13858 0.999999 4.80065 1.17645 4.57347 1.4814L5.37539 2.07882ZM3.47164 2.09534C3.59928 2.43799 3.87863 2.6884 4.22561 2.75134C4.5782 2.81528 4.93346 2.67203 5.15995 2.36802L4.35802 1.7706C4.3498 1.78163 4.34969 1.7769 4.36277 1.77157C4.37532 1.76646 4.39035 1.7649 4.40407 1.76739C4.41743 1.76981 4.4241 1.77497 4.4249 1.77567C4.42601 1.77664 4.41756 1.76996 4.40874 1.74627L3.47164 2.09534ZM12.5 13.8777C12.5 13.9403 12.4832 13.9721 12.4743 13.9848C12.4642 13.9993 12.4562 14.0014 12.4578 14.0009C12.4602 14.0001 12.4707 13.9985 12.4829 14.0038C12.4881 14.0061 12.4889 14.0077 12.486 14.0048C12.4828 14.0017 12.4734 13.9914 12.462 13.9683L11.5663 14.4131C11.8081 14.8999 12.3045 15.0987 12.7604 14.954C13.1974 14.8152 13.5 14.3943 13.5 13.8777H12.5ZM13.5 2.1518C13.5 1.62906 13.1795 1.21281 12.7291 1.10215C12.2606 0.987035 11.7814 1.23582 11.5913 1.74627L12.5284 2.09533C12.5372 2.07163 12.545 2.06165 12.5465 2.05981C12.5478 2.05815 12.5452 2.06171 12.5374 2.066C12.5201 2.07553 12.5017 2.07601 12.4905 2.07327C12.4801 2.07072 12.4791 2.06666 12.4826 2.07135C12.4844 2.0737 12.4883 2.07971 12.4921 2.09138C12.4958 2.10305 12.5 2.12257 12.5 2.1518H13.5ZM3.5 2.1518C3.5 2.12257 3.5042 2.10305 3.50793 2.09138C3.51166 2.07971 3.5156 2.0737 3.51736 2.07135C3.52087 2.06666 3.51988 2.07072 3.5095 2.07327C3.49834 2.07601 3.47993 2.07553 3.4626 2.066C3.45479 2.06171 3.45215 2.05816 3.45352 2.05981C3.45505 2.06165 3.46281 2.07163 3.47164 2.09533L4.40874 1.74627C4.2186 1.23582 3.73943 0.987035 3.27091 1.10215C2.82046 1.21282 2.5 1.62906 2.5 2.1518H3.5ZM2.5 13.8777C2.5 14.3943 2.80255 14.8152 3.23958 14.954C3.69549 15.0987 4.1919 14.8999 4.43366 14.4131L3.53803 13.9683C3.52657 13.9914 3.51717 14.0017 3.51405 14.0048C3.51108 14.0077 3.5119 14.0061 3.51715 14.0038C3.52932 13.9985 3.53981 14.0001 3.54223 14.0009C3.54382 14.0014 3.53576 13.9993 3.52566 13.9848C3.51679 13.9721 3.5 13.9403 3.5 13.8777H2.5Z" fill="#272A35"/>
<path d="M6.57129 5.26941H5.14272" stroke="#272A35" stroke-linecap="round" stroke-linejoin="round"/>
<path d="M10.8574 10.3031H9.42885" stroke="#272A35" stroke-linecap="round" stroke-linejoin="round"/>
<path d="M3.71387 7.78625L12.2853 7.78626" stroke="#272A35" stroke-linecap="round" stroke-linejoin="round" stroke-dasharray="1 2"/>
</svg>
