<svg width="16" height="16" viewBox="0 0 16 16" fill="none" xmlns="http://www.w3.org/2000/svg">
<path fill-rule="evenodd" clip-rule="evenodd" d="M5.78571 1.5C5.78571 1.22386 6.00957 1 6.28571 1H9.71429C9.99043 1 10.2143 1.22386 10.2143 1.5C10.2143 1.77614 9.99043 2 9.71429 2H8.5V2.64311C9.4841 2.71467 10.4099 2.99564 11.2261 3.44048L11.9417 2.76212C12.1421 2.57215 12.4586 2.58061 12.6486 2.78102C12.8386 2.98143 12.8301 3.2979 12.6297 3.48788L12.0876 4.00169C13.5556 5.13193 14.5 6.86014 14.5 8.8125C14.5 12.2546 11.5643 15 8 15C4.43569 15 1.5 12.2546 1.5 8.8125C1.5 6.86014 2.44445 5.13193 3.91236 4.00169L3.37031 3.48788C3.1699 3.2979 3.16144 2.98143 3.35141 2.78102C3.54138 2.58061 3.85785 2.57215 4.05826 2.76212L4.7739 3.44048C5.5901 2.99564 6.5159 2.71467 7.5 2.64311V2H6.28571C6.00957 2 5.78571 1.77614 5.78571 1.5ZM8 3.625C4.9369 3.625 2.5 5.97239 2.5 8.8125C2.5 11.6526 4.9369 14 8 14C11.0631 14 13.5 11.6526 13.5 8.8125C13.5 5.97239 11.0631 3.625 8 3.625ZM8 5.0625C8.27614 5.0625 8.5 5.28636 8.5 5.5625V7.59279C8.99238 7.78209 9.35714 8.24344 9.35714 8.8125C9.35714 9.56224 8.72399 10.125 8 10.125C7.27601 10.125 6.64286 9.56224 6.64286 8.8125C6.64286 8.24344 7.00762 7.78209 7.5 7.59279V5.5625C7.5 5.28636 7.72386 5.0625 8 5.0625ZM8 8.5C7.77722 8.5 7.64286 8.66477 7.64286 8.8125C7.64286 8.96023 7.77722 9.125 8 9.125C8.22278 9.125 8.35714 8.96023 8.35714 8.8125C8.35714 8.66477 8.22278 8.5 8 8.5Z" fill="#272A35"/>
</svg>
