<svg width="40" height="40" viewBox="0 0 40 40" fill="none" xmlns="http://www.w3.org/2000/svg">
<path fill-rule="evenodd" clip-rule="evenodd" d="M23.5774 5.69329C24.1575 4.29337 25.8243 3.52367 27.2734 4.31372C30.3204 5.97489 32.8113 8.33035 34.5173 11.5198C36.1948 14.656 37.1615 18.0386 36.9778 21.5978C36.8937 23.2266 35.401 24.2551 33.9222 24.0291L32.7947 23.8567C32.8138 24.1341 32.7871 24.4232 32.707 24.7172C32.034 27.1876 30.762 29.4597 28.9935 31.3173C26.7842 33.6378 23.912 35.1938 20.7822 35.7613C17.6524 36.3288 14.4271 35.8783 11.564 34.475C8.70129 33.0719 6.34776 30.7883 4.83379 27.951C3.31994 25.1138 2.72114 21.865 3.12052 18.664C3.51992 15.4628 4.89778 12.4683 7.06219 10.1052C9.22683 7.74187 12.0689 6.12973 15.1872 5.50073C17.6836 4.99716 20.2539 5.14459 22.6625 5.91461C22.9177 5.99621 23.1459 6.11045 23.3465 6.25034L23.5774 5.69329ZM23.6297 10.7909L24.1833 9.55766C24.2591 9.38885 24.3171 9.21343 24.3575 9.0347L25.425 6.459C25.6072 6.01921 26.0372 5.91764 26.3161 6.06971C29.0532 7.56194 31.2482 9.64839 32.7537 12.463C34.3 15.3541 35.1414 18.3763 34.9804 21.4947C34.9633 21.826 34.6506 22.1172 34.2243 22.052L30.9634 21.5536C30.8162 21.5046 30.6639 21.4677 30.5078 21.4444L20.7551 19.9853C20.3373 19.856 20.076 19.3659 20.2686 18.9012L23.6297 10.7909ZM22.4329 8.4549C22.4561 8.1337 22.2635 7.88676 22.0534 7.81962C19.9678 7.15286 17.7433 7.0254 15.5826 7.46124C12.8838 8.00563 10.4185 9.40195 8.53704 11.4561C6.6554 13.5104 5.45363 16.1185 5.10514 18.9116C4.75664 21.7048 5.2796 24.538 6.59831 27.0094C7.91689 29.4806 9.96314 31.4631 12.4443 32.6792C14.9251 33.8951 17.717 34.2845 20.4254 33.7934C23.1339 33.3022 25.6251 31.9548 27.5449 29.9383C29.0821 28.3237 30.1905 26.3458 30.7774 24.1915C30.8462 23.9389 30.7251 23.6417 30.4501 23.4984L20.5586 21.9866C20.4888 21.9759 20.4202 21.9628 20.3528 21.9473L20.309 21.9408C18.4676 21.6653 17.4434 19.6878 18.1952 18.0132L21.7932 9.99831L22.4329 8.4549Z" fill="#272A35"/>
</svg>
