<svg width="32" height="32" viewBox="0 0 32 32" fill="none" xmlns="http://www.w3.org/2000/svg">
<path fill-rule="evenodd" clip-rule="evenodd" d="M4.60053 4.92877C4.91294 4.61635 5.41948 4.61635 5.7319 4.92877L27.3997 26.5965C27.7121 26.909 27.7121 27.4155 27.3997 27.7279C27.0872 28.0403 26.5807 28.0403 26.2683 27.7279L4.60053 6.06014C4.28811 5.74772 4.28811 5.24119 4.60053 4.92877Z" fill="#272A35"/>
<path fill-rule="evenodd" clip-rule="evenodd" d="M17.2916 6.14862C19.6553 3.78486 23.4877 3.78486 25.8515 6.14862C28.2153 8.51239 28.2153 12.3448 25.8515 14.7086L22.1372 18.4229C21.8248 18.7353 21.3183 18.7353 21.0058 18.4229C20.6934 18.1104 20.6934 17.6039 21.0058 17.2915L24.7201 13.5772C26.4591 11.8383 26.4591 9.01892 24.7201 7.27999C22.9812 5.54107 20.1619 5.54107 18.4229 7.27999L14.7086 10.9943C14.3962 11.3067 13.8897 11.3067 13.5773 10.9943C13.2649 10.6819 13.2649 10.1753 13.5773 9.86291L17.2916 6.14862ZM21.2086 10.7915C21.5211 11.1039 21.5211 11.6104 21.2086 11.9229L11.9229 21.2086C11.6105 21.521 11.104 21.521 10.7916 21.2086C10.4791 20.8961 10.4791 20.3896 10.7916 20.0772L20.0773 10.7915C20.3897 10.4791 20.8962 10.4791 21.2086 10.7915ZM10.9944 13.5772C11.3068 13.8896 11.3068 14.3961 10.9944 14.7086L7.28008 18.4229C5.54115 20.1618 5.54115 22.9811 7.28008 24.7201C9.019 26.459 11.8384 26.459 13.5773 24.7201L17.2916 21.0058C17.604 20.6933 18.1105 20.6933 18.4229 21.0058C18.7354 21.3182 18.7354 21.8247 18.4229 22.1371L14.7086 25.8514C12.3449 28.2152 8.51247 28.2152 6.14871 25.8514C3.78494 23.4877 3.78494 19.6552 6.14871 17.2915L9.86299 13.5772C10.1754 13.2648 10.6819 13.2648 10.9944 13.5772Z" fill="#272A35"/>
</svg>
