<svg width="40" height="40" viewBox="0 0 40 40" fill="none" xmlns="http://www.w3.org/2000/svg">
<path fill-rule="evenodd" clip-rule="evenodd" d="M4 10C4 6.68629 6.68629 4 10 4H28.3333C31.647 4 34.3333 6.68629 34.3333 10V19.9405C34.3333 20.4928 33.8856 20.9405 33.3333 20.9405C32.781 20.9405 32.3333 20.4928 32.3333 19.9405V10C32.3333 7.79086 30.5425 6 28.3333 6H10C7.79086 6 6 7.79086 6 10V25C6 27.2091 7.79086 29 10 29H19.1667C19.719 29 20.1667 29.4477 20.1667 30C20.1667 30.5523 19.719 31 19.1667 31H10C6.6863 31 4 28.3137 4 25V10Z" fill="#272A35"/>
<path fill-rule="evenodd" clip-rule="evenodd" d="M6.02659 5.89846C6.45087 5.5449 7.08143 5.60222 7.43499 6.0265L17.6303 18.2609C18.4299 19.2204 19.9036 19.2204 20.7032 18.2609L30.8986 6.0265C31.2521 5.60222 31.8827 5.5449 32.307 5.89846C32.7312 6.25202 32.7886 6.88259 32.435 7.30687L22.2397 19.5413C20.6405 21.4603 17.6931 21.4603 16.0939 19.5413L5.89855 7.30687C5.54499 6.88259 5.60231 6.25202 6.02659 5.89846Z" fill="#272A35"/>
<path fill-rule="evenodd" clip-rule="evenodd" d="M29.35 24.2C28.9082 23.8686 28.2814 23.9582 27.95 24.4L24.2 29.4C23.9333 29.7556 23.9333 30.2444 24.2 30.6L27.95 35.6C28.2814 36.0418 28.9082 36.1314 29.35 35.8C29.7918 35.4686 29.8814 34.8418 29.55 34.4L27 31H35C35.5523 31 36 30.5523 36 30C36 29.4477 35.5523 29 35 29H27L29.55 25.6C29.8814 25.1582 29.7918 24.5314 29.35 24.2Z" fill="#272A35"/>
</svg>
