<svg width="24" height="24" viewBox="0 0 24 24" fill="none" xmlns="http://www.w3.org/2000/svg">
<path fill-rule="evenodd" clip-rule="evenodd" d="M12.0002 13.5143C13.3987 13.5143 14.5324 12.3806 14.5324 10.9821C14.5324 9.58368 13.3987 8.45 12.0002 8.45C10.6017 8.45 9.46807 9.58368 9.46807 10.9821C9.46807 12.3806 10.6017 13.5143 12.0002 13.5143ZM12.0002 14.7143C14.0614 14.7143 15.7324 13.0433 15.7324 10.9821C15.7324 8.92094 14.0614 7.25 12.0002 7.25C9.939 7.25 8.26807 8.92094 8.26807 10.9821C8.26807 13.0433 9.939 14.7143 12.0002 14.7143Z" fill="#272A35"/>
<path fill-rule="evenodd" clip-rule="evenodd" d="M9.08367 18.2086C8.3369 18.8276 7.93438 19.6043 7.93438 20.3125C7.93438 20.6439 7.66575 20.9125 7.33438 20.9125C7.003 20.9125 6.73438 20.6439 6.73438 20.3125C6.73438 19.1546 7.37619 18.0653 8.31788 17.2847C9.26677 16.4982 10.5677 15.9803 11.9996 15.9803C13.4315 15.9803 14.7323 16.4982 15.6812 17.2847C16.6229 18.0653 17.2647 19.1546 17.2647 20.3125C17.2647 20.6439 16.9961 20.9125 16.6647 20.9125C16.3334 20.9125 16.0647 20.6439 16.0647 20.3125C16.0647 19.6043 15.6622 18.8276 14.9154 18.2086C14.1759 17.5956 13.1442 17.1803 11.9996 17.1803C10.8549 17.1803 9.82324 17.5956 9.08367 18.2086Z" fill="#272A35"/>
<path fill-rule="evenodd" clip-rule="evenodd" d="M11.9999 3.09999C7.08457 3.09999 3.0999 7.08466 3.0999 12C3.0999 16.9153 7.08457 20.9 11.9999 20.9C16.9152 20.9 20.8999 16.9153 20.8999 12C20.8999 7.08466 16.9152 3.09999 11.9999 3.09999ZM1.8999 12C1.8999 6.42192 6.42183 1.89999 11.9999 1.89999C17.578 1.89999 22.0999 6.42192 22.0999 12C22.0999 17.5781 17.578 22.1 11.9999 22.1C6.42183 22.1 1.8999 17.5781 1.8999 12Z" fill="#272A35"/>
</svg>
