<svg width="40" height="40" viewBox="0 0 40 40" fill="none" xmlns="http://www.w3.org/2000/svg">
<path fill-rule="evenodd" clip-rule="evenodd" d="M18.125 4C18.6773 4 19.125 4.44772 19.125 5V7.75H21.875C22.4273 7.75 22.875 8.19772 22.875 8.75C22.875 9.30228 22.4273 9.75 21.875 9.75H19.125V12.5C19.125 13.0523 18.6773 13.5 18.125 13.5C17.5727 13.5 17.125 13.0523 17.125 12.5V9.75H14.375C13.8227 9.75 13.375 9.30229 13.375 8.75C13.375 8.19772 13.8227 7.75 14.375 7.75H17.125V5C17.125 4.44772 17.5727 4 18.125 4ZM8.75 11.625C7.23122 11.625 6 12.8562 6 14.375V15.25H30.25V14.375C30.25 12.8562 29.0188 11.625 27.5 11.625H25.625C25.0727 11.625 24.625 11.1773 24.625 10.625C24.625 10.0727 25.0727 9.625 25.625 9.625H27.5C30.1234 9.625 32.25 11.7516 32.25 14.375V15.3554C34.3932 15.8147 36 17.7197 36 20V31.25C36 33.8734 33.8734 36 31.25 36H8.75C6.12665 36 4 33.8734 4 31.25V14.375C4 11.7516 6.12665 9.625 8.75 9.625H10.625C11.1773 9.625 11.625 10.0727 11.625 10.625C11.625 11.1773 11.1773 11.625 10.625 11.625H8.75ZM34 28.375V22.875H31.25C29.7312 22.875 28.5 24.1062 28.5 25.625C28.5 27.1438 29.7312 28.375 31.25 28.375H34ZM34 20.875H31.25C28.6266 20.875 26.5 23.0016 26.5 25.625C26.5 28.2484 28.6266 30.375 31.25 30.375H34V31.25C34 32.7688 32.7688 34 31.25 34H8.75C7.23122 34 6 32.7688 6 31.25V17.25H31.25C32.7688 17.25 34 18.4812 34 20V20.875Z" fill="#272A35"/>
</svg>
