<svg width="24" height="24" viewBox="0 0 24 24" fill="none" xmlns="http://www.w3.org/2000/svg">
<path fill-rule="evenodd" clip-rule="evenodd" d="M5.88776 2.62508C7.89211 2.11058 10.0173 2.48737 11.7291 3.65916L11.8286 3.72725C13.5028 4.87329 15.6413 5.05862 17.4822 4.21856C18.9556 3.54619 20.5999 4.64399 20.5999 6.25093V11.5324C20.5999 12.3802 20.1845 13.1759 19.4862 13.6539L18.5135 14.3197C16.0835 15.9831 12.8701 15.8633 10.5675 14.0245C9.40216 13.0938 7.91864 12.6771 6.44938 12.8657L5.32166 13.0105C5.06917 13.0429 4.82485 13.0184 4.5999 12.9478L4.5999 21C4.5999 21.3313 4.33127 21.6 3.9999 21.6C3.66853 21.6 3.3999 21.3313 3.3999 21L3.3999 11.3047C3.3999 11.3041 3.3999 11.3034 3.3999 11.3028V4.63075C3.3999 3.8316 3.93578 3.12615 4.71301 2.92663L5.88776 2.62508ZM4.5999 4.78224C4.5999 4.7819 4.5999 4.78156 4.5999 4.78123V4.63075C4.5999 4.36943 4.77439 4.14978 5.01137 4.08895L6.18612 3.7874C7.85415 3.35923 9.6237 3.67217 11.0513 4.64939L11.1508 4.71748C13.1713 6.10055 15.7559 6.32539 17.9804 5.31026C18.6357 5.01122 19.3999 5.49164 19.3999 6.25093V11.5324C19.3999 11.9886 19.1763 12.4118 18.8084 12.6637L17.8357 13.3295C15.8416 14.6945 13.2072 14.5968 11.3164 13.0868C9.8985 11.9545 8.09003 11.4453 6.29661 11.6755L5.16889 11.8202C4.87611 11.8578 4.60054 11.6261 4.5999 11.3039L4.5999 4.78224Z" fill="#272A35"/>
</svg>
