<svg width="32" height="32" viewBox="0 0 32 32" fill="none" xmlns="http://www.w3.org/2000/svg">
<path fill-rule="evenodd" clip-rule="evenodd" d="M19.723 27.4001L15.5202 27.4001L19.723 23.572L19.723 27.4001ZM21.323 23.3456C21.323 22.0427 19.7761 21.3593 18.8129 22.2367L14.2518 26.3911C13.2388 27.3139 13.8916 29.0001 15.2619 29.0001L19.823 29.0001C20.6514 29.0001 21.323 28.3285 21.323 27.5001L21.323 23.3456Z" fill="#272A35"/>
<path fill-rule="evenodd" clip-rule="evenodd" d="M4.39525 14.1116C4.10591 14.4455 4.14203 14.9507 4.47594 15.2401L15.8311 25.0798C16.165 25.3691 16.6703 25.333 16.9596 24.9991C17.2489 24.6652 17.2128 24.16 16.8789 23.8706L5.52374 14.0309C5.18984 13.7415 4.68459 13.7777 4.39525 14.1116Z" fill="#272A35"/>
<path fill-rule="evenodd" clip-rule="evenodd" d="M12.277 4.60004L16.4798 4.60004L12.277 8.42817L12.277 4.60004ZM10.677 8.65452C10.677 9.95742 12.2239 10.6408 13.1871 9.76345L17.7482 5.60898C18.7612 4.68621 18.1084 3.00004 16.7381 3.00004L12.177 3.00004C11.3486 3.00004 10.677 3.67162 10.677 4.50004L10.677 8.65452Z" fill="#272A35"/>
<path fill-rule="evenodd" clip-rule="evenodd" d="M27.6047 17.8886C27.8941 17.5547 27.858 17.0494 27.5241 16.7601L16.1689 6.92033C15.835 6.63099 15.3297 6.66711 15.0404 7.00102C14.7511 7.33492 14.7872 7.84016 15.1211 8.12951L26.4763 17.9692C26.8102 18.2586 27.3154 18.2225 27.6047 17.8886Z" fill="#272A35"/>
</svg>
