<svg width="40" height="40" viewBox="0 0 40 40" fill="none" xmlns="http://www.w3.org/2000/svg">
<path fill-rule="evenodd" clip-rule="evenodd" d="M26.5251 6C25.5935 6 24.7143 6.83645 24.7143 8.02703C24.7143 8.66389 24.9026 9.35179 25.3843 10.0584C25.6515 10.4505 26.1178 11.0143 26.5251 11.4881C26.9324 11.0143 27.3987 10.4505 27.6659 10.0584C28.1476 9.35179 28.3359 8.66389 28.3359 8.02703C28.3359 6.83645 27.4567 6 26.5251 6ZM22.7143 8.02703C22.7143 5.87404 24.3519 4 26.5251 4C28.6982 4 30.3359 5.87404 30.3359 8.02703C30.3359 9.08416 30.0159 10.1617 29.3186 11.1848C28.8545 11.8656 27.9848 12.8645 27.5574 13.3463C27.0042 13.9701 26.046 13.9701 25.4927 13.3463C25.0654 12.8645 24.1956 11.8656 23.7316 11.1848C23.0343 10.1617 22.7143 9.08416 22.7143 8.02703ZM6 17C6 14.3097 8.04216 12 10.7143 12H20C20.5523 12 21 12.4477 21 13C21 13.5523 20.5523 14 20 14H10.7143C9.28373 14 8 15.2721 8 17C8 18.7279 9.28373 20 10.7143 20H28.3571C31.5421 20 34 22.7574 34 26C34 29.2426 31.5421 32 28.3571 32H15.3332C14.9012 34.2384 13.048 36 10.7143 36C8.04216 36 6 33.6903 6 31C6 28.3097 8.04216 26 10.7143 26C13.048 26 14.9012 27.7616 15.3332 30H28.3571C30.3005 30 32 28.2802 32 26C32 23.7198 30.3005 22 28.3571 22H10.7143C8.04216 22 6 19.6903 6 17ZM10.7143 28C9.28373 28 8 29.2721 8 31C8 32.7279 9.28373 34 10.7143 34C12.1448 34 13.4286 32.7279 13.4286 31C13.4286 29.2721 12.1448 28 10.7143 28Z" fill="#272A35"/>
</svg>
