<svg width="16" height="16" viewBox="0 0 16 16" fill="none" xmlns="http://www.w3.org/2000/svg">
<path fill-rule="evenodd" clip-rule="evenodd" d="M14 2C14.2761 2 14.5 2.22386 14.5 2.5V3.9037C14.5 4.59381 13.8977 5.06938 13.2636 5.06938H11.9968C11.7207 5.06938 11.4968 4.84553 11.4968 4.56938C11.4968 4.29324 11.7207 4.06938 11.9968 4.06938H12.8653C12.4525 3.43211 11.7125 3 10.8579 3H5.14213C3.8216 3 2.78425 4.02532 2.78425 5.25V8C2.78425 8.27614 2.5604 8.5 2.28425 8.5C2.00811 8.5 1.78425 8.27614 1.78425 8V5.25C1.78425 3.43712 3.30593 2 5.14213 2H10.8579C11.9252 2 12.8829 2.48338 13.5 3.24379V2.5C13.5 2.22386 13.7239 2 14 2ZM11.266 5.46727C11.464 5.53885 11.596 5.72688 11.596 5.9375L11.596 8.62209C11.596 8.62241 11.596 8.62177 11.596 8.62209L11.596 10.2344C11.596 10.5105 11.3722 10.7344 11.096 10.7344C10.8199 10.7344 10.596 10.5105 10.596 10.2344V9.12305H8.86332C8.66941 9.12305 8.49299 9.01094 8.41064 8.83539C8.3283 8.65983 8.35487 8.4525 8.47884 8.3034L10.7116 5.61785C10.8462 5.4559 11.0679 5.39568 11.266 5.46727ZM10.596 8.12305L10.596 7.32102L9.92924 8.12305H10.596ZM6.25848 6.4375C6.02167 6.4375 5.82309 6.56075 5.72 6.73222C5.67002 6.81536 5.64213 6.91018 5.64213 7.01172C5.64213 7.28786 5.41827 7.51172 5.14213 7.51172C4.86598 7.51172 4.64213 7.28786 4.64213 7.01172C4.64213 6.72194 4.72296 6.44987 4.86295 6.217C5.14591 5.7463 5.66888 5.4375 6.25848 5.4375C7.13287 5.4375 7.87484 6.12434 7.87484 7.01172C7.87484 7.48952 7.63555 7.87658 7.28575 8.34077C7.12015 8.56053 6.8976 8.83636 6.62102 9.17915C6.48509 9.34762 6.33612 9.53227 6.17444 9.73438H7.37484C7.65098 9.73438 7.87484 9.95823 7.87484 10.2344C7.87484 10.5105 7.65098 10.7344 7.37484 10.7344H5.14213C4.95107 10.7344 4.77671 10.6255 4.69286 10.4538C4.609 10.2821 4.63031 10.0777 4.74776 9.927C5.20212 9.34406 5.5627 8.89785 5.85379 8.53763C6.11499 8.21439 6.32025 7.96039 6.48712 7.73895C6.83504 7.27724 6.87484 7.12719 6.87484 7.01172C6.87484 6.71254 6.61719 6.4375 6.25848 6.4375ZM13.7157 7.5C13.9919 7.5 14.2157 7.72386 14.2157 8V10.75C14.2157 12.5629 12.6941 14 10.8579 14H5.14213C4.07483 14 3.11711 13.5166 2.5 12.7562V13.5C2.5 13.7761 2.27614 14 2 14C1.72386 14 1.5 13.7761 1.5 13.5L1.5 12.0963C1.5 11.4062 2.1023 10.9306 2.73645 10.9306H4.00319C4.27934 10.9306 4.50319 11.1545 4.50319 11.4306C4.50319 11.7068 4.27934 11.9306 4.00319 11.9306H3.13468C3.54751 12.5679 4.28753 13 5.14213 13H10.8579C12.1784 13 13.2157 11.9747 13.2157 10.75V8C13.2157 7.72386 13.4396 7.5 13.7157 7.5Z" fill="#272A35"/>
</svg>
