<svg width="40" height="40" viewBox="0 0 40 40" fill="none" xmlns="http://www.w3.org/2000/svg">
<path d="M30.5 6.50415H29.5H30.5ZM30.5 33.5639H31.5H30.5ZM7.5 6.50415L8.5 6.50415L7.5 6.50415ZM7.5 33.5639H6.5H7.5ZM11.5457 6.31379L12.3485 6.90993L12.3485 6.90993L11.5457 6.31379ZM12.0412 5.6464L11.2383 5.05027L11.2383 5.05027L12.0412 5.6464ZM14.4588 5.64641L13.6559 6.24255L13.6559 6.24255L14.4588 5.64641ZM14.6875 5.95441L15.4904 5.35827L15.4904 5.35827L14.6875 5.95441ZM23.3125 5.95441L22.5096 5.35827L22.5096 5.35827L23.3125 5.95441ZM23.5412 5.64641L24.3441 6.24255L24.3441 6.24254L23.5412 5.64641ZM25.9588 5.64641L26.7617 5.05027L26.7617 5.05027L25.9588 5.64641ZM26.4543 6.31379L25.6515 6.90993L26.4543 6.31379ZM12.1986 34.2869L11.64 35.1164V35.1164L12.1986 34.2869ZM11.4219 33.7639L11.9805 32.9344H11.9805L11.4219 33.7639ZM14.6875 34.0269L14.1289 33.1974H14.1289L14.6875 34.0269ZM14.3014 34.2869L14.86 35.1164L14.86 35.1164L14.3014 34.2869ZM23.6986 34.2869L23.14 35.1164L23.14 35.1164L23.6986 34.2869ZM23.3125 34.0269L23.8711 33.1974L23.8711 33.1974L23.3125 34.0269ZM26.5781 33.7639L26.0195 32.9344L26.5781 33.7639ZM25.8014 34.2869L26.36 35.1164V35.1164L25.8014 34.2869ZM28.2326 34.2863L27.3363 34.7299L28.2326 34.2863ZM20.4375 34.0269L19.8789 33.1974L20.4375 34.0269ZM9.76745 34.2863L8.87123 33.8426L9.76745 34.2863ZM28.3376 5.97109L29.275 6.31913V6.31913L28.3376 5.97109ZM9.66244 5.97109L8.72496 6.31913L8.72496 6.31913L9.66244 5.97109ZM29.5 6.50415V33.5639H31.5V6.50415H29.5ZM6.5 6.50415L6.5 33.5639H8.5L8.5 6.50415L6.5 6.50415ZM12.3485 6.90993L12.8441 6.24254L11.2383 5.05027L10.7428 5.71765L12.3485 6.90993ZM13.6559 6.24255L13.8846 6.55055L15.4904 5.35827L15.2617 5.05027L13.6559 6.24255ZM24.1154 6.55055L24.3441 6.24255L22.7383 5.05027L22.5096 5.35827L24.1154 6.55055ZM25.1559 6.24255L25.6515 6.90993L27.2572 5.71765L26.7617 5.05027L25.1559 6.24255ZM12.7572 33.4574L11.9805 32.9344L10.8633 34.5933L11.64 35.1164L12.7572 33.4574ZM14.1289 33.1974L13.7428 33.4574L14.86 35.1164L15.2461 34.8564L14.1289 33.1974ZM24.2572 33.4574L23.8711 33.1974L22.7539 34.8564L23.14 35.1164L24.2572 33.4574ZM26.0195 32.9344L25.2428 33.4574L26.36 35.1164L27.1367 34.5933L26.0195 32.9344ZM29.1288 33.8426C28.5667 32.7071 27.1777 32.1545 26.0195 32.9344L27.1367 34.5933C27.16 34.5776 27.1731 34.5755 27.1761 34.5751C27.1798 34.5745 27.1855 34.5743 27.1955 34.5774C27.2123 34.5827 27.2778 34.6117 27.3363 34.7299L29.1288 33.8426ZM23.14 35.1164C24.1292 35.7825 25.3708 35.7825 26.36 35.1164L25.2428 33.4574C24.929 33.6688 24.571 33.6688 24.2572 33.4574L23.14 35.1164ZM20.9961 34.8564C21.5491 34.4839 22.2009 34.4839 22.7539 34.8564L23.8711 33.1974C22.6427 32.3702 21.1073 32.3702 19.8789 33.1974L20.9961 34.8564ZM17.0039 34.8564C18.2323 35.6836 19.7677 35.6836 20.9961 34.8564L19.8789 33.1974C19.3259 33.5699 18.6741 33.5699 18.1211 33.1974L17.0039 34.8564ZM15.2461 34.8564C15.7991 34.4839 16.4509 34.4839 17.0039 34.8564L18.1211 33.1974C16.8927 32.3702 15.3573 32.3702 14.1289 33.1974L15.2461 34.8564ZM11.64 35.1164C12.6292 35.7825 13.8708 35.7825 14.86 35.1164L13.7428 33.4574C13.429 33.6688 13.071 33.6688 12.7572 33.4574L11.64 35.1164ZM10.6637 34.7299C10.7222 34.6117 10.7877 34.5827 10.8045 34.5774C10.8145 34.5743 10.8202 34.5745 10.8239 34.5751C10.8269 34.5755 10.84 34.5776 10.8633 34.5933L11.9805 32.9344C10.8223 32.1545 9.43335 32.7071 8.87123 33.8426L10.6637 34.7299ZM25.6515 6.90993C26.1393 7.56698 26.9009 7.87344 27.6549 7.73622C28.3973 7.60112 28.9989 7.06304 29.275 6.31913L27.4001 5.62305C27.3713 5.70053 27.3377 5.73773 27.3203 5.75304C27.3022 5.76887 27.2931 5.76922 27.2968 5.76853C27.2982 5.76829 27.3008 5.76804 27.3042 5.76838C27.3058 5.76855 27.3072 5.76881 27.3084 5.7691C27.3095 5.76939 27.3101 5.76963 27.3101 5.76962C27.3101 5.76962 27.3091 5.76923 27.3073 5.76812C27.3054 5.76701 27.3022 5.76499 27.2979 5.76162C27.2897 5.75507 27.2752 5.74187 27.2572 5.71765L25.6515 6.90993ZM24.3441 6.24254C24.4885 6.04805 24.6434 6 24.75 6C24.8566 6 25.0115 6.04805 25.1559 6.24255L26.7617 5.05027C26.2662 4.38289 25.5322 4 24.75 4C23.9678 4 23.2338 4.38289 22.7383 5.05027L24.3441 6.24254ZM19.6346 6.55055C20.1907 7.29945 21.0087 7.7231 21.875 7.7231C22.7413 7.7231 23.5593 7.29945 24.1154 6.55055L22.5096 5.35827C22.3047 5.63429 22.0657 5.7231 21.875 5.7231C21.6843 5.7231 21.4453 5.63429 21.2404 5.35827L19.6346 6.55055ZM18.3654 6.55055C18.5703 6.27452 18.8093 6.18571 19 6.18571C19.1907 6.18571 19.4297 6.27452 19.6346 6.55055L21.2404 5.35827C20.6843 4.60936 19.8663 4.18571 19 4.18571C18.1337 4.18571 17.3157 4.60936 16.7596 5.35827L18.3654 6.55055ZM13.8846 6.55055C14.4407 7.29945 15.2587 7.7231 16.125 7.7231C16.9913 7.7231 17.8093 7.29945 18.3654 6.55055L16.7596 5.35827C16.5547 5.63429 16.3157 5.7231 16.125 5.7231C15.9343 5.7231 15.6953 5.63429 15.4904 5.35827L13.8846 6.55055ZM12.8441 6.24254C12.9885 6.04805 13.1434 6 13.25 6C13.3566 6 13.5115 6.04805 13.6559 6.24255L15.2617 5.05027C14.7662 4.38289 14.0322 4 13.25 4C12.4678 4 11.7338 4.38289 11.2383 5.05027L12.8441 6.24254ZM8.72496 6.31913C9.00114 7.06304 9.60269 7.60112 10.3451 7.73622C11.0991 7.87343 11.8607 7.56697 12.3485 6.90993L10.7428 5.71765C10.7248 5.74186 10.7103 5.75507 10.7021 5.76162C10.6978 5.76499 10.6946 5.76701 10.6927 5.76812C10.6909 5.76923 10.6899 5.76962 10.6899 5.76962C10.6899 5.76963 10.6905 5.76939 10.6916 5.7691C10.6928 5.76881 10.6942 5.76854 10.6958 5.76838C10.6992 5.76803 10.7018 5.76828 10.7032 5.76853C10.7069 5.76922 10.6978 5.76887 10.6797 5.75304C10.6623 5.73773 10.6287 5.70053 10.5999 5.62305L8.72496 6.31913ZM29.5 33.5639C29.5 33.7387 29.4526 33.8436 29.4131 33.9005C29.3711 33.9607 29.3255 33.9861 29.2974 33.9951C29.271 34.0035 29.2584 33.9993 29.2517 33.9963C29.2494 33.9953 29.1931 33.9726 29.1288 33.8426L27.3363 34.7299C27.8597 35.7871 28.9265 36.2123 29.9045 35.9007C30.8434 35.6015 31.5 34.6925 31.5 33.5639H29.5ZM31.5 6.50415C31.5 5.36501 30.8069 4.46934 29.8419 4.23146C28.8396 3.98438 27.8113 4.51545 27.4001 5.62305L29.275 6.31913C29.3009 6.24949 29.3271 6.21108 29.3424 6.19247C29.3503 6.18295 29.3563 6.17742 29.3597 6.17452C29.3632 6.17164 29.365 6.17066 29.365 6.17065C29.3651 6.17063 29.3643 6.17106 29.3628 6.17153C29.3613 6.172 29.36 6.17227 29.359 6.1724C29.3567 6.17267 29.358 6.17206 29.3632 6.17333C29.373 6.17575 29.4004 6.18631 29.4292 6.22508C29.4552 6.25987 29.5 6.34231 29.5 6.50415H31.5ZM8.5 6.50415C8.5 6.34232 8.54482 6.25987 8.57075 6.22508C8.59965 6.18631 8.62702 6.17575 8.63681 6.17333C8.64196 6.17206 8.64326 6.17267 8.64105 6.1724C8.64002 6.17227 8.63866 6.172 8.63723 6.17154C8.63575 6.17106 8.63494 6.17063 8.63498 6.17065C8.63499 6.17066 8.6368 6.17164 8.64027 6.17452C8.64373 6.17742 8.64973 6.18295 8.65758 6.19247C8.67294 6.21108 8.69911 6.24949 8.72496 6.31913L10.5999 5.62305C10.1887 4.51545 9.16045 3.98438 8.15812 4.23146C7.19315 4.46934 6.5 5.36502 6.5 6.50415L8.5 6.50415ZM6.5 33.5639C6.5 34.6925 7.15656 35.6015 8.09552 35.9007C9.07349 36.2123 10.1403 35.7871 10.6637 34.7299L8.87123 33.8426C8.80693 33.9726 8.75062 33.9953 8.74829 33.9963C8.74163 33.9993 8.72903 34.0035 8.70264 33.9951C8.67453 33.9861 8.62893 33.9607 8.58695 33.9005C8.54739 33.8436 8.5 33.7387 8.5 33.5639H6.5Z" fill="#272A35"/>
<path d="M15.7139 13.6985H12.4282" stroke="#272A35" stroke-width="2" stroke-linecap="round" stroke-linejoin="round"/>
<path d="M25.5713 25.3148H22.2856" stroke="#272A35" stroke-width="2" stroke-linecap="round" stroke-linejoin="round"/>
<path d="M9.14258 19.5067L28.8569 19.5067" stroke="#272A35" stroke-width="2" stroke-linecap="round" stroke-linejoin="round" stroke-dasharray="1 2"/>
</svg>
