<svg width="24" height="24" viewBox="0 0 24 24" fill="none" xmlns="http://www.w3.org/2000/svg">
<path fill-rule="evenodd" clip-rule="evenodd" d="M15.0862 3.37442C16.2474 2.1175 18.238 2.07038 19.4593 3.2692C20.6052 4.39391 20.6508 6.20835 19.5614 7.38756L19.4455 7.51306C20.4874 8.96665 21.0999 10.74 21.0999 12.6567C21.0999 15.5219 19.7312 18.0668 17.6055 19.702L18.4916 20.5718C18.7281 20.804 18.7316 21.1838 18.4995 21.4203C18.2674 21.6568 17.8875 21.6603 17.651 21.4282L16.5858 20.3827C15.2382 21.1568 13.6707 21.6 11.9999 21.6C10.3291 21.6 8.7616 21.1568 7.41397 20.3827L6.34877 21.4282C6.11229 21.6603 5.73241 21.6568 5.50028 21.4203C5.26816 21.1838 5.27169 20.804 5.50817 20.5718L6.3943 19.702C4.26865 18.0668 2.8999 15.5219 2.8999 12.6567C2.8999 10.74 3.51243 8.96664 4.55432 7.51305L4.43838 7.38756C3.34897 6.20835 3.39463 4.39391 4.54047 3.2692C5.7618 2.07038 7.75237 2.1175 8.91357 3.37442L9.40491 3.90626L9.11769 4.1716C10.0239 3.87433 10.9932 3.71341 11.9999 3.71341C13.0066 3.71341 13.9759 3.87433 14.8821 4.1716L14.5949 3.90625L15.0862 3.37442ZM15.6963 4.48242C16.83 4.97833 17.8421 5.69541 18.6753 6.57839L18.68 6.57325C19.3286 5.87119 19.3024 4.79664 18.6187 4.12559C17.8798 3.40023 16.6688 3.42984 15.9677 4.18873L15.6963 4.48242ZM8.30347 4.48241L8.03215 4.18873C7.33105 3.42984 6.12005 3.40023 5.38106 4.12559C4.69741 4.79664 4.6712 5.87119 5.3198 6.57325L5.32455 6.57839C6.15768 5.69541 7.16979 4.97833 8.30347 4.48241ZM11.9999 4.91341C7.62628 4.91341 4.0999 8.39068 4.0999 12.6567C4.0999 16.9228 7.62628 20.4 11.9999 20.4C16.3735 20.4 19.8999 16.9228 19.8999 12.6567C19.8999 8.39068 16.3735 4.91341 11.9999 4.91341ZM11.9999 7.28911C12.3313 7.28911 12.5999 7.55774 12.5999 7.88911V12.6567C12.5999 12.8178 12.5351 12.9721 12.4202 13.0849L9.99163 15.4687C9.75515 15.7008 9.37526 15.6973 9.14314 15.4608C8.91101 15.2243 8.91455 14.8444 9.15103 14.6123L11.3999 12.4049V7.88911C11.3999 7.55774 11.6685 7.28911 11.9999 7.28911Z" fill="#272A35"/>
</svg>
