<svg width="24" height="24" viewBox="0 0 24 24" fill="none" xmlns="http://www.w3.org/2000/svg">
<path fill-rule="evenodd" clip-rule="evenodd" d="M13.1332 4.06946C12.5073 3.44355 11.4925 3.44355 10.8666 4.06946L4.06934 10.8667C3.44342 11.4926 3.44342 12.5074 4.06934 13.1333L10.8666 19.9306C11.4925 20.5565 12.5073 20.5565 13.1332 19.9306L19.9305 13.1333C20.5564 12.5074 20.5564 11.4926 19.9305 10.8667L13.1332 4.06946ZM10.0181 3.22093C11.1126 2.12639 12.8872 2.12639 13.9817 3.22093L20.779 10.0182C21.8735 11.1127 21.8735 12.8873 20.779 13.9819L13.9817 20.7791C12.8872 21.8737 11.1126 21.8737 10.0181 20.7791L3.22081 13.9819C2.12626 12.8873 2.12627 11.1127 3.22081 10.0182L10.0181 3.22093ZM13.4113 8.82231C13.6456 8.588 14.0255 8.588 14.2598 8.82231L16.0509 10.6134C16.7153 11.2778 16.7153 12.3551 16.0509 13.0195L14.2598 14.8106C14.0255 15.0449 13.6456 15.0449 13.4113 14.8106C13.177 14.5763 13.177 14.1964 13.4113 13.9621L14.9569 12.4164H9.29576V14.2028C9.29576 14.5341 9.02714 14.8028 8.69576 14.8028C8.36439 14.8028 8.09576 14.5341 8.09576 14.2028V11.8164C8.09576 11.4851 8.36439 11.2164 8.69576 11.2164H14.9569L13.4113 9.67084C13.177 9.43653 13.177 9.05663 13.4113 8.82231Z" fill="#272A35"/>
</svg>
