<svg width="32" height="32" viewBox="0 0 32 32" fill="none" xmlns="http://www.w3.org/2000/svg">
<path fill-rule="evenodd" clip-rule="evenodd" d="M6.19995 5.00001C6.19995 4.55818 6.55812 4.20001 6.99995 4.20001H25C25.4418 4.20001 25.7999 4.55818 25.7999 5.00001C25.7999 5.44184 25.4418 5.80001 25 5.80001H23.8633C23.9514 6.03754 24 6.29597 24 6.57144V8.27766C24 11.6348 21.8447 14.5569 18.6595 16C21.8447 17.4431 24 20.3652 24 23.7224V25.4286C24 25.7041 23.9514 25.9625 23.8633 26.2H25C25.4418 26.2 25.7999 26.5582 25.7999 27C25.7999 27.4418 25.4418 27.8 25 27.8H6.99995C6.55812 27.8 6.19995 27.4418 6.19995 27C6.19995 26.5582 6.55812 26.2 6.99995 26.2H8.13663C8.04853 25.9625 7.99995 25.7041 7.99995 25.4286V23.7224C7.99995 20.3652 10.1552 17.4431 13.3404 16C10.1552 14.5569 7.99995 11.6348 7.99995 8.27766V6.57144C7.99995 6.29597 8.04853 6.03754 8.13663 5.80001H6.99995C6.55812 5.80001 6.19995 5.44184 6.19995 5.00001ZM10.6 5.80001C9.94218 5.80001 9.59995 6.24397 9.59995 6.57144V8.27766C9.59995 8.4923 9.61134 8.70559 9.63373 8.917C9.65557 8.91521 9.67765 8.9143 9.69995 8.9143H22.2999C22.3222 8.9143 22.3443 8.91521 22.3662 8.917C22.3886 8.70559 22.4 8.4923 22.4 8.27766V6.57144C22.4 6.24397 22.0577 5.80001 21.4 5.80001H10.6ZM21.9767 10.5143H10.0232C10.8822 12.7264 12.99 14.5243 15.8058 15.1388C15.9329 15.1665 16.067 15.1665 16.1941 15.1388C19.0099 14.5243 21.1177 12.7264 21.9767 10.5143ZM15.2 17.0146C11.8175 17.9927 9.59995 20.7274 9.59995 23.7224V25.0119C9.66303 24.6888 9.80288 24.3685 10.0298 24.0714L10.1732 23.8836C11.3038 22.403 12.8483 21.2171 14.6452 20.4328L14.8749 20.3325C14.9809 20.2862 15.0895 20.2469 15.2 20.2144L15.2 17.0146ZM16.8 20.2144C16.9104 20.2469 17.019 20.2862 17.125 20.3325L17.3547 20.4328C19.1516 21.2171 20.6961 22.403 21.8267 23.8836L21.9701 24.0714C22.197 24.3685 22.3369 24.6888 22.4 25.0119V23.7224C22.4 20.7274 20.1824 17.9927 16.8 17.0146L16.8 20.2144ZM16.7146 21.8991L16.4849 21.7989C16.1822 21.6667 15.8177 21.6667 15.515 21.7989L15.2853 21.8991C13.7201 22.5824 12.3993 23.6047 11.4448 24.8546L11.3014 25.0424C11.117 25.2839 11.1246 25.5338 11.2583 25.752C11.4005 25.9839 11.7095 26.2 12.1633 26.2H19.8366C20.2904 26.2 20.5994 25.9839 20.7416 25.752C20.8753 25.5338 20.8829 25.2839 20.6985 25.0424L20.5551 24.8546C19.6006 23.6047 18.2798 22.5824 16.7146 21.8991Z" fill="#272A35"/>
</svg>
