<svg width="24" height="24" viewBox="0 0 24 24" fill="none" xmlns="http://www.w3.org/2000/svg">
<path fill-rule="evenodd" clip-rule="evenodd" d="M4.09061 8.56394C3.84424 8.34234 3.46487 8.36242 3.24327 8.6088L0.553552 11.5992C0.348322 11.8274 0.348351 12.1736 0.553619 12.4017L3.24334 15.3911C3.46498 15.6375 3.84435 15.6575 4.09069 15.4358C4.33702 15.2142 4.35704 14.8348 4.1354 14.5885L2.34663 12.6004H10.6583C10.9897 12.6004 11.2583 12.3318 11.2583 12.0004C11.2583 11.6691 10.9897 11.4004 10.6583 11.4004H2.34632L4.13546 9.41128C4.35707 9.16491 4.33698 8.78554 4.09061 8.56394Z" fill="#272A35"/>
<path fill-rule="evenodd" clip-rule="evenodd" d="M9.0171 2.8413C12.8554 2.25287 16.7505 2.25293 20.5887 2.84148C20.6093 2.84463 20.6297 2.84885 20.6498 2.85413C21.3159 3.02862 21.9118 3.41203 22.3662 3.94692C22.8202 4.48131 23.1143 5.14433 23.2182 5.85072L23.2201 5.86387L23.22 5.86389C23.7268 9.93603 23.7268 14.064 23.22 18.1361L23.2187 18.1463L23.2186 18.1463C23.1128 18.8918 22.7906 19.5882 22.2904 20.1317C21.7895 20.6758 21.1347 21.0391 20.4179 21.1575L20.4126 21.1584L20.4126 21.1584C16.6331 21.7472 12.7959 21.7472 9.01645 21.1586C8.29564 21.0505 7.63739 20.6863 7.14083 20.1353C6.64584 19.5861 6.33752 18.8811 6.2548 18.1326C6.14824 17.2946 6.06508 16.45 6.00416 15.6046C5.98034 15.2741 6.22897 14.9868 6.55948 14.963C6.88999 14.9392 7.17724 15.1878 7.20106 15.5183C7.2606 16.3446 7.34185 17.1691 7.44585 17.9863L7.44722 17.997L7.44712 17.997C7.50278 18.5077 7.7118 18.9764 8.03222 19.3319C8.3519 19.6866 8.76245 19.9074 9.19559 19.9721L9.19931 19.9726C12.856 20.5423 16.5682 20.5425 20.2249 19.9731C20.6646 19.8999 21.08 19.6747 21.4074 19.319C21.7351 18.963 21.956 18.4958 22.0298 17.9826C22.5234 14.0129 22.5235 9.9887 22.03 6.01902C21.9568 5.52889 21.7534 5.07898 21.4517 4.72386C21.156 4.37581 20.7804 4.13535 20.3741 4.0226C16.6666 3.4575 12.905 3.45917 9.19785 4.02761L9.1956 4.02796L9.1956 4.02795C8.76246 4.09269 8.35193 4.31347 8.03225 4.66817C7.71183 5.02371 7.5028 5.4924 7.44712 6.00307L7.44595 6.01381L7.44585 6.0138C7.34264 6.82457 7.25988 7.66095 7.199 8.51562C7.17545 8.84616 6.88841 9.09502 6.55788 9.07148C6.22735 9.04793 5.97849 8.76089 6.00203 8.43036C6.06431 7.55606 6.14901 6.69929 6.2548 5.86741C6.33756 5.11899 6.64588 4.41402 7.14085 3.8648C7.63755 3.31368 8.29604 2.94935 9.0171 2.8413Z" fill="#272A35"/>
</svg>
