<svg width="24" height="24" viewBox="0 0 24 24" fill="none" xmlns="http://www.w3.org/2000/svg">
<path fill-rule="evenodd" clip-rule="evenodd" d="M12.6001 2.83328C12.6001 2.50191 12.3314 2.23328 12.0001 2.23328C11.6687 2.23328 11.4001 2.50191 11.4001 2.83328V7.80598C11.5961 7.77818 11.7965 7.76379 12.0002 7.76379C12.2039 7.76379 12.4041 7.77816 12.6001 7.80593V2.83328ZM14.5412 8.61022C14.8626 8.85149 15.1485 9.13739 15.3898 9.45873L18.9061 5.94238C19.1404 5.70806 19.1404 5.32816 18.9061 5.09385C18.6718 4.85953 18.2919 4.85953 18.0576 5.09385L14.5412 8.61022ZM16.1942 11.3999C16.2219 11.5959 16.2363 11.7962 16.2363 11.9999C16.2363 12.2036 16.2219 12.4039 16.1941 12.5999H21.1667C21.4981 12.5999 21.7667 12.3313 21.7667 11.9999C21.7667 11.6686 21.4981 11.3999 21.1667 11.3999H16.1942ZM15.3897 14.5411C15.1484 14.8624 14.8625 15.1483 14.5412 15.3896L18.0576 18.906C18.2919 19.1404 18.6718 19.1404 18.9061 18.906C19.1404 18.6717 19.1404 18.2918 18.9061 18.0575L15.3897 14.5411ZM12.6001 16.1938C12.4041 16.2216 12.2039 16.2359 12.0002 16.2359C11.7965 16.2359 11.5961 16.2216 11.4001 16.1938V21.1666C11.4001 21.498 11.6687 21.7666 12.0001 21.7666C12.3314 21.7666 12.6001 21.498 12.6001 21.1666V16.1938ZM9.45909 15.3894C9.13776 15.1481 8.85186 14.8622 8.61058 14.5409L5.09398 18.0575C4.85967 18.2918 4.85967 18.6717 5.09398 18.906C5.3283 19.1403 5.7082 19.1403 5.94251 18.906L9.45909 15.3894ZM7.80633 12.5999C7.77854 12.4039 7.76416 12.2036 7.76416 11.9999C7.76416 11.7962 7.77853 11.5959 7.80631 11.3999H2.8334C2.50203 11.3999 2.2334 11.6686 2.2334 11.9999C2.2334 12.3313 2.50203 12.5999 2.8334 12.5999H7.80633ZM8.61052 9.45895C8.85179 9.1376 9.13768 8.85168 9.45901 8.61038L5.94251 5.09389C5.7082 4.85957 5.3283 4.85957 5.09398 5.09389C4.85967 5.3282 4.85967 5.7081 5.09398 5.94241L8.61052 9.45895Z" fill="#272A35"/>
</svg>
