<svg width="40" height="40" viewBox="0 0 40 40" fill="none" xmlns="http://www.w3.org/2000/svg">
<path fill-rule="evenodd" clip-rule="evenodd" d="M14.375 4C14.9273 4 15.375 4.44772 15.375 5V5.84698H24.625V5C24.625 4.44772 25.0727 4 25.625 4C26.1773 4 26.625 4.44772 26.625 5V5.84698H31.25C33.8591 5.84698 36 7.93439 36 10.5409V24.3933C36 24.9455 35.5523 25.3933 35 25.3933C34.4477 25.3933 34 24.9455 34 24.3933V14.3114H6V30.8577C6 32.3314 7.21697 33.5516 8.75 33.5516H23.75C24.3023 33.5516 24.75 33.9993 24.75 34.5516C24.75 35.1039 24.3023 35.5516 23.75 35.5516H8.75C6.1409 35.5516 4 33.4642 4 30.8577V10.5409C4 7.93439 6.1409 5.84698 8.75 5.84698H13.375V5C13.375 4.44772 13.8227 4 14.375 4ZM13.375 7.84698H8.75C7.21697 7.84698 6 9.06724 6 10.5409V12.3114H34V10.5409C34 9.06724 32.783 7.84698 31.25 7.84698H26.625V8.69395C26.625 9.24624 26.1773 9.69395 25.625 9.69395C25.0727 9.69395 24.625 9.24624 24.625 8.69395V7.84698H15.375V8.69395C15.375 9.24624 14.9273 9.69395 14.375 9.69395C13.8227 9.69395 13.375 9.24624 13.375 8.69395V7.84698ZM9.625 19.7758C9.625 19.2235 10.0727 18.7758 10.625 18.7758H12.5C13.0523 18.7758 13.5 19.2235 13.5 19.7758C13.5 20.3281 13.0523 20.7758 12.5 20.7758H10.625C10.0727 20.7758 9.625 20.3281 9.625 19.7758ZM17.125 19.7758C17.125 19.2235 17.5727 18.7758 18.125 18.7758H21.875C22.4273 18.7758 22.875 19.2235 22.875 19.7758C22.875 20.3281 22.4273 20.7758 21.875 20.7758H18.125C17.5727 20.7758 17.125 20.3281 17.125 19.7758ZM26.5 19.7758C26.5 19.2235 26.9477 18.7758 27.5 18.7758H29.375C29.9273 18.7758 30.375 19.2235 30.375 19.7758C30.375 20.3281 29.9273 20.7758 29.375 20.7758H27.5C26.9477 20.7758 26.5 20.3281 26.5 19.7758ZM9.625 27.1637C9.625 26.6114 10.0727 26.1637 10.625 26.1637H12.5C13.0523 26.1637 13.5 26.6114 13.5 27.1637C13.5 27.716 13.0523 28.1637 12.5 28.1637H10.625C10.0727 28.1637 9.625 27.716 9.625 27.1637ZM17.125 27.1637C17.125 26.6114 17.5727 26.1637 18.125 26.1637H21.875C22.4273 26.1637 22.875 26.6114 22.875 27.1637C22.875 27.716 22.4273 28.1637 21.875 28.1637H18.125C17.5727 28.1637 17.125 27.716 17.125 27.1637ZM28.6626 29.0739C29.0502 28.6804 29.6833 28.6756 30.0768 29.0632L32.1877 31.1426L34.2982 29.0636C34.6917 28.676 35.3248 28.6807 35.7124 29.0742C36.1 29.4677 36.0952 30.1008 35.7018 30.4884L33.6127 32.5463L35.3801 34.2872C35.7735 34.6748 35.7783 35.308 35.3907 35.7014C35.0031 36.0949 34.37 36.0996 33.9765 35.7121L32.1877 33.9499L30.3985 35.7124C30.005 36.1 29.3719 36.0952 28.9843 35.7018C28.5967 35.3083 28.6015 34.6752 28.9949 34.2876L30.7627 32.5463L28.6732 30.488C28.2798 30.1005 28.275 29.4673 28.6626 29.0739Z" fill="#272A35"/>
</svg>
