<svg width="16" height="16" viewBox="0 0 16 16" fill="none" xmlns="http://www.w3.org/2000/svg">
<path fill-rule="evenodd" clip-rule="evenodd" d="M8.00001 2.5C6.82641 2.5 5.87501 3.4514 5.87501 4.625C5.87501 5.79861 6.82641 6.75 8.00001 6.75C9.17362 6.75 10.125 5.79861 10.125 4.625C10.125 3.45139 9.17362 2.5 8.00001 2.5ZM4.87501 4.625C4.87501 2.89911 6.27412 1.5 8.00001 1.5C9.7259 1.5 11.125 2.89911 11.125 4.625C11.125 6.35089 9.7259 7.75 8.00001 7.75C6.27412 7.75 4.87501 6.35089 4.87501 4.625ZM9.70814 9.97845C8.57649 9.78496 7.42351 9.78496 6.29186 9.97845L6.15829 10.0013C4.93943 10.2097 4 11.3508 4 12.741C4 13.1932 4.33419 13.5 4.67523 13.5H11.3248C11.6658 13.5 12 13.1932 12 12.741C12 11.3508 11.0606 10.2097 9.84171 10.0013L9.70814 9.97845ZM9.87666 8.99275L9.7924 9.4856L9.87667 8.99275L10.0102 9.01559C11.7572 9.31426 13 10.9137 13 12.741C13 13.6795 12.2819 14.5 11.3248 14.5H4.67523C3.71815 14.5 3 13.6795 3 12.741C3 10.9137 4.24285 9.31426 5.98976 9.01559L6.12333 8.99275L6.20404 9.46479L6.12333 8.99275C7.36653 8.7802 8.63347 8.7802 9.87666 8.99275Z" fill="#272A35"/>
</svg>
