<svg width="16" height="16" viewBox="0 0 16 16" fill="none" xmlns="http://www.w3.org/2000/svg">
<path fill-rule="evenodd" clip-rule="evenodd" d="M10.8851 2.5C10.5643 2.5 10.25 2.78735 10.25 3.21081C10.25 3.44342 10.319 3.69845 10.5026 3.96521C10.5926 4.09597 10.7416 4.27772 10.8851 4.44545C11.0287 4.27772 11.1777 4.09597 11.2677 3.96521C11.4512 3.69845 11.5203 3.44342 11.5203 3.21081C11.5203 2.78735 11.206 2.5 10.8851 2.5ZM9.25 3.21081C9.25 2.29684 9.95217 1.5 10.8851 1.5C11.8181 1.5 12.5203 2.29684 12.5203 3.21081C12.5203 3.6558 12.384 4.10695 12.0915 4.53209C11.8998 4.81058 11.5442 5.21483 11.3724 5.40666C11.1109 5.69864 10.6593 5.69864 10.3979 5.40666C10.2261 5.21483 9.87044 4.81058 9.67881 4.53209C9.38625 4.10695 9.25 3.6558 9.25 3.21081ZM2.5 6.8C2.5 5.67109 3.36552 4.7 4.5 4.7H8.25C8.52614 4.7 8.75 4.92386 8.75 5.2C8.75 5.47614 8.52614 5.7 8.25 5.7H4.5C3.97762 5.7 3.5 6.1616 3.5 6.8C3.5 7.4384 3.97762 7.9 4.5 7.9H11.625C12.9666 7.9 14 9.05018 14 10.4C14 11.7498 12.9666 12.9 11.625 12.9H6.44234C6.23123 13.8012 5.46239 14.5 4.5 14.5C3.36552 14.5 2.5 13.5289 2.5 12.4C2.5 11.2711 3.36552 10.3 4.5 10.3C5.46239 10.3 6.23123 10.9988 6.44234 11.9H11.625C12.3545 11.9 13 11.2593 13 10.4C13 9.54069 12.3545 8.9 11.625 8.9H4.5C3.36552 8.9 2.5 7.92891 2.5 6.8ZM4.5 11.3C3.97762 11.3 3.5 11.7616 3.5 12.4C3.5 13.0384 3.97762 13.5 4.5 13.5C5.02238 13.5 5.5 13.0384 5.5 12.4C5.5 11.7616 5.02238 11.3 4.5 11.3Z" fill="#272A35"/>
</svg>
