<svg width="24" height="24" viewBox="0 0 24 24" fill="none" xmlns="http://www.w3.org/2000/svg">
<path fill-rule="evenodd" clip-rule="evenodd" d="M9.99931 3.45434C10.3007 3.59208 10.4334 3.94807 10.2956 4.24945L8.43381 8.32313H15.566L13.7042 4.24945C13.5665 3.94807 13.6991 3.59208 14.0005 3.45434C14.3019 3.3166 14.6579 3.44926 14.7956 3.75064L16.8854 8.32313H20.9999C21.3313 8.32313 21.5999 8.59175 21.5999 8.92313C21.5999 9.2545 21.3313 9.52313 20.9999 9.52313H20.0896C20.1999 9.84248 20.2288 10.195 20.1587 10.5403L18.6044 18.1919C18.3262 19.5615 17.1954 20.6 15.82 20.6H8.17979C6.80441 20.6 5.67357 19.5615 5.39538 18.1919L3.84114 10.5403C3.77099 10.195 3.79995 9.84248 3.91024 9.52313H2.9999C2.66853 9.52313 2.3999 9.2545 2.3999 8.92313C2.3999 8.59175 2.66853 8.32313 2.9999 8.32313H7.11443L9.20419 3.75064C9.34194 3.44926 9.69792 3.3166 9.99931 3.45434ZM7.48632 9.52313H5.52735C5.25192 9.52313 4.92302 9.83817 5.01713 10.3015L6.57136 17.9531C6.7507 18.836 7.44602 19.4 8.17979 19.4H15.82C16.5538 19.4 17.2491 18.836 17.4284 17.9531L18.9827 10.3015C19.0768 9.83817 18.7479 9.52313 18.4725 9.52313H16.5135C16.5047 9.52332 16.4958 9.52332 16.4871 9.52313H7.51275C7.50396 9.52332 7.49515 9.52332 7.48632 9.52313ZM7.97204 12.0223C8.29963 11.9724 8.60565 12.1975 8.65556 12.5251L9.21806 16.2174C9.26796 16.545 9.04286 16.851 8.71527 16.9009C8.38767 16.9508 8.08165 16.7257 8.03175 16.3981L7.46925 12.7058C7.41934 12.3782 7.64445 12.0722 7.97204 12.0223ZM16.0278 12.0223C16.3554 12.0722 16.5805 12.3782 16.5306 12.7058L15.9681 16.3981C15.9182 16.7257 15.6121 16.9508 15.2845 16.9009C14.9569 16.851 14.7318 16.545 14.7817 16.2174L15.3442 12.5251C15.3942 12.1975 15.7002 11.9724 16.0278 12.0223ZM11.9999 12.0154C12.3313 12.0154 12.5999 12.2841 12.5999 12.6154V16.3077C12.5999 16.6391 12.3313 16.9077 11.9999 16.9077C11.6685 16.9077 11.3999 16.6391 11.3999 16.3077V12.6154C11.3999 12.2841 11.6685 12.0154 11.9999 12.0154Z" fill="#272A35"/>
</svg>
