<svg width="32" height="32" viewBox="0 0 32 32" fill="none" xmlns="http://www.w3.org/2000/svg">
<path fill-rule="evenodd" clip-rule="evenodd" d="M3.19995 8.83658C3.19995 6.53164 5.1138 4.70001 7.42852 4.70001H24.5714C26.8861 4.70001 28.8 6.53164 28.8 8.83658V18.8463C28.8 21.1512 26.8861 22.9828 24.5714 22.9828H12.2773C11.5732 22.9828 10.9022 23.2552 10.4108 23.7334L7.48436 26.5814C5.92959 28.0944 3.19995 27.0668 3.19995 24.8284V8.83658ZM7.42852 6.30001C5.95615 6.30001 4.79995 7.45605 4.79995 8.83658V24.8284C4.79995 25.5626 5.76337 26.0236 6.36848 25.4347L9.29495 22.5868C10.0895 21.8135 11.1627 21.3828 12.2773 21.3828H24.5714C26.0438 21.3828 27.2 20.2268 27.2 18.8463V8.83658C27.2 7.45605 26.0438 6.30001 24.5714 6.30001H7.42852ZM10.8571 11.3731C11.2989 11.3731 11.6571 11.7313 11.6571 12.1731C11.6571 14.475 13.5808 16.378 16 16.378C18.4191 16.378 20.3428 14.475 20.3428 12.1731C20.3428 11.7313 20.701 11.3731 21.1428 11.3731C21.5846 11.3731 21.9428 11.7313 21.9428 12.1731C21.9428 15.3994 19.2614 17.978 16 17.978C12.7385 17.978 10.0571 15.3994 10.0571 12.1731C10.0571 11.7313 10.4153 11.3731 10.8571 11.3731Z" fill="#272A35"/>
</svg>
