<svg width="16" height="16" viewBox="0 0 16 16" fill="none" xmlns="http://www.w3.org/2000/svg">
<path fill-rule="evenodd" clip-rule="evenodd" d="M6.58057 13L7.68573 13L6.58057 11.8927L6.58057 13ZM5.58057 10.6839C5.58057 10.2382 6.11962 10.0152 6.43446 10.3307L9.24507 13.1468C9.55958 13.4619 9.33639 14 8.89117 14L6.08057 14C5.80442 14 5.58057 13.7761 5.58057 13.5L5.58057 10.6839Z" fill="#272A35"/>
<path fill-rule="evenodd" clip-rule="evenodd" d="M13.3617 6.4727C13.5522 6.67259 13.5446 6.98908 13.3447 7.17961L8.18336 12.0995C7.98348 12.29 7.66699 12.2824 7.47646 12.0826C7.28593 11.8827 7.29351 11.5662 7.49339 11.3756L12.6548 6.45577C12.8546 6.26524 13.1711 6.27282 13.3617 6.4727Z" fill="#272A35"/>
<path fill-rule="evenodd" clip-rule="evenodd" d="M9.41943 2L8.31427 2L9.41943 3.10732L9.41943 2ZM10.4194 4.31609C10.4194 4.76178 9.88038 4.98475 9.56554 4.6693L6.75493 1.85321C6.44042 1.53808 6.66361 0.999998 7.10883 0.999998L9.91943 0.999997C10.1956 0.999997 10.4194 1.22386 10.4194 1.5L10.4194 4.31609Z" fill="#272A35"/>
<path fill-rule="evenodd" clip-rule="evenodd" d="M2.63784 8.5273C2.44731 8.32741 2.45489 8.01092 2.65478 7.82039L7.81615 2.90051C8.01603 2.70998 8.33252 2.71757 8.52305 2.91745C8.71358 3.11733 8.706 3.43382 8.50612 3.62435L3.34475 8.54423C3.14486 8.73476 2.82837 8.72718 2.63784 8.5273Z" fill="#272A35"/>
</svg>
