<svg width="32" height="32" viewBox="0 0 32 32" fill="none" xmlns="http://www.w3.org/2000/svg">
<path fill-rule="evenodd" clip-rule="evenodd" d="M18.5064 5.19608C16.9427 4.66911 15.2349 4.66934 13.6647 5.1887C11.1165 6.03155 9.12205 8.14412 8.41907 10.7915L8.34722 11.0621C7.87482 12.8411 7.78797 14.7041 8.09286 16.5212L8.12425 16.7082C8.13905 16.7964 8.15591 16.8838 8.17477 16.9703C8.25571 17.3418 8.0641 17.7189 7.71636 17.8725C6.88849 18.2382 6.29995 19.0854 6.29995 20.0818C6.29995 21.2364 7.09488 22.2129 8.17517 22.4375L8.66822 22.54C9.8985 22.7957 11.1384 22.9864 12.383 23.1121C14.7561 23.3517 17.1464 23.355 19.52 23.1218C20.7972 22.9963 22.0695 22.8024 23.3317 22.54L23.8247 22.4375C24.905 22.2129 25.7 21.2364 25.7 20.0818C25.7 19.0849 25.1108 18.2373 24.2823 17.8719C23.9328 17.7178 23.7411 17.3382 23.8244 16.9655C23.846 16.8688 23.8651 16.771 23.8817 16.6723L23.9149 16.474L24.6011 16.5891L23.915 16.474C24.2151 14.6851 24.1369 12.8514 23.6855 11.0961L23.5895 10.7224C22.9186 8.11326 21.0016 6.03691 18.5064 5.19608ZM13.1623 3.66964C15.058 3.04261 17.1214 3.04094 19.0174 3.67986C22.0361 4.69714 24.3362 7.20139 25.1391 10.324L25.2351 10.6977C25.7404 12.6628 25.8294 14.7148 25.4965 16.7174C26.5848 17.4321 27.2999 18.6751 27.2999 20.0818C27.2999 21.9727 25.9942 23.6207 24.1504 24.004L23.6573 24.1065C22.6126 24.3237 21.5612 24.4959 20.5059 24.6233C20.5053 24.7598 20.4929 24.8976 20.4641 25.0321L20.369 25.4759C20.0391 27.0149 18.8715 28.237 17.3504 28.6066L17.0932 28.669C16.3745 28.8437 15.6254 28.8437 14.9067 28.669L14.6495 28.6066C13.1284 28.237 11.9608 27.0149 11.6309 25.4759L11.5358 25.0321C11.5065 24.8956 11.4862 24.7583 11.4747 24.621C10.4259 24.4938 9.38093 24.3223 8.34259 24.1065L7.84954 24.004C6.00572 23.6207 4.69995 21.9727 4.69995 20.0818C4.69995 18.675 5.41519 17.432 6.50358 16.7173C6.17458 14.6974 6.2758 12.6286 6.80081 10.6514L6.87266 10.3809C7.7131 7.21583 10.0971 4.68349 13.1623 3.66964ZM13.1189 24.7837L13.1954 25.1405C13.3996 26.0932 14.117 26.8306 15.0273 27.0518L15.2845 27.1143C15.7549 27.2286 16.245 27.2286 16.7154 27.1143L16.9726 27.0518C17.8829 26.8306 18.6003 26.0932 18.8045 25.1405L18.881 24.7837C16.963 24.9311 15.0369 24.9311 13.1189 24.7837Z" fill="#272A35"/>
</svg>
