<svg width="40" height="40" viewBox="0 0 40 40" fill="none" xmlns="http://www.w3.org/2000/svg">
<path fill-rule="evenodd" clip-rule="evenodd" d="M20 6C16.8266 6 14.2917 8.51102 14.2917 11.5625C14.2917 14.614 16.8266 17.125 20 17.125C23.1735 17.125 25.7084 14.614 25.7084 11.5625C25.7084 8.51102 23.1735 6 20 6ZM12.2917 11.5625C12.2917 7.36524 15.7637 4 20 4C24.2364 4 27.7084 7.36524 27.7084 11.5625C27.7084 15.7598 24.2364 19.125 20 19.125C15.7637 19.125 12.2917 15.7598 12.2917 11.5625ZM24.4156 24.7003C21.4903 24.211 18.5097 24.211 15.5844 24.7003L15.243 24.7574L15.0781 23.7711L15.243 24.7574C11.9683 25.3051 9.5 28.2851 9.5 31.8524C9.5 33.0832 10.4406 34 11.5034 34H28.4966C29.5594 34 30.5 33.0832 30.5 31.8524C30.5 28.2851 28.0317 25.3051 24.757 24.7574L24.9219 23.7711L24.757 24.7574L24.4156 24.7003ZM15.2545 22.7277C18.3982 22.2019 21.6018 22.2019 24.7455 22.7277L25.0869 22.7848C29.3914 23.5047 32.5 27.3762 32.5 31.8524C32.5 34.0984 30.7513 36 28.4966 36H11.5034C9.24869 36 7.5 34.0984 7.5 31.8524C7.5 27.3762 10.6086 23.5047 14.9131 22.7848L15.2545 22.7277Z" fill="#272A35"/>
</svg>
