<svg width="24" height="24" viewBox="0 0 24 24" fill="none" xmlns="http://www.w3.org/2000/svg">
<path fill-rule="evenodd" clip-rule="evenodd" d="M11.9999 3.60002C9.27003 3.60002 7.04435 5.84274 7.04435 8.62502C7.04435 10.0639 7.50157 11.5824 8.5976 13.0943C9.14591 13.8506 10.0685 14.9038 10.8834 15.797C11.49 16.4618 12.5098 16.4618 13.1164 15.797C13.9313 14.9038 14.8539 13.8506 15.4022 13.0943C16.4982 11.5824 16.9555 10.0639 16.9555 8.62502C16.9555 5.84274 14.7298 3.60002 11.9999 3.60002ZM5.84435 8.62502C5.84435 5.1941 8.59328 2.40002 11.9999 2.40002C15.4065 2.40002 18.1555 5.1941 18.1555 8.62502C18.1555 10.2843 17.6393 11.9938 16.4796 13.65H18.6666C18.8949 13.65 19.1034 13.7796 19.2045 13.9844L22.5379 20.7344C22.6297 20.9203 22.619 21.1406 22.5095 21.3167C22.4 21.4929 22.2073 21.6 21.9999 21.6H1.9999C1.79248 21.6 1.59978 21.4929 1.49029 21.3167C1.38081 21.1406 1.37008 20.9203 1.46192 20.7344L4.79526 13.9844C4.89636 13.7796 5.1049 13.65 5.33324 13.65H7.52017C6.36052 11.9938 5.84435 10.2843 5.84435 8.62502ZM8.45471 14.85H5.70611L2.96537 20.4H21.0344L18.2937 14.85H15.5451C15.0545 15.4379 14.5007 16.06 14.0029 16.6058C12.9204 17.7923 11.0794 17.7923 9.99693 16.6058C9.49907 16.0601 8.94528 15.4379 8.45471 14.85ZM11.9999 6.81431C11.0233 6.81431 10.219 7.61795 10.219 8.62502C10.219 9.6321 11.0233 10.4357 11.9999 10.4357C12.9765 10.4357 13.7809 9.6321 13.7809 8.62502C13.7809 7.61795 12.9765 6.81431 11.9999 6.81431ZM9.01895 8.62502C9.01895 6.9693 10.3466 5.61431 11.9999 5.61431C13.6532 5.61431 14.9809 6.9693 14.9809 8.62502C14.9809 10.2807 13.6532 11.6357 11.9999 11.6357C10.3466 11.6357 9.01895 10.2807 9.01895 8.62502Z" fill="#272A35"/>
</svg>
