<svg width="41" height="40" viewBox="0 0 41 40" fill="none" xmlns="http://www.w3.org/2000/svg">
<path fill-rule="evenodd" clip-rule="evenodd" d="M20.2929 24.2929C20.6834 23.9024 21.3166 23.9024 21.7071 24.2929L26 28.5858L30.2929 24.2929C30.6834 23.9024 31.3166 23.9024 31.7071 24.2929C32.0976 24.6834 32.0976 25.3166 31.7071 25.7071L27.4142 30L31.7071 34.2929C32.0976 34.6834 32.0976 35.3166 31.7071 35.7071C31.3166 36.0976 30.6834 36.0976 30.2929 35.7071L26 31.4142L21.7071 35.7071C21.3166 36.0976 20.6834 36.0976 20.2929 35.7071C19.9024 35.3166 19.9024 34.6834 20.2929 34.2929L24.5858 30L20.2929 25.7071C19.9024 25.3166 19.9024 24.6834 20.2929 24.2929Z" fill="#272A35"/>
<path fill-rule="evenodd" clip-rule="evenodd" d="M0 10C0 6.68629 2.68629 4 6 4H24.3333C27.647 4 30.3333 6.68629 30.3333 10V19.9405C30.3333 20.4928 29.8856 20.9405 29.3333 20.9405C28.781 20.9405 28.3333 20.4928 28.3333 19.9405V10C28.3333 7.79086 26.5425 6 24.3333 6H6C3.79086 6 2 7.79086 2 10V25C2 27.2091 3.79086 29 6 29H15.1667C15.719 29 16.1667 29.4477 16.1667 30C16.1667 30.5523 15.719 31 15.1667 31H6C2.6863 31 0 28.3137 0 25V10Z" fill="#272A35"/>
<path fill-rule="evenodd" clip-rule="evenodd" d="M2.02659 5.89846C2.45087 5.5449 3.08143 5.60222 3.43499 6.0265L13.6303 18.2609C14.4299 19.2204 15.9036 19.2204 16.7032 18.2609L26.8986 6.0265C27.2521 5.60222 27.8827 5.5449 28.307 5.89846C28.7312 6.25202 28.7886 6.88259 28.435 7.30687L18.2397 19.5413C16.6405 21.4603 13.6931 21.4603 12.0939 19.5413L1.89855 7.30687C1.54499 6.88259 1.60231 6.25202 2.02659 5.89846Z" fill="#272A35"/>
</svg>
