<svg width="16" height="16" viewBox="0 0 16 16" fill="none" xmlns="http://www.w3.org/2000/svg">
<path fill-rule="evenodd" clip-rule="evenodd" d="M8.25981 2.74323C8.10021 2.64616 7.89979 2.64616 7.74018 2.74323L3.03466 5.60507L7.77744 7.96259C7.91763 8.03227 8.08237 8.03227 8.22256 7.96259L12.9653 5.60507L8.25981 2.74323ZM13.5 6.45603L8.66768 8.85806C8.24711 9.06712 7.75289 9.06712 7.33232 8.85806L2.5 6.45603V12C2.5 12.8284 3.17157 13.5 4 13.5H12C12.8284 13.5 13.5 12.8284 13.5 12V6.45603ZM7.22055 1.88884C7.69938 1.59762 8.30062 1.59762 8.77944 1.88884L14.2598 5.22193C14.409 5.31264 14.5 5.47456 14.5 5.64912V12C14.5 13.3807 13.3807 14.5 12 14.5H4C2.61929 14.5 1.5 13.3807 1.5 12V5.64912C1.5 5.47456 1.59104 5.31264 1.74019 5.22193L7.22055 1.88884Z" fill="#272A35"/>
</svg>
