<svg width="24" height="24" viewBox="0 0 24 24" fill="none" xmlns="http://www.w3.org/2000/svg">
<path fill-rule="evenodd" clip-rule="evenodd" d="M2.3999 4.38464C2.3999 3.41099 3.0618 2.40002 4.1249 2.40002H19.8749C20.938 2.40002 21.5999 3.41099 21.5999 4.38464V8.53849C21.5999 9.51214 20.938 10.5231 19.8749 10.5231H19.3499V18.2308C19.3499 19.9691 18.1843 21.6 16.4999 21.6H7.4999C5.81548 21.6 4.6499 19.9691 4.6499 18.2308L4.6499 10.5231H4.1249C3.0618 10.5231 2.3999 9.51214 2.3999 8.53849V4.38464ZM5.8499 9.9231V18.2308C5.8499 19.5512 6.69904 20.4 7.4999 20.4H14.7749L14.7749 6.36926H9.2249L9.2249 8.53849C9.2249 8.86986 8.95627 9.13849 8.6249 9.13849C8.29353 9.13849 8.0249 8.86986 8.0249 8.53849L8.0249 6.36925H6.3749C6.19536 6.36925 5.8499 6.59812 5.8499 7.15387V9.9231ZM6.3749 5.16925C5.3118 5.16925 4.6499 6.18022 4.6499 7.15387V9.3231H4.1249C3.94536 9.3231 3.5999 9.09424 3.5999 8.53849V4.38464C3.5999 3.82889 3.94536 3.60002 4.1249 3.60002H19.8749C20.0544 3.60002 20.3999 3.82889 20.3999 4.38464V8.53849C20.3999 9.09424 20.0544 9.3231 19.8749 9.3231H19.3499V7.15387C19.3499 6.18022 18.688 5.16926 17.6249 5.16926L6.3749 5.16925ZM15.9749 6.36926L15.9749 20.4H16.4999C17.3008 20.4 18.1499 19.5513 18.1499 18.2308V7.15387C18.1499 6.59812 17.8044 6.36926 17.6249 6.36926H15.9749ZM8.6249 12.0923C8.95627 12.0923 9.2249 12.361 9.2249 12.6923V14.0769C9.2249 14.4083 8.95627 14.6769 8.6249 14.6769C8.29353 14.6769 8.0249 14.4083 8.0249 14.0769V12.6923C8.0249 12.361 8.29353 12.0923 8.6249 12.0923Z" fill="#272A35"/>
</svg>
