<svg width="32" height="32" viewBox="0 0 32 32" fill="none" xmlns="http://www.w3.org/2000/svg">
<path fill-rule="evenodd" clip-rule="evenodd" d="M3.19995 7.99995C3.19995 5.34898 5.34898 3.19995 7.99995 3.19995H22.6666C25.3176 3.19995 27.4666 5.34899 27.4666 7.99995V15.9523C27.4666 16.3942 27.1084 16.7523 26.6666 16.7523C26.2248 16.7523 25.8666 16.3942 25.8666 15.9523V7.99995C25.8666 6.23264 24.4339 4.79995 22.6666 4.79995H7.99995C6.23264 4.79995 4.79995 6.23264 4.79995 7.99995V20C4.79995 21.7673 6.23264 23.2 7.99995 23.2H15.3333C15.7751 23.2 16.1333 23.5581 16.1333 24C16.1333 24.4418 15.7751 24.8 15.3333 24.8H7.99995C5.34898 24.8 3.19995 22.6509 3.19995 20V7.99995Z" fill="#272A35"/>
<path fill-rule="evenodd" clip-rule="evenodd" d="M4.82108 4.71877C5.1605 4.43592 5.66495 4.48178 5.9478 4.8212L13.6431 14.0556C14.5227 15.1111 16.1438 15.1111 17.0233 14.0556L24.7186 4.8212C25.0015 4.48178 25.5059 4.43592 25.8454 4.71877C26.1848 5.00162 26.2307 5.50607 25.9478 5.84549L18.2525 15.0799C16.7332 16.903 13.9332 16.903 12.414 15.0799L4.71865 5.84549C4.43579 5.50607 4.48165 5.00162 4.82108 4.71877Z" fill="#272A35"/>
<path fill-rule="evenodd" clip-rule="evenodd" d="M23.48 19.36C23.1266 19.0949 22.6251 19.1665 22.36 19.52L19.36 23.52C19.1467 23.8044 19.1467 24.1956 19.36 24.48L22.36 28.48C22.6251 28.8335 23.1266 28.9051 23.48 28.64C23.8335 28.3749 23.9051 27.8735 23.64 27.52L21.6 24.8H28C28.4419 24.8 28.8 24.4418 28.8 24C28.8 23.5582 28.4419 23.2 28 23.2H21.6L23.64 20.48C23.9051 20.1265 23.8335 19.6251 23.48 19.36Z" fill="#272A35"/>
</svg>
