<svg width="16" height="16" viewBox="0 0 16 16" fill="none" xmlns="http://www.w3.org/2000/svg">
<path fill-rule="evenodd" clip-rule="evenodd" d="M1 1.5C1 1.22386 1.22386 1 1.5 1H14.5C14.7761 1 15 1.22386 15 1.5C15 1.77614 14.7761 2 14.5 2H1.5C1.22386 2 1 1.77614 1 1.5ZM1 6.34898C1 6.07284 1.22386 5.84898 1.5 5.84898H12.0755C13.6907 5.84898 15 7.15832 15 8.77347C15 10.3886 13.6907 11.698 12.0755 11.698H10.4375C10.1614 11.698 9.9375 11.4741 9.9375 11.198C9.9375 10.9218 10.1614 10.698 10.4375 10.698H12.0755C13.1384 10.698 14 9.83634 14 8.77347C14 7.7106 13.1384 6.84898 12.0755 6.84898H1.5C1.22386 6.84898 1 6.62512 1 6.34898ZM1.40625 11.198C1.40625 10.9218 1.63011 10.698 1.90625 10.698H6.375C6.65114 10.698 6.875 10.9218 6.875 11.198C6.875 11.4741 6.65114 11.698 6.375 11.698H1.90625C1.63011 11.698 1.40625 11.4741 1.40625 11.198Z" fill="#272A35"/>
<path fill-rule="evenodd" clip-rule="evenodd" d="M8.84812 11.1104L9.67054 10.2428L9.6563 11.9928L8.84812 11.1104ZM9.78417 13.6093C10.0851 13.9378 10.6064 13.7113 10.6102 13.2503L10.6448 9.00244C10.6485 8.54167 10.1314 8.30662 9.82502 8.62983L7.82872 10.7358C7.63875 10.9362 7.63594 11.2638 7.82246 11.4674L9.78417 13.6093Z" fill="#272A35"/>
</svg>
