<svg width="24" height="24" viewBox="0 0 24 24" fill="none" xmlns="http://www.w3.org/2000/svg">
<path fill-rule="evenodd" clip-rule="evenodd" d="M8.58611 3.60002C7.54629 3.60002 6.70335 4.44296 6.70335 5.48278V15.4138C6.70335 16.4536 7.54629 17.2966 8.58611 17.2966H18.5171C19.557 17.2966 20.3999 16.4536 20.3999 15.4138V9.80692H17.2758C15.5732 9.80692 14.193 8.42672 14.193 6.72416V3.60002H8.58611ZM15.393 4.44855L19.5514 8.60692H17.2758C16.2359 8.60692 15.393 7.76398 15.393 6.72416V4.44855ZM5.5617 4.88278C5.8409 3.46743 7.08885 2.40002 8.58611 2.40002H14.793C14.9521 2.40002 15.1047 2.46324 15.2173 2.57576L21.4242 8.78266C21.5367 8.89518 21.5999 9.04779 21.5999 9.20692V15.4138C21.5999 16.9111 20.5325 18.159 19.1171 18.4382V18.5173C19.1171 20.2198 17.7369 21.6 16.0344 21.6H5.48266C3.7801 21.6 2.3999 20.2198 2.3999 18.5173V7.96554C2.3999 6.26298 3.7801 4.88278 5.48266 4.88278H5.5617ZM5.50335 6.08278H5.48266C4.44284 6.08278 3.5999 6.92572 3.5999 7.96554V18.5173C3.5999 19.5571 4.44284 20.4 5.48266 20.4H16.0344C17.0742 20.4 17.9171 19.5571 17.9171 18.5173V18.4966H8.58611C6.88355 18.4966 5.50335 17.1164 5.50335 15.4138V6.08278Z" fill="#272A35"/>
</svg>
