<svg width="40" height="40" viewBox="0 0 40 40" fill="none" xmlns="http://www.w3.org/2000/svg">
<path fill-rule="evenodd" clip-rule="evenodd" d="M20 34C27.732 34 34 27.732 34 20C34 12.268 27.732 6 20 6C12.268 6 6 12.268 6 20C6 27.732 12.268 34 20 34ZM36 20C36 28.8366 28.8366 36 20 36C11.1634 36 4 28.8366 4 20C4 11.1634 11.1634 4 20 4C28.8366 4 36 11.1634 36 20ZM13.784 16.9852L19.0753 22.2765C19.586 22.7872 20.414 22.7872 20.9247 22.2765L26.216 16.9852C26.6065 16.5947 27.2397 16.5947 27.6302 16.9852C28.0207 17.3757 28.0207 18.0089 27.6302 18.3994L22.3389 23.6907C21.0472 24.9824 18.9528 24.9824 17.6611 23.6907L12.3698 18.3994C11.9793 18.0089 11.9793 17.3757 12.3698 16.9852C12.7603 16.5947 13.3935 16.5947 13.784 16.9852Z" fill="#272A35"/>
</svg>
