<svg width="24" height="24" viewBox="0 0 24 24" fill="none" xmlns="http://www.w3.org/2000/svg">
<path fill-rule="evenodd" clip-rule="evenodd" d="M2.3999 6.54217C2.3999 4.80035 3.8263 3.40002 5.57133 3.40002H18.4285C20.1735 3.40002 21.5999 4.80035 21.5999 6.54217V14.1686C21.5999 15.9104 20.1735 17.3108 18.4285 17.3108H9.20788C8.68282 17.3108 8.18063 17.517 7.81143 17.882L5.61658 20.0519C4.43786 21.2172 2.3999 20.406 2.3999 18.7264V6.54217ZM5.57133 4.60002C4.47604 4.60002 3.5999 5.47601 3.5999 6.54217V18.7264C3.5999 19.3116 4.33173 19.6347 4.77293 19.1985L6.96778 17.0286C7.56305 16.4402 8.36897 16.1108 9.20788 16.1108H18.4285C19.5238 16.1108 20.3999 15.2348 20.3999 14.1686V6.54217C20.3999 5.47601 19.5238 4.60002 18.4285 4.60002H5.57133ZM8.14276 9.43762C8.47413 9.43762 8.74276 9.70625 8.74276 10.0376V10.6732C8.74276 11.0045 8.47413 11.2732 8.14276 11.2732C7.81139 11.2732 7.54276 11.0045 7.54276 10.6732V10.0376C7.54276 9.70625 7.81139 9.43762 8.14276 9.43762ZM11.9999 9.43762C12.3313 9.43762 12.5999 9.70625 12.5999 10.0376V10.6732C12.5999 11.0045 12.3313 11.2732 11.9999 11.2732C11.6685 11.2732 11.3999 11.0045 11.3999 10.6732V10.0376C11.3999 9.70625 11.6685 9.43762 11.9999 9.43762ZM15.857 9.43762C16.1884 9.43762 16.457 9.70625 16.457 10.0376V10.6732C16.457 11.0045 16.1884 11.2732 15.857 11.2732C15.5257 11.2732 15.257 11.0045 15.257 10.6732V10.0376C15.257 9.70625 15.5257 9.43762 15.857 9.43762Z" fill="#272A35"/>
</svg>
