<svg width="16" height="16" viewBox="0 0 16 16" fill="none" xmlns="http://www.w3.org/2000/svg">
<path fill-rule="evenodd" clip-rule="evenodd" d="M3.64286 2C3.64286 1.72386 3.86671 1.5 4.14286 1.5H11.8571C12.1333 1.5 12.3571 1.72386 12.3571 2C12.3571 2.27614 12.1333 2.5 11.8571 2.5H11.0714V7.07115L12.5957 8.12498C12.8489 8.30001 13 8.5882 13 8.89599C13 9.41367 12.5803 9.83333 12.0627 9.83333H8.5V14C8.5 14.2761 8.27614 14.5 8 14.5C7.72386 14.5 7.5 14.2761 7.5 14V9.83333H3.93734C3.41966 9.83333 3 9.41367 3 8.89599C3 8.5882 3.15111 8.30001 3.40429 8.12498L4.92857 7.07115V2.5H4.14286C3.86671 2.5 3.64286 2.27614 3.64286 2ZM5.92857 2.5V7.59551L4.13816 8.83333H11.8618L10.0714 7.59551V2.5H5.92857Z" fill="#272A35"/>
</svg>
