<svg width="40" height="40" viewBox="0 0 40 40" fill="none" xmlns="http://www.w3.org/2000/svg">
<path fill-rule="evenodd" clip-rule="evenodd" d="M16.25 6C14.7312 6 13.5 7.23122 13.5 8.75V9.625H26.5V8.75C26.5 7.23122 25.2688 6 23.75 6H16.25ZM28.5 9.625V8.75C28.5 6.12665 26.3734 4 23.75 4H16.25C13.6266 4 11.5 6.12665 11.5 8.75V9.625H8.75C6.12665 9.625 4 11.7516 4 14.375V31.25C4 33.8734 6.12665 36 8.75 36H31.25C33.8734 36 36 33.8734 36 31.25V14.375C36 11.7516 33.8734 9.625 31.25 9.625H28.5ZM8.75 11.625C7.23122 11.625 6 12.8562 6 14.375V24.625H17.125V23.75C17.125 22.1622 18.4122 20.875 20 20.875C21.5878 20.875 22.875 22.1622 22.875 23.75V24.625H34V14.375C34 12.8562 32.7688 11.625 31.25 11.625H8.75ZM34 26.625H22.875V27.5C22.875 29.0878 21.5878 30.375 20 30.375C18.4122 30.375 17.125 29.0878 17.125 27.5V26.625H6V31.25C6 32.7688 7.23122 34 8.75 34H31.25C32.7688 34 34 32.7688 34 31.25V26.625ZM19.125 27.5C19.125 27.9832 19.5168 28.375 20 28.375C20.4832 28.375 20.875 27.9832 20.875 27.5V23.75C20.875 23.2668 20.4832 22.875 20 22.875C19.5168 22.875 19.125 23.2668 19.125 23.75V27.5Z" fill="#272A35"/>
</svg>
