<svg width="32" height="32" viewBox="0 0 32 32" fill="none" xmlns="http://www.w3.org/2000/svg">
<path fill-rule="evenodd" clip-rule="evenodd" d="M7.48567 4.99995C7.48567 4.55812 7.84384 4.19995 8.28567 4.19995H23.7142C24.1561 4.19995 24.5142 4.55812 24.5142 4.99995C24.5142 5.44178 24.1561 5.79995 23.7142 5.79995H21.9428V14.3376L25.0618 16.3142C25.5214 16.6055 25.7999 17.1118 25.7999 17.6559C25.7999 18.5332 25.0888 19.2444 24.2115 19.2444H16.8V27C16.8 27.4418 16.4418 27.8 16 27.8C15.5581 27.8 15.2 27.4418 15.2 27V19.2444H7.7884C6.91112 19.2444 6.19995 18.5332 6.19995 17.6559C6.19995 17.1118 6.47848 16.6055 6.9381 16.3142L10.0571 14.3376V5.79995H8.28567C7.84384 5.79995 7.48567 5.44178 7.48567 4.99995ZM11.6571 5.79995V15.2179L7.82821 17.6444H24.1717L20.3428 15.2179V5.79995H11.6571Z" fill="#272A35"/>
</svg>
