<svg width="40" height="40" viewBox="0 0 40 40" fill="none" xmlns="http://www.w3.org/2000/svg">
<path fill-rule="evenodd" clip-rule="evenodd" d="M19.0294 6.44165C11.0051 6.44165 4.5 12.9467 4.5 20.9711C4.5 28.9955 11.0051 35.5005 19.0294 35.5005C21.6775 35.5005 24.1574 34.793 26.2934 33.5574C26.7715 33.2808 27.3832 33.4442 27.6598 33.9222C27.9363 34.4003 27.7729 35.012 27.2949 35.2886C24.8626 36.6956 22.0385 37.5005 19.0294 37.5005C9.90048 37.5005 2.5 30.1001 2.5 20.9711C2.5 11.8421 9.90048 4.44165 19.0294 4.44165C23.9665 4.44165 28.3989 6.60738 31.4263 10.0373C31.7917 10.4514 31.7523 11.0833 31.3383 11.4488C30.9242 11.8143 30.2922 11.7749 29.9268 11.3608C27.263 8.34274 23.3689 6.44165 19.0294 6.44165Z" fill="#272A35"/>
<path fill-rule="evenodd" clip-rule="evenodd" d="M34.5571 19.9702C34.0048 19.9702 33.5571 20.418 33.5571 20.9702C33.5571 21.4685 33.5321 21.9606 33.4832 22.4454C33.4279 22.9949 33.8285 23.4853 34.378 23.5406C34.9275 23.596 35.4178 23.1954 35.4732 22.6459C35.5287 22.0946 35.5571 21.5356 35.5571 20.9702C35.5571 20.418 35.1094 19.9702 34.5571 19.9702ZM34.1452 24.6778C33.6183 24.5122 33.0569 24.8051 32.8913 25.332C32.5936 26.2793 32.2014 27.1849 31.7256 28.0378C31.4565 28.5201 31.6294 29.1292 32.1117 29.3983C32.594 29.6674 33.2031 29.4945 33.4722 29.0122C34.0136 28.0416 34.4602 27.0105 34.7993 25.9316C34.9649 25.4047 34.672 24.8434 34.1452 24.6778ZM31.4462 30.3492C31.028 29.9886 30.3965 30.0353 30.0359 30.4535C29.7142 30.8265 29.374 31.183 29.0166 31.5215C28.6156 31.9012 28.5984 32.5342 28.9781 32.9352C29.3579 33.3361 29.9908 33.3534 30.3918 32.9736C30.7981 32.5888 31.1849 32.1836 31.5505 31.7596C31.9112 31.3414 31.8645 30.7099 31.4462 30.3492Z" fill="#272A35"/>
<path fill-rule="evenodd" clip-rule="evenodd" d="M27.7381 15.0883H34.498L34.498 8.32843L27.7381 15.0883ZM34.498 17.0883H27.7381C25.9563 17.0883 25.064 14.934 26.3239 13.674L33.0838 6.91421C34.3437 5.65428 36.498 6.54662 36.498 8.32843V15.0883C36.498 16.1928 35.6025 17.0883 34.498 17.0883Z" fill="#272A35"/>
</svg>
