<svg width="16" height="16" viewBox="0 0 16 16" fill="none" xmlns="http://www.w3.org/2000/svg">
<path fill-rule="evenodd" clip-rule="evenodd" d="M9.49068 1.55279C9.61842 1.48892 9.76738 1.48272 9.89998 1.53576L13.1081 2.819C13.9488 3.15527 14.5 3.96948 14.5 4.87491V12.734C14.5 13.6941 13.5303 14.3506 12.6388 13.994L9.73706 12.8333L6.50932 14.4472C6.38158 14.5111 6.23262 14.5173 6.10002 14.4642L2.89192 13.181L3.07762 12.7168L2.89192 13.181C2.05125 12.8447 1.5 12.0305 1.5 11.1251V3.26603C1.5 2.3059 2.46971 1.64937 3.36117 2.00595L6.26294 3.16666L9.49068 1.55279ZM10.2143 11.9472L13.0102 13.0656C13.2448 13.1594 13.5 12.9866 13.5 12.734V4.87491C13.5 4.37839 13.1977 3.93188 12.7367 3.74748L10.2143 2.73852V7.14286C10.2143 7.419 9.99043 7.64286 9.71429 7.64286C9.43814 7.64286 9.21429 7.419 9.21429 7.14286V2.80902L6.50932 4.1615C6.38158 4.22537 6.23262 4.23157 6.10002 4.17852L2.98978 2.93443C2.75519 2.84059 2.5 3.01336 2.5 3.26603V11.1251C2.5 11.6216 2.8023 12.0681 3.26331 12.2525L5.78571 13.2615V8C5.78571 7.72386 6.00957 7.5 6.28571 7.5C6.56186 7.5 6.78571 7.72386 6.78571 8V13.191L9.21429 11.9767V10.5714C9.21429 10.2953 9.43814 10.0714 9.71429 10.0714C9.99043 10.0714 10.2143 10.2953 10.2143 10.5714V11.9472Z" fill="#272A35"/>
</svg>
