<svg width="24" height="24" viewBox="0 0 24 24" fill="none" xmlns="http://www.w3.org/2000/svg">
<path fill-rule="evenodd" clip-rule="evenodd" d="M5.57133 2.60002C4.45945 2.60002 3.5999 3.45968 3.5999 4.46958V16.8174C3.5999 17.8273 4.45945 18.6869 5.57133 18.6869H8.05229C9.1021 18.6869 10.092 19.1906 10.6847 20.0445L11.423 21.108C11.6933 21.4974 12.3065 21.4974 12.5768 21.108L13.3151 20.0445C13.9078 19.1906 14.8977 18.6869 15.9475 18.6869H18.4285C19.5404 18.6869 20.3999 17.8273 20.3999 16.8174V4.46958C20.3999 3.45968 19.5404 2.60002 18.4285 2.60002H5.57133ZM2.3999 4.46958C2.3999 2.75169 3.84289 1.40002 5.57133 1.40002H18.4285C20.1569 1.40002 21.5999 2.75169 21.5999 4.46958V16.8174C21.5999 18.5353 20.1569 19.8869 18.4285 19.8869H15.9475C15.2778 19.8869 14.6619 20.2086 14.3008 20.7288L13.5626 21.7923C12.815 22.8693 11.1848 22.8693 10.4372 21.7923L9.69896 20.7288C9.33786 20.2086 8.722 19.8869 8.05229 19.8869H5.57133C3.84289 19.8869 2.3999 18.5353 2.3999 16.8174V4.46958ZM13.1836 5.99652C13.9071 5.23217 15.1369 5.20526 15.8954 5.93372L16.3355 6.35632C17.0578 7.05001 17.0869 8.17735 16.3978 8.90526L9.68794 15.9937C9.57462 16.1134 9.41704 16.1813 9.2522 16.1813L6.99184 16.1813C6.66047 16.1813 6.39184 15.9126 6.39184 15.5813L6.39184 13.4105C6.39184 13.257 6.45062 13.1094 6.5561 12.998L13.1836 5.99652ZM15.0642 6.79922C14.7846 6.53064 14.3192 6.54247 14.0551 6.82145L7.59184 13.6494V14.9813L8.99398 14.9813L15.5263 8.08033C15.7606 7.83282 15.7526 7.46027 15.5043 7.22182L15.0642 6.79922ZM12.0428 15.5826C12.0428 15.2512 12.3114 14.9826 12.6428 14.9826H17.1428C17.4741 14.9826 17.7428 15.2512 17.7428 15.5826C17.7428 15.914 17.4741 16.1826 17.1428 16.1826H12.6428C12.3114 16.1826 12.0428 15.914 12.0428 15.5826Z" fill="#272A35"/>
</svg>
