<svg width="24" height="24" viewBox="0 0 24 24" fill="none" xmlns="http://www.w3.org/2000/svg">
<path fill-rule="evenodd" clip-rule="evenodd" d="M11.4705 4.65886C7.12368 4.65886 3.5999 8.18264 3.5999 12.5295C3.5999 16.8763 7.12368 20.4 11.4705 20.4C12.9051 20.4 14.2483 20.0168 15.4053 19.3475C15.6922 19.1815 16.0592 19.2796 16.2251 19.5664C16.3911 19.8532 16.2931 20.2203 16.0062 20.3862C14.6714 21.1583 13.1216 21.6 11.4705 21.6C6.46094 21.6 2.3999 17.539 2.3999 12.5295C2.3999 7.5199 6.46094 3.45886 11.4705 3.45886C14.1797 3.45886 16.6121 4.64738 18.2733 6.52949C18.4926 6.77793 18.4689 7.15709 18.2205 7.37637C17.972 7.59565 17.5929 7.57201 17.3736 7.32357C15.9305 5.6886 13.8211 4.65886 11.4705 4.65886Z" fill="#272A35"/>
<path fill-rule="evenodd" clip-rule="evenodd" d="M19.941 11.9294C19.6096 11.9294 19.341 12.1981 19.341 12.5294C19.341 13.0745 19.2857 13.606 19.1806 14.1188C19.1141 14.4434 19.3233 14.7605 19.6479 14.827C19.9725 14.8936 20.2896 14.6844 20.3561 14.3597C20.4774 13.7681 20.541 13.1559 20.541 12.5294C20.541 12.1981 20.2724 11.9294 19.941 11.9294ZM18.76 16.8876C18.4885 16.6977 18.1144 16.7638 17.9245 17.0353C17.6182 17.4732 17.2684 17.8785 16.8814 18.245C16.6408 18.4729 16.6305 18.8527 16.8583 19.0933C17.0862 19.3339 17.4659 19.3442 17.7065 19.1163C18.1521 18.6943 18.5549 18.2276 18.9078 17.7232C19.0977 17.4516 19.0316 17.0776 18.76 16.8876Z" fill="#272A35"/>
<path fill-rule="evenodd" clip-rule="evenodd" d="M19.7996 9.21179V5.89708L16.4848 9.21179H19.7996ZM19.9996 10.4118H16.002C15.1111 10.4118 14.6649 9.33464 15.2949 8.70468L19.2924 4.70713C19.9224 4.07716 20.9996 4.52333 20.9996 5.41423V9.41178C20.9996 9.96407 20.5518 10.4118 19.9996 10.4118Z" fill="#272A35"/>
</svg>
