<svg width="16" height="16" viewBox="0 0 16 16" fill="none" xmlns="http://www.w3.org/2000/svg">
<path fill-rule="evenodd" clip-rule="evenodd" d="M11.5196 12.2267L3.77333 4.48044C2.97757 5.43473 2.5 6.66086 2.5 8C2.5 11.0376 4.96243 13.5 8 13.5C9.33914 13.5 10.5653 13.0224 11.5196 12.2267ZM12.2267 11.5196L4.48044 3.77333C5.43473 2.97757 6.66086 2.5 8 2.5C11.0376 2.5 13.5 4.96243 13.5 8C13.5 9.33914 13.0224 10.5653 12.2267 11.5196ZM12.9362 12.2291C13.911 11.0923 14.5 9.61495 14.5 8C14.5 4.41015 11.5899 1.5 8 1.5C6.38505 1.5 4.90766 2.08895 3.77089 3.06379C3.64421 3.17243 3.52175 3.28586 3.40381 3.40381C3.28586 3.52175 3.17243 3.64421 3.06379 3.77089C2.08895 4.90766 1.5 6.38505 1.5 8C1.5 11.5899 4.41015 14.5 8 14.5C9.61495 14.5 11.0923 13.911 12.2291 12.9362C12.3558 12.8276 12.4782 12.7141 12.5962 12.5962C12.7141 12.4782 12.8276 12.3558 12.9362 12.2291Z" fill="#272A35"/>
</svg>
