<svg width="40" height="40" viewBox="0 0 40 40" fill="none" xmlns="http://www.w3.org/2000/svg">
<path fill-rule="evenodd" clip-rule="evenodd" d="M10.625 6C9.10622 6 7.875 7.23122 7.875 8.75V11.5H8.75C9.30228 11.5 9.75 11.9477 9.75 12.5C9.75 13.0523 9.30228 13.5 8.75 13.5H7.875V22.75H8.75C9.30229 22.75 9.75 23.1977 9.75 23.75C9.75 24.3023 9.30229 24.75 8.75 24.75H7.875V27.5C7.875 29.0188 9.10622 30.25 10.625 30.25H31.25C32.7688 30.25 34 29.0188 34 27.5V8.75C34 7.23122 32.7688 6 31.25 6H10.625ZM30.25 32.25H26.625V33.125C26.625 33.6082 27.0168 34 27.5 34H29.375C29.8582 34 30.25 33.6082 30.25 33.125V32.25ZM24.625 32.25H17.25V33.125C17.25 34.7128 15.9628 36 14.375 36H12.5C10.9122 36 9.625 34.7128 9.625 33.125L9.625 32.1446C7.48183 31.6853 5.875 29.7803 5.875 27.5V24.75H5C4.44772 24.75 4 24.3023 4 23.75C4 23.1977 4.44772 22.75 5 22.75H5.875V13.5H5C4.44772 13.5 4 13.0523 4 12.5C4 11.9477 4.44772 11.5 5 11.5H5.875V8.75C5.875 6.12665 8.00165 4 10.625 4H31.25C33.8734 4 36 6.12665 36 8.75V27.5C36 29.7803 34.3932 31.6853 32.25 32.1446L32.25 33.125C32.25 34.7128 30.9628 36 29.375 36H27.5C25.9122 36 24.625 34.7128 24.625 33.125V32.25ZM11.625 32.25V33.125C11.625 33.6082 12.0168 34 12.5 34H14.375C14.8582 34 15.25 33.6082 15.25 33.125V32.25H11.625ZM21.875 9.625C22.4273 9.625 22.875 10.0727 22.875 10.625V11.575C25.7333 12.0077 27.9923 14.2667 28.425 17.125H29.375C29.9273 17.125 30.375 17.5727 30.375 18.125C30.375 18.6773 29.9273 19.125 29.375 19.125H28.425C27.9923 21.9833 25.7333 24.2423 22.875 24.675V25.625C22.875 26.1773 22.4273 26.625 21.875 26.625C21.3227 26.625 20.875 26.1773 20.875 25.625V24.675C18.0167 24.2423 15.7577 21.9833 15.325 19.125H14.375C13.8227 19.125 13.375 18.6773 13.375 18.125C13.375 17.5727 13.8227 17.125 14.375 17.125H15.325C15.7577 14.2667 18.0167 12.0077 20.875 11.575V10.625C20.875 10.0727 21.3227 9.625 21.875 9.625ZM21.875 13.5C19.3207 13.5 17.25 15.5707 17.25 18.125C17.25 20.6793 19.3207 22.75 21.875 22.75C24.4293 22.75 26.5 20.6793 26.5 18.125C26.5 15.5707 24.4293 13.5 21.875 13.5Z" fill="#272A35"/>
</svg>
