<svg width="40" height="40" viewBox="0 0 40 40" fill="none" xmlns="http://www.w3.org/2000/svg">
<path fill-rule="evenodd" clip-rule="evenodd" d="M9.95881 10.5422L28.7041 10.5422C29.2564 10.5422 29.7041 10.9899 29.7041 11.5422C29.7041 12.0945 29.2564 12.5422 28.7041 12.5422L9.95881 12.5422C7.70123 12.5422 5.93774 14.2933 5.93774 16.3727L5.93775 18.6271C5.93775 19.1794 5.49003 19.6271 4.93774 19.6271C4.38546 19.6271 3.93775 19.1794 3.93775 18.6271L3.93774 16.3727C3.93775 13.1165 6.67028 10.5422 9.95881 10.5422ZM35.0642 20.8475C35.6164 20.8475 36.0642 21.2952 36.0642 21.8475V24.1019C36.0642 27.3581 33.3316 29.9324 30.0431 29.9324L11.2978 29.9324C10.7455 29.9324 10.2978 29.4847 10.2978 28.9324C10.2978 28.3802 10.7455 27.9324 11.2978 27.9324L30.0431 27.9324C32.3007 27.9324 34.0642 26.1813 34.0642 24.1019V21.8475C34.0642 21.2952 34.5119 20.8475 35.0642 20.8475Z" fill="#272A35"/>
<path fill-rule="evenodd" clip-rule="evenodd" d="M9.65501 31.7029L6.35539 28.4103L9.7133 25.1727L9.65501 31.7029ZM8.21524 33.0911C9.47628 34.3494 11.6584 33.485 11.6741 31.7209L11.7324 25.1907C11.7482 23.4259 9.58051 22.523 8.29758 23.76L4.93967 26.9976C4.14451 27.7642 4.13374 29.0182 4.91562 29.7985L8.21524 33.0911Z" fill="#272A35"/>
<path fill-rule="evenodd" clip-rule="evenodd" d="M30.3447 14.7959L33.6444 11.5033L30.2865 8.26569L30.3447 14.7959ZM31.7845 16.1841C30.5235 17.4424 28.3414 16.578 28.3256 14.8139L28.2673 8.28368C28.2516 6.51891 30.4192 5.61601 31.7022 6.85298L35.0601 10.0906C35.8552 10.8573 35.866 12.1113 35.0841 12.8915L31.7845 16.1841Z" fill="#272A35"/>
</svg>
