<svg width="40" height="40" viewBox="0 0 40 40" fill="none" xmlns="http://www.w3.org/2000/svg">
<path fill-rule="evenodd" clip-rule="evenodd" d="M7.10526 8.03158V6.03846C7.10526 5.48618 6.65755 5.03846 6.10526 5.03846C5.55298 5.03846 5.10526 5.48618 5.10526 6.03846V10.2692C5.10526 10.8215 5.55298 11.2692 6.10526 11.2692H10.4474C10.9997 11.2692 11.4474 10.8215 11.4474 10.2692C11.4474 9.71695 10.9997 9.26923 10.4474 9.26923H8.68832C11.5145 6.33589 15.5339 4.5 20 4.5C28.5851 4.5 35.5 11.2745 35.5 19.5769C35.5 20.1292 35.9477 20.5769 36.5 20.5769C37.0523 20.5769 37.5 20.1292 37.5 19.5769C37.5 10.1213 29.6403 2.5 20 2.5C14.9012 2.5 10.306 4.62933 7.10526 8.03158ZM16.9272 11.1857C16.9091 11.1847 16.891 11.1842 16.8727 11.1842C16.3204 11.1842 15.8727 11.6319 15.8727 12.1842V19.2421H13.9211C13.3688 19.2421 12.9211 19.6898 12.9211 20.2421C12.9211 20.7944 13.3688 21.2421 13.9211 21.2421H15.8727V23.6614H13.9219C13.3696 23.6614 12.9219 24.1091 12.9219 24.6614C12.9219 25.2137 13.3696 25.6614 13.9219 25.6614H15.8727V27.8158C15.8727 28.3681 16.3204 28.8158 16.8727 28.8158C17.4249 28.8158 17.8727 28.3681 17.8727 27.8158V25.6614H23.4094C23.9617 25.6614 24.4094 25.2137 24.4094 24.6614C24.4094 24.1091 23.9617 23.6614 23.4094 23.6614H17.8727V21.2424H21.4988C24.4578 21.2424 27.0785 19.1059 27.0785 16.2125C27.0785 13.3187 24.4572 11.1842 21.4988 11.1842H16.9818C16.9635 11.1842 16.9453 11.1847 16.9272 11.1857ZM17.8727 19.2424H21.4988C23.6006 19.2424 25.0785 17.7691 25.0785 16.2125C25.0785 14.6564 23.6012 13.1842 21.4988 13.1842H17.8727V19.2424ZM3.5 19.4231C4.05228 19.4231 4.5 19.8708 4.5 20.4231C4.5 28.7255 11.4149 35.5 20 35.5C24.4661 35.5 28.4855 33.6641 31.3117 30.7308H29.5526C29.0003 30.7308 28.5526 30.2831 28.5526 29.7308C28.5526 29.1785 29.0003 28.7308 29.5526 28.7308H33.8947C34.447 28.7308 34.8947 29.1785 34.8947 29.7308V33.9615C34.8947 34.5138 34.447 34.9615 33.8947 34.9615C33.3425 34.9615 32.8947 34.5138 32.8947 33.9615V31.9684C29.694 35.3707 25.0988 37.5 20 37.5C10.3597 37.5 2.5 29.8787 2.5 20.4231C2.5 19.8708 2.94772 19.4231 3.5 19.4231Z" fill="#272A35"/>
</svg>
