<svg width="40" height="40" viewBox="0 0 40 40" fill="none" xmlns="http://www.w3.org/2000/svg">
<path fill-rule="evenodd" clip-rule="evenodd" d="M4 7.30769C4 5.68494 5.10316 4 6.875 4H33.125C34.8968 4 36 5.68494 36 7.30769V14.2308C36 15.8535 34.8968 17.5385 33.125 17.5385H32.25V30.3846C32.25 33.2819 30.3074 36 27.5 36H12.5C9.69263 36 7.75 33.2819 7.75 30.3846L7.75 17.5385H6.875C5.10316 17.5385 4 15.8535 4 14.2308V7.30769ZM9.75 16.5385L9.75 30.3846C9.75 32.5854 11.1652 34 12.5 34H24.625L24.625 10.6154H15.375L15.375 14.2308C15.375 14.7831 14.9273 15.2308 14.375 15.2308C13.8227 15.2308 13.375 14.7831 13.375 14.2308L13.375 10.6154H10.625C10.3258 10.6154 9.75 10.9968 9.75 11.9231V16.5385ZM10.625 8.61538C8.85316 8.61538 7.75 10.3003 7.75 11.9231L7.75 15.5385H6.875C6.57577 15.5385 6 15.157 6 14.2308V7.30769C6 6.38144 6.57577 6 6.875 6H33.125C33.4242 6 34 6.38144 34 7.30769V14.2308C34 15.157 33.4242 15.5385 33.125 15.5385H32.25V11.9231C32.25 10.3003 31.1468 8.61538 29.375 8.61538L10.625 8.61538ZM26.625 10.6154L26.625 34H27.5C28.8348 34 30.25 32.5854 30.25 30.3846V11.9231C30.25 10.9968 29.6742 10.6154 29.375 10.6154H26.625ZM14.375 20.1538C14.9273 20.1538 15.375 20.6016 15.375 21.1538V23.4615C15.375 24.0138 14.9273 24.4615 14.375 24.4615C13.8227 24.4615 13.375 24.0138 13.375 23.4615V21.1538C13.375 20.6016 13.8227 20.1538 14.375 20.1538Z" fill="#272A35"/>
</svg>
