<svg width="40" height="40" viewBox="0 0 40 40" fill="none" xmlns="http://www.w3.org/2000/svg">
<path fill-rule="evenodd" clip-rule="evenodd" d="M9.28571 6C7.47106 6 6 7.47106 6 9.28571V30.7143C6 32.5289 7.47106 34 9.28571 34H30.7143C32.5289 34 34 32.5289 34 30.7143V16.7143H28.5714C25.6522 16.7143 23.2857 14.3478 23.2857 11.4286V6H9.28571ZM25.2857 7.41421L32.5858 14.7143H28.5714C26.7568 14.7143 25.2857 13.2432 25.2857 11.4286V7.41421ZM4 9.28571C4 6.36649 6.36649 4 9.28571 4H24.2857C24.5509 4 24.8053 4.10536 24.9928 4.29289L35.7071 15.0072C35.8946 15.1947 36 15.4491 36 15.7143V30.7143C36 33.6335 33.6335 36 30.7143 36H9.28571C6.36649 36 4 33.6335 4 30.7143V9.28571ZM20.7071 19.2929C21.0976 19.6834 21.0976 20.3166 20.7071 20.7071L16.508 24.9062C15.2807 26.1335 13.2907 26.1335 12.0634 24.9062L10.7215 23.5642C10.3309 23.1737 10.3309 22.5406 10.7215 22.15C11.112 21.7595 11.7452 21.7595 12.1357 22.15L13.4776 23.492C13.9239 23.9383 14.6475 23.9383 15.0938 23.492L19.2929 19.2929C19.6834 18.9024 20.3166 18.9024 20.7071 19.2929Z" fill="#272A35"/>
</svg>
