<svg width="40" height="40" viewBox="0 0 40 40" fill="none" xmlns="http://www.w3.org/2000/svg">
<path fill-rule="evenodd" clip-rule="evenodd" d="M14.3103 6C12.5773 6 11.1724 7.4049 11.1724 9.13793V25.6897C11.1724 27.4227 12.5773 28.8276 14.3103 28.8276H30.8621C32.5951 28.8276 34 27.4227 34 25.6897V16.3448H28.7931C25.9555 16.3448 23.6552 14.0445 23.6552 11.2069V6H14.3103ZM25.6552 7.41421L32.5858 14.3448H28.7931C27.0601 14.3448 25.6552 12.9399 25.6552 11.2069V7.41421ZM9.26967 8.13793C9.735 5.779 11.8149 4 14.3103 4H24.6552C24.9204 4 25.1747 4.10536 25.3623 4.29289L35.7071 14.6377C35.8946 14.8253 36 15.0796 36 15.3448V25.6897C36 28.1851 34.221 30.265 31.8621 30.7303V30.8621C31.8621 33.6997 29.5617 36 26.7241 36H9.13793C6.30033 36 4 33.6997 4 30.8621V13.2759C4 10.4383 6.30033 8.13793 9.13793 8.13793H9.26967ZM9.17241 10.1379H9.13793C7.4049 10.1379 6 11.5428 6 13.2759V30.8621C6 32.5951 7.4049 34 9.13793 34H26.7241C28.4572 34 29.8621 32.5951 29.8621 30.8621V30.8276H14.3103C11.4727 30.8276 9.17241 28.5273 9.17241 25.6897V10.1379Z" fill="#272A35"/>
</svg>
