<svg width="16" height="16" viewBox="0 0 16 16" fill="none" xmlns="http://www.w3.org/2000/svg">
<path fill-rule="evenodd" clip-rule="evenodd" d="M6.31159 5.63497C6.5169 5.4503 6.83304 5.46704 7.0177 5.67235L8.81085 7.66594C8.98187 7.85608 8.98185 8.14463 8.81079 8.33474L7.01765 10.3277C6.83295 10.5329 6.5168 10.5496 6.31152 10.3649C6.10624 10.1802 6.08956 9.86407 6.27426 9.65879L7.31662 8.50031H2C1.72386 8.50031 1.5 8.27645 1.5 8.00031C1.5 7.72417 1.72386 7.50031 2 7.50031H7.31688L6.27421 6.34109C6.08954 6.13578 6.10628 5.81964 6.31159 5.63497Z" fill="#272A35"/>
<path fill-rule="evenodd" clip-rule="evenodd" d="M4.663 1.79531C7.23182 1.40151 9.83873 1.40156 12.4075 1.79546C12.4247 1.79809 12.4417 1.8016 12.4585 1.806C12.9233 1.92776 13.338 2.19503 13.6536 2.56652C13.9688 2.93759 14.1724 3.39717 14.2443 3.88592L14.2459 3.89688L14.2458 3.89689C14.5847 6.61985 14.5847 9.38012 14.2458 12.1031L14.2447 12.1116L14.2447 12.1116C14.1714 12.6278 13.9482 13.111 13.6004 13.4888C13.2521 13.8673 12.7957 14.1209 12.2948 14.2036L12.2903 14.2044L12.2903 14.2044C9.76058 14.5985 7.1921 14.5985 4.66232 14.2046C4.15793 14.1288 3.69856 13.8741 3.35284 13.4905C3.00842 13.1083 2.79462 12.6188 2.73714 12.1002C2.6659 11.5399 2.61033 10.9753 2.5696 10.4102C2.54976 10.1348 2.75694 9.89542 3.03237 9.87557C3.3078 9.85572 3.54717 10.0629 3.56702 10.3383C3.60659 10.8874 3.66058 11.4353 3.72968 11.9782L3.73081 11.9871L3.73073 11.9872C3.76566 12.3076 3.8967 12.6002 4.09567 12.821C4.29401 13.0411 4.54701 13.1763 4.81174 13.2158L4.81484 13.2163C7.24227 13.5944 9.70655 13.5946 12.134 13.2167C12.4039 13.1716 12.6608 13.033 12.8646 12.8116C13.0687 12.5899 13.2074 12.2977 13.254 11.975C13.5819 9.3375 13.5819 6.66376 13.2542 4.02623C13.2079 3.71769 13.0798 3.43567 12.8915 3.21397C12.7081 2.99814 12.4768 2.8499 12.2282 2.77966C9.76852 2.40537 7.27304 2.40678 4.81363 2.7839L4.81176 2.78419L4.81176 2.78419C4.54703 2.82375 4.29403 2.95897 4.09569 3.17905C3.89672 3.39982 3.76567 3.69241 3.73073 4.01287L3.72975 4.02182L3.72967 4.02181C3.66111 4.56043 3.60611 5.11618 3.56565 5.68417C3.54603 5.95962 3.30683 6.167 3.03139 6.14738C2.75594 6.12776 2.54856 5.88856 2.56818 5.61312C2.60981 5.02875 2.66642 4.456 2.73714 3.89978C2.79465 3.3812 3.00845 2.89172 3.35286 2.50957C3.69872 2.12581 4.15834 1.87097 4.663 1.79531Z" fill="#272A35"/>
</svg>
