<svg width="24" height="24" viewBox="0 0 24 24" fill="none" xmlns="http://www.w3.org/2000/svg">
<path fill-rule="evenodd" clip-rule="evenodd" d="M11.9999 1.40002C12.3313 1.40002 12.5999 1.66865 12.5999 2.00002V7.92558L16.1228 5.0788C16.3805 4.87053 16.7583 4.91063 16.9666 5.16837C17.1749 5.42611 17.1348 5.80388 16.877 6.01216L12.377 9.64852C12.157 9.82628 11.8428 9.82628 11.6228 9.64852L7.12279 6.01216C6.86505 5.80388 6.82495 5.42611 7.03323 5.16837C7.2415 4.91063 7.61928 4.87053 7.87701 5.0788L11.3999 7.92558V2.00002C11.3999 1.66865 11.6685 1.40002 11.9999 1.40002ZM2.3999 12C2.3999 11.6687 2.66853 11.4 2.9999 11.4H20.9999C21.3313 11.4 21.5999 11.6687 21.5999 12C21.5999 12.3314 21.3313 12.6 20.9999 12.6H2.9999C2.66853 12.6 2.3999 12.3314 2.3999 12ZM11.3999 16.0745L7.87701 18.9212C7.61928 19.1295 7.2415 19.0894 7.03323 18.8317C6.82495 18.5739 6.86505 18.1962 7.12279 17.9879L11.6228 14.3515C11.8428 14.1738 12.157 14.1738 12.377 14.3515L16.877 17.9879C17.1348 18.1962 17.1749 18.5739 16.9666 18.8317C16.7583 19.0894 16.3805 19.1295 16.1228 18.9212L12.5999 16.0745V22C12.5999 22.3314 12.3313 22.6 11.9999 22.6C11.6685 22.6 11.3999 22.3314 11.3999 22V16.0745Z" fill="#272A35"/>
</svg>
