<svg width="40" height="40" viewBox="0 0 40 40" fill="none" xmlns="http://www.w3.org/2000/svg">
<path fill-rule="evenodd" clip-rule="evenodd" d="M12 16.8616C12 16.8623 12 16.863 12 16.8636L12.0003 16.9336C12.0023 17.4303 11.6394 17.8533 11.1481 17.9267C8.27093 18.3568 6 20.9639 6 24.1818C6 27.7136 8.72772 30.5 12 30.5L12.0085 30.5L12.0102 30.5L29 30.5C31.72 30.5 34 28.1817 34 25.2273C34 22.2729 31.72 19.9545 29 19.9545C27.0936 19.9545 25.4127 21.0841 24.5678 22.7845C24.322 23.2791 23.7218 23.4808 23.2272 23.2351C22.7326 22.9893 22.5309 22.3891 22.7767 21.8945C23.4348 20.5701 24.4791 19.4747 25.7613 18.7779C25.9168 18.1686 26 17.5271 26 16.8636C26 12.7545 22.8246 9.5 19 9.5C15.176 9.5 12.001 12.7534 12 16.8616ZM27.9297 18.0389C27.9761 17.6536 28 17.2614 28 16.8636C28 11.7346 24.012 7.5 19 7.5C14.233 7.5 10.3924 11.3307 10.0282 16.1182C6.538 17.0367 4 20.3237 4 24.1818C4 28.7335 7.5403 32.5 12 32.5L12.0118 32.5L29 32.5C32.9074 32.5 36 29.2015 36 25.2273C36 21.253 32.9074 17.9545 29 17.9545C28.6357 17.9545 28.2783 17.9834 27.9297 18.0389Z" fill="#272A35"/>
</svg>
