<svg width="32" height="32" viewBox="0 0 32 32" fill="none" xmlns="http://www.w3.org/2000/svg">
<path fill-rule="evenodd" clip-rule="evenodd" d="M12.6105 27.0667L16.8132 27.0667L12.6105 23.2386L12.6105 27.0667ZM11.0105 23.0122C11.0105 21.7093 12.5574 21.0259 13.5206 21.9033L18.0816 26.0577C19.0947 26.9805 18.4418 28.6667 17.0715 28.6667L12.5105 28.6667C11.6821 28.6667 11.0105 27.9951 11.0105 27.1667L11.0105 23.0122Z" fill="#272A35"/>
<path fill-rule="evenodd" clip-rule="evenodd" d="M27.9381 13.7782C28.2274 14.1121 28.1913 14.6173 27.8574 14.9067L16.5024 24.7464C16.1685 25.0358 15.6632 24.9996 15.3739 24.6657C15.0845 24.3318 15.1207 23.8266 15.4546 23.5372L26.8096 13.6975C27.1435 13.4082 27.6488 13.4443 27.9381 13.7782Z" fill="#272A35"/>
<path fill-rule="evenodd" clip-rule="evenodd" d="M20.0565 4.26658L15.8538 4.26658L20.0565 8.09467L20.0565 4.26658ZM21.6565 8.32102C21.6565 9.62393 20.1096 10.3073 19.1464 9.42995L14.5854 5.2755C13.5723 4.35273 14.2252 2.66658 15.5955 2.66658L20.1565 2.66658C20.9849 2.66658 21.6565 3.33815 21.6565 4.16658L21.6565 8.32102Z" fill="#272A35"/>
<path fill-rule="evenodd" clip-rule="evenodd" d="M4.72889 17.5552C4.43955 17.2213 4.47567 16.716 4.80957 16.4267L16.1646 6.58696C16.4985 6.29761 17.0038 6.33374 17.2931 6.66764C17.5824 7.00154 17.5463 7.50679 17.2124 7.79613L5.85738 17.6359C5.52348 17.9252 5.01824 17.8891 4.72889 17.5552Z" fill="#272A35"/>
</svg>
