<svg width="24" height="24" viewBox="0 0 24 24" fill="none" xmlns="http://www.w3.org/2000/svg">
<path fill-rule="evenodd" clip-rule="evenodd" d="M11.9999 3.59999C10.0554 3.59999 8.51659 5.11462 8.51659 6.93749C8.51659 8.76036 10.0554 10.275 11.9999 10.275C13.9445 10.275 15.4833 8.76036 15.4833 6.93749C15.4833 5.11462 13.9445 3.59999 11.9999 3.59999ZM7.31659 6.93749C7.31659 4.41112 9.43414 2.39999 11.9999 2.39999C14.5657 2.39999 16.6833 4.41112 16.6833 6.93749C16.6833 9.46387 14.5657 11.475 11.9999 11.475C9.43414 11.475 7.31659 9.46387 7.31659 6.93749ZM14.6905 14.8204C12.908 14.5265 11.0918 14.5265 9.30932 14.8204L9.10155 14.8547L9.00765 14.2851L9.10155 14.8547C7.09842 15.1849 5.5999 16.9779 5.5999 19.1115C5.5999 19.8416 6.16799 20.4 6.82803 20.4H17.1718C17.8318 20.4 18.3999 19.8416 18.3999 19.1115C18.3999 16.9779 16.9014 15.1849 14.8983 14.8547L14.9959 14.2626L14.8983 14.8547L14.6905 14.8204ZM14.8857 13.6364L14.7881 14.2284L14.8857 13.6364L15.0935 13.6706C17.7038 14.101 19.5999 16.4189 19.5999 19.1115C19.5999 20.4673 18.531 21.6 17.1718 21.6H6.82803C5.46878 21.6 4.3999 20.4673 4.3999 19.1115C4.3999 16.4189 6.29603 14.101 8.90634 13.6706L9.11412 13.6364L9.21172 14.2284L9.11412 13.6364C11.0258 13.3212 12.974 13.3212 14.8857 13.6364Z" fill="#272A35"/>
</svg>
