<svg width="24" height="24" viewBox="0 0 24 24" fill="none" xmlns="http://www.w3.org/2000/svg">
<path fill-rule="evenodd" clip-rule="evenodd" d="M1.3999 2.50002C1.3999 2.16865 1.66853 1.90002 1.9999 1.90002H21.9999C22.3313 1.90002 22.5999 2.16865 22.5999 2.50002C22.5999 2.8314 22.3313 3.10002 21.9999 3.10002H1.9999C1.66853 3.10002 1.3999 2.8314 1.3999 2.50002ZM1.3999 9.58699C1.3999 9.25562 1.66853 8.98699 1.9999 8.98699H18.4564C20.7448 8.98699 22.5999 10.8421 22.5999 13.1305C22.5999 15.4189 20.7448 17.274 18.4564 17.274H15.7499C15.4185 17.274 15.1499 17.0053 15.1499 16.674C15.1499 16.3426 15.4185 16.074 15.7499 16.074H18.4564C20.0821 16.074 21.3999 14.7561 21.3999 13.1305C21.3999 11.5048 20.0821 10.187 18.4564 10.187H1.9999C1.66853 10.187 1.3999 9.91837 1.3999 9.58699ZM2.0249 16.674C2.0249 16.3426 2.29353 16.074 2.6249 16.074H9.4999C9.83127 16.074 10.0999 16.3426 10.0999 16.674C10.0999 17.0053 9.83127 17.274 9.4999 17.274H2.6249C2.29353 17.274 2.0249 17.0053 2.0249 16.674Z" fill="#272A35"/>
<path fill-rule="evenodd" clip-rule="evenodd" d="M12.8875 16.5433L14.8709 14.5555L14.8365 18.5649L12.8875 16.5433ZM14.3241 19.7619C14.9424 20.4033 16.0129 19.962 16.0206 19.0625L16.0633 14.0783C16.0711 13.1788 15.0083 12.7192 14.379 13.3499L11.9134 15.821C11.5233 16.2119 11.5178 16.8512 11.9011 17.2488L14.3241 19.7619Z" fill="#272A35"/>
</svg>
