<svg width="24" height="24" viewBox="0 0 24 24" fill="none" xmlns="http://www.w3.org/2000/svg">
<path fill-rule="evenodd" clip-rule="evenodd" d="M11.9999 3.10002C7.08457 3.10002 3.0999 7.08469 3.0999 12C3.0999 16.9154 7.08457 20.9 11.9999 20.9C16.9152 20.9 20.8999 16.9154 20.8999 12C20.8999 7.08469 16.9152 3.10002 11.9999 3.10002ZM1.8999 12C1.8999 6.42195 6.42183 1.90002 11.9999 1.90002C17.578 1.90002 22.0999 6.42195 22.0999 12C22.0999 17.5781 17.578 22.1 11.9999 22.1C6.42183 22.1 1.8999 17.5781 1.8999 12ZM15.9603 13.8858L12.6091 10.5347C12.2727 10.1982 11.7272 10.1982 11.3907 10.5347L8.03955 13.8858C7.80524 14.1201 7.42534 14.1201 7.19102 13.8858C6.95671 13.6515 6.95671 13.2716 7.19102 13.0373L10.5422 9.68615C11.3473 8.88107 12.6525 8.88107 13.4576 9.68615L16.8088 13.0373C17.0431 13.2716 17.0431 13.6515 16.8088 13.8858C16.5745 14.1201 16.1946 14.1201 15.9603 13.8858Z" fill="#272A35"/>
</svg>
