<svg width="32" height="32" viewBox="0 0 32 32" fill="none" xmlns="http://www.w3.org/2000/svg">
<path fill-rule="evenodd" clip-rule="evenodd" d="M14.5555 5.80001C13.3843 5.80001 12.4666 6.72299 12.4666 7.82273V14.2747C12.4666 15.3744 13.3843 16.2974 14.5555 16.2974H22.851C23.8234 16.2974 24.7596 16.6747 25.4528 17.3519L27.0932 18.9548C27.524 19.3757 28.1999 19.04 28.1999 18.529V7.82273C28.1999 6.72299 27.2823 5.80001 26.1111 5.80001H14.5555ZM10.8666 11.2568V7.82273C10.8666 5.80459 12.5358 4.20001 14.5555 4.20001H26.1111C28.1308 4.20001 29.7999 5.80459 29.7999 7.82273V18.529C29.7999 20.5328 27.3641 21.4565 25.975 20.0992L24.3346 18.4963C23.9442 18.1149 23.4109 17.8974 22.851 17.8974H21.1059C21.1238 17.9638 21.1333 18.0335 21.1333 18.1055V21.3315C21.1333 23.3496 19.4641 24.9542 17.4444 24.9542H9.14895C8.58904 24.9542 8.05569 25.1717 7.66529 25.5532L6.02487 27.156C4.63577 28.5133 2.19995 27.5896 2.19995 25.5858V14.8795C2.19995 12.8614 3.8691 11.2568 5.88884 11.2568H10.8666ZM19.5606 17.8974C19.5428 17.9638 19.5333 18.0335 19.5333 18.1055V21.3315C19.5333 22.4312 18.6156 23.3542 17.4444 23.3542H9.14895C8.1765 23.3542 7.24025 23.7315 6.5471 24.4088L4.90668 26.0116C4.47587 26.4325 3.79995 26.0968 3.79995 25.5858V14.8795C3.79995 13.7798 4.7176 12.8568 5.88884 12.8568H10.8666V14.2747C10.8666 16.2928 12.5358 17.8974 14.5555 17.8974H19.5606Z" fill="#272A35"/>
</svg>
