<svg width="24" height="24" viewBox="0 0 24 24" fill="none" xmlns="http://www.w3.org/2000/svg">
<path fill-rule="evenodd" clip-rule="evenodd" d="M2.3999 7.00002C2.3999 5.0118 4.01168 3.40002 5.9999 3.40002H17.9999C19.9881 3.40002 21.5999 5.0118 21.5999 7.00002V17C21.5999 18.9883 19.9881 20.6 17.9999 20.6H5.9999C4.01168 20.6 2.3999 18.9883 2.3999 17V7.00002ZM5.9999 4.60002C4.67442 4.60002 3.5999 5.67454 3.5999 7.00002V17C3.5999 18.3255 4.67442 19.4 5.9999 19.4H17.9999C19.3254 19.4 20.3999 18.3255 20.3999 17V7.00002C20.3999 5.67454 19.3254 4.60002 17.9999 4.60002H5.9999Z" fill="#272A35"/>
<path fill-rule="evenodd" clip-rule="evenodd" d="M3.62511 4.53153C3.88386 4.32452 4.26144 4.36647 4.46845 4.62523L10.9067 12.6731C11.4672 13.3736 12.5327 13.3736 13.0931 12.6731L19.5314 4.62523C19.7384 4.36647 20.116 4.32452 20.3747 4.53153C20.6335 4.73853 20.6755 5.11611 20.4684 5.37486L14.0302 13.4227C12.9893 14.7237 11.0105 14.7237 9.96967 13.4227L3.5314 5.37486C3.3244 5.11611 3.36635 4.73853 3.62511 4.53153Z" fill="#272A35"/>
</svg>
