<svg width="24" height="24" viewBox="0 0 24 24" fill="none" xmlns="http://www.w3.org/2000/svg">
<path fill-rule="evenodd" clip-rule="evenodd" d="M11.9999 3.60002C8.47669 3.60002 5.5999 6.51807 5.5999 10.1434C5.5999 12.0084 6.1885 13.9703 7.58801 15.916C8.41735 17.069 9.91022 18.7477 11.0328 19.9687C11.5616 20.5438 12.4382 20.5438 12.967 19.9687C14.0896 18.7477 15.5825 17.069 16.4118 15.916C17.8113 13.9703 18.3999 12.0084 18.3999 10.1434C18.3999 6.51807 15.5231 3.60002 11.9999 3.60002ZM4.3999 10.1434C4.3999 5.87839 7.79113 2.40002 11.9999 2.40002C16.2087 2.40002 19.5999 5.87839 19.5999 10.1434C19.5999 12.2761 18.9225 14.4804 17.386 16.6167C16.5087 17.8363 14.9686 19.5646 13.8504 20.7809C12.8462 21.8731 11.1536 21.8731 10.1495 20.7809C9.03122 19.5646 7.49109 17.8363 6.61383 16.6167C5.07729 14.4804 4.3999 12.2761 4.3999 10.1434ZM11.9999 7.68196C10.6858 7.68196 9.5999 8.77247 9.5999 10.1434C9.5999 11.5144 10.6858 12.6049 11.9999 12.6049C13.314 12.6049 14.3999 11.5144 14.3999 10.1434C14.3999 8.77247 13.314 7.68196 11.9999 7.68196ZM8.3999 10.1434C8.3999 8.13278 10.0003 6.48196 11.9999 6.48196C13.9995 6.48196 15.5999 8.13278 15.5999 10.1434C15.5999 12.1541 13.9995 13.8049 11.9999 13.8049C10.0003 13.8049 8.3999 12.1541 8.3999 10.1434Z" fill="#272A35"/>
</svg>
