<svg width="24" height="24" viewBox="0 0 24 24" fill="none" xmlns="http://www.w3.org/2000/svg">
<path fill-rule="evenodd" clip-rule="evenodd" d="M2.3999 5.57145C2.3999 3.81992 3.8198 2.40002 5.57133 2.40002H18.4285C20.18 2.40002 21.5999 3.81992 21.5999 5.57145V10.7143C21.5999 11.0457 21.3313 11.3143 20.9999 11.3143C20.6685 11.3143 20.3999 11.0457 20.3999 10.7143V5.57145C20.3999 4.48266 19.5173 3.60002 18.4285 3.60002H5.57133C4.48254 3.60002 3.5999 4.48266 3.5999 5.57145V18.4286C3.5999 19.5174 4.48254 20.4 5.57133 20.4H14.5713C14.9027 20.4 15.1713 20.6687 15.1713 21C15.1713 21.3314 14.9027 21.6 14.5713 21.6H5.57133C3.8198 21.6 2.3999 20.1801 2.3999 18.4286V5.57145ZM6.43278 10.29C6.6671 10.0557 7.04699 10.0557 7.28131 10.29L10.2759 13.2847C10.4544 13.4631 10.7516 13.4337 10.8916 13.2237L12.1098 11.3964C12.6698 10.5563 13.8585 10.4386 14.5724 11.1526L20.3999 16.9801V14.5715C20.3999 14.2401 20.6685 13.9715 20.9999 13.9715C21.3313 13.9715 21.5999 14.2401 21.5999 14.5715V18.4286C21.5999 18.76 21.3313 19.0286 20.9999 19.0286H17.1428C16.8114 19.0286 16.5428 18.76 16.5428 18.4286C16.5428 18.0972 16.8114 17.8286 17.1428 17.8286H19.5514L13.7239 12.0011C13.5454 11.8226 13.2482 11.852 13.1082 12.0621L11.89 13.8893C11.33 14.7294 10.1413 14.8471 9.42739 14.1332L6.43278 11.1386C6.19847 10.9043 6.19847 10.5244 6.43278 10.29Z" fill="#272A35"/>
</svg>
