<svg width="32" height="32" viewBox="0 0 32 32" fill="none" xmlns="http://www.w3.org/2000/svg">
<path fill-rule="evenodd" clip-rule="evenodd" d="M16 4.29995C9.53822 4.29995 4.29995 9.53822 4.29995 16C4.29995 22.4617 9.53822 27.6999 16 27.6999C22.4617 27.6999 27.6999 22.4617 27.6999 16C27.6999 9.53822 22.4617 4.29995 16 4.29995ZM2.69995 16C2.69995 8.65456 8.65456 2.69995 16 2.69995C23.3453 2.69995 29.2999 8.65456 29.2999 16C29.2999 23.3453 23.3453 29.2999 16 29.2999C8.65456 29.2999 2.69995 23.3453 2.69995 16ZM21.2035 18.4887L16.7941 14.0793C16.3555 13.6407 15.6444 13.6407 15.2058 14.0793L10.7964 18.4887C10.484 18.8011 9.97745 18.8011 9.66503 18.4887C9.35262 18.1763 9.35262 17.6698 9.66503 17.3573L14.0744 12.9479C15.1379 11.8845 16.862 11.8845 17.9255 12.9479L22.3349 17.3573C22.6473 17.6698 22.6473 18.1763 22.3349 18.4887C22.0224 18.8011 21.5159 18.8011 21.2035 18.4887Z" fill="#272A35"/>
</svg>
