<svg width="32" height="32" viewBox="0 0 32 32" fill="none" xmlns="http://www.w3.org/2000/svg">
<path fill-rule="evenodd" clip-rule="evenodd" d="M6.19995 5.00001C6.19995 4.55818 6.55812 4.20001 6.99995 4.20001H25C25.4418 4.20001 25.7999 4.55818 25.7999 5.00001C25.7999 5.44184 25.4418 5.80001 25 5.80001H23.8633C23.9514 6.03754 24 6.29597 24 6.57144V8.27766C24 11.6348 21.8447 14.5569 18.6595 16C21.8447 17.4431 24 20.3652 24 23.7224V25.4286C24 25.7041 23.9514 25.9625 23.8633 26.2H25C25.4418 26.2 25.7999 26.5582 25.7999 27C25.7999 27.4418 25.4418 27.8 25 27.8H6.99995C6.55812 27.8 6.19995 27.4418 6.19995 27C6.19995 26.5582 6.55812 26.2 6.99995 26.2H8.13663C8.04853 25.9625 7.99995 25.7041 7.99995 25.4286V23.7224C7.99995 20.3652 10.1552 17.4431 13.3404 16C10.1552 14.5569 7.99995 11.6348 7.99995 8.27766V6.57144C7.99995 6.29597 8.04853 6.03754 8.13663 5.80001H6.99995C6.55812 5.80001 6.19995 5.44184 6.19995 5.00001ZM10.6 5.80001C9.94218 5.80001 9.59995 6.24397 9.59995 6.57144V8.27766C9.59995 11.448 12.0847 14.3267 15.8058 15.1388C15.9329 15.1665 16.067 15.1665 16.1941 15.1388C19.9152 14.3267 22.4 11.448 22.4 8.27766V6.57144C22.4 6.24397 22.0577 5.80001 21.4 5.80001H10.6ZM10.6 26.2H21.4C22.0577 26.2 22.4 25.756 22.4 25.4286V23.7224C22.4 20.552 19.9152 17.6734 16.1941 16.8612C16.067 16.8335 15.9329 16.8335 15.8058 16.8612C12.0847 17.6734 9.59995 20.552 9.59995 23.7224V25.4286C9.59995 25.756 9.94218 26.2 10.6 26.2Z" fill="#272A35"/>
</svg>
