<svg width="32" height="32" viewBox="0 0 32 32" fill="none" xmlns="http://www.w3.org/2000/svg">
<path fill-rule="evenodd" clip-rule="evenodd" d="M16.6235 5.31562C16.2404 5.08265 15.7595 5.08265 15.3764 5.31562L5.65541 11.2278L15.4658 16.1043C15.8023 16.2716 16.1976 16.2716 16.5341 16.1043L26.3445 11.2278L16.6235 5.31562ZM27.2 12.5893L17.2463 17.5371C16.4612 17.9273 15.5387 17.9273 14.7536 17.5371L4.79995 12.5893V23C4.79995 25.3196 6.68036 27.2 8.99995 27.2H23C25.3195 27.2 27.2 25.3196 27.2 23V12.5893ZM14.545 3.9486C15.4388 3.40499 16.5611 3.40499 17.4549 3.9486L28.4157 10.6148C28.6543 10.7599 28.7999 11.019 28.7999 11.2983V23C28.7999 26.2033 26.2032 28.8 23 28.8H8.99995C5.7967 28.8 3.19995 26.2033 3.19995 23V11.2983C3.19995 11.019 3.34562 10.7599 3.58425 10.6148L14.545 3.9486Z" fill="#272A35"/>
</svg>
