<svg width="16" height="16" viewBox="0 0 16 16" fill="none" xmlns="http://www.w3.org/2000/svg">
<path fill-rule="evenodd" clip-rule="evenodd" d="M2 1.5C2.27614 1.5 2.5 1.72386 2.5 2V8.98921L4.09533 7.29417C4.49017 6.87466 5.15689 6.87466 5.55173 7.29417L7.64706 9.52046L12.1369 4.75H10.4706C10.1944 4.75 9.97059 4.52614 9.97059 4.25C9.97059 3.97386 10.1944 3.75 10.4706 3.75H13.2941C13.5703 3.75 13.7941 3.97386 13.7941 4.25V7.25C13.7941 7.52614 13.5703 7.75 13.2941 7.75C13.018 7.75 12.7941 7.52614 12.7941 7.25V5.51079L8.37526 10.2058C7.98042 10.6253 7.3137 10.6253 6.91886 10.2058L4.82353 7.97954L2.5 10.4483V12C2.5 12.8284 3.17157 13.5 4 13.5H14C14.2761 13.5 14.5 13.7239 14.5 14C14.5 14.2761 14.2761 14.5 14 14.5H4C2.61929 14.5 1.5 13.3807 1.5 12V2C1.5 1.72386 1.72386 1.5 2 1.5Z" fill="#272A35"/>
</svg>
