<svg width="32" height="32" viewBox="0 0 32 32" fill="none" xmlns="http://www.w3.org/2000/svg">
<path fill-rule="evenodd" clip-rule="evenodd" d="M16.7999 4.08333C16.7999 3.6415 16.4417 3.28333 15.9999 3.28333C15.558 3.28333 15.1999 3.6415 15.1999 4.08333V10.6445C15.4608 10.6058 15.7279 10.5858 15.9996 10.5858C16.2715 10.5858 16.5387 10.6059 16.7999 10.6446V4.08333ZM19.2207 11.6478C19.6512 11.967 20.0328 12.3486 20.352 12.7792L24.9919 8.1393C25.3043 7.82688 25.3043 7.32034 24.9919 7.00792C24.6795 6.6955 24.1729 6.6955 23.8605 7.00792L19.2207 11.6478ZM21.355 15.2C21.3937 15.461 21.4137 15.7281 21.4137 15.9999C21.4137 16.2718 21.3937 16.5389 21.355 16.8H27.9165C28.3584 16.8 28.7165 16.4418 28.7165 16C28.7165 15.5582 28.3584 15.2 27.9165 15.2L21.355 15.2ZM20.3519 19.2207C20.0328 19.6513 19.6512 20.0329 19.2206 20.3521L23.8605 24.9921C24.1729 25.3045 24.6795 25.3045 24.9919 24.9921C25.3043 24.6796 25.3043 24.1731 24.9919 23.8607L20.3519 19.2207ZM16.7999 21.3553C16.5387 21.394 16.2715 21.4141 15.9996 21.4141C15.7279 21.4141 15.4608 21.3941 15.1999 21.3554V27.9167C15.1999 28.3585 15.558 28.7167 15.9999 28.7167C16.4417 28.7167 16.7999 28.3585 16.7999 27.9167V21.3553ZM12.7788 20.3523C12.3482 20.0332 11.9666 19.6516 11.6474 19.221L7.00782 23.8606C6.6954 24.1731 6.6954 24.6796 7.00782 24.992C7.32024 25.3044 7.82677 25.3044 8.13919 24.992L12.7788 20.3523ZM10.6442 16.8C10.6055 16.5389 10.5854 16.2718 10.5854 15.9999C10.5854 15.7281 10.6055 15.461 10.6441 15.2L4.0832 15.2C3.64138 15.2 3.2832 15.5582 3.2832 16C3.2832 16.4418 3.64138 16.8 4.0832 16.8H10.6442ZM11.6474 12.7789C11.9666 12.3483 12.3482 11.9668 12.7788 11.6476L8.13919 7.00797C7.82677 6.69555 7.32024 6.69555 7.00782 7.00797C6.6954 7.32039 6.6954 7.82693 7.00782 8.13935L11.6474 12.7789Z" fill="#272A35"/>
</svg>
