<svg width="16" height="16" viewBox="0 0 16 16" fill="none" xmlns="http://www.w3.org/2000/svg">
<path fill-rule="evenodd" clip-rule="evenodd" d="M4.90416 2.52533C4.82465 2.56631 4.75 2.65872 4.75 2.80573V3.84934H6.6492L5.14297 2.55724C5.06278 2.48845 4.97968 2.48641 4.90416 2.52533ZM7.5 4.84934H2.75C2.64423 4.84934 2.5 4.9521 2.5 5.15356V5.95778C2.5 6.15924 2.64423 6.262 2.75 6.262H7.5V4.84934ZM7.5 7.262H3.25V12.3916C3.25 13.0372 3.73001 13.5 4.25 13.5H7.5V7.262ZM8.5 13.5V7.262H12.75V12.3916C12.75 13.0372 12.27 13.5 11.75 13.5H8.5ZM4.25 14.5C3.11313 14.5 2.25 13.5226 2.25 12.3916V7.15489C1.79671 6.94911 1.5 6.47299 1.5 5.95778V5.15356C1.5 4.4667 2.02735 3.84934 2.75 3.84934H3.75V2.80573C3.75 2.2784 4.03907 1.84618 4.44605 1.63644C4.85703 1.42463 5.38319 1.44577 5.79407 1.79824L7.55791 3.31133C7.64182 3.15298 7.80831 3.04511 8 3.04511C8.19169 3.04511 8.35818 3.15298 8.44209 3.31133L10.2059 1.79824C10.6168 1.44577 11.143 1.42463 11.5539 1.63644C11.9609 1.84618 12.25 2.2784 12.25 2.80573V3.84934H13.25C13.9727 3.84934 14.5 4.4667 14.5 5.15356V5.95778C14.5 6.47299 14.2033 6.94911 13.75 7.15489V12.3916C13.75 13.5226 12.8869 14.5 11.75 14.5H4.25ZM13.25 4.84934C13.3558 4.84934 13.5 4.9521 13.5 5.15356V5.95778C13.5 6.15924 13.3558 6.262 13.25 6.262H8.5V4.84934H13.25ZM11.25 3.84934V2.80573C11.25 2.65872 11.1753 2.56631 11.0958 2.52533C11.0203 2.48641 10.9372 2.48845 10.857 2.55724L9.3508 3.84934H11.25Z" fill="#272A35"/>
</svg>
