<svg width="32" height="32" viewBox="0 0 32 32" fill="none" xmlns="http://www.w3.org/2000/svg">
<path fill-rule="evenodd" clip-rule="evenodd" d="M7.42852 4.79995C5.9768 4.79995 4.79995 5.9768 4.79995 7.42852V24.5714C4.79995 26.0231 5.9768 27.2 7.42852 27.2H24.5714C26.0231 27.2 27.2 26.0231 27.2 24.5714V13.3714H22.8571C20.5217 13.3714 18.6285 11.4782 18.6285 9.14281V4.79995H7.42852ZM20.2285 5.93132L26.0686 11.7714H22.8571C21.4054 11.7714 20.2285 10.5945 20.2285 9.14281V5.93132ZM3.19995 7.42852C3.19995 5.09315 5.09315 3.19995 7.42852 3.19995H19.4285C19.6407 3.19995 19.8442 3.28424 19.9942 3.43427L28.5656 12.0057C28.7157 12.1557 28.8 12.3592 28.8 12.5714V24.5714C28.8 26.9068 26.9068 28.8 24.5714 28.8H7.42852C5.09315 28.8 3.19995 26.9068 3.19995 24.5714V7.42852ZM16.5656 15.4343C16.8781 15.7467 16.8781 16.2532 16.5656 16.5656L13.2064 19.9249C12.2245 20.9068 10.6325 20.9068 9.65065 19.9249L8.57712 18.8514C8.2647 18.5389 8.2647 18.0324 8.57712 17.72C8.88954 17.4076 9.39608 17.4076 9.70849 17.72L10.782 18.7935C11.1391 19.1506 11.718 19.1506 12.075 18.7935L15.4343 15.4343C15.7467 15.1218 16.2532 15.1218 16.5656 15.4343Z" fill="#272A35"/>
</svg>
