<svg width="16" height="16" viewBox="0 0 16 16" fill="none" xmlns="http://www.w3.org/2000/svg">
<path fill-rule="evenodd" clip-rule="evenodd" d="M3.02637 3.02488V2.5C3.02637 2.22386 2.80251 2 2.52637 2C2.25022 2 2.02637 2.22386 2.02637 2.5V4.16667C2.02637 4.44281 2.25022 4.66667 2.52637 4.66667H4.23689C4.51304 4.66667 4.73689 4.44281 4.73689 4.16667C4.73689 3.89052 4.51304 3.66667 4.23689 3.66667H3.80097C4.88224 2.63648 6.36339 2 8.00005 2C11.3261 2 14.0001 4.62384 14.0001 7.83333C14.0001 8.10948 14.2239 8.33333 14.5001 8.33333C14.7762 8.33333 15.0001 8.10948 15.0001 7.83333C15.0001 4.04722 11.8537 1 8.00005 1C6.05677 1 4.29588 1.77365 3.02637 3.02488ZM6.78956 4.42151C6.78243 4.4212 6.77527 4.42105 6.76807 4.42105C6.49192 4.42105 6.26807 4.64491 6.26807 4.92105V7.59537H5.60531C5.32917 7.59537 5.10531 7.81923 5.10531 8.09537C5.10531 8.37151 5.32917 8.59537 5.60531 8.59537H6.26807V9.33632H5.60565C5.32951 9.33632 5.10565 9.56017 5.10565 9.83632C5.10565 10.1125 5.32951 10.3363 5.60565 10.3363H6.26807V11.0789C6.26807 11.3551 6.49192 11.5789 6.76807 11.5789C7.04421 11.5789 7.26807 11.3551 7.26807 11.0789V10.3363H9.34315C9.61929 10.3363 9.84315 10.1125 9.84315 9.83632C9.84315 9.56017 9.61929 9.33632 9.34315 9.33632H7.26807V8.59551H8.5905C9.80159 8.59551 10.8946 7.71865 10.8946 6.50796C10.8946 5.29702 9.80131 4.42105 8.5905 4.42105H6.81105C6.80385 4.42105 6.79668 4.4212 6.78956 4.42151ZM7.26807 7.59551H8.5905C9.37303 7.59551 9.89463 7.05028 9.89463 6.50796C9.89463 5.96589 9.3733 5.42105 8.5905 5.42105H7.26807V7.59551Z" fill="#272A35"/>
<path fill-rule="evenodd" clip-rule="evenodd" d="M7.54223 1.01475C7.69362 1.00496 7.84627 1 8 1C8.15373 1 8.30638 1.00496 8.45777 1.01475C8.73334 1.03255 8.94229 1.27038 8.92449 1.54595C8.90668 1.82152 8.66885 2.03047 8.39328 2.01267C8.26334 2.00427 8.1322 2 8 2C7.8678 2 7.73666 2.00427 7.60672 2.01267C7.33115 2.03047 7.09332 1.82152 7.07551 1.54595C7.05771 1.27038 7.26666 1.03255 7.54223 1.01475ZM5.57277 1.94754C5.69509 2.19511 5.59355 2.49497 5.34598 2.61729C5.11044 2.73367 4.88358 2.86509 4.66666 3.01031C4.43719 3.16393 4.12664 3.10245 3.97301 2.87298C3.81939 2.64352 3.88087 2.33296 4.11034 2.17934C4.36334 2.00996 4.62804 1.85661 4.90302 1.72075C5.15059 1.59843 5.45045 1.69996 5.57277 1.94754ZM10.4272 1.94754C10.5496 1.69996 10.8494 1.59843 11.097 1.72075C11.372 1.85661 11.6367 2.00996 11.8897 2.17934C12.1191 2.33296 12.1806 2.64352 12.027 2.87298C11.8734 3.10245 11.5628 3.16393 11.3333 3.01031C11.1164 2.86509 10.8896 2.73367 10.654 2.61729C10.4064 2.49497 10.3049 2.19511 10.4272 1.94754ZM13.127 3.97301C13.3565 3.81939 13.667 3.88087 13.8207 4.11034C13.99 4.36334 14.1434 4.62804 14.2793 4.90302C14.4016 5.15059 14.3 5.45045 14.0525 5.57277C13.8049 5.69509 13.505 5.59355 13.3827 5.34598C13.2663 5.11044 13.1349 4.88358 12.9897 4.66666C12.8361 4.43719 12.8975 4.12664 13.127 3.97301ZM2.87298 3.97301C3.10245 4.12664 3.16393 4.43719 3.01031 4.66666C2.86509 4.88358 2.73367 5.11044 2.61729 5.34598C2.49497 5.59355 2.19511 5.69509 1.94754 5.57277C1.69996 5.45045 1.59843 5.15059 1.72075 4.90302C1.85661 4.62804 2.00996 4.36334 2.17934 4.11034C2.33296 3.88087 2.64352 3.81939 2.87298 3.97301ZM1.54595 7.07551C1.82152 7.09332 2.03047 7.33115 2.01267 7.60672C2.00427 7.73666 2 7.8678 2 8C2 8.1322 2.00427 8.26334 2.01267 8.39328C2.03047 8.66885 1.82152 8.90668 1.54595 8.92449C1.27038 8.94229 1.03255 8.73334 1.01475 8.45777C1.00496 8.30638 1 8.15373 1 8C1 7.84627 1.00496 7.69362 1.01475 7.54223C1.03255 7.26666 1.27038 7.05771 1.54595 7.07551ZM14.4541 7.07551C14.7296 7.05771 14.9674 7.26666 14.9853 7.54223C14.995 7.69362 15 7.84627 15 8C15 8.15373 14.995 8.30638 14.9853 8.45777C14.9674 8.73334 14.7296 8.94229 14.4541 8.92449C14.1785 8.90668 13.9695 8.66885 13.9873 8.39328C13.9957 8.26334 14 8.1322 14 8C14 7.8678 13.9957 7.73666 13.9873 7.60672C13.9695 7.33115 14.1785 7.09332 14.4541 7.07551ZM1.94754 10.4272C2.19511 10.3049 2.49497 10.4064 2.61729 10.654C2.73367 10.8896 2.86509 11.1164 3.01031 11.3333C3.16393 11.5628 3.10245 11.8734 2.87298 12.027C2.64352 12.1806 2.33296 12.1191 2.17934 11.8897C2.00996 11.6367 1.85661 11.372 1.72075 11.097C1.59843 10.8494 1.69996 10.5496 1.94754 10.4272ZM14.0525 10.4272C14.3 10.5496 14.4016 10.8494 14.2793 11.097C14.1434 11.372 13.99 11.6367 13.8207 11.8897C13.667 12.1191 13.3565 12.1806 13.127 12.027C12.8975 11.8734 12.8361 11.5628 12.9897 11.3333C13.1349 11.1164 13.2663 10.8896 13.3827 10.654C13.505 10.4064 13.8049 10.3049 14.0525 10.4272ZM3.97301 13.127C4.12664 12.8975 4.43719 12.8361 4.66666 12.9897C4.88358 13.1349 5.11044 13.2663 5.34598 13.3827C5.59355 13.505 5.69509 13.8049 5.57277 14.0525C5.45045 14.3 5.15059 14.4016 4.90302 14.2793C4.62804 14.1434 4.36334 13.99 4.11034 13.8207C3.88087 13.667 3.81939 13.3565 3.97301 13.127ZM12.027 13.127C12.1806 13.3565 12.1191 13.667 11.8897 13.8207C11.6367 13.99 11.372 14.1434 11.097 14.2793C10.8494 14.4016 10.5496 14.3 10.4272 14.0525C10.3049 13.8049 10.4064 13.505 10.654 13.3827C10.8896 13.2663 11.1164 13.1349 11.3333 12.9897C11.5628 12.8361 11.8734 12.8975 12.027 13.127ZM7.07551 14.4541C7.09332 14.1785 7.33115 13.9695 7.60672 13.9873C7.73666 13.9957 7.8678 14 8 14C8.1322 14 8.26334 13.9957 8.39328 13.9873C8.66885 13.9695 8.90668 14.1785 8.92449 14.4541C8.94229 14.7296 8.73334 14.9674 8.45777 14.9853C8.30638 14.995 8.15373 15 8 15C7.84627 15 7.69362 14.995 7.54223 14.9853C7.26666 14.9674 7.05771 14.7296 7.07551 14.4541Z" fill="#272A35"/>
</svg>
