<svg width="32" height="32" viewBox="0 0 32 32" fill="none" xmlns="http://www.w3.org/2000/svg">
<path fill-rule="evenodd" clip-rule="evenodd" d="M16 4.79995C11.197 4.79995 7.29995 8.70411 7.29995 13.5245C7.29995 16.0075 8.09751 18.6215 9.99683 21.2158C11.1224 22.7532 13.1486 24.9916 14.6722 26.6197C15.3962 27.3934 16.6037 27.3934 17.3277 26.6197C18.8513 24.9916 20.8775 22.7532 22.0031 21.2158C23.9024 18.6215 24.6999 16.0075 24.6999 13.5245C24.6999 8.70411 20.8029 4.79995 16 4.79995ZM5.69995 13.5245C5.69995 7.82434 10.3095 3.19995 16 3.19995C21.6904 3.19995 26.2999 7.82434 26.2999 13.5245C26.2999 16.3716 25.3794 19.3126 23.2941 22.1609C22.1036 23.787 20.0135 26.0913 18.496 27.7129C17.1396 29.1623 14.8603 29.1623 13.5039 27.7129C11.9864 26.0913 9.89632 23.787 8.70583 22.1609C6.62052 19.3126 5.69995 16.3716 5.69995 13.5245ZM16 10.2425C14.1951 10.2425 12.7285 11.71 12.7285 13.5245C12.7285 15.339 14.1951 16.8064 16 16.8064C17.8048 16.8064 19.2714 15.339 19.2714 13.5245C19.2714 11.71 17.8048 10.2425 16 10.2425ZM11.1285 13.5245C11.1285 10.8302 13.3076 8.64254 16 8.64254C18.6923 8.64254 20.8714 10.8302 20.8714 13.5245C20.8714 16.2188 18.6923 18.4064 16 18.4064C13.3076 18.4064 11.1285 16.2188 11.1285 13.5245Z" fill="#272A35"/>
</svg>
