<svg width="32" height="32" viewBox="0 0 32 32" fill="none" xmlns="http://www.w3.org/2000/svg">
<path fill-rule="evenodd" clip-rule="evenodd" d="M16 4.80001C13.5423 4.80001 11.55 6.79235 11.55 9.25001C11.55 11.7077 13.5423 13.7 16 13.7C18.4576 13.7 20.45 11.7077 20.45 9.25001C20.45 6.79235 18.4576 4.80001 16 4.80001ZM9.94998 9.25001C9.94998 5.90869 12.6587 3.20001 16 3.20001C19.3413 3.20001 22.05 5.90869 22.05 9.25001C22.05 12.5913 19.3413 15.3 16 15.3C12.6587 15.3 9.94998 12.5913 9.94998 9.25001ZM19.4499 19.7598C17.1643 19.369 14.8356 19.369 12.55 19.7598L12.2828 19.8054L12.148 19.0169L12.2828 19.8054C9.73949 20.2403 7.79995 22.6142 7.79995 25.482C7.79995 26.4836 8.54512 27.2 9.3504 27.2H22.6495C23.4548 27.2 24.1999 26.4836 24.1999 25.482C24.1999 22.6142 22.2604 20.2403 19.7171 19.8054L19.8519 19.0169L19.7171 19.8054L19.4499 19.7598ZM19.7196 18.1826L19.5969 18.8999L19.7196 18.1826L19.9867 18.2283C23.3749 18.8076 25.7999 21.9148 25.7999 25.482C25.7999 27.2617 24.4404 28.8 22.6495 28.8H9.3504C7.55945 28.8 6.19995 27.2617 6.19995 25.482C6.19995 21.9148 8.62496 18.8076 12.0132 18.2283L12.2803 18.1826L12.4083 18.9311L12.2803 18.1826C14.7444 17.7614 17.2555 17.7614 19.7196 18.1826Z" fill="#272A35"/>
</svg>
