<svg width="40" height="40" viewBox="0 0 40 40" fill="none" xmlns="http://www.w3.org/2000/svg">
<path fill-rule="evenodd" clip-rule="evenodd" d="M8.44597 11.8785C7.0951 11.8785 6 12.9736 6 14.3244V31.0001C6 32.6569 7.34315 34.0001 9 34.0001H25.1218C26.7786 34.0001 28.1218 32.6569 28.1218 31.0001V30.6926C28.1218 30.1403 28.5695 29.6926 29.1218 29.6926C29.6741 29.6926 30.1218 30.1403 30.1218 30.6926V31.0001C30.1218 33.7615 27.8832 36.0001 25.1218 36.0001H9C6.23858 36.0001 4 33.7615 4 31.0001V14.3244C4 11.869 5.99053 9.87846 8.44597 9.87846C8.99825 9.87846 9.44597 10.3262 9.44597 10.8785C9.44597 11.4307 8.99825 11.8785 8.44597 11.8785Z" fill="#272A35"/>
<path fill-rule="evenodd" clip-rule="evenodd" d="M14.8782 27.1216H31C32.1046 27.1216 33 26.2261 33 25.1216V8.99996C33 7.8954 32.1046 6.99996 31 6.99996H14.8782C13.7737 6.99996 12.8782 7.89539 12.8782 8.99997V25.1216C12.8782 26.2261 13.7737 27.1216 14.8782 27.1216ZM31 29.1216C33.2091 29.1216 35 27.3307 35 25.1216V8.99996C35 6.79082 33.2091 4.99996 31 4.99996H14.8782C12.6691 4.99996 10.8782 6.79083 10.8782 8.99997V25.1216C10.8782 27.3307 12.6691 29.1216 14.8782 29.1216H31Z" fill="#272A35"/>
</svg>
