<svg width="40" height="40" viewBox="0 0 40 40" fill="none" xmlns="http://www.w3.org/2000/svg">
<path fill-rule="evenodd" clip-rule="evenodd" d="M2.5 32.9999C2.5 33.5522 2.94772 33.9999 3.5 33.9999H36.5C37.0523 33.9999 37.5 33.5522 37.5 32.9999C37.5 32.4477 37.0523 31.9999 36.5 31.9999H3.5C2.94772 31.9999 2.5 32.4477 2.5 32.9999ZM2.5 21.064C2.5 21.6163 2.94772 22.064 3.5 22.064H30.532C34.3803 22.064 37.5 18.9443 37.5 15.096C37.5 11.2477 34.3803 8.12805 30.532 8.12805H26.1875C25.6352 8.12805 25.1875 8.57577 25.1875 9.12805C25.1875 9.68033 25.6352 10.128 26.1875 10.128H30.532C33.2758 10.128 35.5 12.3523 35.5 15.096C35.5 17.8398 33.2758 20.064 30.532 20.064H3.5C2.94772 20.064 2.5 20.5117 2.5 21.064ZM3.53125 9.12805C3.53125 9.68033 3.97897 10.128 4.53125 10.128H15.875C16.4273 10.128 16.875 9.68033 16.875 9.12805C16.875 8.57577 16.4273 8.12805 15.875 8.12805H4.53125C3.97897 8.12805 3.53125 8.57577 3.53125 9.12805Z" fill="#272A35"/>
<path fill-rule="evenodd" clip-rule="evenodd" d="M24.6814 5.94135L21.4631 9.34866L24.7382 12.6989L24.6814 5.94135ZM23.2834 4.51116C24.507 3.21568 26.6258 4.10781 26.6411 5.92492L26.6978 12.6825C26.7131 14.4992 24.6103 15.4269 23.3649 14.1529L20.0898 10.8026C19.3177 10.0128 19.3066 8.72148 20.0651 7.91847L23.2834 4.51116Z" fill="#272A35"/>
</svg>
