<svg width="16" height="16" viewBox="0 0 16 16" fill="none" xmlns="http://www.w3.org/2000/svg">
<path fill-rule="evenodd" clip-rule="evenodd" d="M3.71429 2.5C3.04365 2.5 2.5 3.04365 2.5 3.71429V12.2857C2.5 12.9563 3.04365 13.5 3.71429 13.5H12.2857C12.9563 13.5 13.5 12.9563 13.5 12.2857V8.85714C13.5 8.581 13.7239 8.35714 14 8.35714C14.2761 8.35714 14.5 8.581 14.5 8.85714V12.2857C14.5 13.5086 13.5086 14.5 12.2857 14.5H3.71429C2.49137 14.5 1.5 13.5086 1.5 12.2857V3.71429C1.5 2.49137 2.49137 1.5 3.71429 1.5H9.71429C9.99043 1.5 10.2143 1.72386 10.2143 2C10.2143 2.27614 9.99043 2.5 9.71429 2.5H3.71429ZM10.9286 3.71429C10.9286 3.43814 11.1524 3.21429 11.4286 3.21429H14C14.2761 3.21429 14.5 3.43814 14.5 3.71429V6.28571C14.5 6.56186 14.2761 6.78571 14 6.78571C13.7239 6.78571 13.5 6.56186 13.5 6.28571V4.92139L9.56425 8.85714C9.17372 9.24767 8.54056 9.24767 8.15004 8.85714L7.14286 7.84996L4.92498 10.0678C4.72972 10.2631 4.41314 10.2631 4.21788 10.0678C4.02261 9.87258 4.02261 9.55599 4.21788 9.36073L6.43575 7.14286C6.82628 6.75233 7.45944 6.75233 7.84996 7.14286L8.85714 8.15004L12.7929 4.21429H11.4286C11.1524 4.21429 10.9286 3.99043 10.9286 3.71429Z" fill="#272A35"/>
</svg>
